<svg width="45" height="45" viewBox="0 0 45 45" fill="none" xmlns="http://www.w3.org/2000/svg">
<rect width="44.6593" height="44.6593" rx="22.3297" fill="#393BC7"/>
<path fill-rule="evenodd" clip-rule="evenodd" d="M20.4355 14.4349C20.1902 13.9184 19.9715 13.4077 19.8106 13.0165C19.7268 12.8127 19.6598 12.6442 19.6143 12.5278C19.5916 12.4697 19.5742 12.4248 19.5629 12.3953C19.5572 12.3805 19.5531 12.3696 19.5505 12.3627L19.5478 12.3557L19.5474 12.3546C19.5475 12.3548 19.5476 12.3549 17.8088 13.0089C16.0701 13.663 16.0702 13.6632 16.0703 13.6634L16.0724 13.6688L16.0771 13.6812C16.081 13.6916 16.0865 13.7063 16.0937 13.7248C16.1079 13.762 16.1284 13.8149 16.1544 13.8817C16.2066 14.0149 16.2815 14.2034 16.3745 14.4296C16.5596 14.8796 16.8211 15.4903 17.1214 16.1166C17.4161 16.7311 17.7739 17.4152 18.1562 17.9857C18.346 18.2689 18.5755 18.5753 18.8413 18.8418C19.0719 19.073 19.5125 19.4632 20.1458 19.6156C21.2636 19.8846 22.0473 19.2077 22.3228 18.925C22.6511 18.588 22.893 18.1802 23.0643 17.8517C23.4213 17.167 23.7371 16.2994 23.9897 15.5191C24.249 14.7177 24.4704 13.9171 24.6256 13.3232C24.7037 13.0246 24.766 12.7745 24.8091 12.5979C24.8307 12.5095 24.8474 12.4394 24.859 12.3906C24.8648 12.3662 24.8693 12.3471 24.8724 12.3337L24.8761 12.3179L24.8776 12.3113C24.8776 12.3112 24.8777 12.311 23.0677 11.893C21.2577 11.475 21.2578 11.4748 21.2578 11.4748L21.2577 11.4749L21.2573 11.477L21.2547 11.4877C21.2524 11.4976 21.2488 11.5131 21.2439 11.5339C21.234 11.5753 21.2191 11.6375 21.1997 11.7174C21.1606 11.8774 21.1033 12.1075 21.0312 12.3836C20.886 12.9389 20.6846 13.6654 20.4549 14.3751C20.4484 14.3951 20.442 14.415 20.4355 14.4349ZM21.4716 16.2179C21.4707 16.2171 21.4699 16.2162 21.469 16.2153C21.4913 16.2341 21.4923 16.2386 21.4716 16.2179Z" fill="#FF8A65"/>
<path fill-rule="evenodd" clip-rule="evenodd" d="M29.6112 16.133L21.551 19.4716L20.2734 16.3872L28.3336 13.0486L29.6112 16.133Z" fill="#FF8A65"/>
<path fill-rule="evenodd" clip-rule="evenodd" d="M24.8384 22.3941H28.2593C28.2593 26.8231 27.5122 33.7951 21.713 33.7951C15.938 33.7951 15.0547 26.7915 15.0547 22.3941H18.4756C18.4756 24.5144 18.4208 30.3816 21.713 30.3816C25.0441 30.3816 24.8384 24.5442 24.8384 22.3941Z" fill="white"/>
<path d="M26.3281 22.3942V25.6792H31.2235V22.3942H26.3281Z" fill="white"/>
</svg>
