<?xml version="1.0" encoding="utf-8"?><svg width="157" height="213" fill="none" xmlns="http://www.w3.org/2000/svg" viewBox="0 0 157 213"><path d="M63.831 141.605a.112.112 0 00-.076-.027c-.015 0-.03.016-.038.019a.116.116 0 01-.067-.017.345.345 0 00-.186-.019c-.139.023-.28.035-.421.038-.192 0-.382-.049-.574-.059a7.063 7.063 0 01-.727-.017.068.068 0 000-.029 1.095 1.095 0 01-.034-.475.407.407 0 00.013-.159c-.07-.42-.156-.857-.228-1.285a117.362 117.362 0 01-.765-5.136 115.8 115.8 0 01-.774-9.004c0-.265-.034-.531-.048-.796a.428.428 0 01.02-.23c.125-.233.52-.254.739-.21.168.434.318.883.461 1.326.234.718.182 1.501.363 2.229.076.302.173.598.25.899.27 1.032.374 2.147.538 3.194.089.569.108 1.226.363 1.748.24.49.148.951.245 1.47.063.342.135.684.21 1.026.064.397.114.796.152 1.194.061.548.108 1.098.16 1.646.036.348.074.695.123 1.049.02.16.052.319.078.477.031.149.07.298.114.443.042.153.044.319.075.474-.006.027.066.202.034.231zM87.32 148.044c-.3.11-.765.242-1.092.149a1.679 1.679 0 01-.761-.596c-.23-.3-.346-.665-.574-.967-.09-.12-.196-.21-.293-.326l-.369-.594c-.196-.392-.474-.801-.548-1.238a1.894 1.894 0 00-.21-.581l-.681-1.344-5.638-11.099c-1.22-2.403-2.74-5.392-2.319-8.584.388-3.027 2.349-5.363 4.246-7.619.18-.212.356-.422.531-.63 1.548-1.857 3.542-4.645 3.03-7.38a5.344 5.344 0 00-1.836-3.02 8.014 8.014 0 00-3.6-1.738c-.372-.075-.77-.258-1.152-.254-1.076.002-2.15.088-3.213.258-.843.145-1.758.282-2.551.613-.272.111-.563.174-.843.269a13.66 13.66 0 00-1.586.533c-1.075.51-2.25.873-3.24 1.538-.21.147-.443.294-.658.448-.124.088-.21.209-.352.289-.249.145-.75.26-.767-.161.02-.246.105-.483.248-.685.07-.1.16-.193.239-.287a18.84 18.84 0 012.696-2.479c.344-.275.7-.646 1.109-.814.08-.032.156-.074.228-.122.396-.271.778-.561 1.176-.84a35.598 35.598 0 0119.8-6.055h.435a35.834 35.834 0 0113.22 2.758c.211.084.422.164.647.245 1.301.477 3.721 1.365 3.179 3.942-.227 1.087-1.022 2.063-2.175 2.678-.886.447-1.807.823-2.754 1.121-1.102.38-2.144.737-3.132 1.394-.753.502-1.647 1.19-1.864 2.065-.175.71.072 1.52.422 2.504.362 1.05.786 2.099 1.233 3.233 1.265 3.192 2.583 6.491 2.688 9.825.11 3.582-.904 7.369-3.015 11.254-.348.63-.717 1.259-1.1 1.889a58.088 58.088 0 01-2.998 4.284c-.523.688-1.054 1.366-1.594 2.044-.21.271-.436.521-.675.77-.238.25-.274.594-.527.813-.253.218-.672.325-.959.556-.421.329-.731.785-1.107 1.158-.293.292-.527.63-.93.781l-.014.002zm-12.042-47.796a2.72 2.72 0 01-.356.143c.278-.044.556-.082.843-.118.476-.023.955.021 1.419.135.297.05.59.115.88.193.163.029.324.077.473.145.082.054.17.102.26.144.28.116.562.227.843.338a6.867 6.867 0 012.051 1.031c.181.199.34.42.504.63.322.419.687.795 1.027 1.2.179.206.337.428.47.665.168.345.297.706.383 1.077.211.729.53 1.444.686 2.185.143.668-.072 1.469-.268 2.099-.236.865-.55 1.709-.936 2.519a8.824 8.824 0 01-1.128 1.752 10.68 10.68 0 01-.883.84c-.302.262-.612.523-.899.8-.434.419-.805.898-1.23 1.324a37.74 37.74 0 00-.722.743c-.282.296-.632.609-.887.936-.48.613-.709 1.377-.903 2.116a15.506 15.506 0 00-.409 2.968c-.04.461-.027.925.04 1.383.057.304.159.6.3.875.188.346.346.705.472 1.077.137.42.253.858.409 1.284.156.426.323.79.485 1.186.204.527.375 1.066.516 1.614.298.936.68 1.845 1.139 2.714.367.756.805 1.486 1.134 2.259.295.694.422 1.469.761 2.134.304.609.725 1.167 1.069 1.757.344.59.744 1.217 1.1 1.837.304.474.654.917 1.04 1.326.293.344.39.764.592 1.157.19.291.42.554.683.78.167.175.34.51.58.596.24.086.632-.063.86-.14.302-.101.572-.42.808-.63.28-.229.54-.485.77-.764.163-.21.315-.42.49-.63.175-.209.422-.419.633-.642a16.275 16.275 0 001.503-1.679c.285-.374.632-.697.902-1.075.388-.522.675-1.112 1.054-1.647.296-.443.542-.915.736-1.409.175-.419.38-.816.552-1.234a9.84 9.84 0 00.603-1.656c.068-.39.102-.785.1-1.179a10.18 10.18 0 01.68-3.506 7.396 7.396 0 00.479-1.8c.101-.773.095-1.56.18-2.337.05-.47.025-.944.033-1.418 0-.242-.032-.483-.097-.716a3.297 3.297 0 01-.181-.707c-.01-.548 0-1.094-.01-1.64a8.05 8.05 0 00-.264-1.889c-.17-.594-.422-1.16-.633-1.746a7.038 7.038 0 00-.742-1.631 7.637 7.637 0 01-.803-1.469 14.948 14.948 0 00-.884-2.049c-.28-.545-.59-1.078-.93-1.591a7.149 7.149 0 01-.748-1.049c-.25-.516 0-.879.323-1.308.443-.581.925-1.135 1.442-1.654.422-.419.814-.887 1.252-1.299a9.384 9.384 0 011.453-1.03c.303-.191.596-.401.9-.594.409-.261.843-.479 1.265-.71.74-.403 1.452-.81 2.272-1.037.188-.052.374-.109.565-.142.121-.013.239-.042.35-.086.443-.24.681-.993.376-1.407-.264-.352-.763-.419-1.113-.654-.102-.072-.152-.173-.268-.21a7.71 7.71 0 00-.787-.21c-1.03-.263-1.99-.764-3.016-1.05a12.822 12.822 0 00-1.586-.386 9.12 9.12 0 00-1.775-.065c-1.684.12-3.375.11-5.06-.034-.744-.075-1.475-.222-2.213-.15-1.094.102-2.195.337-3.276.526-1.293.21-2.57.514-3.818.911-.33.118-.666.22-1.006.304-.407.093-.822.124-1.227.225-.554.117-1.1.264-1.638.441l-.044.008z" fill="#393BC4"/><path d="M70.287 123.134c-.038-.02-.073-.048-.111-.073a1.965 1.965 0 01-.276-.178c-.197-.177-.211-.433-.302-.666-.09-.233-.272-.401-.354-.629-.101-.282-.122-.588-.211-.869a2.206 2.206 0 00-.236-.454c-.11-.174-.21-.359-.31-.535a1.018 1.018 0 00-.331-.317 5.586 5.586 0 01-.94-.839l-.344-.42a8.946 8.946 0 01-.476-.8c-.196-.317-.422-.611-.633-.917-.179-.256-.396-.479-.594-.722a4.961 4.961 0 01-.81-1.438 7.35 7.35 0 00-.173-.437 1.292 1.292 0 01-.116-.34c.009-.146.05-.289.12-.419.125-.256.195-.59.485-.716.211-.086.4.075.582.143.03.008.057.021.082.037.148.122.285.254.41.399a26.488 26.488 0 015.645 8.423c.04.09.074.183.103.277.038.078.064.16.079.244v.252c0 .132.05.264.059.398a.44.44 0 01-.116.357.757.757 0 01-.277.139c-.097.038-.187.094-.288.124a.547.547 0 01-.186.016 2.067 2.067 0 01-.369 0 .262.262 0 01-.112-.04zM139.352 160.468a3.31 3.31 0 01-.687-.367c-.435-.284-.843-.55-1.307-.798-.407-.22-.844-.353-1.246-.571a8.376 8.376 0 00-.666-.35 61.36 61.36 0 00-2.863-1.172 12.8 12.8 0 01-3.302-1.836c-1.242-.968-2.53-1.889-4.005-2.477-.886-.361-1.744-.785-2.653-1.087-2.639-.882-5.318-1.66-7.975-2.492a26.298 26.298 0 00-4.41-1.049c-.582-.078-.9.023-1.423.225-.62.239-1.345.186-1.997.178-.651-.008-1.29-.086-1.897.126-.375.159-.761.3-1.153.42-.546.128-1.054.21-1.55.482l-.447.284c-.307.113-.643.13-.961.05-.447-.054-1.575-.193-1.476-.877a.667.667 0 00.276-.21c.234-.218.496-.407.778-.56a5.756 5.756 0 001.537-1.631 32.154 32.154 0 013.401-4.253c.757-.804 1.49-1.593 2.184-2.451.843-1.029 1.804-1.971 2.511-3.096.35-.716.738-1.411 1.163-2.082.376-.535.698-1.104.97-1.698.673-1.358 1.137-2.807 1.655-4.227.519-1.421.886-2.75.947-4.242a21.35 21.35 0 00-.026-2.653c-.067-.84-.116-1.772-.771-2.383a10.02 10.02 0 00-1.309-.963c-1.054-.657-2.248-.227-3.397-.332-.366-.033-.75-.067-1.113-.123a.802.802 0 01-.278-.057c-.858.329-1.701.695-2.53 1.096a2.2 2.2 0 00-.82.528 11.599 11.599 0 01-1.71 1.799c-.373.302-.71.75-1.227.781-.335.021-.754-.286-.723-.661.023-.29.344-.493.561-.64.36-.244.744-.452 1.096-.71a8.127 8.127 0 001.082-1.049c.405-.42.824-.84 1.265-1.241a13.564 13.564 0 012.894-2.023c2.581-1.304 6.483-1.601 8.956.827 1.265 1.243 1.857 2.915 2.27 4.387 1.527 5.438 1.398 10.945-.362 15.506-1.605 4.163-4.668 7.601-8.34 9.515.124.025.246.059.364.1l.555.156 1.098.319a99.711 99.711 0 016.843 2.298 107.305 107.305 0 018.705 3.747 94.8 94.8 0 018.328 4.552c.651.397 1.298.802 1.939 1.211.268.206.557.38.862.521.228.065.449.151.658.262.141.084.264.197.354.334.059.096.274.39.243.487-.032.096-.422.21-.534.21a.843.843 0 01-.337-.04zM87.703 140.463a2.184 2.184 0 01-1.213-.361c-.66-.42-.955-1.123-1.149-1.58l-.385-.918c-2.14-5.087-4.354-10.351-9.698-12.452l.736-1.852c6.113 2.41 8.607 8.32 10.8 13.536l.384.911c.1.235.25.592.398.689.21.134.826-.145 1.488-.84a42.867 42.867 0 009.066-14.969l1.897.657a44.814 44.814 0 01-9.487 15.668c-.94.988-1.933 1.511-2.838 1.511z" fill="#393BC4"/><path d="M75.649 116.955c2.226-1.981 2.738-5.022 1.146-6.796-1.591-1.771-4.686-1.601-6.91.38-2.227 1.981-2.739 5.025-1.147 6.796 1.592 1.772 4.686 1.602 6.91-.38zM108.202 117.274c1.591-1.773 1.079-4.817-1.147-6.798-2.224-1.981-5.319-2.149-6.911-.378-1.592 1.772-1.08 4.815 1.147 6.796 2.224 1.982 5.319 2.152 6.911.38zM64.055 176.212c-.97.063-1.925.247-2.893.338-1.054.098-2.05-.04-3.09-.084a6.508 6.508 0 00-1.382.176c-.62.107-1.252.078-1.872.176-.447.072-.896.116-1.336.21a8.282 8.282 0 01-1.398.292c-.723.04-1.632-.092-1.573-1.033.02-.283.093-.266.371-.327.56-.124 1.143-.191 1.687-.349 2.015-.573 4.04-1.171 6.114-1.484.58-.092 1.161-.155 1.745-.188.877-.04 1.668.132 2.53-.114a18.76 18.76 0 003.626-1.557c.58-.307 1.158-.615 1.729-.932.196-.128.38-.273.548-.432.88-.706 2.193-.408 3.213-.695 1.132-.321 2.344-.433 3.504-.645.647-.119 1.307-.157 1.93-.375a41.465 41.465 0 004.742-2.034 20.607 20.607 0 002.471-1.503c.19-.13.504-.325.599-.548.036-.174.04-.352.015-.529 0-1.383.016-2.756.09-4.139a15.38 15.38 0 00-.122-2.97c-.036-.262 0-.673-.089-.919-.385.21-.754.462-1.161.649a7.41 7.41 0 01-1.543.419c-.675.154-1.455.028-2.109.246-.21.069-.194.157-.421.304l-2.142.63-3.274.802c-1.97.48-3.854 1.196-5.87 1.534-2.015.338-4.132.21-6.168.588-1.75.327-3.495 1.026-5.298.911-.632-.04-1.967-.347-2.108-1.142.316-.153.698-.139 1.037-.189.62-.113 1.23-.273 1.824-.481 1.096-.346 2.108-.667 3.278-.774 1.17-.107 2.298.014 3.449 0a9.967 9.967 0 001.22-.095c1.708-.237 3.327-.879 4.906-1.54.704-.296 1.52-.531 2.153-.959.538-.364 1.022-.84 1.665-1.027a6.449 6.449 0 011.476-.197c.422-.023.81-.277 1.265-.283.455-.007.945 0 1.423-.047 1.602-.174 2.85-1.425 4.273-2.082a1.7 1.7 0 01.844-.235c.257.009.512 0 .767-.027a.989.989 0 00.396-.256c.255-.313.264-.892.291-1.26.11-1.358.525-2.657.888-3.962.124-.42.139-.865.044-1.291a4.148 4.148 0 01-.088-.72c0-.21.105-.611 0-.766-.228-.334-.886.052-1.086.241-.078.082-.15.17-.211.265-1.824.283-3.67.296-5.504.419-.71.038-1.426.005-2.132-.098-1.197-.16-2.395-.315-3.584-.479a17.74 17.74 0 01-3.822-.951c-1.231-.461-2.319-1.158-3.5-1.74-1.37-.678-2.803-.728-4.292-.936-1.526-.21-3.03-.573-4.556-.801a17.903 17.903 0 00-3.984-.227 26.828 26.828 0 00-3.43.504c-1.046.27-2.094.524-3.148.761l-1.007.135a77.183 77.183 0 01-1.518-.086c-1.39 0-2.625.42-3.924.839-.244.078-1.575.38-1.054-.254.078.07.154.013.226-.168.249-.205.491-.415.727-.629.183-.208.396-.388.633-.533 1.98-.892 4.216-1.415 6.37-1.7 5.73-.762 11.53.264 17.12 1.492l1.106.243c2.789.615 5.58 1.23 8.41 1.638 1.78.266 3.577.413 5.377.44 1.577.013 3.178.032 4.7-.42.71-.209 1.265-.551 1.914-.9.434-.235.881-.432 1.322-.655a1.07 1.07 0 01.558-.21c.06.21-.01.485 0 .71.022.231.066.457.129.68.436 1.469 1.054 2.842 1.122 4.408.035.99-.085 1.973-.138 2.961-.048.957-.21 1.91-.21 2.867 0 .111.05.349-.015.451-.105.166-.434.175-.588.256-.616.33-1.16.93-1.655 1.424.438-.282.759-.699 1.246-.897a3.752 3.752 0 011.176-.222c.255-.023.508-.03.763-.021.211.096.102.535.095.709-.031.653-.152 1.289-.234 1.933-.286 2.213-.139 4.534-.027 6.755.027.982.105 1.964.234 2.938.05.317.107.63.133.953.017.204-.02.407-.106.592a1.79 1.79 0 01-.5.781c-.444.369-1.085.787-1.652.894.095.098.369-.021.554-.061.875-.189 1.784-.063 2.67-.222a9.295 9.295 0 011.133-.21 1.2 1.2 0 01.447 0c.257.132.24.86.266 1.099a47.05 47.05 0 01.268 4.324c.031 2.118-.173 4.232-.31 6.343-.072 1.094-.082 2.179-.09 3.272a37.097 37.097 0 01-.294 3.743 28.73 28.73 0 00-.232 2.856c.028.393.017.789-.033 1.18-.22.052-.447.052-.667 0-.105-.04-.164-.181-.293-.235l-1.005-.061c-.633.021-1.28.105-1.898.063-.185-.015-.356-.086-.542-.109-.546-.07-1.157.023-1.707.059-.702.044-1.396.109-2.083.191-6.023.724-11.78 2.802-17.47 4.804-1.03.361-2.06.724-3.093 1.081-3.414 1.175-6.856 2.283-10.381 3.079-.884.199-1.771.38-2.66.535-.694.122-1.39.275-2.096.193-1.231-.145-2.463-.044-3.696-.031-.491.008-.984-.009-1.476-.048-.68-.063-1.343.199-2.024.144-.261-.021-1.355-.224-1.206-.73.049-.162.448-.349.57-.42.257-.153.525-.287.8-.405 1.055-.479 2.023-1.089 3.096-1.499 1.52-.579 3.124-.929 4.655-1.469 2.108-.747 4.062-1.872 5.991-3.005a92.75 92.75 0 016.377-3.405c.69-.334 1.396-.594 2.109-.892a14.993 14.993 0 002.14-1.203 28.184 28.184 0 013.417-1.836c1.189-.544 2.355-1.02 3.66-1.167 1.401-.158 2.825-.21 4.216-.519a25.78 25.78 0 004.318-1.311c1.444-.601 2.74-1.583 4.216-2.068.472-.155 1.206-.42 1.714-.262.059-.493.114-.985.145-1.48.093-1.4.211-2.798.355-4.198a3.88 3.88 0 00-.051-1.446 4.112 4.112 0 01-.122-.575 3.977 3.977 0 01-.021-.42c0-.27 0-.541.02-.812 0-.092.053-.283 0-.367-.21-.305-1.475.317-1.671.392a15.52 15.52 0 01-2.975.976 22.807 22.807 0 01-3.301.281c-1.295.049-2.602.07-3.894.191-1.25.118-2.441.492-3.639.84a35.646 35.646 0 01-7.867 1.373z" fill="#393BC4"/><path d="M71.766 193.414c.532 5.458 1.75 12.046 6.513 14.437 3.508 1.758 7.72.51 10.494-1.243 3.3-2.086 5.857-5.279 8.623-8.929l3.461 2.601c-3.025 3.988-5.848 7.497-9.76 9.97-2.874 1.817-6.047 2.749-9.049 2.749a12.69 12.69 0 01-5.717-1.295c-6.732-3.375-8.292-11.819-8.878-17.874M65.953 142.174c.582-20.213 2.258-40.383 3.989-61.18.563-6.793 1.115-13.59 1.655-20.388.257-3.287.502-6.576.736-9.865.052-.745.126-1.375-.053-2.099a3.075 3.075 0 01.027-1.385c.127-.672.255-1.341.39-2.009.05-.325.12-.648.211-.965.129-.28.297-.538.498-.769.238-.298.421-.577.632-.89a1.03 1.03 0 01.542-.436c.662-.26 1.539-.399 1.876.336.356.785.534 1.64.52 2.502 0 .7-.06 1.41.075 2.099.107.552.367 1.196.276 1.769-.04.241-.257.432-.358.644a3.989 3.989 0 00-.3 1.008 12.925 12.925 0 00-.21 2.036c0 .63.138 1.286.065 1.904-.034.18-.078.358-.135.535a5.02 5.02 0 00-.108.87l-.158 2.1c-.156 2.063-.316 4.126-.48 6.185-.216 2.748-.437 5.497-.665 8.245-.223 2.714-.447 5.43-.674 8.143l-.064.769c-1.758 21.127-3.46 41.606-4.005 62.113" fill="#393BC4"/><path d="M43.511 103.294a1.542 1.542 0 01-.66-.668c-.249-.506-.274-.854-.82-1.028-1.17-.376-2.31-.84-3.411-1.39-1.223-.602-2.42-1.368-3.7-1.834-1.44-.525-2.717-.743-4.256-.54-3.013.395-6.021.494-9.013 1.085a21.502 21.502 0 00-4.638 1.489 16.59 16.59 0 00-2.015 1.28c-.342.235-.683.468-1.03.699a180.796 180.796 0 01-3.29 2.151c-.565.363-1.53 1.104-2.218.63-1.13-.793-.306-2.638 0-3.625.856-2.802 1.729-5.6 2.74-8.35 1.974-5.368 4.54-10.534 8.223-14.96 9.93-11.941 25.62-20.586 46.637-25.695 7.927-1.93 28.526-5.932 48.575-1.47 1.503.334 2.994.716 4.472 1.15a54.923 54.923 0 0111.274 4.656 42.62 42.62 0 018.975 6.618 38.126 38.126 0 016.573 8.498 38.81 38.81 0 012.355 4.927c.344.864.656 1.74.94 2.625.289.899.905 1.965.738 2.92-.055.313-.149.63-.23.938-.067.256-.151.8-.36.987-.455.409-1.128-.044-1.617-.177-.422-.115-.784-.356-1.204-.48-.864-.256-1.72-.21-2.559-.596-.749-.349-1.309-.443-2.138-.605-1.476-.292-2.698-1.165-4.147-1.47-1.589-.33-3.356-.27-4.986-.364-1.629-.095-3.181-.357-4.777-.578-1.026-.14-2.068-.15-3.092-.291-1.461-.21-2.828-.69-4.217-1.195-.79-.287-1.564-.63-2.397-.755-1.49-.24-3.162-.112-4.638 0-1.32.098-2.641.281-3.965.325-1.194.04-2.319.074-3.492.384-2.487.661-4.473 2.475-6.409 4.089-2.683 2.242-4.97 4.863-7.108 7.623-.755.976-1.523 1.95-2.21 2.976-.236.353-.38.72-.596 1.075-.106-.078-.245-.063-.342-.126-.196-.126-.322-.327-.554-.434-.736-.343-1.542-.55-2.29-.907-.843-.397-1.337-1.024-2.049-1.583-.632-.49-1.444-.804-2.108-1.223-.812-.506-1.522-1.144-2.427-1.482a25.897 25.897 0 00-2.74-.857c-.844-.21-1.702-.176-2.556-.172-.8 0-1.585-.144-2.382-.199-1.412-.1-2.903.1-4.317.136-3.78.095-7.7.79-11.092 2.506-3.33 1.68-5.597 5.017-7.855 7.867-.679.859-1.591 1.66-2.165 2.611-.489.81-.822 1.738-1.653 2.28-.48.314-1.163.858-1.686.589a1.113 1.113 0 01-.093-.06zM128.012.201c-.179.309-.246.762-.462 1.05-.801 1.05-1.964 1.723-2.717 2.823a14.276 14.276 0 01-1.212 1.792c-.43.42-.915.78-1.444 1.067a1.67 1.67 0 00-.896.793c-.607 1.148-1 2.554-1.406 3.778a6.784 6.784 0 00-.369 2.676c.154 1.826 1.425 2.65 3.175 2.1 1.033-.324 2.266-.929 2.909-1.835.856-1.207.957-3.012 1.376-4.391.285-.94.618-1.87.844-2.825.421-1.732.573-3.552.681-5.325.04-.649.017-1.348-.34-1.904a.75.75 0 00-.139.201zM52.244 17.629c-.116.336-.097.795-.257 1.114-.59 1.176-1.608 2.055-2.144 3.274a14.25 14.25 0 01-.856 1.986 6.589 6.589 0 01-1.223 1.314 1.679 1.679 0 00-.731.95c-.382 1.241-.504 2.696-.675 3.989a6.765 6.765 0 00.135 2.697c.493 1.765 1.898 2.34 3.512 1.47.956-.509 2.054-1.33 2.518-2.341.615-1.344.38-3.136.533-4.567.105-.979.26-1.953.31-2.939.093-1.778-.097-3.595-.323-5.358-.082-.645-.236-1.327-.689-1.808a.785.785 0 00-.11.219zM17.452 45.61c-.18.507-.15 1.2-.392 1.678-.892 1.78-2.429 3.107-3.236 4.95a21.823 21.823 0 01-1.295 2.999c-.52.74-1.142 1.41-1.844 1.985-.534.326-.93.838-1.107 1.436-.576 1.875-.763 4.07-1.02 6.014a10.288 10.288 0 00.21 4.074c.745 2.665 2.861 3.534 5.305 2.233 1.444-.766 3.103-2.007 3.794-3.533.93-2.03.574-4.737.808-6.899.158-1.469.39-2.949.466-4.433.141-2.686-.148-5.432-.487-8.093-.125-.974-.357-2.005-1.042-2.729-.07.097-.122.204-.16.317z" fill="#393BC4"/><path d="M121.94 36.349c-.118.338-.099.796-.259 1.115-.59 1.177-1.609 2.054-2.142 3.276a14.39 14.39 0 01-.858 1.983 6.483 6.483 0 01-1.221 1.316 1.661 1.661 0 00-.731.951c-.384 1.24-.506 2.695-.677 3.988a6.837 6.837 0 00.135 2.695c.493 1.765 1.897 2.34 3.512 1.48.955-.508 2.056-1.329 2.517-2.338.616-1.346.38-3.136.536-4.57.105-.976.257-1.952.308-2.938.092-1.778-.097-3.596-.323-5.357-.082-.646-.236-1.326-.689-1.809a.784.784 0 00-.108.208zM155.854 36.25c-.118.338-.099.796-.259 1.115-.59 1.177-1.609 2.055-2.142 3.276a14.523 14.523 0 01-.858 1.986 6.528 6.528 0 01-1.221 1.314 1.661 1.661 0 00-.731.95c-.384 1.24-.506 2.695-.677 3.988a6.838 6.838 0 00.135 2.695c.493 1.766 1.897 2.343 3.512 1.47.955-.508 2.054-1.329 2.518-2.339.615-1.345.379-3.135.535-4.569.105-.976.257-1.952.308-2.938.093-1.778-.097-3.596-.323-5.357-.082-.646-.236-1.326-.689-1.81a.848.848 0 00-.108.22zM5.964 113.07c-.118.338-.1.796-.26 1.115-.59 1.177-1.608 2.055-2.142 3.276a14.518 14.518 0 01-.858 1.986 6.524 6.524 0 01-1.22 1.314 1.661 1.661 0 00-.732.95c-.383 1.241-.506 2.695-.676 3.988a6.829 6.829 0 00.134 2.695c.494 1.766 1.898 2.343 3.513 1.47.955-.508 2.053-1.329 2.517-2.339.615-1.345.38-3.135.535-4.569.106-.976.258-1.952.308-2.938.093-1.778-.097-3.596-.322-5.357-.083-.646-.237-1.326-.69-1.809a.849.849 0 00-.107.218z" fill="#393BC4"/></svg>