<?xml version="1.0" encoding="utf-8"?><svg width="114" height="39" fill="none" xmlns="http://www.w3.org/2000/svg" viewBox="0 0 114 39"><path d="M106.683 37.584H6.524c-3.175 0-5.77-2.643-5.77-5.875V6.644C.754 3.412 3.349.77 6.524.77h100.132c.758 0 1.509.152 2.209.447.7.295 1.336.728 1.871 1.274a5.868 5.868 0 011.252 1.906c.29.713.438 1.477.438 2.248V31.71c.026 3.232-2.569 5.875-5.743 5.875z" fill="#2C2C38"/><path d="M106.685.77c.758 0 1.508.152 2.208.447.7.295 1.337.728 1.872 1.273a5.881 5.881 0 011.251 1.906c.29.713.439 1.477.439 2.249V31.71c0 .771-.149 1.535-.439 2.248a5.881 5.881 0 01-1.251 1.906 5.757 5.757 0 01-1.872 1.274 5.68 5.68 0 01-2.208.447H6.526c-3.174 0-5.77-2.643-5.77-5.875V6.645C.756 3.413 3.352.77 6.526.77h100.159zm0-.77H6.526c-1.73 0-3.39.7-4.614 1.947A6.708 6.708 0 000 6.645V31.71c0 1.762.688 3.452 1.912 4.698a6.469 6.469 0 004.614 1.947H106.66c1.731 0 3.39-.701 4.614-1.947a6.706 6.706 0 001.912-4.698V6.645C113.211 2.976 110.263 0 106.685 0z" fill="#4C4C4C"/><path d="M24.125 19.376a5.804 5.804 0 01.733-2.682 5.682 5.682 0 011.888-2.013 5.966 5.966 0 00-1.925-1.725 5.852 5.852 0 00-2.46-.737c-1.864-.23-3.628 1.103-4.61 1.103-.984 0-2.42-1.103-3.957-1.103a5.959 5.959 0 00-2.843.863 6.092 6.092 0 00-2.095 2.138c-2.041 3.72-.504 9.287 1.562 12.314.982 1.463 2.192 3.13 3.73 3.13 1.536-.102 2.09-1 3.955-1 1.865 0 2.293 1 3.956 1 1.638 0 2.62-1.462 3.629-3a10.16 10.16 0 001.638-3.464 4.881 4.881 0 01-2.37-1.883 5.022 5.022 0 01-.83-2.941zm-3.074-9.03a5.285 5.285 0 00.992-1.826c.208-.67.282-1.375.218-2.074a4.845 4.845 0 00-1.948.573 4.934 4.934 0 00-1.555 1.325 4.91 4.91 0 00-1.003 1.768 4.97 4.97 0 00-.207 2.03 4.823 4.823 0 003.503-1.796zm20.755 15.403H37.37l-1.033 3.283h-1.89l4.258-11.928h1.89l4.232 11.929h-1.89l-1.132-3.284zm-3.957-1.438h3.579l-1.79-5.284h-.1L37.85 24.31zm16.153.386c0 2.693-1.412 4.412-3.579 4.412a2.8 2.8 0 01-2.645-1.54v4.337h-1.79V20.361h1.714v1.437c.272-.49.674-.895 1.159-1.167a2.944 2.944 0 011.588-.373c2.04-.077 3.553 1.745 3.553 4.439zm-1.89 0c0-1.745-.857-2.9-2.268-2.9-1.335 0-2.268 1.155-2.268 2.9 0 1.744.957 2.899 2.268 2.899 1.41-.026 2.267-1.155 2.267-2.9zm11.237 0c0 2.693-1.411 4.412-3.578 4.412a2.802 2.802 0 01-2.646-1.54v4.337h-1.789V20.361h1.714v1.437c.272-.49.674-.894 1.158-1.166a2.947 2.947 0 011.588-.374c2.142-.077 3.553 1.745 3.553 4.439zm-1.79 0c0-1.745-.856-2.9-2.267-2.9-1.335 0-2.268 1.155-2.268 2.9 0 1.744.958 2.899 2.268 2.899 1.411-.026 2.267-1.155 2.267-2.9zm8.04.95c.1 1.153 1.234 1.923 2.847 1.923 1.511 0 2.544-.77 2.544-1.821 0-.975-.654-1.438-2.166-1.822l-1.513-.385c-2.166-.59-3.124-1.54-3.124-3.18 0-2.028 1.79-3.464 4.259-3.464 2.469 0 4.157 1.436 4.258 3.463h-1.79a2.25 2.25 0 00-.27-.823 2.21 2.21 0 00-.56-.656 2.166 2.166 0 00-1.613-.446c-1.411 0-2.369.77-2.369 1.822 0 .873.656 1.36 2.167 1.745l1.336.282c2.369.59 3.402 1.539 3.402 3.259 0 2.206-1.79 3.642-4.536 3.642-2.645 0-4.334-1.36-4.434-3.566l1.562.026zm10.96-7.39v2.027h1.613v1.437h-1.613v4.796c0 .771.277 1.053 1.033 1.053h.58v1.462a2.96 2.96 0 01-.958.102c-1.714 0-2.368-.666-2.368-2.308v-5.028H77.61V20.36h1.234v-2.027h1.714v-.077zm2.645 6.44c0-2.694 1.613-4.413 4.058-4.413 2.468 0 4.056 1.745 4.056 4.413 0 2.796-1.612 4.412-4.056 4.412-2.545 0-4.058-1.719-4.058-4.412zm6.325 0c0-1.924-.858-2.976-2.267-2.976-1.412 0-2.269 1.052-2.269 2.976s.858 2.976 2.269 2.976c1.41 0 2.267-1.155 2.267-2.976zm3.2-4.439h1.713v1.54a2.08 2.08 0 01.777-1.15c.381-.28.847-.418 1.315-.39.278 0 .48 0 .58.102v1.643c-.252-.102-.504-.128-.757-.102a1.742 1.742 0 00-1.245.47 1.81 1.81 0 00-.569 1.223c0 .102 0 .204.026.307v5.182h-1.84v-8.825zm12.473 6.157c-.177 1.54-1.789 2.694-3.679 2.694-2.47 0-4.057-1.745-4.057-4.412 0-2.668 1.512-4.516 3.956-4.516 2.368 0 3.88 1.642 3.88 4.336v.59h-6.047v.077a2.338 2.338 0 00.547 1.695 2.245 2.245 0 001.57.794h.151a2.002 2.002 0 001.99-1.258h1.689zm-5.947-2.59h4.258a2.032 2.032 0 00-1.839-2.207h-.252c-.57.013-1.115.25-1.518.66a2.277 2.277 0 00-.65 1.547zM34.848 6.978c.378-.257.857-.41 1.436-.41.933 0 1.588.512 1.588 1.359 0 .692-.479 1.206-1.109 1.334v.024c.757.077 1.31.59 1.31 1.386 0 1.155-.982 1.616-1.965 1.616-.503 0-1.008-.102-1.41-.36l.175-.564c.303.18.782.335 1.21.335.807 0 1.26-.437 1.26-1.053 0-.82-.781-1.077-1.487-1.077h-.327V9.03h.328c.705 0 1.285-.463 1.285-1.027 0-.565-.379-.873-.984-.873-.403 0-.83.18-1.133.36l-.176-.513h-.001zm6.275 5.208l-.05-.514h-.026a1.45 1.45 0 01-1.184.59c-.782 0-1.185-.564-1.185-1.128 0-.95.832-1.489 2.344-1.489v-.077c0-.333-.1-.923-.882-.923-.353 0-.731.102-1.008.308l-.15-.488c.388-.236.832-.36 1.284-.358 1.184 0 1.487.82 1.487 1.615v1.489c0 .333.025.693.075.949l-.706.026zm-.1-2.027c-.782-.026-1.664.128-1.664.898 0 .461.302.692.68.692a.955.955 0 00.932-.667.745.745 0 00.051-.23v-.693zm4.106-1.95v.59H43.44v3.386h-.706V8.209h2.394zm.656 1.308c0-.512-.026-.923-.026-1.308h.63l.025.693h.025c.302-.488.757-.77 1.387-.77.932 0 1.662.82 1.662 2.027 0 1.436-.857 2.13-1.764 2.13-.504 0-.957-.232-1.209-.617h-.025v2.155h-.705v-4.31zm.705 1.052c0 .102.025.205.025.309.056.242.19.458.383.612.192.153.43.236.675.233.756 0 1.185-.615 1.185-1.538 0-.796-.403-1.489-1.16-1.489-.478 0-.932.36-1.083.898a1.29 1.29 0 00-.05.309v.666h.025zm3.98-2.36l.858 2.36c.1.257.176.565.252.821h.025c.075-.231.15-.538.252-.82l.78-2.335h.757l-1.058 2.822c-.505 1.36-.858 2.052-1.336 2.488-.353.308-.706.437-.882.462l-.177-.616c.177-.05.404-.179.63-.36.202-.152.428-.436.605-.794.026-.077.05-.128.05-.18 0-.051-.024-.102-.05-.18L49.69 8.21l.78-.001zm3.906 1.668h.328c.605 0 1.008-.283 1.008-.641 0-.36-.303-.566-.757-.566-.301 0-.68.103-.931.283l-.177-.437a2.411 2.411 0 011.31-.358c.605 0 1.31.282 1.31 1.052 0 .487-.453.82-.881.898v.025c.579.052 1.058.41 1.058 1 0 .874-.858 1.18-1.688 1.18a2.87 2.87 0 01-1.26-.306l.176-.489c.317.178.672.275 1.034.283.579 0 .957-.283.957-.693 0-.539-.554-.693-1.134-.693h-.353v-.538zm3.73-1.668v1.668c0 .64 0 1.026-.051 1.59h.025c.226-.487.378-.77.63-1.231l1.21-2.052h.831v3.976h-.68v-1.642c0-.641.025-.975.05-1.615h-.025c-.252.512-.429.82-.655 1.23-.379.616-.806 1.385-1.21 2.078h-.781V8.209h.656zm6.425 0v.564h-1.21v3.387h-.705V8.799h-1.21v-.59h3.125zm1.31 0v1.334a4.56 4.56 0 01.655-.05c.882 0 1.814.28 1.814 1.333 0 .41-.151.692-.403.923-.429.36-1.109.462-1.688.462-.403 0-.757-.025-1.058-.051V8.208h.68zm0 3.49c.125.024.302.024.528.024.53 0 1.21-.179 1.21-.846 0-.692-.705-.846-1.234-.846-.177 0-.353.025-.505.05v1.617zm5.09-3.439a7.752 7.752 0 011.234-.102c.655 0 1.738.102 1.738 1 0 .487-.377.796-.806.898v.026c.58.077.983.41.983.975 0 1.052-1.286 1.18-2.066 1.18-.429 0-.882-.026-1.108-.051V8.26h.024zm.68 3.463c.201.026.353.026.58.026.478 0 1.183-.102 1.183-.692 0-.565-.554-.693-1.234-.693h-.504v1.36h-.025zm0-1.846h.529c.529 0 1.058-.155 1.058-.616 0-.385-.327-.59-1.058-.59-.227 0-.378.025-.554.025v1.18h.025z" fill="#fff"/></svg>