<?xml version="1.0" encoding="utf-8"?><svg width="24" height="24" xmlns="http://www.w3.org/2000/svg" viewBox="0 0 24 24"><path d="M11.324 19.745h0l-.005-.004-.11-.096-.002-.002c-2.645-2.307-4.745-4.143-6.18-5.857-1.422-1.699-2.077-3.146-2.024-4.663A4.213 4.213 0 014.89 5.79h0c2.17-1.426 4.886-.776 6.36.887l.749.844.748-.844c1.477-1.665 4.19-2.32 6.357-.888l.003.001a4.213 4.213 0 011.889 3.334h0c.056 1.51-.592 2.951-2.005 4.645-1.425 1.709-3.512 3.54-6.141 5.842l-.057.05-.004.003-.096.083h0l-.003.003a1.051 1.051 0 01-1.367-.005z" stroke="#FF8A65" stroke-width="2"/></svg>