<?xml version="1.0" encoding="utf-8"?><svg width="38" height="16" fill="none" xmlns="http://www.w3.org/2000/svg" viewBox="0 0 38 16"><path d="M17.778 4.589c.788 0 1.472.145 2.052.435.589.28 1.037.684 1.345 1.21.317.525.476 1.14.476 1.847v.136c0 .707-.159 1.327-.476 1.862a3.205 3.205 0 01-1.345 1.223c-.58.28-1.264.421-2.052.421-.96 0-1.753-.249-2.378-.747l-.054.584H13.51V2.102h1.97v3.18c.635-.462 1.4-.693 2.297-.693zm1.835 3.492c0-.534-.186-.951-.558-1.25-.37-.299-.892-.448-1.562-.448-.426 0-.82.068-1.182.203-.354.136-.63.322-.83.558v2.01c.209.236.49.427.843.572a3.23 3.23 0 001.169.203c.67 0 1.191-.15 1.563-.448.37-.299.557-.72.557-1.264v-.136zM12.334 4.752v1.74h-1.522c-.852 0-1.45.212-1.794.638v4.43H7.06V4.752h1.835l.054.625c.57-.417 1.277-.625 2.12-.625h1.264zM5.093 2.646v8.914H3.041V2.646h2.052zM30.718 11.723c-1.277 0-2.274-.2-2.99-.598-.706-.408-1.06-.983-1.06-1.726v-.068h1.89V9.4c0 .254.172.44.516.558.344.108.901.163 1.671.163 1.268 0 1.903-.182 1.903-.544v-.068c0-.136-.082-.24-.245-.312-.163-.073-.457-.127-.883-.163l-1.753-.177c-1.006-.1-1.74-.308-2.202-.625-.462-.317-.693-.766-.693-1.346V6.75c0-.68.335-1.21 1.006-1.59.68-.38 1.622-.571 2.826-.571 1.25 0 2.21.2 2.881.598.67.398 1.006.974 1.006 1.726v.081h-1.889v-.081c0-.254-.163-.435-.49-.544-.316-.118-.837-.177-1.562-.177-.589 0-1.042.041-1.359.123-.317.081-.476.199-.476.353v.082c0 .135.073.24.218.312.154.073.403.127.747.163l1.78.177c1.07.109 1.844.321 2.324.638.49.318.734.775.734 1.373v.136c0 .688-.344 1.223-1.033 1.603-.688.38-1.644.571-2.867.571z" fill="#1F5DEF"/><path d="M22.935 2.06h1.9v1.9h-1.9v-1.9z" fill="#0BF"/><path d="M24.835 4.72v6.84h-1.9V4.72h1.9z" fill="#1F5DEF"/></svg>