<?xml version="1.0" encoding="utf-8"?><svg width="128" height="38" fill="none" xmlns="http://www.w3.org/2000/svg" viewBox="0 0 128 38"><path d="M120.181 37.213H6.878c-3.364 0-6.12-2.77-6.12-6.172V6.911C.758 3.53 3.514.762 6.904.762h113.301c3.39 0 6.146 2.77 6.146 6.172v24.131c-.025 3.378-2.782 6.147-6.17 6.147z" fill="#2C2C38"/><path d="M120.181.763c3.389 0 6.146 2.77 6.146 6.172v24.13c0 3.404-2.757 6.173-6.146 6.173H6.879C3.515 37.213.76 34.444.76 31.04V6.91C.759 3.53 3.515.762 6.905.762H120.18zm0-.762H6.879C3.085 0 0 3.1 0 6.935v24.13C0 34.877 3.086 38 6.905 38h113.302c3.793 0 6.904-3.099 6.904-6.934V6.934c-.025-3.834-3.136-6.933-6.93-6.933z" fill="#4C4C4C"/><path d="M62.62 20.703c-2.199-.051-4.02 1.701-4.07 3.91v.179c-.026 2.235 1.77 4.089 4.02 4.089h.05c2.202.05 4.023-1.702 4.073-3.911v-.178a3.941 3.941 0 00-3.794-4.09h-.278zm0 6.476a2.43 2.43 0 01-1.685-.854 2.495 2.495 0 01-.59-1.813 2.526 2.526 0 01.724-1.566 2.465 2.465 0 011.552-.72 2.277 2.277 0 012.276 2.312v.152c.05 1.296-.935 2.413-2.225 2.463-.025.026-.051.026-.051.026zm-8.825-6.476c-2.2-.051-4.022 1.701-4.072 3.91v.179c-.026 2.235 1.77 4.089 4.021 4.089h.051c2.2.05 4.021-1.702 4.072-3.911v-.178a3.941 3.941 0 00-3.795-4.09h-.277zm0 6.476a2.43 2.43 0 01-1.686-.854 2.495 2.495 0 01-.59-1.813 2.526 2.526 0 01.724-1.566 2.465 2.465 0 011.552-.72 2.278 2.278 0 012.277 2.312v.152c.05 1.296-.936 2.413-2.226 2.463-.026.026-.025.026-.05.026zm-10.521-5.257v1.727h4.072a3.524 3.524 0 01-.96 2.184c-.414.41-.905.732-1.444.945a4.26 4.26 0 01-1.693.3c-2.428.026-4.426-1.93-4.452-4.394v-.178a4.48 4.48 0 014.4-4.573h.077c1.164 0 2.276.458 3.136 1.245l1.24-1.245a6.1 6.1 0 00-4.275-1.727c-3.465.026-6.272 2.82-6.348 6.3.076 3.48 2.883 6.274 6.348 6.299a5.398 5.398 0 002.377-.403 5.46 5.46 0 001.973-1.4 5.7 5.7 0 001.518-3.988 2.87 2.87 0 00-.101-1.041l-5.868-.051zm43.044 1.346a3.704 3.704 0 00-1.3-1.837 3.628 3.628 0 00-2.114-.728c-2.099 0-3.819 1.726-3.794 3.86v.254a4.035 4.035 0 001.085 2.853c.358.38.785.684 1.259.897.474.212.984.328 1.502.34h.126a3.792 3.792 0 001.89-.462 3.851 3.851 0 001.423-1.341l-1.341-.966a2.28 2.28 0 01-1.998 1.143c-.86.051-1.644-.457-1.998-1.244l5.413-2.286-.153-.483zm-5.487 1.346c-.05-1.219.885-2.26 2.099-2.388.307-.014.612.06.88.212.27.153.49.379.638.652l-3.617 1.524zM76.379 28.5h1.796V16.613h-1.796V28.5zm-2.857-6.934a3.244 3.244 0 00-2.176-.965 4.096 4.096 0 00-3.895 4.089c-.006.52.09 1.035.28 1.518.192.482.476.921.836 1.292a3.846 3.846 0 002.754 1.178h.026a2.7 2.7 0 002.1-.965h.1v.583a2.148 2.148 0 01-1.948 2.363 2.1 2.1 0 01-1.357-.32 2.144 2.144 0 01-.868-1.102l-1.518.66c.302.71.803 1.316 1.442 1.74a3.86 3.86 0 002.15.648c2.099 0 3.794-1.244 3.794-4.191V20.88h-1.695l-.025.685zm-2.075 5.613a2.43 2.43 0 01-1.685-.854 2.493 2.493 0 01.134-3.379 2.465 2.465 0 011.552-.72 2.235 2.235 0 011.579.735 2.293 2.293 0 01.597 1.653v.102a2.28 2.28 0 01-2.1 2.463h-.076zm23.116-10.566H90.29v11.913h1.796V24.03h2.454a3.712 3.712 0 003.894-3.53 3.756 3.756 0 00-.956-2.695 3.685 3.685 0 00-2.56-1.216c-.1 0-.228 0-.354.025zm.102 5.69H92.11v-4.09h2.555c1.112 0 2.048.89 2.099 2.007a2.188 2.188 0 01-.644 1.461c-.39.387-.91.609-1.455.621zm12.19-1.702a3.183 3.183 0 00-1.841.414 3.241 3.241 0 00-1.295 1.39l1.618.66c.161-.285.399-.517.686-.67.286-.153.61-.22.933-.194.448-.04.896.094 1.248.378.353.284.586.694.649 1.146v.102a3.73 3.73 0 00-1.796-.483c-1.72 0-3.414.965-3.414 2.668.076 1.548 1.365 2.742 2.883 2.666h.05c.444.015.883-.081 1.28-.28.398-.2.74-.497.997-.863h.101v.965h1.72V23.93c-.177-1.956-1.872-3.455-3.819-3.328zm-.203 6.578c-.581 0-1.416-.28-1.416-1.04 0-.967 1.038-1.245 1.897-1.245.561-.001 1.114.129 1.618.38a2.243 2.243 0 01-2.099 1.905zm10.598-6.298l-1.999 5.13h-.101l-2.099-5.13h-1.897l3.136 7.238-1.796 3.988h1.796l4.831-11.226h-1.871zm-17.198 7.62h1.795V16.612h-1.795V28.5zM41.706 11.964h.607v1.626h-.557v-1.093H37.71v1.093h-.556v-1.626h.455c.38-.432.556-1.118.556-2.032V6.807h3.54v5.158zm-.556 0V7.342h-2.428v2.59c0 .915-.152 1.575-.456 2.007l2.884.025v.001zm4.476.635c-.81 0-1.517-.28-2.074-.864-.556-.584-.86-1.27-.86-2.083 0-.813.278-1.524.86-2.083.556-.583 1.264-.863 2.074-.863.81 0 1.518.279 2.074.863.556.559.86 1.27.86 2.083 0 .813-.279 1.524-.86 2.083a2.788 2.788 0 01-2.074.863zm0-.559c.682 0 1.24-.229 1.694-.685.456-.458.683-1.042.683-1.703 0-.66-.228-1.22-.683-1.702a2.317 2.317 0 00-1.694-.711c-.683 0-1.24.229-1.695.711-.455.458-.683 1.016-.683 1.702 0 .66.229 1.245.683 1.702.455.457 1.012.686 1.695.686zm4.4-.305c-.556-.559-.834-1.27-.834-2.083 0-.813.278-1.524.835-2.083.556-.558 1.264-.863 2.123-.863 1.038 0 1.974.533 2.455 1.397l-.507.305c-.354-.686-1.113-1.143-1.947-1.143-.708 0-1.29.229-1.72.685a2.407 2.407 0 00-.682 1.702c0 .686.226 1.245.682 1.702.455.457 1.038.685 1.72.685.834 0 1.593-.456 1.947-1.142l.507.279c-.456.864-1.418 1.398-2.454 1.398-.86.025-1.569-.255-2.124-.839zm8.929-4.928v.534h-1.747v5.156h-.555V7.342h-1.746v-.534h4.048zm4.223 0h.581l-1.896 4.446c-.38.914-.936 1.295-1.796 1.244v-.508c.606.076.986-.153 1.24-.762l.1-.28-1.948-4.14h.583l1.644 3.506 1.492-3.506zm5.285 0v5.69h-.556V7.342h-2.909v5.156h-.558v-5.69h4.023zm4.83 0h.557v5.69h-.557V9.856H70.21v2.668h-.556V6.809h.556v2.489h3.085v-2.49zm4.35 5.792c-.809 0-1.517-.28-2.073-.864s-.86-1.27-.86-2.083c0-.813.279-1.524.86-2.083.557-.583 1.264-.863 2.074-.863.81 0 1.517.279 2.074.863.556.559.86 1.27.86 2.083 0 .813-.278 1.524-.86 2.083-.557.584-1.264.864-2.074.864zm0-.559c.683 0 1.24-.229 1.696-.685.455-.458.683-1.042.683-1.703 0-.66-.229-1.22-.683-1.702a2.317 2.317 0 00-1.695-.711c-.683 0-1.24.229-1.695.711-.455.458-.683 1.016-.683 1.702 0 .66.229 1.245.683 1.702.456.457 1.012.686 1.695.686zm10.041-1.118c0 .432-.151.813-.455 1.118a1.533 1.533 0 01-1.113.457h-2.478v-5.69h2.276c.43 0 .784.153 1.088.458.303.304.455.66.455 1.067.007.244-.05.485-.165.7a1.363 1.363 0 01-.493.519c.53.228.885.737.885 1.371zM84.22 7.342v1.982h1.72c.279 0 .48-.102.683-.28a1.046 1.046 0 000-1.423.868.868 0 00-.682-.305l-1.72.026zm1.897 4.623a.956.956 0 00.709-.306c.202-.202.303-.456.303-.736 0-.28-.101-.533-.303-.736a.96.96 0 00-.709-.306H84.22v2.11l1.897-.026z" fill="#fff"/><mask id="ala" style="mask-type:luminance" maskUnits="userSpaceOnUse" x="8" y="6" width="110" height="27"><path d="M8.229 6.194h108.8v25.933H8.229V6.194z" fill="#fff"/></mask><g mask="url(#ala)" fill-rule="evenodd" clip-rule="evenodd"><path d="M8.68 6.59c-.287.313-.451.795-.451 1.422V30.3c0 .626.164 1.109.461 1.41l.077.067L21.026 19.29v-.281L8.756 6.523l-.077.068z" fill="url(#alpaint0_linear_2031_44814)"/><path d="M25.104 23.47l-4.088-4.167v-.292l4.09-4.167.088.056 4.837 2.8c1.386.797 1.386 2.107 0 2.913l-4.837 2.801c-.002 0-.09.056-.09.056z" fill="url(#alpaint1_linear_2031_44814)"/><path d="M25.19 23.413l-4.177-4.256L8.678 31.724c.45.492 1.208.548 2.056.066l14.456-8.378z" fill="url(#alpaint2_linear_2031_44814)"/><path d="M25.19 14.902L10.736 6.535c-.847-.493-1.607-.426-2.057.067l12.334 12.556 4.179-4.256z" fill="url(#alpaint3_linear_2031_44814)"/><path opacity=".2" d="M25.106 23.324l-14.358 8.312c-.802.47-1.518.437-1.979.01l-.078.08.078.066c.462.425 1.177.459 1.98-.01l14.454-8.368-.097-.09z" fill="#2C2C38"/><path opacity=".12" d="M30.03 20.467l-4.936 2.856.088.09 4.837-2.8c.693-.403 1.033-.93 1.033-1.456-.043.481-.395.94-1.022 1.31z" fill="#2C2C38"/><path opacity=".25" d="M10.736 6.681L30.029 17.85c.627.358.978.828 1.033 1.31 0-.525-.34-1.052-1.033-1.456L10.736 6.536C9.35 5.729 8.229 6.4 8.229 8.013v.146c0-1.613 1.121-2.273 2.507-1.478z" fill="#fff"/></g><defs><linearGradient id="alpaint0_linear_2031_44814" x1="19.918" y1="7.78" x2=".254" y2="12.92" gradientUnits="userSpaceOnUse"><stop stop-color="#00A0FF"/><stop offset=".007" stop-color="#00A1FF"/><stop offset=".26" stop-color="#00BEFF"/><stop offset=".512" stop-color="#00D2FF"/><stop offset=".76" stop-color="#00DFFF"/><stop offset="1" stop-color="#00E3FF"/></linearGradient><linearGradient id="alpaint1_linear_2031_44814" x1="31.834" y1="19.154" x2="7.893" y2="19.154" gradientUnits="userSpaceOnUse"><stop stop-color="#FFE000"/><stop offset=".409" stop-color="#FFBD00"/><stop offset=".775" stop-color="orange"/><stop offset="1" stop-color="#FF9C00"/></linearGradient><linearGradient id="alpaint2_linear_2031_44814" x1="22.921" y1="21.468" x2="6.704" y2="48.228" gradientUnits="userSpaceOnUse"><stop stop-color="#FF3A44"/><stop offset="1" stop-color="#C31162"/></linearGradient><linearGradient id="alpaint3_linear_2031_44814" x1="5.57" y1="-.832" x2="12.807" y2="11.111" gradientUnits="userSpaceOnUse"><stop stop-color="#32A071"/><stop offset=".069" stop-color="#2DA771"/><stop offset=".476" stop-color="#15CF74"/><stop offset=".801" stop-color="#06E775"/><stop offset="1" stop-color="#00F076"/></linearGradient></defs></svg>