<?xml version="1.0" encoding="utf-8"?><svg width="88" height="34" fill="none" xmlns="http://www.w3.org/2000/svg" viewBox="0 0 88 34"><path fill-rule="evenodd" clip-rule="evenodd" d="M2.085 27.626L1.916 2.062h5.411l.169 25.423 4.688-5.832 4.267 3.233-4.688 5.832c-3.123 3.885-9.542 1.835-9.678-3.092zM50.5 15.19l.083 12.436c.136 4.927 6.555 6.977 9.679 3.092l4.687-5.832-4.267-3.233-4.688 5.832-.081-12.295H60.9v-5.187h-5.023l-.053-7.94h-5.41l.052 7.94h-4.354v5.187h4.388zM18.031 15.207v16.445H23.5V15.207h-5.468zM80.82 15.207h5.36c0 6.753-1.17 17.382-10.258 17.382-9.05 0-10.434-10.677-10.434-17.381h5.361c0 3.232-.086 12.177 5.073 12.177 5.22 0 4.898-8.9 4.898-12.178zM32.037 15.207h-5.254v16.445H32.251c0-3.75-.322-12.177 5.07-12.177 5.374 0 4.858 8.81 4.858 12.177h5.361c0-6.65-1.212-17.5-10.36-17.38-3.718.32-4.794 2.47-5.143 3.81v-2.875z" fill="#393BC7"/><path fill-rule="evenodd" clip-rule="evenodd" d="M19.698 5.69a38.967 38.967 0 01-1.509-2.843l-4.916 2.2s2.354 5.067 4.468 6.933c.814.718 2.675 1.953 5.916.318a846.637 846.637 0 019.703-4.787l-2.252-4.528-5.897 2.903c.277-1.207.719-3.646.719-3.646l-5.349-.81a48.925 48.925 0 01-.883 4.26z" fill="#FF8A65"/></svg>