<?xml version="1.0" encoding="utf-8"?><svg width="183" height="192" fill="none" xmlns="http://www.w3.org/2000/svg" viewBox="0 0 183 192"><path d="M79.87 63.003a2.938 2.938 0 01-.084-.371 4.963 4.963 0 01-.015-.815c0-.611.037-1.231-.015-1.842a68.397 68.397 0 00-.322-2.954c-.173-1.348.13-2.726.185-4.074.037-.906.019-1.814-.054-2.72-.07-.882-.235-1.712-.211-2.6.036-.846.127-1.691.27-2.527.068-.494.15-.99.245-1.485.138-.561.352-1.1.638-1.603a11.6 11.6 0 00.761-1.688c.124-.454.29-.898.495-1.323.237-.362.484-.715.742-1.06.226-.387.443-.78.652-1.176.283-.403.597-.784.94-1.14.298-.355.6-.704.906-1.051a22.104 22.104 0 012.374-2.27c.441-.348.903-.671 1.383-.966.485-.34.98-.667 1.482-.979.362-.199.817-.36 1.092-.683a2.66 2.66 0 01.4-.4 61.835 61.835 0 014.018-2.936c.197-.04.392-.094.584-.157.718-.212 1.42-.473 2.103-.782 1.242-.566 2.389-1.34 3.668-1.823.804-.288 1.627-.52 2.463-.694a7.225 7.225 0 002.235-.855l.565-.347a19.92 19.92 0 011.224-.514c.296-.175.564-.394.797-.648.195-.158.412-.288.645-.386a8.875 8.875 0 011.634-.544 10.69 10.69 0 011.409-.28c.638-.088 1.27-.224 1.888-.407.428-.12.853-.214 1.285-.318a6.33 6.33 0 011-.202c.33-.032.662-.041.994-.026.741-.019 1.46.035 2.094-.427a.767.767 0 01.295-.156c.168-.032.311.055.474.063.401-.061.797-.15 1.186-.266l.328 1.625c-6.251 1.272-18.008 4.174-26.515 9.317-6.681 4.039-10.894 8.15-13.257 12.937-2.263 4.578-2.763 9.772-2.711 14.813.013 1.255.06 2.509.12 3.762.045.876.013 1.816.185 2.676.034.172.07.77-.166.846a.177.177 0 01-.172-.063 1.032 1.032 0 01-.238-.48z" fill="#393BC4"/><path d="M98.721 36.01a1.16 1.16 0 01.073-.134c.268-.42.763-.626 1.112-.968a3.86 3.86 0 012.01-1.066 1.43 1.43 0 00.46-.146c.121-.069.234-.158.356-.221.124-.05.251-.093.38-.128a5.44 5.44 0 001.401-.691c.612-.444 1.37-.47 2.029-.834.361-.12.713-.265 1.055-.432.252-.171.508-.335.767-.496.243-.134.47-.295.675-.483.06-.069.128-.132.202-.186.285-.16.58-.302.884-.425.588-.286 1.192-.54 1.809-.76.585-.2 1.149-.49 1.72-.729.809-.34 1.621-.622 2.442-.928.717-.283 1.415-.611 2.091-.983.262-.12.508-.276.732-.46.217-.208.454-.396.708-.557.307-.163.661-.227.975-.371.228-.108.415-.255.671-.274a.574.574 0 00.346-.059c.165-.083.278-.354.371-.503.133-.165.299-.303.487-.405.434-.304.859-.62 1.275-.95l1.025 1.3c-4.646 3.672-10.529 5.872-16.215 7.998l-1.225.46c-.316.118-.587.298-.913.394-.199.058-.36.2-.556.25-.197.047-.397.074-.593.14-.304.102-.588.247-.897.333a8.374 8.374 0 00-.79.237c-.265.104-.519.234-.78.351-.304.134-.604.292-.914.413a5.661 5.661 0 00-.665.258c-.185.096-.343.233-.515.343a3.987 3.987 0 00-.575.392c-.23.208-.389.475-.674.616a1.353 1.353 0 01-.605.166c-.266-.02-.224-.272-.139-.463zM103.945 42.77a.695.695 0 01.238-.232c.074-.045.155-.078.233-.115a.686.686 0 00.132-.091c.095-.056.195-.102.3-.138.149-.098.315-.17.489-.213.151-.012.301-.036.449-.07a8.62 8.62 0 011.123-.264c.32-.038.645-.049.967-.062a8.386 8.386 0 002.224-.386c.457-.136.903-.304 1.336-.503.43-.21.831-.481 1.244-.72a18.136 18.136 0 012.25-1.1 6.108 6.108 0 001.268-.776 64.28 64.28 0 011.482-1.036c.499-.34 1.049-.7 1.561-1.066.358-.267.732-.51 1.121-.731a3.15 3.15 0 01.778-.292 4.698 4.698 0 001.112-.438c.63-.33 1.272-.646 1.887-1.003.476-.276 1.003-.436 1.496-.672a8.936 8.936 0 011.332-.587c.439-.126 4.211-1.448 4.213-1.439l.483 1.586c-3.619 1.114-7.085 2.882-10.436 4.6-1.095.556-2.224 1.141-3.356 1.693-3.575 1.75-7.311 3.303-11.264 3.929-.477.076-.953.137-1.433.185-.283.01-.565.036-.845.078a.375.375 0 01-.384-.137zM111.167 47.674a.146.146 0 01-.092-.063c-.084-.13.04-.227.124-.288.229-.203.503-.351.798-.433a.707.707 0 00.26-.072c.205-.084.417-.15.634-.2a15.734 15.734 0 001.631-.654c.624-.285 1.319-.466 1.918-.803.717-.403 1.407-.863 2.114-1.283.949-.557 1.893-1.125 2.855-1.661 1.13-.63 2.103-1.503 3.252-2.1a9.617 9.617 0 001.205-.743c.504-.36 1.054-.645 1.586-.96.63-.372 1.259-.858 1.993-1.008.475-.091.96-.125 1.443-.099.323.01.642.076.942.195.133.054 0 .03.274.078l1.032.186c.126.026.249.057.371.096.306.091.671-.018.98-.033l.084 1.656c-.197 0-.391.023-.586.041-.837.078-1.668.22-2.483.423-.186.045-.371.121-.556.154-.206.02-.413.03-.619.026-.417.032-.83.093-1.236.186a9.266 9.266 0 00-1.416.489c-.412.168-.808.324-1.201.532-.842.446-1.657.929-2.51 1.358-.596.295-1.18.61-1.775.908-1.184.588-2.319 1.259-3.54 1.771-.512.214-1.051.342-1.57.533-.567.208-1.145.371-1.703.607a6.971 6.971 0 01-1.503.537c-.259.046-.517.107-.777.152-.383.065-.758.186-1.136.29-.127.033-.582.235-.793.182zM83.747 61.308l-.888-1.4c2.176-1.383 4.426-2.815 6.906-3.792.882-.347 2.038-.688 3.115-.256.24.104.469.229.686.371.11.067.219.136.334.186.096.06.206.09.318.087a.828.828 0 00.128-.34c.02-.102.035-.206.05-.308.036-.326.115-.646.236-.952.585-1.367 2.207-1.684 2.987-1.837l8.069-1.58.319 1.625-8.07 1.58c-.763.15-1.57.372-1.784.865-.06.175-.098.355-.117.537-.02.134-.038.267-.066.4-.145.718-.497 1.234-1.018 1.485-.52.25-1.154.226-1.788-.09-.16-.08-.312-.17-.462-.263a3.198 3.198 0 00-.433-.24c-.54-.215-1.263.012-1.898.26-2.34.932-4.515 2.32-6.624 3.662z" fill="#393BC4"/><path d="M84.486 62.866c-.198 0-.397-.015-.593-.045-1.064-.165-1.853-.802-2.18-1.747-.37-1.088-.046-2.377.824-3.285 1.182-1.236 2.893-2.341 5.085-3.288 1.913-.824 3.925-1.367 5.992-1.894 2.648-.676 5.745-1.433 8.87-1.857.658-.09 2.2-.302 3.16.719.264.295.456.648.56 1.029.103.382.115.783.035 1.171a3.63 3.63 0 01-.966 1.786c-.788.832-1.874 1.417-3.321 1.787-.669.172-1.344.282-1.996.388-.462.076-.899.146-1.336.237-2.206.463-4.244 1.402-6.404 2.4-1.947.898-3.96 1.826-6.102 2.367a6.608 6.608 0 01-1.628.232zm19.012-10.547a5.919 5.919 0 00-.79.065c-3.047.42-6.08 1.164-8.686 1.83-2 .51-3.944 1.034-5.746 1.81-1.988.857-3.521 1.838-4.546 2.913-.432.451-.615 1.114-.448 1.604.12.355.411.572.863.64.497.079 1.046-.033 1.566-.163 1.993-.503 3.935-1.398 5.814-2.265 2.146-.992 4.367-2.016 6.757-2.516a31.81 31.81 0 011.409-.25c.645-.106 1.255-.207 1.853-.359 1.112-.286 1.968-.73 2.528-1.32.264-.262.451-.59.539-.953a.9.9 0 00-.172-.758c-.198-.21-.554-.278-.941-.278zM137.368 142.656a55.327 55.327 0 01-2.053-.81c-.513-.213-1.032-.243-1.551-.462-.287-.119-.651-.065-.957-.119-.468-.082-.926-.206-1.39-.321-.556-.141-1.124-.24-1.634-.509-.51-.269-.901-.661-1.342-1.012-1.182-.939-2.537-1.706-3.803-2.525a16.43 16.43 0 00-1.77-.973 4.068 4.068 0 01-1.508-1.3c-.397-.531-.834-1.028-1.201-1.582-.286-.429-.532-.886-.801-1.326-.528-.863-1.483-1.195-2.224-1.84a3.092 3.092 0 01-.58-.763 4.455 4.455 0 00-.741-.846c-.508-.504-.996-1.044-1.516-1.534-.436-.409-.966-.658-1.44-1.02-.742-.557-1.511-1.268-2.202-1.897-.691-.63-1.201-1.426-1.772-2.165a30.783 30.783 0 01-2.096-2.952c-.556-.929-1.22-1.811-1.722-2.767-.413-.789-.674-1.671-1.128-2.44-.455-.769-.986-1.328-1.277-2.165-.291-.837-.453-1.838-.616-2.692-.174-.929-.242-1.844-.435-2.761-.282-1.346-.512-2.821-1.033-4.098a14.834 14.834 0 01-.613-1.554 11.843 11.843 0 01-.37-3.144c0-1.201-.073-2.4-.154-3.598-.041-.61-.09-1.217-.126-1.826 0-.41.049-.82.148-1.221.222-1.217.606-2.43.352-3.677a2.03 2.03 0 01-.061-.676c.044-.371.168-.728.228-1.097.065-.403.068-.82.116-1.23.057-.413.092-.83.106-1.247 0-.316.065-.628.074-.943.013-.418-.018-.828.032-1.244.045-.498.116-.994.213-1.486.072-.316.126-.642.169-.96.013-.291.076-.58.185-.854.042-.09.167-.27.287-.271.159 0 .228.351.232.49-.01.17-.036.336-.078.5a56.867 56.867 0 00-.741 10.49 58.99 58.99 0 001.857 13.511c.38 1.485.811 2.92 1.297 4.354a57.378 57.378 0 003.605 8.316c.166.312.335.622.509.929 6.552 11.714 17.516 21.111 30.081 25.783l-.556 1.534zM141.901 138.153s-.195-.096-.206-.104c-.222-.115-.445-.23-.665-.349a3.462 3.462 0 01-.328-.225 2.727 2.727 0 00-.517-.247 1.633 1.633 0 01-.362-.219 2.509 2.509 0 00-.356-.276c-.055-.034-.107-.065-.159-.101-.226-.159-.465-.282-.704-.419-.15-.088-.271-.21-.415-.303-.145-.093-.276-.163-.408-.254-.132-.091-.257-.204-.391-.301s-.295-.186-.432-.31c-.137-.125-.335-.258-.491-.401a6.148 6.148 0 00-.515-.531 3.742 3.742 0 01-.821-.812 1.883 1.883 0 00-.276-.371 11.002 11.002 0 00-.306-.336 25.334 25.334 0 01-.464-.557c-.148-.186-.287-.438-.439-.654-.185-.254-.37-.49-.556-.742-.154-.229-.294-.466-.452-.693a7.378 7.378 0 00-.489-.613 8.01 8.01 0 00-.428-.475c-.151-.152-.258-.301-.39-.451-.185-.203-.381-.362-.556-.574-.144-.176-.296-.351-.431-.537a3.123 3.123 0 00-.315-.417 3.77 3.77 0 01-.512-.661c-.063-.097-.133-.186-.202-.281a.256.256 0 01-.048-.106c-.03-.195-.02-.395.031-.588a.58.58 0 01.071-.171.718.718 0 01.059-.099.48.48 0 01.191-.09.47.47 0 01.211-.002c.052.02.093.098.124.137l.354.442c.238.293.477.585.723.871a39.221 39.221 0 004.746 4.638c.569.47 1.153.928 1.748 1.363a38.38 38.38 0 005.636 3.45l-1.26 2.369zM144.37 132.172s-.66-.434-.719-.475c-.091-.061-.195-.104-.289-.162-.095-.057-.236-.128-.349-.2a2.816 2.816 0 01-.311-.238c-.165-.139-.272-.321-.43-.466a5.681 5.681 0 00-.487-.371 4.428 4.428 0 01-.499-.386 10.19 10.19 0 00-.443-.439 20.818 20.818 0 00-.545-.482c-.037-.034-.076-.065-.115-.097l-.469-.679a1.462 1.462 0 00-.216-.286.892.892 0 01-.171-.245c-.165-.272-.333-.539-.5-.81a9.07 9.07 0 00-.289-.474 14.306 14.306 0 01-.247-.391 7.286 7.286 0 01-.232-.711l-.148-.398a7.216 7.216 0 00-.556-1.099 9.773 9.773 0 01-.261-.434 4.773 4.773 0 01-.247-.732c-.105-.321-.248-.592-.37-.901a3.586 3.586 0 01-.286-1.052.597.597 0 01.052-.385.221.221 0 01.115-.076c.03 0 .054 0 .082-.018a.441.441 0 01.168.213 2.2 2.2 0 00.119.371 22.29 22.29 0 007.48 9.336c.089.063 1.053.698 1.049.708l-.886 1.379zM146.718 128.078a.189.189 0 000-.067.956.956 0 00-.109-.185 2.635 2.635 0 00-.171-.307c-.094-.122-.231-.197-.32-.325a2.503 2.503 0 01-.21-.44 5.263 5.263 0 00-.37-.568c-.151-.249-.26-.52-.399-.774a10.168 10.168 0 00-.684-1.114 14.898 14.898 0 01-.915-1.324c-.267-.459-.506-.929-.795-1.38a1.251 1.251 0 00-.132-.202.422.422 0 01-.087-.087 1.006 1.006 0 01-.069-.153c-.077-.185-.14-.371-.231-.557a1.46 1.46 0 00-.467-.481 2.992 2.992 0 01-.862-1.138c-.436-.848-.699-1.769-1.123-2.622a20.501 20.501 0 00-1.323-2.148 21.683 21.683 0 00-1.346-1.911 7.262 7.262 0 00-.326-.371c-.406-.626-.753-1.3-1.175-1.914a2.485 2.485 0 00-.456-.431c-.302-.267-.547-.602-.828-.889-.601-.619-1.237-1.202-1.806-1.857-.826-.94-1.783-1.857-2.494-2.884-2.15-3.106-3.859-6.465-5.336-9.936-.713-1.67-1.31-3.379-2.057-5.043-.324-.78-.69-1.543-1.097-2.283a93.8 93.8 0 00-1.134-1.781c-.336-.695-.349-1.467-.48-2.217a9.713 9.713 0 00-.723-2.484c-.751-1.586-1.983-2.947-2.493-4.642a8.254 8.254 0 00-.437-1.163c-.388-.82-.656-1.693-1.112-2.486-.414-.732-.94-1.383-1.277-2.16-.269-.616-.536-1.242-.793-1.856-.217-.524-.306-1.085-.525-1.606-.245-.582-.649-1.044-.991-1.566a23.615 23.615 0 01-1.068-1.738c-.209-.393-.345-.813-.556-1.205a15.19 15.19 0 01-.667-1.485c-.254-.62-.641-1.114-1.003-1.671a2.418 2.418 0 01-.478-1.467c0-.165-.07-.466.133-.557.175-.076.371.299.455.401a9.657 9.657 0 011.25 1.697c.195.412.345.841.449 1.283a5.81 5.81 0 00.967 1.857c1.137 1.433 1.83 3.233 2.669 4.866a854.382 854.382 0 0033.586 59.487c11.807-3.07 21.276-4.91 29.751-5.782 0 0 .11 1.06.117 1.14.024.228-.02.449-.013.677.007.229-.015.479-.245.572a.753.753 0 01-.317.013c-.076 0-.131-.046-.207-.059a.854.854 0 00-.354.055 5.809 5.809 0 01-1.512.275c-.202 0-.401 0-.601.013a5.886 5.886 0 00-.763.009c-.651.108-1.287.275-1.933.392-.771.14-1.557.119-2.336.169-.795.052-1.586.158-2.368.314-.721.143-1.427.36-2.157.455-1.335.171-2.645-.175-3.974-.197-.984-.017-1.974-.031-2.939.186-.527.113-1.04.264-1.572.358-.532.095-1.09.216-1.625.372-1.071.297-2.12.657-3.218.852-.706.124-1.404.238-2.101.408-.228.056-.46.08-.692.116-.111.016-.101-.001-.103.131.012.238-.005.476-.049.708a1.774 1.774 0 01-.113.358 1.466 1.466 0 01-.443.461c-.068.055-.13.118-.185.185a4.101 4.101 0 01-.508.412 4.053 4.053 0 00-.602.667c-.054.072-.154.262-.252.269.041-.185.204-.284.309-.427.089-.126.152-.271.186-.423.029-.125.072-.242.105-.362.025-.087.049-.173.08-.258a.608.608 0 00.05-.175zM153.783 134.699a46.59 46.59 0 00-1.392.084c-.21.007-.419.043-.62.106a.692.692 0 01-.588.037c-.23-.076-.445-.175-.332-.459a.596.596 0 01.185-.189.598.598 0 01.247-.095c.232-.059.476-.096.712-.141.513-.1 1.051-.089 1.57-.143a23.327 23.327 0 001.668-.239c1.512-.266 3.059-.206 4.579-.439.977-.15 1.915-.464 2.882-.659 1.001-.204 2.039-.223 3.032-.512.906-.264 1.768-.657 2.68-.906.789-.216 1.603-.316 2.385-.557.717-.223 1.403-.524 2.132-.708a15.82 15.82 0 001.225-.28 30.47 30.47 0 011.063-.297c.49-.121.983-.23 1.483-.305.297-.044.599-.068.895-.122.332-.06.654-.166.99-.21.335-.045.623.011.926-.171.304-.182.705-.21 1.048-.282l1.727-.372.38-.079.343 1.621s-1.261.274-1.483.289a.899.899 0 00-.474.151c-.477.336-.979.631-1.503.885-.158 0-.317.019-.475.032-.549.07-1.093.174-1.629.312-1.04.217-2.078.447-3.123.635-.856.154-1.683.206-2.552.284-1.431.13-2.859.273-4.292.371a38.89 38.89 0 00-3.616.433c-1.746.301-3.451.821-5.15 1.322-1.59.483-3.264.529-4.923.603zM155.882 140.53a.453.453 0 01-.37-.173.305.305 0 01.027-.392.724.724 0 01.336-.185c.155.001.309.031.454.089.275.065.56.081.841.05.97-.073 1.924-.323 2.888-.453 1.733-.236 3.447-.583 5.172-.869 1.394-.232 2.801-.345 4.191-.6a27.8 27.8 0 011.464-.224c.43-.052.862-.105 1.297-.153a7.248 7.248 0 011.221-.12c.117 0 .232.037.349.033a2.3 2.3 0 00.472-.089 98.31 98.31 0 001.518-.357c1.053-.252 2.104-.52 3.151-.802.543-.145 1.086-.293 1.627-.447l.742-.214c.211-.048.418-.109.622-.186l.465 1.592c-.785.234-1.573.457-2.363.672-.392.108-.8.186-1.186.319a1.768 1.768 0 00-.298.186 1.34 1.34 0 01-.46.139c-.166.028-.339 0-.506.019a5.59 5.59 0 00-.778.159c-.512.156-1.012.342-1.501.558a8.012 8.012 0 01-1.757.443c-.597.091-1.194.158-1.792.234-.695.087-1.385.212-2.082.29-1.54.156-3.089.184-4.633.083a30.16 30.16 0 00-3.532.043c-1.188.076-2.384.333-3.577.331-.48 0-.979-.136-1.453-.058a2.62 2.62 0 01-.549.082z" fill="#393BC4"/><path d="M98.016 162.106a4.687 4.687 0 01-1.235-.065c-.835-.186-1.667 0-2.52-.084-1.17-.126-2.354-.109-3.521-.252-.927-.11-1.854-.173-2.78-.31-.567-.086-1.125-.216-1.683-.344-.604-.139-1.255-.15-1.853-.33-.909-.275-1.94-.346-2.78-.83-.21-.123-.382-.283-.584-.413-.349-.221-.821-.317-1.214-.443-1.15-.372-2.235-.86-3.371-1.256-.845-.295-1.555-.742-2.326-1.182-.849-.481-1.805-.743-2.667-1.215-1.032-.573-2.255-.928-3.091-1.801-.495-.514-.859-1.041-1.502-1.387a5.88 5.88 0 01-1.964-1.599 10.537 10.537 0 00-2.08-1.871c-.61-.444-.96-.962-1.358-1.59a17.47 17.47 0 00-1.69-2.124 6.265 6.265 0 01-1.092-1.91c-.754-1.959-1.156-4.022-1.994-5.955-.984-2.267-1.297-4.568-1.168-7.028.13-2.46.618-4.895.833-7.355.13-1.485.037-3.067.578-4.486.294-.772.663-1.513.949-2.289.261-.709.39-1.458.637-2.171.2-.572.37-1.131.523-1.717.226-.843.606-1.612.971-2.401a32.67 32.67 0 001.483-3.615c.29-.897.342-1.857.624-2.758.248-.865.602-1.695 1.055-2.473.246-.403.595-.754.791-1.183.197-.429.269-.941.443-1.394a24.693 24.693 0 001.02-3.203c.33-1.404 1.265-2.479 2.058-3.645.479-.702.86-1.46 1.309-2.178.448-.718 1.088-1.3 1.61-1.987 1.025-1.33 1.774-2.84 2.72-4.224.63-.928 1.334-1.829 1.61-2.932a7.45 7.45 0 01.632-1.834 28.1 28.1 0 001.668-3.714c.057-.154.113-.306.166-.46a.948.948 0 00.06-.177c0-.039 0-.078.015-.117.046-.128.105-.252.176-.371.255-.526.511-1.05.773-1.573l.265-.53a.125.125 0 00.014-.068c.046-.19.125-.367.232-.53.11-.214.234-.422.37-.623a1.66 1.66 0 00.271-.453c.065-.165.132-.336.186-.503.066-.2.109-.412.16-.617.023-.11.052-.217.088-.323.054-.094.1-.193.139-.297a2.56 2.56 0 01.196-.486.517.517 0 01.084-.132c.06-.06.228-.123.27-.017.043.106-.042.25-.076.344-.074.225-.168.44-.252.66a69.764 69.764 0 01-1.488 4.234 71.883 71.883 0 01-2.367 5.461 99.534 99.534 0 01-6.444 11.299c-3.66 5.602-6.857 13.244-9.266 22.095-2.148 7.918-3.742 19.666.85 30.667 5.612 13.438 18.72 17.168 28.718 17.929 3.97.309 7.956.381 11.935.216a88.27 88.27 0 0011.342-1.202 77.288 77.288 0 0010.564-2.586 68.73 68.73 0 009.684-3.936 62.386 62.386 0 008.683-5.253 54.85 54.85 0 003.929-3.107c.467-.401.927-.813 1.382-1.233.186-.172.371-.343.556-.518a.566.566 0 00.071-.089.736.736 0 01.203-.165c.095-.056.181-.126.254-.21l.036-.037a.474.474 0 01.161-.098.414.414 0 01.146-.041c.03 0 .041.024.065.039s.052.016.069.048c.016.032-.013.113-.039.165-.026.052-.056.1-.08.152a1.068 1.068 0 01-.246.296 2.624 2.624 0 01-.301.286 1.972 1.972 0 00-.257.185 9.32 9.32 0 00-.452.437 4.333 4.333 0 01-.384.371c-.097.091-.2.173-.308.247a6.598 6.598 0 00-.452.418c-.061.126-.113.156-.158.085a74.112 74.112 0 00-1.933 1.981l-.294.314c-.09.087-.172.182-.245.282a.75.75 0 01-.133.186c-.139.119-.301.212-.441.329a4.27 4.27 0 00-.599.611 2.361 2.361 0 01-.73.572c-.573.349-1.007.807-1.503 1.255-.742.674-1.589 1.197-2.421 1.762-.858.6-1.776 1.106-2.739 1.517-.812.338-1.627.668-2.446.991-.977.388-1.946.834-2.966 1.114a21.72 21.72 0 00-2.848 1.066c-.884.394-1.794.726-2.723.995-.791.223-1.631.402-2.398.686-.632.235-1.16.664-1.788.898a11.44 11.44 0 01-1.787.435c-1.534.31-3.017.813-4.576 1.019-.995.134-1.998.152-2.991.314-1.036.169-2.057.444-3.089.629-.797.145-1.561.389-2.363.489-1.07.133-2.169.271-3.247.215-1.324-.07-2.647-.022-3.968.019l-.356-.013zM51.516 72.051a.826.826 0 01-.534-.195c-5.057-4.27-6.458-12.41-3.124-18.135 3.14-5.384 10.193-8.17 16.192-6.554 0-.992-.011-2.022-.028-3.097-.055-3.68-.113-7.487.556-10.805 1.068-5.29 3.093-9.61 6.024-12.845 1.636-1.807 4.33-4.07 7.87-4.594 2.821-.418 5.624.48 7.434 2.286 2.065-5.793 5.2-10.482 9.124-13.624C100.171.37 106.802-1.047 112.338.792c6.242 2.074 10.429 8.42 9.53 14.45l-1.637-.246a7.132 7.132 0 00-.05-2.494 5.216 5.216 0 00-.278-.703c-.129-.372-.296-.724-.428-1.092-.305-.86-.354-1.788-.663-2.65a2.274 2.274 0 00-.641-.928 12.362 12.362 0 01-.742-.626 2.906 2.906 0 01-.415-.542c-.32-.43-.741-.672-1.162-.979-.421-.306-.825-.677-1.268-.976-.265-.166-.531-.33-.8-.492a89.29 89.29 0 00-.903-.68 3.68 3.68 0 00-1.228-.58c-.644-.198-1.307-.243-1.948-.43-.278-.1-.558-.197-.84-.293l-.862-.16c-.161-.03-.356 0-.502-.087-.113-.067-.128-.13-.276-.127a2.79 2.79 0 00-.625.156c-.845.223-1.668.518-2.505.76-.529.12-1.064.208-1.603.262-.616.096-1.207.297-1.809.449-.457.104-.908.23-1.351.38-.402.15-.8.316-1.192.485-.38.145-.751.312-1.112.498-.438.28-.833.622-1.175 1.014-.43.44-.927.813-1.37 1.227-.487.446-.967.897-1.455 1.34a11.91 11.91 0 01-1.006.905c-.185.161-.38.317-.576.47-.37.37-.706.794-1.066 1.18-.22.23-.399.496-.53.786-.2.538-.437 1.062-.712 1.565-.303.578-.565 1.18-.863 1.76-.073.114-.138.23-.195.351a1.737 1.737 0 00-.022.383c-.012.275-.092.54-.234.774-.172.264-.476.392-.67.635a2.44 2.44 0 00-.299.626c-.12.288-.235.575-.346.867-.115.308-.247.61-.397.9-.131.221-.232.457-.3.704-.04.221 0 .403-.284.455a.341.341 0 01-.224-.05c-.386-.27-.884-.516-1.183-.884-.09-.113-.155-.245-.253-.353-.312-.336-.816-.42-1.22-.58a9.411 9.411 0 00-1.312-.342c-.47-.114-.95-.275-1.429-.355-.535-.09-1.045.074-1.577.12-.34-.005-.68.043-1.006.142-.41.145-.814.304-1.209.483-.646.304-1.262.668-1.84 1.088-.565.41-1.144.804-1.707 1.214a16.57 16.57 0 00-1.271 1.14c-.489.427-.967.86-1.435 1.3-.41.399-.882.787-1.112 1.325-.243.67-.45 1.352-.623 2.043-.27.928-.533 1.857-.822 2.768a3.27 3.27 0 01-.22.634c-.184-.186-.277.297-.296.416a6.068 6.068 0 01-.087.48 11.17 11.17 0 01-.354.842c-.239.605-.29 1.238-.422 1.87-.17.809-.464 1.58-.688 2.374a3.3 3.3 0 00-.156 1.448c.064.39.09.786.08 1.181-.043.775-.217 1.536-.269 2.308-.037.572-.215 1.114-.213 1.684 0 .372.02.743.026 1.115-.02.306-.007.614.04.917a4.18 4.18 0 01-.055 1.95 2.779 2.779 0 00-.159.571c-.02.316.074.615.08.929 0 .161.057.43-.067.557-.124.126-.641-.024-.556.185-.124.171-.652.203-.84.242a.994.994 0 01-.461.01 3.58 3.58 0 00-.691-.012c-.49.004-.977-.06-1.45-.186a3.98 3.98 0 01-.474-.202c-.375-.13-.78-.15-1.166-.06-1.058.208-2.146.223-3.213.313a3.065 3.065 0 00-.69.055.658.658 0 00-.148.091c-.25.17-.526.3-.766.485-.424.33-.886.64-1.284 1-.448.41-.812.914-1.223 1.362a4.002 4.002 0 00-.795.995c-.119.249-.23.503-.336.757a7.602 7.602 0 01-.884 1.56 1.74 1.74 0 00-.255.557l-.556 1.857c.114.553.029.824-.258.81-.291.642-.67 1.229-.879 1.908-.209.68-.3 1.354-.48 2.017-.083.304-.264.77-.198 1.103.04.21.123.382.15.601.043.325.136.635.186.958.037.23 0 .465.024.697.037.276.088.55.154.819.084.464.237.913.454 1.33.213.4.619.664.843 1.06.224.395.16.87.37 1.25.172.28.416.504.705.654.201.097.392.216.569.351.185.186.24.43.433.583.25.203.495.496.833.355a.985.985 0 00.339-.175l.06-.126c.077-.202.101-.42.158-.626.128-.462.306-.928.473-1.372.167-.444.348-.856.502-1.3.163-.464.274-.943.441-1.405.23-.615.537-1.2.916-1.736.569-.838.85-1.846 1.14-2.804.2-.633.475-1.242.817-1.814.258-.48.484-.975.675-1.485.207-.507.606-.83 1.023-1.178.354-.295.74-.631 1.19-.761.448-.12.915-.156 1.377-.102.38.02.756.102 1.111.241.22.162.446.314.68.451.323.171.63.37.916.596.31.272.536.584.906.797.247.143.543.228.766.416.165.162.368.28.591.342.808.222 1.63.297 2.456.432.628.102 1.35.292 1.93-.067.34-.211.635-.501.966-.726a1.757 1.757 0 00.833-1.435 9.411 9.411 0 000-1.114 5.84 5.84 0 01.096-1.029c.071-.323.116-.653.133-.986a.754.754 0 00-.15-.41c-.113-.3-.175-.62-.185-.943-.074-.674 0-1.404-.23-2.056-.054-.152-.146-.575.126-.594.169.31.273.65.308 1 0 .226-.035.456 0 .68.057.238.147.465.269.675.185.408.515.69.81 1.02.233.257.437.541.605.844.304.535.716.692 1.281.845.565.152 1.027 0 1.575.009.264 0 .599.065.52.394-.053.217-.271.273-.446.323-.08.03-.164.05-.25.06-.134.032-.27.058-.407.075a2.217 2.217 0 01-.471 0c-.058-.011-.22-.128-.217-.026-.44-.124-1.038-.212-1.4-.51-.31-.257-.492-.853-.926-.918-.118.127-.055.39-.074.557-.228 1.95-1.229 3.577-2.676 4.35-1.965 1.052-4.014.4-5.996-.23-1.36-.43-2.639-.839-3.864-.718-1.532.154-3.063 1.242-4.096 2.913-.912 1.486-1.514 3.142-2.153 4.898-.534 1.475-1.088 2.997-1.844 4.42a.825.825 0 01-.575.423.697.697 0 01-.176.007z" fill="#393BC4"/><path d="M36.779 79.107c-1.813 0-2.608-.742-2.956-1.41-.504-.96-.566-2.495 2.013-4.338 1.97-1.408 4.774-2.546 6.115-3.092l.371-.15a36.98 36.98 0 0110.466-2.531c.687-.069 3.475-.048 4.533 1.309a1.897 1.897 0 01.265 1.857 3.103 3.103 0 01-.912 1.244c-2.007 1.8-4.804 2.83-7.272 3.738-.63.232-1.25.46-1.839.694-2.476.982-6.223 2.325-10.18 2.648-.211.031-.413.031-.604.031zm16.589-9.893c-.135 0-.27.006-.404.019a35.417 35.417 0 00-9.997 2.414l-.37.154c-1.298.523-3.972 1.611-5.783 2.906-.727.52-1.887 1.496-1.51 2.217.302.575 1.473.544 1.964.505 3.738-.307 7.33-1.595 9.706-2.538.602-.24 1.234-.472 1.877-.71 2.443-.899 4.97-1.827 6.74-3.416.193-.153.35-.348.457-.569.066-.185.026-.237 0-.282-.37-.44-1.73-.7-2.68-.7z" fill="#393BC4"/><path d="M63.688 95.261l-5.284-21.624c-.009-.033.238-.176.275-.213.037-.038.055-.088.096-.121a.476.476 0 01.14-.067c.119-.063.227-.147.318-.247.03-.028.133-.117.143-.16.009-.042-.028-.113-.073-.167-.235-.29-.42-.622-.645-.928a16.242 16.242 0 00-1.02-1.283.656.656 0 01-.155-.225.73.73 0 00-.074-.172.214.214 0 00-.065-.04.209.209 0 00-.076-.009c-.05.015-.078.084-.118.12-.041.034-.082.092-.128.125-.047.034-.1.032-.143.084a.221.221 0 00-.033.067c-.15.094-.31.172-.475.236-.083.03-.235.064-.265.163a.194.194 0 00.045.158c.107.185.228.371.343.546l.648 1.025a37.09 37.09 0 01-20.976 8.025v-2.538h-.617a4.859 4.859 0 00-.615 0c-.133.018-.132.131-.156.244a3.284 3.284 0 00-.116.94c.01.134.033.27.046.403.019.186.04.371.056.557a5.6 5.6 0 01-.025.683c-.014.344-.038.68-.038 1.023 0 .097-.01.192-.026.284-.01.045-.067.162-.045.212.1.034.185-.026.29-.033.144-.011.266.052.416.031.09-.018.177-.046.261-.083a1.56 1.56 0 01.186-.024 1.81 1.81 0 01.2-.023l.482-.03 2.174 5.9a6.38 6.38 0 00-.625.02c-.29 0-.582 0-.873-.017-.185 0-.371-.009-.556-.03a3.687 3.687 0 00-.67-.05c-.038.067-.104.084-.141.155a.434.434 0 00.055.442c.137.131.438.17.614.222.16.041.314.104.457.186.255.136.541.199.829.186.4.018.801-.008 1.195-.08.46-.095.918-.214 1.383-.271.502-.063 1.002-.08 1.505-.153.283-.04.556-.076.847-.133.297-.069.59-.158.874-.267a7.258 7.258 0 001.854-.94c.53-.371 1.084-.715 1.621-1.083.278-.185.556-.39.842-.557A13.22 13.22 0 0049.077 85c.489-.35 1.05-.836 1.638-.98a.99.99 0 00.337-.155c.056-.048.082-.14.154-.156.045.128-.03.216-.033.335 0 .185.163.43.224.586.291.717.741 1.36 1.04 2.08.178.468.303.952.37 1.448.046.303.113.602.202.895.062.149.077.31.043.466-.26.022-.435.206-.676.307-.392.157-.776.334-1.15.53-.426.236-.852.467-1.297.682-.791.386-1.483.953-2.276 1.344-.854.422-1.779.678-2.648 1.068-.612.273-1.164.557-1.83.674-.464.085-.937.123-1.404.206a2.064 2.064 0 01-.866.052 2.444 2.444 0 00-.431-.094c-.116.003-.232 0-.347-.012-.1-.026-.203-.04-.306-.042-.161 0-.268.053-.289.213-.031.223.156.342.352.371a.854.854 0 01.228.01c.076.018.152.035.23.046.16-.01.282-.061.452-.06 1.007.003 2.011-.1 2.997-.306.638-.126 1.275-.248 1.913-.37a14.761 14.761 0 002.472-.744 17.378 17.378 0 002.12-.928c.388-.214.758-.46 1.157-.654.452-.219.87-.371 1.18-.79.05-.066.217-.257.302-.268.049.202.11.403.186.596.16.513.37 1.005.532 1.513.37 1.163.302 2.396.302 3.603 0 .094.037.298-.024.37a5.41 5.41 0 01-.542.05c-.469.06-.926.162-1.395.265-1 .219-1.987.471-2.982.705-.43.102-.856.214-1.283.329-.426.115-.897.172-1.338.297-.556.158-1.084.371-1.627.538-.35.134-.72.205-1.094.207-.266-.012-.528-.06-.794-.064-.4-.005-.8.026-1.194.091-.17.028-.96.071-.59.422a.835.835 0 00.636.143c.28-.028.556-.035.838-.07.413-.055.828.012 1.245 0 .499 0 1-.021 1.496-.075 1.635-.186 3.217-.587 4.832-.878.974-.177 1.955-.268 2.915-.524.178-.044.359-.078.541-.102.097-.03.196-.05.297-.063.055.111.117.219.185.321.096.199.158.41.185.628.04.143.059.291.058.44-.019.15-.076.317-.099.466-.051.341-.092.689-.131 1.032-.063.557-.198 1.125-.237 1.695a5.162 5.162 0 01-.065.535 3.903 3.903 0 01-.128.485c-.019.057-.028.156-.069.185a.973.973 0 01-.32.054 33.442 33.442 0 01-3.727.422 3.621 3.621 0 00-.927.117 2.832 2.832 0 01-.927.068c-.493 0-.982.116-1.471.103a9.233 9.233 0 01-1.134-.167c-.412-.062-.825-.103-1.238-.147-.682-.073-1.355-.021-2.039-.048a5.718 5.718 0 01-1.07-.205c-.23-.054-.48-.02-.693-.115a.66.66 0 00-.213-.063 1.513 1.513 0 00-.348-.104c-.084.033-.037.143-.019.204.39.236.827.394 1.235.591.239.119.487.219.741.301.245.072.517.074.752.167.171.068.32.185.495.245.273.098.551.18.834.241.806.186 1.644.112 2.465.11.975 0 1.952.057 2.927.1.567.026 1.126.082 1.694.056.307-.015.611-.052.926-.052.258 0 .508.033.764.052.793.054 1.588-.049 2.377.063.11.017.29.109.371 0 .082-.11-.024-.238-.026-.342 0-.158.054-.323.052-.486v-.24c-.01-.293.035-.587.132-.865.093-.247.146-.511.154-.776 5.33-.674 8.154-7.095 8.275-7.381a.837.837 0 00.055-.535zM77.973 188.286l-.395-1.609 23.689-5.834V161.01c0 .024.528-.03.569-.024.185.03.2.362.228.514.031.193.031.39 0 .583-.027.281-.013.561.041.836a1.7 1.7 0 01.059.622 3.876 3.876 0 00-.052.607c0 .282-.037.557-.016.847.02.29.027.594.052.887.024.294.092.531.098.817.011.621.05 1.235.05 1.857 0 .752 0 1.504-.013 2.254a20.2 20.2 0 00-.015 2.228c.059.726 0 1.456.115 2.178.109.637.424 1.215.485 1.857.025.253.036.49.073.743.063.41.055.828.111 1.238.026.207.037.394.05.604-.01.29.009.579.057.863.099.359.347.663.456 1.014.052.164.132.392-.039.487a1.956 1.956 0 01-.268.079c-.143.062-.269.153-.419.205-.441.156-.962.078-1.422.081-.565 0-1.147.201-1.69.338-.185.047-.383.08-.556.14l-.052.044a15.38 15.38 0 01-1.366.216 2.328 2.328 0 00-.604.085 6.105 6.105 0 01-1.734.371 7.698 7.698 0 00-1.587.359c-.46.144-.908.321-1.377.438-.71.176-1.392.449-2.096.648-.916.258-1.853.403-2.78.641a15.62 15.62 0 00-1.757.616c-1.082.42-2.17.954-3.321 1.16-.517.091-1.038.015-1.553.097a10.98 10.98 0 00-1.518.371c-.25.076-.495.164-.741.24-.114.03-.775.082-.762.135zM79.686 192l-.514-1.576c-.022-.073 1.001-.257 1.168-.292.307-.065.613-.143.915-.236.103-.081.22-.145.345-.185.493-.231.975-.493 1.462-.743.38-.186.742-.385 1.112-.607a8.205 8.205 0 011.952-.841c.975-.299 1.933-.632 2.895-.966.908-.314 1.827-.587 2.733-.91.575-.206 1.153-.434 1.742-.596.836-.228 1.724-.252 2.577-.392.852-.139 1.727-.386 2.594-.514.434-.065.871-.065 1.298-.119.42-.08.836-.184 1.245-.312.188-.048.371-.117.545-.204a.79.79 0 01.324-.119.99.99 0 01.514.054c.075.043.147.089.216.141.251.201-.463.455-.576.509-.966.459-1.896.978-2.912 1.326-.555.185-1.163.2-1.742.332a27.52 27.52 0 00-1.297.371c-.435.136-.834.212-1.253.31-.678.186-1.317.463-1.975.713-.727.279-1.472.491-2.224.717-.857.262-1.683.594-2.567.758-.488.091-.962.148-1.44.284-.743.221-1.47.496-2.172.822-.445.201-.853.453-1.277.691-.343.186-.695.325-1.023.557-.15.091-.307.169-.47.234-.112.056-.21.13-.327.186-.332.13-.682.224-1.021.334-.023.004-.847.227-.847.273zM91.829 191.981l-.61-1.539c0 .013.865-.371 1.023-.41.207-.058.413-.115.617-.186a9.49 9.49 0 001.192-.479 2.95 2.95 0 00.895-.533c.383-.232.913-.59 1.368-.614.385-.002.77-.03 1.152-.086.51-.098 1.044-.418 1.51-.622a11.566 11.566 0 003.022-1.857c.226-.189.464-.365.713-.525.239-.134.463-.292.669-.474.106-.139.231-.263.371-.371a3.27 3.27 0 01.65-.384c.304-.093.627-.078.927-.201.238-.102.487-.182.741-.234a12.078 12.078 0 001.718-.416c.212-.076.627-.265.779.011-.064.101-.141.19-.23.266a1.771 1.771 0 01-.53.323 8.58 8.58 0 00-.955.297c-.331.136-.632.332-.961.472-.249.104-.503.185-.758.271a4.159 4.159 0 00-1.774 1.094c-.289.306-.556.646-.827.963a6.822 6.822 0 01-.926.981c-.49.371-1.112.544-1.657.826-.39.2-.76.436-1.14.653-.445.255-.927.467-1.384.691a1.54 1.54 0 01-.571.186c-.443.022-.853.232-1.27.371-.202.071-.402.143-.604.217-.104.038-.207.073-.31.112-.159.091-.335.148-.516.169a1.359 1.359 0 00-.842.215c-.157.11-.267.269-.434.372-.053.04-1.045.449-1.048.441zM66.047 169.943c-.065.061-.13.119-.199.175-.105.087-.213.171-.32.254a1.94 1.94 0 01-.24.186 1.599 1.599 0 01-.516.167.907.907 0 01-.088-.468c-.03-.336-.05-.67-.07-1.006-.052-.823-.028-1.651-.08-2.472a6.032 6.032 0 010-.82c.03-.372.243-.764.07-1.129a1.518 1.518 0 01-.096-.546 3.82 3.82 0 00-.127-.724 27.842 27.842 0 00-.26-.79 3.112 3.112 0 01-.185-.781c-.097-.672-.123-1.356-.186-2.032a8.011 8.011 0 00-.411-1.944c-.104-.262-.208-.523-.31-.785-.132-.405-.289-.802-.468-1.188a20.2 20.2 0 01-.482-.998 6.97 6.97 0 00-.35-.742 3.659 3.659 0 01-.262-.537 1.28 1.28 0 00-.334-.468c-.05-.037-.105-.065-.153-.108a4.56 4.56 0 01-.428-.531 4.852 4.852 0 01-.403-.438c-.089-.135-.216-.234-.303-.371a3.989 3.989 0 01-.227-.468c-.066-.139-.102-.21-.268-.227-.167-.016-.295-.052-.443-.066a1.601 1.601 0 00-.317.02c-.185.02-.354.032-.528.063a9.915 9.915 0 00-1.038.318 4.605 4.605 0 01-.521.093c-.172.031-.341.083-.511.118a8.213 8.213 0 01-.927.075c-.2.018-.397.055-.599.055-.245 0-.569-.094-.693.173s0 .646.05.928c.02.117.035.236.048.353.013.117.054.186.065.281.011.094 0 .185 0 .28.028.449.095.895.198 1.333.032.125.091.24.12.372.045.185.062.371.101.557l.14.64.071.314-1.614.36-.07-.314c-.488-2.183-.95-4.246.213-5.698.888-1.114 2.546-1.63 5.215-1.63 5.82 0 7.645 12.561 8.129 17.359l10.767-9.516s.154.159.162.185c.01.034.01.069 0 .101a2.66 2.66 0 01-.26.778c-.143-.015-.204.076-.308.163-.303.254-.648.457-.947.719a6.783 6.783 0 00-1.262 1.587l-.413.786c-.17.269-.37.519-.597.742a27.784 27.784 0 01-2.063 1.952c-.465.401-.945.798-1.378 1.238l-.286.297c-.197.223-.36.472-.482.743a3.7 3.7 0 01-.578.771 1.85 1.85 0 01-.461.397 2.69 2.69 0 00-.39.241c-.252.186-.472.403-.719.591-.246.187-.496.386-.73.594-.14.124-.29.286-.448.438z" fill="#393BC4"/><path d="M62.147 161.515a1.947 1.947 0 01-.091-.585 2.293 2.293 0 00-.03-.477 5.703 5.703 0 00-.295-.67c-.11-.26-.165-.535-.26-.8-.03-.09-.208-.42-.155-.496-.289-.453-.583-.903-.88-1.352a3.141 3.141 0 01-.404-.635c-.024-.069-.032-.141-.058-.21-.059-.152-.152-.291-.224-.436-.12-.23-.22-.47-.298-.719-.026-.085-.05-.169-.084-.25-.009-.025-.096-.284-.144-.309-.048-.024-.215.064-.265.088-.122.059-.251.1-.384.124-.274.061-.54.152-.793.273-.185.08-.37.167-.545.247-.174.08-.397.085-.602.158-.069.024-.186.057-.212.132a.68.68 0 000 .287c.05.292.232.52.371.775.197.351.417.689.658 1.008.087.143.192.271.313.384.186.156.341.338.523.511l-1.14 1.201a5.668 5.668 0 01-1.71-3.78c0-.128.03-.255.087-.372.26-.497.591-.954.984-1.355.938-.94 2.01-1.179 3.023-.672.41.236.753.574.997.978.365.563.668 1.165.902 1.792.269.691.502 1.393.7 2.104.186.648.345 1.3.49 1.957.057.258.113.518.165.78.069.34.185.743.039 1.075a.744.744 0 01-.186-.137 1.426 1.426 0 01-.242-.305c-.035-.043-.084-.05-.124-.087a.527.527 0 01-.097-.156l-.03-.071zM52.954 161.434c-2.992-.983-3.288-4.732-2.986-7.385 0-.182.03-.364.085-.538.043-.093.106-.236.21-.273a.5.5 0 01.196 0c.228.042.311.306.37.499.036.089.075.177.12.262.04.137.057.279.05.42.018.592-.015 1.182.185 1.752.087.255.22.476.294.743.063.221.087.45.141.672.044.212.106.418.186.619.065.178.143.351.231.518.103.131.215.256.336.371.066.084.157.143.231.219.079.08.163.154.252.219.188.141.398.251.621.323l-.522 1.579zM83.153 53.186a2.483 2.483 0 002.482-2.486 2.485 2.485 0 00-2.482-2.486 2.484 2.484 0 00-2.481 2.486 2.483 2.483 0 002.481 2.486zM100.114 49.04a2.483 2.483 0 002.482-2.486 2.485 2.485 0 00-2.482-2.486 2.484 2.484 0 00-2.481 2.486 2.483 2.483 0 002.481 2.486zM21.678 130.245h-.037c-1.267.067-2.63.238-3.892.095-1.182-.134-2.353-.338-3.521-.546-.593-.106-1.184-.212-1.777-.314a4.052 4.052 0 01-.612-.162 1.396 1.396 0 00-.273-.05c-.606-.046-1.228 0-1.836-.015-1.334-.046-2.647-.334-3.937-.661-.661-.167-1.32-.347-1.979-.518-.66-.17-3.812-.454-3.814-.421l.15-1.651c16.211 1.486 36.386 3.342 52.82-4.978 12.56-6.354 21.127-17.326 30.192-28.942 5.862-7.507 11.922-15.27 19.122-21.568a74.378 74.378 0 0136.609-17.374c6.134-1.036 16.543-1.712 25.35 3.064a38.75 38.75 0 0111.566-4.668l.36 1.617a37.053 37.053 0 00-10.303 4.014 25.676 25.676 0 014.381 3.528c3.668 3.675 5.166 8.684 3.814 12.76-.843 2.544-2.755 4.848-5.845 7.043-3.445 2.449-6.815 3.738-10.008 3.829-4.092.117-7.812-1.848-9.502-5.014-1.571-2.94-1.332-6.963.627-10.496 2.077-3.747 5.004-5.756 8.119-7.903.953-.655 1.937-1.333 2.902-2.068a42.285 42.285 0 012.265-1.615c-.12.081-1.56-.714-1.768-.799a35.732 35.732 0 00-1.881-.69 12.2 12.2 0 00-1.551-.467c-.317-.056-.621-.185-.927-.236-.306-.05-.456 0-.741-.122-1.931-.795-3.994-.628-6.055-.624-2.181 0-4.396 0-6.565.234-1.188.126-2.366-.052-3.547.085-.2-.003-.4.028-.589.093a55.381 55.381 0 01-4.402.964c-.782.141-1.471.423-2.24.657-1.47.446-2.738 1.235-4.174 1.76-1.321.481-2.647.918-3.936 1.486-2.13.928-4.109 2.228-6.139 3.362-2.965 1.651-5.832 3.423-8.732 5.168a12.438 12.438 0 00-2.313 1.857c-.88.735-1.758 1.472-2.634 2.21-1.535 1.351-3.051 2.762-4.466 4.237-.252.261-.475.557-.797.727-.323.171-.684.392-1.038.569-.365.167-.69.41-.951.714-.32.41-.674.795-1.056 1.146-.988.841-1.774 1.875-2.654 2.822a30.749 30.749 0 00-3.151 3.883c-.556.826-1.166 1.599-1.748 2.403-.837 1.156-1.65 2.319-2.557 3.422-.836 1.014-1.757 1.948-2.673 2.887-.76.787-1.471 1.62-2.131 2.49-1.814 2.366-3.651 4.709-5.591 6.974-2.224 2.6-4.702 4.974-7.26 7.242-1.16 1.025-2.28 2.059-3.508 3.002a69.313 69.313 0 01-4.873 3.379 50.395 50.395 0 01-3.856 2.219c-.878.489-1.797.899-2.747 1.224-.877.278-1.735.464-2.595.811-1.09.438-2.172 1.007-3.226 1.523-.893.438-1.735.906-2.673 1.244-.708.254-1.427.488-2.138.728-1.387.466-2.81.742-4.217 1.136-1.186.336-2.3.724-3.51.977-1.112.228-2.224.399-3.314.659-1.297.308-2.578.687-3.879.984-2.012.46-4.1.564-6.138.674zm142.585-72.12c-.584.372-1.156.758-1.722 1.157a.973.973 0 00-.291.266c-.044.076-.039.146-.115.222a1.145 1.145 0 01-.472.242c-.371.106-.667.137-.994.35-.296.186-.595.393-.88.6-.372.264-.71.57-1.01.914-.154.23-.327.448-.517.648-.172.12-.366.208-.571.253a4.036 4.036 0 00-1.019.516c-.278.197-.52.44-.714.718-.43.539-1.028.777-1.538 1.213-.556.472-.917 1.164-1.403 1.703-.532.592-1.006 1.1-1.379 1.806-.402.756-.917 1.445-1.297 2.215-.486.979-.612 2.069-.712 3.157-.059.65-.068 1.3-.068 1.946-.029.373-.014.746.044 1.114.174.713.571 1.428 1.251 1.745.308.143.699.186.956.427.112.106.186.309.295.427.36.413.897.576 1.422.667.507.093 1.021.15 1.536.175.758.027 1.499-.108 2.252-.186 1.899-.206 3.782-.388 5.632-.893.593-.162 1.195-.301 1.775-.51a16.35 16.35 0 002.252-1.115c.782-.427 1.622-.834 2.328-1.38.4-.31.771-.675 1.155-1.008.906-.789 1.412-1.832 1.812-2.95.45-1.253.714-2.503.489-3.83a17.652 17.652 0 00-.999-3.343c-.274-.72-.507-1.55-.948-2.184-.391-.556-.927-1.038-1.376-1.55-.165-.186-.322-.384-.489-.557a5.887 5.887 0 00-.958-.711c-.567-.385-1.101-.91-1.718-1.209a5.864 5.864 0 00-.556-.2 2.46 2.46 0 01-.332-.153c-.079-.042-.154-.093-.23-.139-.076-.046-.815-.603-.891-.563zM34.201 142.736c-.26 0-.519-.008-.778-.023-.803-.037-1.601-.234-2.41-.219a3.668 3.668 0 00-.635.062c-.408-.039-.816-.186-1.221-.186-.115.004-.23.015-.343.031a5.477 5.477 0 01-1.212-.1l.198-1.647c16.235 1.967 32.93-3.678 44.665-15.094l1.154 1.189c-.016-.013-1.015.962-1.112 1.051-.146.133-.302.222-.454.339a1.695 1.695 0 00-.382.557c-.159.279-.389.509-.667.669-.456.308-.691.743-1.073 1.123-.311.269-.631.529-.96.78-.27.264-.54.528-.806.791-.215.165-.432.327-.652.481l-.636.591c-.37.282-.741.57-1.099.863-.26.249-.526.486-.8.717-.581.451-1.164.9-1.75 1.346a6.284 6.284 0 01-1.483.847 53.285 53.285 0 01-4.967 2.19c-1.556.578-3.161 1.079-4.748 1.566a54.877 54.877 0 01-5.273 1.322c-1.8.332-3.621.531-5.45.596-1.509.076-3.017 0-4.526.083-.854.043-1.716.082-2.58.075zM53.373 71.064c.15-.795-.521-1.144-1.196-1.068a6.1 6.1 0 00-2.763 1.047c-.297.208-.599.483-.623.845-.05.732.755.743 1.251.661a8.77 8.77 0 002.595-.793c.289-.141.675-.356.736-.692z" fill="#393BC4"/></svg>