<?xml version="1.0" encoding="utf-8"?><svg width="15" height="12" fill="none" xmlns="http://www.w3.org/2000/svg" viewBox="0 0 15 12"><path fill-rule="evenodd" clip-rule="evenodd" d="M5.016 5.213A31.383 31.383 0 014.07 3.02l-.003-.008-1.859.692-1.858.693.002.006.005.013a15.03 15.03 0 00.083.212 36.494 36.494 0 001.033 2.367c.315.65.698 1.375 1.107 1.98.203.3.448.624.732.906.247.244.718.658 1.395.82 1.195.284 2.033-.433 2.327-.732.351-.357.61-.789.793-1.137.382-.725.72-1.643.99-2.47a43.06 43.06 0 00.875-3.093 32.382 32.382 0 00.068-.28l.004-.017.002-.007-1.935-.443-1.935-.442-.001.002-.003.011a14.172 14.172 0 01-.059.244 39.183 39.183 0 01-.817 2.878zm1.108 1.888z" fill="#FF8A65"/><path fill-rule="evenodd" clip-rule="evenodd" d="M14.825 7.012l-8.617 3.535-1.366-3.266 8.617-3.535 1.366 3.266z" fill="#FF8A65"/></svg>