<svg width="157" height="213" viewBox="0 0 157 213" fill="none" xmlns="http://www.w3.org/2000/svg">
<path d="M63.8311 141.605C63.81 141.586 63.7826 141.578 63.7552 141.578C63.7404 141.578 63.7257 141.594 63.7173 141.597C63.7088 141.599 63.6793 141.597 63.6498 141.58C63.5907 141.557 63.5275 141.55 63.4643 141.561C63.3251 141.584 63.1839 141.596 63.0426 141.599C62.8508 141.599 62.6611 141.55 62.4692 141.54C62.2268 141.546 61.9843 141.542 61.7419 141.523C61.744 141.513 61.744 141.504 61.7419 141.494C61.6955 141.34 61.6849 141.179 61.7081 141.019C61.7229 140.967 61.7271 140.912 61.7208 140.86C61.6512 140.44 61.5648 140.003 61.4931 139.575C61.2001 137.869 60.945 136.156 60.7278 134.439C60.3526 131.45 60.0954 128.449 59.9541 125.435C59.9541 125.17 59.9204 124.904 59.9056 124.639C59.8909 124.562 59.8993 124.482 59.9267 124.409C60.0511 124.176 60.4453 124.155 60.6646 124.199C60.8332 124.633 60.9829 125.082 61.1263 125.525C61.3603 126.243 61.3076 127.026 61.4889 127.754C61.5648 128.056 61.6618 128.352 61.7398 128.653C62.0096 129.685 62.1129 130.8 62.2773 131.847C62.3659 132.416 62.3849 133.073 62.6399 133.595C62.8803 134.085 62.7875 134.546 62.8845 135.065C62.9478 135.407 63.0195 135.749 63.0953 136.091C63.1586 136.488 63.2092 136.887 63.2471 137.285C63.3083 137.833 63.3546 138.383 63.4074 138.931C63.4432 139.279 63.4812 139.626 63.5296 139.98C63.5507 140.14 63.5823 140.299 63.6076 140.457C63.6392 140.606 63.6772 140.755 63.7215 140.9C63.7636 141.053 63.7658 141.219 63.7974 141.374C63.7911 141.401 63.8627 141.576 63.8311 141.605Z" fill="#393BC4"/>
<path d="M87.3199 148.044C87.0205 148.154 86.5546 148.286 86.2278 148.193C85.9222 148.074 85.6565 147.866 85.4668 147.597C85.237 147.297 85.121 146.932 84.8933 146.63C84.8027 146.51 84.6973 146.42 84.6003 146.304L84.2314 145.71C84.0353 145.318 83.757 144.909 83.6832 144.472C83.6453 144.268 83.5736 144.071 83.4724 143.891L82.7915 142.547L77.1542 131.448C75.9335 129.045 74.4135 126.056 74.8351 122.864C75.2231 119.837 77.1837 117.501 79.081 115.245C79.2602 115.033 79.4373 114.823 79.6123 114.615C81.1597 112.758 83.1541 109.97 82.6418 107.235C82.3909 106.052 81.7437 104.985 80.8056 104.215C79.7747 103.342 78.535 102.744 77.2069 102.477C76.8337 102.402 76.4353 102.219 76.0537 102.223C74.9785 102.225 73.9033 102.311 72.8408 102.481C71.9975 102.626 71.0825 102.763 70.2899 103.094C70.0179 103.205 69.727 103.268 69.4466 103.363C68.909 103.508 68.3777 103.686 67.8612 103.896C66.786 104.406 65.6118 104.769 64.6209 105.434C64.4101 105.581 64.1782 105.728 63.9632 105.882C63.8388 105.97 63.7524 106.091 63.6111 106.171C63.3623 106.316 62.8606 106.431 62.8438 106.01C62.8648 105.764 62.9491 105.527 63.0925 105.325C63.1621 105.225 63.2527 105.132 63.3307 105.038C64.1466 104.127 65.0489 103.296 66.0271 102.559C66.3707 102.284 66.727 101.913 67.136 101.745C67.2161 101.713 67.292 101.671 67.3637 101.623C67.7601 101.352 68.1416 101.062 68.54 100.783C69.3749 100.223 70.233 99.6981 71.1142 99.2049C76.3805 96.279 82.3087 94.7384 88.3403 94.7279H88.7746C93.3177 94.8014 97.8061 95.7375 101.995 97.4859C102.206 97.5699 102.417 97.6496 102.642 97.7315C103.943 98.2079 106.363 99.0958 105.821 101.673C105.594 102.76 104.799 103.736 103.646 104.351C102.76 104.798 101.839 105.174 100.892 105.472C99.7899 105.852 98.7484 106.209 97.7597 106.866C97.007 107.368 96.1132 108.056 95.896 108.931C95.721 109.641 95.9677 110.451 96.3176 111.435C96.6803 112.485 97.104 113.534 97.551 114.668C98.8159 117.86 100.134 121.159 100.239 124.493C100.349 128.075 99.3345 131.862 97.2242 135.747C96.8763 136.377 96.5074 137.006 96.1237 137.636C95.2003 139.105 94.1821 140.535 93.1259 141.92C92.603 142.608 92.0717 143.286 91.5321 143.964C91.3212 144.235 91.0957 144.485 90.8574 144.734C90.6192 144.984 90.5834 145.328 90.3304 145.547C90.0774 145.765 89.6579 145.872 89.3711 146.103C88.9495 146.432 88.6396 146.888 88.2643 147.261C87.9713 147.553 87.7373 147.891 87.3347 148.042L87.3199 148.044ZM75.2779 100.248C75.1619 100.305 75.0438 100.351 74.9216 100.391C75.1998 100.347 75.4781 100.309 75.7648 100.273C76.2413 100.25 76.7199 100.294 77.1837 100.408C77.4809 100.458 77.774 100.523 78.0649 100.601C78.2272 100.63 78.3875 100.678 78.5372 100.746C78.6194 100.8 78.7079 100.848 78.7965 100.89C79.0768 101.006 79.3593 101.117 79.6397 101.228C80.3776 101.455 81.0712 101.803 81.691 102.259C81.8723 102.458 82.0304 102.679 82.1948 102.889C82.5174 103.308 82.8821 103.684 83.2216 104.089C83.4008 104.295 83.5589 104.517 83.6917 104.754C83.8603 105.099 83.989 105.46 84.0754 105.831C84.2862 106.56 84.6045 107.275 84.7606 108.016C84.9039 108.684 84.6889 109.485 84.4928 110.115C84.2567 110.98 83.9426 111.824 83.5568 112.634C83.2511 113.259 82.8737 113.849 82.4289 114.386C82.1506 114.682 81.8555 114.964 81.5456 115.226C81.2441 115.488 80.9342 115.749 80.6475 116.026C80.2132 116.445 79.8421 116.924 79.4163 117.35C79.1717 117.593 78.9335 117.843 78.6953 118.093C78.4128 118.389 78.0628 118.702 77.8077 119.029C77.3271 119.642 77.0994 120.406 76.9054 121.145C76.6735 122.119 76.5365 123.114 76.4964 124.113C76.4564 124.574 76.469 125.038 76.5365 125.496C76.5934 125.8 76.6946 126.096 76.8358 126.371C77.0235 126.717 77.1816 127.076 77.3081 127.448C77.4451 127.868 77.561 128.306 77.717 128.732C77.873 129.158 78.0396 129.522 78.2019 129.918C78.4064 130.445 78.5772 130.984 78.7184 131.532C79.0157 132.468 79.3973 133.377 79.8569 134.246C80.2237 135.002 80.6622 135.732 80.9911 136.505C81.2862 137.199 81.4127 137.974 81.7521 138.639C82.0557 139.248 82.4774 139.806 82.821 140.396C83.1647 140.986 83.5652 141.613 83.9215 142.233C84.2251 142.707 84.575 143.15 84.9608 143.559C85.2539 143.903 85.3508 144.323 85.5532 144.716C85.743 145.007 85.9728 145.27 86.2363 145.496C86.4028 145.671 86.5757 146.006 86.816 146.092C87.0564 146.178 87.4485 146.029 87.6762 145.952C87.9776 145.851 88.2475 145.532 88.4836 145.322C88.764 145.093 89.0233 144.837 89.2531 144.558C89.4175 144.348 89.5693 144.138 89.7443 143.928C89.9193 143.719 90.1659 143.509 90.3768 143.286C90.9165 142.761 91.4182 142.201 91.8799 141.607C92.1645 141.233 92.5124 140.91 92.7822 140.532C93.1702 140.01 93.4569 139.42 93.8363 138.885C94.1315 138.442 94.3782 137.97 94.5721 137.476C94.7471 137.057 94.9516 136.66 95.1244 136.242C95.3753 135.709 95.5756 135.155 95.7274 134.586C95.7949 134.196 95.8286 133.801 95.8265 133.407C95.8454 132.208 96.0752 131.02 96.5074 129.901C96.7414 129.324 96.9038 128.718 96.986 128.101C97.0872 127.328 97.0808 126.541 97.1651 125.764C97.2157 125.294 97.1905 124.82 97.1989 124.346C97.1989 124.104 97.1673 123.863 97.1019 123.63C97.0155 123.401 96.9543 123.164 96.9206 122.923C96.9101 122.375 96.9206 121.829 96.9101 121.283C96.8974 120.645 96.8089 120.011 96.6465 119.394C96.4779 118.8 96.2249 118.234 96.0141 117.648C95.837 117.075 95.5882 116.527 95.272 116.017C94.9515 115.558 94.6817 115.066 94.4688 114.548C94.2264 113.845 93.9312 113.161 93.5854 112.499C93.305 111.954 92.9952 111.421 92.6557 110.908C92.3753 110.581 92.1245 110.231 91.9073 109.859C91.6564 109.343 91.9073 108.98 92.2299 108.551C92.6726 107.97 93.1554 107.416 93.6719 106.897C94.0935 106.478 94.4857 106.01 94.9242 105.598C95.3753 105.21 95.8602 104.864 96.3767 104.568C96.6803 104.377 96.9733 104.167 97.2769 103.974C97.6859 103.713 98.1202 103.495 98.5418 103.264C99.2818 102.861 99.9944 102.454 100.814 102.227C101.002 102.175 101.188 102.118 101.379 102.085C101.5 102.072 101.618 102.043 101.729 101.999C102.172 101.759 102.41 101.006 102.105 100.592C101.841 100.24 101.342 100.173 100.992 99.9375C100.89 99.8661 100.84 99.7653 100.724 99.7276C100.467 99.6436 100.203 99.5743 99.9375 99.5177C98.9065 99.2553 97.9473 98.7537 96.9206 98.4682C96.402 98.3066 95.8707 98.1764 95.3352 98.082C94.7471 98.0022 94.1526 97.9813 93.5602 98.017C91.8757 98.1366 90.1849 98.1261 88.5005 97.9834C87.7563 97.9078 87.0248 97.7608 86.2869 97.8322C85.1927 97.935 84.0922 98.1702 83.0107 98.3591C81.7184 98.569 80.4408 98.8733 79.1928 99.27C78.8639 99.3875 78.5266 99.4904 78.1872 99.5744C77.7803 99.6667 77.365 99.6982 76.9602 99.7989C76.4058 99.9164 75.8597 100.063 75.3222 100.24L75.2779 100.248Z" fill="#393BC4"/>
<path d="M70.2874 123.134C70.2494 123.114 70.2136 123.086 70.1757 123.061C70.0787 123.009 69.9859 122.95 69.8995 122.883C69.7034 122.706 69.6886 122.45 69.598 122.217C69.5073 121.984 69.3261 121.816 69.2438 121.588C69.1426 121.306 69.1216 121 69.033 120.719C68.9719 120.559 68.8939 120.408 68.7969 120.265C68.6873 120.091 68.5861 119.906 68.487 119.73C68.4027 119.6 68.2888 119.493 68.156 119.413C67.8124 119.17 67.4962 118.888 67.2158 118.574L66.8721 118.154C66.6992 117.896 66.5411 117.629 66.3957 117.354C66.1996 117.037 65.974 116.743 65.7632 116.437C65.584 116.181 65.3669 115.958 65.1687 115.715C64.8209 115.285 64.5468 114.798 64.3592 114.277C64.3065 114.128 64.2474 113.983 64.1863 113.84C64.1315 113.733 64.0935 113.618 64.0703 113.5C64.0787 113.354 64.1209 113.211 64.1905 113.081C64.3149 112.825 64.3845 112.491 64.6754 112.365C64.8862 112.279 65.0759 112.44 65.2573 112.508C65.2868 112.516 65.3142 112.529 65.3395 112.545C65.487 112.667 65.6241 112.799 65.7485 112.944C66.1027 113.299 66.4442 113.664 66.7773 114.038C67.4413 114.787 68.0633 115.572 68.6388 116.389C68.8623 116.708 69.0794 117.031 69.2881 117.358C69.754 118.085 70.1841 118.827 70.5762 119.604C70.7723 119.99 70.9599 120.379 71.1349 120.773C71.2234 120.971 71.3099 121.168 71.3942 121.367C71.4342 121.457 71.468 121.55 71.4975 121.644C71.5354 121.722 71.5608 121.804 71.5755 121.888C71.5755 121.972 71.5755 122.056 71.5755 122.14C71.5755 122.272 71.6261 122.404 71.6345 122.538C71.643 122.603 71.6387 122.669 71.6177 122.729C71.5966 122.792 71.5629 122.849 71.5186 122.895C71.4385 122.96 71.3436 123.006 71.2424 123.034C71.1454 123.072 71.0548 123.128 70.9536 123.158C70.8946 123.174 70.8313 123.179 70.7681 123.174C70.6458 123.185 70.5214 123.185 70.3991 123.174C70.3591 123.17 70.3211 123.155 70.2874 123.134Z" fill="#393BC4"/>
<path d="M139.352 160.468C139.11 160.373 138.878 160.25 138.665 160.101C138.23 159.817 137.822 159.551 137.358 159.303C136.951 159.083 136.514 158.95 136.112 158.732C135.901 158.612 135.675 158.486 135.446 158.382C134.501 157.962 133.548 157.582 132.583 157.21C131.398 156.765 130.285 156.146 129.281 155.374C128.039 154.406 126.751 153.485 125.276 152.897C124.39 152.536 123.532 152.112 122.623 151.81C119.984 150.928 117.305 150.15 114.648 149.318C113.213 148.842 111.737 148.492 110.238 148.269C109.656 148.191 109.338 148.292 108.815 148.494C108.195 148.733 107.47 148.68 106.818 148.672C106.167 148.664 105.528 148.586 104.921 148.798C104.546 148.957 104.16 149.098 103.768 149.218C103.222 149.346 102.714 149.428 102.218 149.7L101.771 149.984C101.464 150.097 101.128 150.114 100.81 150.034C100.363 149.98 99.2352 149.841 99.3343 149.157C99.4439 149.113 99.5388 149.039 99.6104 148.947C99.8445 148.729 100.106 148.54 100.388 148.387C101.004 147.948 101.525 147.394 101.925 146.756C102.937 145.245 104.074 143.821 105.326 142.503C106.083 141.699 106.816 140.91 107.51 140.052C108.353 139.023 109.314 138.081 110.021 136.956C110.371 136.24 110.759 135.545 111.184 134.874C111.56 134.339 111.882 133.77 112.154 133.176C112.827 131.818 113.291 130.369 113.809 128.949C114.328 127.528 114.695 126.199 114.756 124.707C114.802 123.823 114.794 122.937 114.73 122.054C114.663 121.214 114.614 120.282 113.959 119.671C113.55 119.315 113.111 118.993 112.65 118.708C111.596 118.051 110.402 118.481 109.253 118.376C108.887 118.343 108.503 118.309 108.14 118.253C108.045 118.25 107.95 118.232 107.862 118.196C107.004 118.525 106.161 118.891 105.332 119.292C105.022 119.405 104.742 119.585 104.512 119.82C104.008 120.479 103.435 121.082 102.802 121.619C102.429 121.921 102.092 122.369 101.575 122.4C101.24 122.421 100.821 122.114 100.852 121.739C100.875 121.449 101.196 121.246 101.413 121.099C101.773 120.855 102.157 120.647 102.509 120.389C102.901 120.074 103.264 119.722 103.591 119.34C103.996 118.92 104.415 118.5 104.856 118.099C105.728 117.302 106.7 116.622 107.75 116.076C110.331 114.772 114.233 114.475 116.706 116.903C117.971 118.146 118.563 119.818 118.976 121.29C120.503 126.728 120.374 132.235 118.614 136.796C117.009 140.959 113.946 144.397 110.274 146.311C110.398 146.336 110.52 146.37 110.638 146.411L111.193 146.567L112.291 146.886C113.082 147.121 113.87 147.364 114.652 147.618C116.162 148.105 117.655 148.628 119.134 149.184C122.086 150.303 124.989 151.552 127.839 152.931C130.692 154.31 133.468 155.827 136.167 157.483C136.818 157.88 137.465 158.285 138.106 158.694C138.374 158.9 138.663 159.074 138.968 159.215C139.196 159.28 139.417 159.366 139.626 159.477C139.767 159.561 139.89 159.674 139.98 159.811C140.039 159.907 140.254 160.201 140.223 160.298C140.191 160.394 139.801 160.508 139.689 160.508C139.576 160.518 139.462 160.504 139.352 160.468Z" fill="#393BC4"/>
<path d="M87.7025 140.463C87.2724 140.465 86.8487 140.339 86.4903 140.102C85.8304 139.682 85.5353 138.979 85.3413 138.522L84.9555 137.604C82.8157 132.517 80.6021 127.253 75.2578 125.152L75.9936 123.3C82.1073 125.71 84.6013 131.62 86.7939 136.836L87.1776 137.747C87.2788 137.982 87.4284 138.339 87.576 138.436C87.7868 138.57 88.4024 138.291 89.0644 137.596C93.0868 133.279 96.1711 128.182 98.1296 122.627L100.027 123.284C97.9799 129.1 94.7502 134.433 90.5401 138.952C89.5999 139.94 88.6069 140.463 87.7025 140.463Z" fill="#393BC4"/>
<path d="M75.6486 116.955C77.8748 114.974 78.3871 111.933 76.7954 110.159C75.2037 108.388 72.1089 108.558 69.8848 110.539C67.6585 112.52 67.1462 115.564 68.7379 117.335C70.3296 119.107 73.4244 118.937 75.6486 116.955Z" fill="#393BC4"/>
<path d="M108.202 117.274C109.793 115.501 109.281 112.457 107.055 110.476C104.831 108.495 101.736 108.327 100.144 110.098C98.5525 111.87 99.0647 114.913 101.291 116.894C103.515 118.876 106.61 119.046 108.202 117.274Z" fill="#393BC4"/>
<path d="M64.0545 176.212C63.0847 176.275 62.1296 176.459 61.162 176.55C60.1079 176.648 59.1128 176.51 58.0714 176.466C57.6076 176.474 57.1438 176.535 56.6905 176.642C56.0707 176.749 55.4382 176.72 54.8184 176.818C54.3715 176.89 53.9224 176.934 53.4818 177.028C53.0265 177.165 52.5585 177.263 52.0841 177.32C51.361 177.36 50.4524 177.228 50.5114 176.287C50.5304 176.004 50.6042 176.021 50.8825 175.96C51.4411 175.836 52.0251 175.769 52.569 175.611C54.5844 175.038 56.6083 174.44 58.6828 174.127C59.2625 174.035 59.8444 173.972 60.4283 173.939C61.3053 173.899 62.0959 174.071 62.9582 173.825C64.2189 173.435 65.4353 172.912 66.5843 172.268C67.164 171.961 67.7417 171.653 68.313 171.336C68.5091 171.208 68.6924 171.063 68.8611 170.904C69.7402 170.198 71.0536 170.496 72.074 170.209C73.2061 169.888 74.4183 169.776 75.5778 169.564C76.2251 169.445 76.8849 169.407 77.5089 169.189C79.1301 168.609 80.7155 167.931 82.2503 167.155C83.1083 166.712 83.9347 166.21 84.7211 165.652C84.9108 165.522 85.2249 165.327 85.3198 165.104C85.3556 164.93 85.3599 164.752 85.3346 164.575C85.3346 163.192 85.3514 161.819 85.4252 160.436C85.48 159.446 85.44 158.451 85.3029 157.466C85.2671 157.204 85.3029 156.793 85.2144 156.547C84.8286 156.757 84.4597 157.009 84.0528 157.196C83.5552 157.391 83.0387 157.531 82.5096 157.615C81.8349 157.769 81.0549 157.643 80.4014 157.861C80.1906 157.93 80.2074 158.018 79.9797 158.165L77.8378 158.795L74.5638 159.597C72.5947 160.077 70.71 160.793 68.6946 161.131C66.6792 161.469 64.5625 161.341 62.526 161.719C60.7762 162.046 59.0306 162.745 57.2281 162.63C56.5956 162.59 55.2611 162.283 55.1199 161.488C55.4361 161.335 55.8177 161.349 56.1571 161.299C56.7769 161.186 57.3862 161.026 57.9807 160.818C59.077 160.472 60.0889 160.151 61.259 160.044C62.429 159.937 63.5569 160.058 64.708 160.044C65.117 160.037 65.5238 160.006 65.9286 159.949C67.6363 159.712 69.2554 159.07 70.8344 158.409C71.5385 158.113 72.3544 157.878 72.9869 157.45C73.5245 157.086 74.0094 156.61 74.6524 156.423C75.1351 156.301 75.6306 156.234 76.1281 156.226C76.5497 156.203 76.9377 155.949 77.393 155.943C77.8484 155.936 78.3375 155.943 78.8161 155.896C80.4183 155.722 81.6663 154.471 83.0893 153.814C83.3444 153.663 83.6353 153.583 83.9326 153.579C84.1898 153.588 84.4449 153.579 84.7 153.552C84.8518 153.499 84.9888 153.411 85.0963 153.296C85.3514 152.983 85.3599 152.404 85.3873 152.036C85.4969 150.678 85.9122 149.379 86.2748 148.074C86.3992 147.654 86.414 147.209 86.3191 146.783C86.2685 146.546 86.239 146.304 86.2306 146.063C86.2306 145.853 86.336 145.452 86.2306 145.297C86.0029 144.963 85.3451 145.349 85.1448 145.538C85.0668 145.62 84.9951 145.708 84.934 145.803C83.1104 146.086 81.2636 146.099 79.4295 146.222C78.7191 146.26 78.0044 146.227 77.2981 146.124C76.1007 145.964 74.9032 145.809 73.7142 145.645C72.4092 145.471 71.1274 145.152 69.892 144.694C68.6609 144.233 67.573 143.536 66.3924 142.954C65.0221 142.276 63.5885 142.226 62.1002 142.018C60.5738 141.808 59.0707 141.445 57.5443 141.217C56.2288 140.994 54.8922 140.916 53.5599 140.99C52.4067 141.084 51.2619 141.252 50.1298 141.494C49.0841 141.764 48.0364 142.018 46.9823 142.255L45.9746 142.39C45.4686 142.367 44.9626 142.337 44.4566 142.304C43.0673 142.304 41.8319 142.724 40.5333 143.143C40.2887 143.221 38.9585 143.523 39.4792 142.889C39.5572 142.959 39.6331 142.902 39.7048 142.721C39.9536 142.516 40.196 142.306 40.4321 142.092C40.6155 141.884 40.8285 141.704 41.0646 141.559C43.0442 140.667 45.281 140.144 47.4355 139.859C53.1656 139.097 58.9652 140.123 64.5541 141.351L65.6609 141.594C68.45 142.209 71.2413 142.824 74.0705 143.232C75.8519 143.498 77.6481 143.645 79.4485 143.672C81.0254 143.685 82.6255 143.704 84.1476 143.252C84.8581 143.043 85.4126 142.701 86.0619 142.352C86.4962 142.117 86.9431 141.92 87.3837 141.697C87.5461 141.576 87.74 141.502 87.9424 141.487C88.0014 141.697 87.9319 141.972 87.9424 142.197C87.9635 142.428 88.0078 142.654 88.071 142.877C88.5074 144.346 89.1251 145.719 89.1926 147.285C89.2284 148.275 89.1082 149.258 89.0555 150.246C89.007 151.203 88.8447 152.156 88.8447 153.113C88.8447 153.224 88.8953 153.462 88.83 153.564C88.7246 153.73 88.3957 153.739 88.2418 153.82C87.6262 154.15 87.0823 154.75 86.5868 155.244C87.0253 154.962 87.3458 154.545 87.8328 154.347C88.2101 154.211 88.6086 154.135 89.0092 154.125C89.2642 154.102 89.5173 154.095 89.7723 154.104C89.9832 154.2 89.8735 154.639 89.8672 154.813C89.8356 155.466 89.7154 156.102 89.6332 156.746C89.3465 158.959 89.4941 161.28 89.6058 163.501C89.6332 164.483 89.7112 165.465 89.8398 166.439C89.8904 166.756 89.9473 167.069 89.9726 167.392C89.9895 167.596 89.9536 167.799 89.8672 167.984C89.7723 168.284 89.5994 168.553 89.3675 168.765C88.9227 169.134 88.2818 169.552 87.7147 169.659C87.8096 169.757 88.0837 169.638 88.2692 169.598C89.1441 169.409 90.0527 169.535 90.9382 169.376C91.3113 169.283 91.6908 169.212 92.0724 169.166C92.2199 169.138 92.3718 169.138 92.5193 169.166C92.7765 169.298 92.7596 170.026 92.7849 170.265C92.9409 171.695 93.0295 173.151 93.0527 174.589C93.0843 176.707 92.8798 178.821 92.7428 180.932C92.6711 182.026 92.6606 183.111 92.6521 184.204C92.6184 185.455 92.5193 186.704 92.3591 187.947C92.2347 188.893 92.1567 189.848 92.1272 190.803C92.1546 191.196 92.1441 191.592 92.0935 191.983C91.8742 192.035 91.6465 192.035 91.4272 191.983C91.3218 191.943 91.2628 191.802 91.1342 191.748L90.1286 191.687C89.4962 191.708 88.8489 191.792 88.2312 191.75C88.0457 191.735 87.8749 191.664 87.6894 191.641C87.1434 191.571 86.5321 191.664 85.9818 191.7C85.2798 191.744 84.5862 191.809 83.8989 191.891C77.8758 192.615 72.1183 194.693 66.4283 196.695C65.3995 197.056 64.3685 197.419 63.3355 197.776C59.9224 198.951 56.4797 200.059 52.9548 200.855C52.0714 201.054 51.1839 201.235 50.2943 201.39C49.6007 201.512 48.9049 201.665 48.1987 201.583C46.9675 201.438 45.7363 201.539 44.503 201.552C44.0118 201.56 43.5185 201.543 43.0273 201.504C42.3464 201.441 41.6844 201.703 41.0034 201.648C40.742 201.627 39.6479 201.424 39.7975 200.918C39.846 200.756 40.2445 200.569 40.3667 200.498C40.6239 200.345 40.8917 200.211 41.1679 200.093C42.222 199.614 43.1896 199.004 44.2627 198.594C45.7827 198.015 47.387 197.665 48.9176 197.125C51.0258 196.378 52.9801 195.253 54.9091 194.12C56.9857 192.9 59.1255 191.767 61.2864 190.715C61.9758 190.381 62.682 190.121 63.3946 189.823C64.1409 189.481 64.8556 189.078 65.5344 188.62C66.6307 187.93 67.7712 187.317 68.9518 186.784C70.1408 186.24 71.3066 185.764 72.6116 185.617C74.0135 185.459 75.4366 185.407 76.828 185.098C78.3037 184.788 79.7478 184.349 81.1456 183.787C82.5897 183.186 83.8862 182.204 85.362 181.719C85.8342 181.564 86.5679 181.299 87.076 181.457C87.135 180.964 87.1898 180.472 87.2214 179.977C87.3142 178.577 87.4322 177.179 87.5756 175.779C87.6494 175.299 87.6325 174.807 87.525 174.333C87.4702 174.144 87.4301 173.953 87.4027 173.758C87.388 173.62 87.3816 173.479 87.3816 173.338C87.3816 173.068 87.3816 172.797 87.4027 172.526C87.4027 172.434 87.4554 172.243 87.4027 172.159C87.1919 171.854 85.927 172.476 85.7309 172.551C84.7759 172.975 83.7787 173.303 82.7563 173.527C81.6642 173.701 80.5616 173.794 79.4548 173.808C78.1604 173.857 76.8533 173.878 75.561 173.999C74.3108 174.117 73.1197 174.491 71.9222 174.839C69.3608 175.59 66.7213 176.05 64.0545 176.212Z" fill="#393BC4"/>
<path d="M71.7665 193.414C72.2978 198.872 73.5163 205.46 78.2787 207.851C81.7868 209.609 85.999 208.361 88.7733 206.608C92.0727 204.522 94.6299 201.329 97.3958 197.679L100.857 200.28C97.8322 204.268 95.0094 207.777 91.0966 210.25C88.2231 212.067 85.0502 212.999 82.0482 212.999C80.0665 213.02 78.108 212.575 76.3308 211.704C69.5993 208.329 68.0392 199.885 67.4531 193.83" fill="#393BC4"/>
<path d="M65.9531 142.174C66.535 121.961 68.211 101.791 69.9418 80.9947C70.5047 74.2006 71.0571 67.4043 71.5968 60.6059C71.854 57.319 72.0985 54.03 72.3325 50.741C72.3852 49.9959 72.459 49.3663 72.2798 48.6421C72.1828 48.1846 72.1934 47.7102 72.3072 47.2568C72.4337 46.5852 72.5623 45.9157 72.6972 45.2482C72.7478 44.9229 72.8174 44.5996 72.9081 44.2827C73.0367 44.0035 73.2053 43.7453 73.4056 43.5145C73.6438 43.2164 73.8272 42.9373 74.038 42.6246C74.1624 42.421 74.3543 42.2656 74.5798 42.188C75.2418 41.9277 76.1188 41.7892 76.4561 42.5238C76.8124 43.3088 76.9895 44.1631 76.9768 45.0257C76.9768 45.7268 76.9157 46.4362 77.0506 47.1246C77.1582 47.6766 77.4175 48.321 77.3268 48.894C77.2868 49.1354 77.0696 49.3264 76.9685 49.5384C76.8251 49.8595 76.7239 50.1974 76.6691 50.5458C76.5447 51.2175 76.4751 51.8975 76.4582 52.5818C76.4582 53.2115 76.5974 53.8684 76.5236 54.4855C76.4899 54.666 76.4456 54.8444 76.3887 55.0207C76.3276 55.3062 76.2917 55.5979 76.2812 55.8918L76.1231 57.9907C75.9671 60.0539 75.8068 62.1171 75.6424 64.1761C75.4274 66.9236 75.206 69.6732 74.9783 72.4207C74.7548 75.1346 74.5313 77.8505 74.3037 80.5644L74.2404 81.3326C72.4822 102.46 70.7809 122.939 70.2348 143.446" fill="#393BC4"/>
<path d="M43.511 103.294C43.2264 103.145 42.9966 102.912 42.8511 102.626C42.6024 102.12 42.577 101.772 42.031 101.598C40.861 101.222 39.7204 100.758 38.62 100.208C37.3972 99.6059 36.1997 98.8397 34.9201 98.3737C33.4802 97.849 32.2026 97.6308 30.6636 97.8344C27.651 98.229 24.6426 98.3276 21.6511 98.9195C20.0531 99.2385 18.4972 99.738 17.0131 100.408C16.311 100.785 15.6385 101.214 14.9976 101.688C14.6561 101.923 14.3146 102.156 13.9688 102.387C12.8831 103.119 11.7805 103.829 10.6779 104.538C10.1129 104.901 9.14737 105.642 8.4601 105.168C7.33011 104.375 8.15441 102.53 8.4601 101.543C9.31603 98.7411 10.1888 95.9432 11.2008 93.1936C13.174 87.8246 15.7397 82.6592 19.4227 78.2326C29.3523 66.2919 45.0437 57.6466 66.0603 52.5378C73.9871 50.6089 94.5863 46.6063 114.635 51.0686C116.138 51.4023 117.629 51.7843 119.107 52.2188C123.028 53.348 126.81 54.9096 130.381 56.8742C133.651 58.6793 136.67 60.904 139.356 63.492C141.938 66.0023 144.152 68.8632 145.929 71.9905C146.829 73.5752 147.616 75.2228 148.284 76.9166C148.628 77.7814 148.94 78.6567 149.224 79.5424C149.513 80.4407 150.129 81.5069 149.962 82.4619C149.907 82.7747 149.813 83.0916 149.732 83.4002C149.665 83.6562 149.581 84.1998 149.372 84.3866C148.917 84.7959 148.244 84.3425 147.755 84.2103C147.333 84.0949 146.971 83.8535 146.551 83.7297C145.687 83.4736 144.831 83.5198 143.992 83.1336C143.243 82.7852 142.683 82.6908 141.854 82.5291C140.378 82.2374 139.156 81.3643 137.707 81.0599C136.118 80.7283 134.351 80.7891 132.721 80.6946C131.092 80.6002 129.54 80.3378 127.944 80.1174C126.918 79.9768 125.876 79.9663 124.852 79.8257C123.391 79.6158 122.024 79.1351 120.635 78.6314C119.845 78.3439 119.071 78.0017 118.238 77.8758C116.748 77.6365 115.076 77.7645 113.6 77.8758C112.28 77.9744 110.959 78.1571 109.635 78.2012C108.441 78.241 107.316 78.2746 106.143 78.5853C103.656 79.2464 101.67 81.0599 99.7345 82.674C97.0508 84.9156 94.7634 87.5371 92.6257 90.2972C91.8709 91.2731 91.1035 92.2471 90.4162 93.2734C90.1801 93.6261 90.0368 93.9933 89.8196 94.348C89.7142 94.2703 89.5751 94.2851 89.4781 94.2222C89.282 94.0962 89.1556 93.8947 88.9237 93.7876C88.1879 93.4455 87.3825 93.2377 86.6341 92.8809C85.7909 92.4842 85.2975 91.8566 84.585 91.2983C83.9525 90.8072 83.1409 90.4944 82.4768 90.0747C81.6651 89.5688 80.9547 88.9307 80.0502 88.5928C79.1543 88.257 78.2393 87.9715 77.3096 87.7364C76.4663 87.5266 75.6083 87.5602 74.7545 87.5644C73.9534 87.5644 73.1691 87.4196 72.3722 87.365C70.9597 87.2643 69.4692 87.4658 68.0546 87.5014C64.2746 87.5959 60.3555 88.2906 56.9634 90.0075C53.6324 91.6867 51.3661 95.0239 49.1082 97.8742C48.4294 98.7327 47.5166 99.5345 46.9431 100.485C46.454 101.295 46.121 102.223 45.2903 102.765C44.8097 103.079 44.1266 103.623 43.6038 103.354C43.5722 103.336 43.5405 103.315 43.511 103.294Z" fill="#393BC4"/>
<path d="M128.012 0.201487C127.833 0.510026 127.766 0.963391 127.55 1.25094C126.749 2.3004 125.586 2.97419 124.833 4.07401C124.475 4.70159 124.07 5.29978 123.621 5.86649C123.191 6.28627 122.706 6.6451 122.177 6.93265C121.791 7.07747 121.47 7.36088 121.281 7.72609C120.674 8.8742 120.281 10.2805 119.875 11.5041C119.573 12.3626 119.449 13.2735 119.506 14.1802C119.66 16.0063 120.931 16.8291 122.681 16.2791C123.714 15.9559 124.947 15.3514 125.59 14.4446C126.446 13.2378 126.547 11.4327 126.966 10.0537C127.251 9.11344 127.584 8.18363 127.81 7.22863C128.231 5.49703 128.383 3.67725 128.491 1.90367C128.531 1.25511 128.508 0.556211 128.151 0C128.094 0.0587694 128.048 0.125926 128.012 0.201487Z" fill="#393BC4"/>
<path d="M52.2444 17.6288C52.1284 17.9646 52.1474 18.4242 51.9872 18.7432C51.3969 19.9186 50.3786 20.798 49.8431 22.0175C49.6091 22.6996 49.3224 23.3629 48.9872 24.0031C48.6414 24.4942 48.2304 24.9371 47.7644 25.317C47.4124 25.5332 47.151 25.8711 47.0329 26.2678C46.6513 27.5082 46.529 28.9628 46.3582 30.2557C46.2212 31.1541 46.2676 32.0713 46.4932 32.9528C46.9865 34.718 48.3906 35.2931 50.0054 34.4221C50.9605 33.9141 52.0588 33.0935 52.5226 32.0818C53.1382 30.7385 52.9021 28.946 53.056 27.5145C53.1614 26.5364 53.3153 25.5625 53.3659 24.5761C53.4587 22.7983 53.269 20.9807 53.0434 19.2176C52.9612 18.5732 52.8073 17.8911 52.354 17.4105C52.3055 17.4776 52.2697 17.5511 52.2444 17.6288Z" fill="#393BC4"/>
<path d="M17.4521 45.6092C17.2729 46.1172 17.3024 46.8098 17.0599 47.2884C16.1682 49.0682 14.6313 50.3948 13.8239 52.2376C13.4676 53.2682 13.0354 54.2715 12.5294 55.237C12.0087 55.9779 11.3868 56.6474 10.6848 57.2225C10.1514 57.5479 9.75504 58.0601 9.57795 58.6582C9.00241 60.5326 8.81482 62.728 8.55762 64.6716C8.35523 66.0296 8.42691 67.4148 8.76844 68.7455C9.51263 71.4111 11.6292 72.2801 14.0726 70.9788C15.5168 70.2127 17.1759 68.9722 17.8674 67.4463C18.7971 65.4166 18.4408 62.7091 18.6748 60.5473C18.833 59.078 19.0649 57.5983 19.1408 56.1143C19.282 53.4277 18.9932 50.6824 18.6537 48.0209C18.5294 47.047 18.2975 46.0165 17.6123 45.2924C17.5427 45.3889 17.49 45.4959 17.4521 45.6092Z" fill="#393BC4"/>
<path d="M121.94 36.349C121.822 36.6869 121.841 37.1445 121.681 37.4635C121.091 38.641 120.072 39.5183 119.539 40.7399C119.303 41.422 119.016 42.0852 118.681 42.7233C118.337 43.2165 117.926 43.6594 117.46 44.0393C117.106 44.2555 116.845 44.5934 116.729 44.9901C116.345 46.2306 116.223 47.6851 116.052 48.9781C115.917 49.8764 115.964 50.7936 116.187 51.673C116.68 53.4382 118.084 54.0134 119.699 53.1528C120.654 52.6449 121.755 51.8242 122.216 50.8146C122.832 49.4692 122.596 47.6788 122.752 46.2453C122.857 45.2693 123.009 44.2933 123.06 43.3068C123.152 41.529 122.963 39.7114 122.737 37.9504C122.655 37.3039 122.501 36.6239 122.048 36.1411C122.001 36.2041 121.966 36.2755 121.94 36.349Z" fill="#393BC4"/>
<path d="M155.854 36.2502C155.736 36.5881 155.755 37.0457 155.595 37.3647C155.005 38.5422 153.986 39.4196 153.453 40.6411C153.217 41.3233 152.93 41.9865 152.595 42.6267C152.251 43.1178 151.84 43.5607 151.374 43.9406C151.02 44.1568 150.759 44.4947 150.643 44.8914C150.259 46.1319 150.137 47.5864 149.966 48.8793C149.831 49.7777 149.878 50.695 150.101 51.5744C150.594 53.3396 151.998 53.9168 153.613 53.0436C154.568 52.5357 155.667 51.715 156.131 50.7054C156.746 49.36 156.51 47.5696 156.666 46.1361C156.771 45.1601 156.923 44.1841 156.974 43.1976C157.067 41.4198 156.877 39.6022 156.651 37.8412C156.569 37.1947 156.415 36.5147 155.962 36.0319C155.915 36.0991 155.88 36.1726 155.854 36.2502Z" fill="#393BC4"/>
<path d="M5.96371 113.07C5.84565 113.408 5.86463 113.866 5.70441 114.185C5.11411 115.362 4.09582 116.24 3.56245 117.461C3.32633 118.143 3.03965 118.807 2.70445 119.447C2.36081 119.938 1.9497 120.381 1.48379 120.761C1.12962 120.977 0.868206 121.315 0.752255 121.711C0.368564 122.952 0.246296 124.406 0.0755325 125.699C-0.0593921 126.598 -0.0130344 127.515 0.210434 128.394C0.703752 130.16 2.10779 130.737 3.72267 129.864C4.67768 129.356 5.77609 128.535 6.2399 127.525C6.85549 126.18 6.61933 124.39 6.77534 122.956C6.88074 121.98 7.03258 121.004 7.08318 120.018C7.17594 118.24 6.98619 116.422 6.76061 114.661C6.6784 114.015 6.52449 113.335 6.07123 112.852C6.02485 112.919 5.98901 112.993 5.96371 113.07Z" fill="#393BC4"/>
</svg>
