<svg width="114" height="39" viewBox="0 0 114 39" fill="none" xmlns="http://www.w3.org/2000/svg">
<path d="M106.683 37.5841H6.52413C3.34855 37.5841 0.753906 34.9414 0.753906 31.709V6.64412C0.753906 3.41176 3.34855 0.769043 6.52413 0.769043H106.656C107.414 0.768921 108.165 0.920801 108.865 1.21601C109.565 1.51122 110.201 1.94397 110.736 2.48954C111.273 3.03511 111.698 3.68283 111.988 4.39568C112.278 5.10853 112.426 5.87255 112.426 6.64412V31.709C112.452 34.9414 109.857 37.5841 106.683 37.5841Z" fill="#2C2C38"/>
<path d="M106.685 0.769786C107.443 0.769664 108.193 0.921544 108.893 1.21675C109.593 1.51196 110.23 1.94471 110.765 2.49028C111.301 3.03585 111.726 3.68357 112.016 4.39642C112.306 5.10927 112.455 5.8733 112.455 6.64486V31.7098C112.455 32.4813 112.306 33.2454 112.016 33.9582C111.726 34.6711 111.301 35.3188 110.765 35.8644C110.23 36.4099 109.593 36.8427 108.893 37.1379C108.193 37.4331 107.443 37.5849 106.685 37.5849H6.52627C3.3516 37.5849 0.756048 34.9421 0.756048 31.7098V6.64486C0.756048 3.4125 3.3516 0.769786 6.52627 0.769786H106.685ZM106.685 0H6.52627C4.79547 0.000246211 3.13563 0.700407 1.91177 1.94651C0.687907 3.19261 0.000241817 4.88261 0 6.64486V31.7098C0.000241817 33.472 0.687907 35.162 1.91177 36.4082C3.13563 37.6542 4.79547 38.3544 6.52627 38.3546H106.66C108.391 38.3542 110.05 37.6539 111.274 36.4078C112.498 35.1618 113.186 33.4718 113.186 31.7098V6.64486C113.211 2.97607 110.263 0 106.685 0Z" fill="#4C4C4C"/>
<path d="M24.1255 19.3759C24.1492 18.4343 24.4008 17.5132 24.8579 16.6942C25.3149 15.8753 25.9633 15.1838 26.7457 14.681C26.2354 13.9699 25.5787 13.3811 24.8214 12.9558C24.0641 12.5303 23.2246 12.2787 22.3617 12.2185C20.4967 11.9882 18.7329 13.3216 17.7507 13.3216C16.7675 13.3216 15.3311 12.2185 13.7944 12.2185C12.7909 12.261 11.8137 12.5579 10.9513 13.082C10.0889 13.6062 9.36873 14.3413 8.85589 15.2205C6.81483 18.9404 8.35155 24.5072 10.4182 27.5343C11.4004 28.9968 12.6097 30.6645 14.1473 30.6645C15.6841 30.5624 16.2386 29.6645 18.1027 29.6645C19.9677 29.6645 20.3964 30.6645 22.0589 30.6645C23.6969 30.6645 24.6791 29.202 25.6878 27.6634C26.4469 26.6266 27.003 25.4506 27.3257 24.1998C26.3605 23.8424 25.5311 23.1834 24.9561 22.3169C24.3812 21.4504 24.091 20.421 24.1255 19.3759ZM21.0512 10.3455C21.4983 9.81069 21.8358 9.19 22.0434 8.52016C22.2512 7.85033 22.325 7.14491 22.2605 6.44556C21.5791 6.49665 20.9157 6.69192 20.3127 7.01889C19.7097 7.34587 19.1803 7.79735 18.7584 8.34449C18.3055 8.85517 17.9637 9.45746 17.7551 10.1119C17.5465 10.7664 17.476 11.4583 17.5482 12.1423C18.9089 12.0643 20.1948 11.4236 21.0512 10.3455ZM41.8056 25.7487H37.3705L36.3381 29.0321H34.4485L38.7057 17.1037H40.5953L44.8279 29.033H42.9383L41.8056 25.7487ZM37.8493 24.3113H41.428L39.6387 19.0268H39.5383L37.8493 24.3113ZM54.0017 24.6966C54.0017 27.3895 52.59 29.1092 50.423 29.1092C49.315 29.1603 48.2817 28.5706 47.7783 27.5696V31.906H45.9889V20.3611H47.7016V21.7976C47.9744 21.3071 48.3757 20.9033 48.8608 20.6314C49.3458 20.3595 49.8955 20.2303 50.4486 20.258C52.4896 20.181 54.0017 22.0028 54.0017 24.6966ZM52.1112 24.6966C52.1112 22.9518 51.2548 21.7976 49.8439 21.7976C48.5088 21.7976 47.5758 22.9518 47.5758 24.6966C47.5758 26.4414 48.5334 27.5956 49.8439 27.5956C51.2548 27.5696 52.1112 26.4414 52.1112 24.6966ZM63.3488 24.6966C63.3488 27.3895 61.938 29.1092 59.771 29.1092C58.6621 29.1603 57.6297 28.5706 57.1253 27.5696V31.906H55.336V20.3611H57.0496V21.7976C57.3224 21.3072 57.7236 20.9037 58.2084 20.6318C58.6933 20.36 59.2428 20.2306 59.7957 20.258C61.938 20.181 63.3488 22.0028 63.3488 24.6966ZM61.5595 24.6966C61.5595 22.9518 60.7031 21.7976 59.2922 21.7976C57.9571 21.7976 57.0241 22.9518 57.0241 24.6966C57.0241 26.4414 57.9817 27.5956 59.2922 27.5956C60.7031 27.5696 61.5595 26.4414 61.5595 24.6966ZM69.5988 25.6465C69.6991 26.7998 70.8327 27.5696 72.446 27.5696C73.9572 27.5696 74.9905 26.7998 74.9905 25.7487C74.9905 24.7737 74.3357 24.3113 72.8236 23.9268L71.3115 23.5424C69.1446 22.9518 68.187 22.0028 68.187 20.3611C68.187 18.334 69.9763 16.8975 72.446 16.8975C74.9148 16.8975 76.6029 18.334 76.7042 20.3611H74.9148C74.8788 20.0712 74.7869 19.7913 74.6445 19.5376C74.5021 19.2839 74.312 19.0612 74.0849 18.8824C73.8579 18.7036 73.5984 18.5721 73.3215 18.4956C73.0444 18.419 72.7553 18.3989 72.4707 18.4362C71.0598 18.4362 70.1022 19.2069 70.1022 20.258C70.1022 21.1309 70.7579 21.6184 72.2691 22.0028L73.6052 22.2851C75.9736 22.8748 77.0069 23.8238 77.0069 25.5435C77.0069 27.7498 75.2176 29.1863 72.4707 29.1863C69.8259 29.1863 68.1368 27.8268 68.0365 25.6205L69.5988 25.6465ZM80.5592 18.257V20.284H82.1716V21.7205H80.5592V26.5175C80.5592 27.2883 80.8364 27.5696 81.5916 27.5696H82.1716V29.0321C81.8598 29.1183 81.5365 29.1527 81.214 29.1343C79.5004 29.1343 78.8455 28.4675 78.8455 26.8258V21.7976H77.6107V20.3611H78.8455V18.334H80.5592V18.257ZM83.204 24.6966C83.204 22.0028 84.8173 20.284 87.2615 20.284C89.7302 20.284 91.3177 22.0288 91.3177 24.6966C91.3177 27.4925 89.7056 29.1092 87.2615 29.1092C84.717 29.1092 83.204 27.3904 83.204 24.6966ZM89.5287 24.6966C89.5287 22.7726 88.6714 21.7205 87.2615 21.7205C85.8497 21.7205 84.9933 22.7726 84.9933 24.6966C84.9933 26.6206 85.8506 27.6727 87.2615 27.6727C88.6723 27.6727 89.5287 26.5175 89.5287 24.6966ZM92.7295 20.258H94.4422V21.7976C94.5635 21.335 94.838 20.9292 95.2192 20.6488C95.6004 20.3683 96.0656 20.2303 96.5343 20.258C96.8116 20.258 97.0131 20.258 97.1134 20.3602V22.0028C96.8617 21.9007 96.61 21.8747 96.3574 21.9007C95.8977 21.8856 95.4509 22.0544 95.1116 22.3707C94.7732 22.6871 94.569 23.1259 94.5434 23.5935C94.5434 23.6956 94.5434 23.7978 94.569 23.9008V29.0832H92.7295V20.258ZM105.202 26.4154C105.025 27.955 103.413 29.1092 101.523 29.1092C99.0533 29.1092 97.4664 27.3644 97.4664 24.6966C97.4664 22.0288 98.9776 20.181 101.422 20.181C103.79 20.181 105.302 21.8227 105.302 24.5174V25.107H99.2548V25.1841C99.232 25.4894 99.2676 25.7965 99.3615 26.0875C99.4555 26.3784 99.6059 26.6475 99.802 26.879C99.999 27.1106 100.24 27.3 100.509 27.4363C100.779 27.5725 101.072 27.6528 101.372 27.6727H101.523C102.379 27.7238 103.186 27.2363 103.513 26.4154H105.202ZM99.2548 23.8247H103.513C103.614 22.6955 102.782 21.7205 101.674 21.6175H101.422C100.852 21.6308 100.307 21.8675 99.9042 22.2787C99.5001 22.6898 99.2676 23.2436 99.2548 23.8247ZM34.8479 6.97763C35.2264 6.72134 35.7052 6.5672 36.2843 6.5672C37.2173 6.5672 37.8721 7.07977 37.8721 7.92663C37.8721 8.61934 37.3933 9.13284 36.7631 9.26098V9.28513C37.5201 9.36219 38.0737 9.87569 38.0737 10.6705C38.0737 11.8257 37.0914 12.2872 36.1083 12.2872C35.6049 12.2872 35.1005 12.185 34.6974 11.9278L34.8735 11.3633C35.1762 11.5434 35.655 11.6975 36.0837 11.6975C36.8899 11.6975 37.3422 11.2611 37.3422 10.6455C37.3422 9.82462 36.5616 9.56833 35.8557 9.56833H35.5292V9.02977H35.8566C36.5616 9.02977 37.1416 8.56734 37.1416 8.00277C37.1416 7.4382 36.7631 7.12991 36.1585 7.12991C35.7554 7.12991 35.3276 7.31006 35.0248 7.4902L34.8488 6.9767L34.8479 6.97763ZM41.1225 12.186L41.0723 11.6725H41.0468C40.8206 11.9808 40.4175 12.2621 39.863 12.2621C39.0814 12.2621 38.6783 11.6985 38.6783 11.1339C38.6783 10.1849 39.5101 9.6454 41.0222 9.6454V9.56833C41.0222 9.23499 40.9218 8.64534 40.1403 8.64534C39.7873 8.64534 39.4088 8.74748 39.1325 8.9527L38.9811 8.4652C39.3695 8.22908 39.8138 8.10516 40.2661 8.10677C41.4499 8.10677 41.7527 8.92763 41.7527 9.72248V11.211C41.7527 11.5443 41.7782 11.9037 41.8284 12.16L41.1225 12.186ZM41.0222 10.1589C40.2406 10.1329 39.3587 10.287 39.3587 11.0568C39.3587 11.5183 39.6615 11.7495 40.039 11.7495C40.5434 11.7495 40.8708 11.4153 40.9711 11.0819C41.0002 11.0085 41.0175 10.9307 41.0222 10.8516V10.1589ZM45.1289 8.20891V8.79948H43.4408V12.185H42.7349V8.20891H45.1289ZM45.7846 9.51726C45.7846 9.0047 45.7591 8.59427 45.7591 8.20891H46.3884L46.4139 8.90163H46.4394C46.7413 8.41413 47.1955 8.13184 47.8257 8.13184C48.7577 8.13184 49.4883 8.9527 49.4883 10.1589C49.4883 11.5954 48.631 12.2881 47.7244 12.2881C47.2201 12.2881 46.7668 12.0569 46.5151 11.6725H46.4896V13.8268H45.7846V9.51726ZM46.4896 10.5693C46.4896 10.6715 46.5151 10.7745 46.5151 10.8776C46.5709 11.12 46.7059 11.3359 46.8983 11.4896C47.0905 11.6434 47.3285 11.7259 47.5731 11.7235C48.3291 11.7235 48.7577 11.1079 48.7577 10.1849C48.7577 9.38912 48.3546 8.69641 47.5986 8.69641C47.1198 8.69641 46.6656 9.05577 46.5151 9.59433C46.4896 9.69648 46.4641 9.79955 46.4641 9.90262V10.5693H46.4896ZM50.4705 8.20891L51.3278 10.5693C51.4281 10.8256 51.5038 11.1339 51.5795 11.3902H51.605C51.6798 11.159 51.7555 10.8516 51.8567 10.5693L52.6374 8.23491H53.3943L52.3355 11.0568C51.8312 12.4163 51.4782 13.109 51.0003 13.5454C50.6474 13.8528 50.2945 13.9818 50.1184 14.0069L49.9415 13.3913C50.1184 13.3402 50.3446 13.212 50.5708 13.0319C50.7733 12.8787 50.9994 12.5955 51.1764 12.237C51.2019 12.16 51.2265 12.1089 51.2265 12.0569C51.2265 12.0058 51.2019 11.9548 51.1764 11.8777L49.6898 8.20984L50.4705 8.20891ZM54.3757 9.87662H54.704C55.3086 9.87662 55.7117 9.59433 55.7117 9.23591C55.7117 8.87563 55.409 8.67041 54.9548 8.67041C54.6538 8.67041 54.2753 8.77348 54.0236 8.9527L53.8467 8.51627C54.2498 8.25998 54.704 8.15784 55.1572 8.15784C55.7619 8.15784 56.4678 8.44013 56.4678 9.20991C56.4678 9.6974 56.0136 10.0308 55.5859 10.1078V10.1329C56.165 10.1849 56.6438 10.5433 56.6438 11.1339C56.6438 12.0068 55.7865 12.3132 54.9557 12.3132C54.5024 12.3132 54.0483 12.186 53.6953 12.0068L53.8722 11.5183C54.1892 11.6959 54.5437 11.7927 54.9055 11.8006C55.4847 11.8006 55.8631 11.5183 55.8631 11.1079C55.8631 10.5693 55.3086 10.4152 54.7286 10.4152H54.3757V9.87662ZM58.1057 8.20891V9.87662C58.1057 10.5173 58.1057 10.9027 58.0547 11.4673H58.0802C58.3064 10.9798 58.4578 10.6975 58.7095 10.236L59.9197 8.18384H60.7515V12.16H60.0711V10.5183C60.0711 9.87662 60.0957 9.54326 60.1213 8.90256H60.0957C59.844 9.41512 59.6671 9.72248 59.4409 10.1329C59.0624 10.7485 58.6347 11.5183 58.2316 12.211H57.45V8.20891H58.1057ZM64.5308 8.20891V8.77349H63.3206V12.16H62.6156V8.79856H61.4054V8.20891H64.529H64.5308ZM65.8404 8.20891V9.54326C66.0575 9.51048 66.2766 9.4934 66.4961 9.49219C67.378 9.49219 68.3101 9.77355 68.3101 10.8256C68.3101 11.236 68.1587 11.5183 67.907 11.7495C67.4784 12.1089 66.798 12.211 66.2189 12.211C65.8158 12.211 65.4619 12.186 65.161 12.16V8.20798L65.8404 8.20891ZM65.8404 11.6985C65.9663 11.7235 66.1432 11.7235 66.3694 11.7235C66.8983 11.7235 67.5796 11.5443 67.5796 10.8767C67.5796 10.1849 66.8737 10.0308 66.3447 10.0308C66.1678 10.0308 65.9918 10.0558 65.8404 10.0818V11.6975V11.6985ZM70.9303 8.25998C71.2075 8.20891 71.7119 8.15784 72.1651 8.15784C72.82 8.15784 73.9034 8.25998 73.9034 9.15791C73.9034 9.6454 73.5258 9.95369 73.0972 10.0558V10.0818C73.6772 10.1589 74.0803 10.4923 74.0803 11.0568C74.0803 12.1089 72.7944 12.2361 72.0137 12.2361C71.5851 12.2361 71.1318 12.211 70.9057 12.186V8.25998H70.9303ZM71.6106 11.7235C71.8122 11.7495 71.9636 11.7495 72.1907 11.7495C72.6695 11.7495 73.3744 11.6474 73.3744 11.0568C73.3744 10.4923 72.82 10.3641 72.1396 10.3641H71.6362V11.7235H71.6106ZM71.6106 9.87662H72.1396C72.6686 9.87662 73.1975 9.72248 73.1975 9.26098C73.1975 8.87563 72.871 8.67041 72.1396 8.67041C71.9134 8.67041 71.762 8.69641 71.586 8.69641V9.87662H71.6106Z" fill="white"/>
</svg>
