<svg width="24" height="24" viewBox="0 0 24 24" xmlns="http://www.w3.org/2000/svg">
<path d="M11.3241 19.7452L11.3241 19.7451L11.3192 19.7409L11.2093 19.6445L11.2075 19.643C8.56194 17.3363 6.46223 15.5002 5.027 13.7857C3.60527 12.0873 2.95048 10.6401 3.00293 9.1228C3.05138 7.80792 3.75403 6.53662 4.89127 5.79043L4.89181 5.79007C7.06151 4.36441 9.77692 5.01416 11.2514 6.6774L11.9997 7.52144L12.748 6.6774C14.2245 5.01189 16.9389 4.35712 19.1055 5.78867L19.1082 5.79043C20.2457 6.53679 20.9484 7.80848 20.9966 9.12367L20.9966 9.12449C21.0531 10.6345 20.4048 12.0755 18.9923 13.7688C17.5666 15.478 15.4796 17.309 12.8508 19.6108L12.7939 19.6605L12.7904 19.6636L12.694 19.7472L12.694 19.7472L12.6907 19.7501C12.3086 20.0844 11.7057 20.0839 11.3241 19.7452Z" stroke="#FF8A65" stroke-width="2"/>
</svg>
