<svg width="38" height="16" viewBox="0 0 38 16" fill="none" xmlns="http://www.w3.org/2000/svg">
<path d="M17.7781 4.58888C18.5663 4.58888 19.2503 4.73383 19.8301 5.02373C20.4189 5.30457 20.8674 5.70771 21.1754 6.23315C21.4925 6.75859 21.651 7.37463 21.651 8.08126V8.21715C21.651 8.92378 21.4925 9.54435 21.1754 10.0789C20.8583 10.6043 20.4099 11.012 19.8301 11.3019C19.2503 11.5827 18.5663 11.7231 17.7781 11.7231C16.8178 11.7231 16.0251 11.474 15.4 10.9757L15.3457 11.5601H13.5112V2.10208H15.4816V5.28192C16.1157 4.81989 16.8812 4.58888 17.7781 4.58888ZM19.6126 8.08126C19.6126 7.54676 19.4269 7.13003 19.0555 6.83107C18.6841 6.53211 18.1631 6.38263 17.4928 6.38263C17.067 6.38263 16.6729 6.45058 16.3105 6.58647C15.9572 6.72236 15.6809 6.90807 15.4816 7.14362V9.1548C15.6899 9.39034 15.9708 9.58059 16.3241 9.72554C16.6774 9.86143 17.067 9.92937 17.4928 9.92937C18.1631 9.92937 18.6841 9.77989 19.0555 9.48093C19.4269 9.18197 19.6126 8.76071 19.6126 8.21715V8.08126Z" fill="#1F5DEF"/>
<path d="M12.3336 4.75195V6.49134H10.8116C9.96003 6.49134 9.36212 6.70424 9.01786 7.13003V11.5601H7.06104V4.75195H8.89556L8.94992 5.37704C9.52066 4.96031 10.2273 4.75195 11.0698 4.75195H12.3336Z" fill="#1F5DEF"/>
<path d="M5.09296 2.64564V11.5601H3.04102V2.64564H5.09296Z" fill="#1F5DEF"/>
<path d="M30.718 11.7231C29.4406 11.7231 28.4441 11.5238 27.7284 11.1252C27.0218 10.7175 26.6685 10.1423 26.6685 9.3994V9.33145H28.5573V9.3994C28.5573 9.65306 28.7295 9.83878 29.0737 9.95655C29.418 10.0653 29.9751 10.1196 30.7452 10.1196C32.0135 10.1196 32.6476 9.93843 32.6476 9.57606V9.50811C32.6476 9.37222 32.5661 9.26804 32.403 9.19556C32.24 9.12309 31.9455 9.06873 31.5198 9.0325L29.7668 8.85584C28.7612 8.75619 28.0274 8.54782 27.5653 8.23074C27.1033 7.91366 26.8723 7.46523 26.8723 6.88543V6.74954C26.8723 6.07008 27.2075 5.54011 27.8779 5.15962C28.5573 4.77912 29.4995 4.58888 30.7044 4.58888C31.9546 4.58888 32.9149 4.78818 33.5853 5.1868C34.2557 5.58541 34.5909 6.16068 34.5909 6.9126V6.99414H32.702V6.9126C32.702 6.65894 32.5389 6.47775 32.2128 6.36904C31.8957 6.25127 31.3748 6.19238 30.6501 6.19238C30.0612 6.19238 29.6082 6.23315 29.2912 6.31469C28.9741 6.39622 28.8155 6.51399 28.8155 6.668V6.74954C28.8155 6.88543 28.888 6.98961 29.033 7.06208C29.187 7.13456 29.4361 7.18891 29.7804 7.22515L31.5605 7.40181C32.6295 7.51052 33.4041 7.72342 33.8842 8.0405C34.3735 8.35757 34.6181 8.81507 34.6181 9.41299V9.54888C34.6181 10.2374 34.2738 10.7719 33.5853 11.1524C32.8968 11.5329 31.941 11.7231 30.718 11.7231Z" fill="#1F5DEF"/>
<path d="M22.9354 2.06006H24.8354V3.96006H22.9354V2.06006Z" fill="#00BBFF"/>
<path d="M24.8354 4.72006V11.5601H22.9354V4.72006H24.8354Z" fill="#1F5DEF"/>
</svg>
