<svg width="25" height="24" viewBox="0 0 25 24" fill="none" xmlns="http://www.w3.org/2000/svg">
<path d="M11.8241 19.7452L11.8241 19.7451L11.8192 19.7409L11.7093 19.6445L11.7075 19.643C9.06194 17.3363 6.96223 15.5002 5.527 13.7857C4.10527 12.0873 3.45048 10.6401 3.50293 9.1228C3.55138 7.80792 4.25403 6.53662 5.39127 5.79043L5.39181 5.79007C7.56151 4.36441 10.2769 5.01416 11.7514 6.6774L12.4997 7.52144L13.248 6.6774C14.7245 5.01189 17.4389 4.35712 19.6055 5.78867L19.6082 5.79043C20.7457 6.53679 21.4484 7.80848 21.4966 9.12367L21.4966 9.12449C21.5531 10.6345 20.9048 12.0755 19.4923 13.7688C18.0666 15.478 15.9796 17.309 13.3508 19.6108L13.2939 19.6605L13.2904 19.6636L13.194 19.7472L13.194 19.7472L13.1907 19.7501C12.8086 20.0844 12.2057 20.0839 11.8241 19.7452Z" fill="#FF8A65" stroke="#FF8A65" stroke-width="2"/>
</svg>
