<svg width="128" height="38" viewBox="0 0 128 38" fill="none" xmlns="http://www.w3.org/2000/svg">
<path d="M120.181 37.213H6.87805C3.51439 37.213 0.757812 34.4437 0.757812 31.041V6.91045C0.757812 3.53176 3.51439 0.763428 6.90365 0.763428H120.205C123.595 0.763428 126.351 3.53269 126.351 6.93545V31.066C126.326 34.4437 123.569 37.213 120.181 37.213Z" fill="#2C2C38"/>
<path d="M120.181 0.763168C123.57 0.763168 126.327 3.53243 126.327 6.93519V31.0657C126.327 34.4694 123.57 37.2378 120.181 37.2378H6.87909C3.51543 37.2128 0.758857 34.4435 0.758857 31.0407V6.91019C0.758857 3.5315 3.51543 0.763168 6.90469 0.763168H120.181ZM120.181 0.000926162H6.87909C3.0848 0.000926162 0 3.09991 0 6.93519V31.0657C0 34.876 3.08571 38 6.90469 38H120.207C124 38 127.111 34.901 127.111 31.0657V6.93427C127.086 3.09991 123.975 0.000926162 120.181 0.000926162Z" fill="#4C4C4C"/>
<path d="M62.6209 20.7027C60.4212 20.6518 58.5999 22.4041 58.5496 24.6139V24.7918C58.524 27.0266 60.3197 28.8808 62.5707 28.8808H62.6209C64.8216 28.9318 66.6429 27.1794 66.6932 24.9696V24.7918C66.7691 22.6078 65.0749 20.7787 62.8989 20.7027H62.6209ZM62.6209 27.1794C62.2982 27.1567 61.9831 27.0695 61.6938 26.923C61.4045 26.7764 61.1466 26.5733 60.935 26.3254C60.7234 26.0775 60.5623 25.7896 60.4609 25.4784C60.3596 25.1672 60.32 24.8388 60.3444 24.5121C60.3954 23.9198 60.6521 23.365 61.069 22.9464C61.4859 22.5278 62.0358 22.2727 62.6209 22.2263C63.8863 22.2263 64.9231 23.2682 64.8975 24.538V24.6899C64.9478 25.9856 63.9622 27.1035 62.6721 27.1535C62.6465 27.1794 62.6209 27.1794 62.6209 27.1794ZM53.7953 20.7027C51.5947 20.6518 49.7734 22.4041 49.7231 24.6139V24.7918C49.6975 27.0266 51.4932 28.8808 53.7441 28.8808H53.7953C55.9951 28.9318 57.8164 27.1794 57.8667 24.9696V24.7918C57.9425 22.6078 56.2484 20.7787 54.0724 20.7027H53.7953ZM53.7953 27.1794C53.4726 27.1567 53.1575 27.0695 52.8682 26.923C52.5789 26.7764 52.321 26.5733 52.1094 26.3254C51.8978 26.0775 51.7367 25.7896 51.6353 25.4784C51.534 25.1672 51.4944 24.8388 51.5188 24.5121C51.5698 23.9198 51.8265 23.365 52.2434 22.9464C52.6603 22.5278 53.2102 22.2727 53.7953 22.2263C55.0598 22.2263 56.0966 23.2682 56.0719 24.538V24.6899C56.1213 25.9856 55.1357 27.1035 53.8456 27.1535C53.82 27.1794 53.8209 27.1794 53.7953 27.1794ZM43.2737 21.9215V23.6489H47.346C47.2885 24.4684 46.9484 25.2415 46.3851 25.8328C45.9716 26.2429 45.4808 26.5645 44.942 26.7783C44.4033 26.9922 43.8275 27.094 43.2491 27.0776C40.8207 27.1035 38.823 25.1474 38.7974 22.6838V22.506C38.7471 20.0164 40.7192 17.9844 43.1979 17.9334H43.2737C44.4376 17.9334 45.5503 18.391 46.4097 19.1782L47.6495 17.9334C46.5112 16.8165 44.9688 16.2061 43.3752 16.2061C39.9101 16.2321 37.1032 19.0263 37.0273 22.506C37.1032 25.9856 39.9101 28.7799 43.3752 28.8049C44.1871 28.8514 44.999 28.7136 45.7516 28.4016C46.5043 28.0896 47.1786 27.6113 47.7254 27.0016C48.7265 25.9243 49.2713 24.4927 49.2431 23.0135C49.2678 22.6579 49.2431 22.3022 49.1416 21.9725L43.2737 21.9215ZM86.3183 23.2682C86.0841 22.5336 85.6291 21.8914 85.0171 21.4314C84.405 20.9715 83.6663 20.7167 82.9044 20.7027C80.8052 20.7027 79.0854 22.4291 79.1101 24.563V24.8168C79.0969 25.3413 79.1861 25.8632 79.3723 26.3527C79.5585 26.8422 79.8383 27.2897 80.1954 27.6697C80.5527 28.0496 80.9803 28.3544 81.454 28.5667C81.9276 28.7789 82.4378 28.8945 82.9556 28.9068H83.0817C83.7405 28.9201 84.3915 28.7612 84.9719 28.4452C85.5522 28.1294 86.0425 27.6673 86.3951 27.1035L85.0539 26.1375C84.6497 26.8488 83.8909 27.2813 83.0561 27.2813C82.1967 27.3323 81.4123 26.8238 81.0584 26.0365L86.471 23.7507L86.3183 23.2682ZM80.8308 24.6139C80.7805 23.3951 81.7158 22.3541 82.93 22.2263C83.2375 22.2121 83.5425 22.2856 83.8109 22.4384C84.0791 22.5911 84.2998 22.817 84.4477 23.0904L80.8308 24.6139ZM76.3791 28.5002H78.1748V16.6127H76.3791V28.5002ZM73.522 21.5659C72.9421 20.9787 72.1653 20.6342 71.346 20.6008C69.1718 20.7027 67.4511 22.506 67.4511 24.6899C67.445 25.2097 67.5404 25.7255 67.7319 26.2078C67.9233 26.69 68.2071 27.1291 68.5668 27.4999C68.9266 27.8705 69.3551 28.1654 69.8279 28.3676C70.3006 28.5699 70.8082 28.6753 71.3213 28.678H71.3469C72.156 28.678 72.9149 28.3473 73.4461 27.7129H73.5467V28.2964C73.6737 29.4912 72.7878 30.5572 71.5992 30.6591C71.1244 30.7103 70.6463 30.5978 70.2424 30.3395C69.8386 30.0814 69.5326 29.6927 69.3739 29.2365L67.8561 29.8968C68.1577 30.6077 68.659 31.213 69.2975 31.6376C69.9361 32.062 70.6837 32.2871 71.4475 32.2845C73.5467 32.2845 75.2417 31.0407 75.2417 28.0936V20.8805H73.5467L73.522 21.5659ZM71.4475 27.1785C71.1248 27.1557 70.8098 27.0686 70.5206 26.9221C70.2313 26.7756 69.9734 26.5726 69.7619 26.3248C69.5503 26.077 69.3891 25.7893 69.2877 25.4781C69.1863 25.167 69.1466 24.8387 69.1709 24.5121C69.2219 23.9198 69.4786 23.365 69.8956 22.9464C70.3124 22.5278 70.8623 22.2727 71.4475 22.2263C71.7455 22.237 72.0385 22.3074 72.3096 22.4334C72.5806 22.5595 72.8244 22.7387 73.0267 22.9607C73.229 23.1827 73.3859 23.4431 73.4883 23.7268C73.5907 24.0106 73.6367 24.3121 73.6235 24.6139V24.7158C73.724 25.9856 72.7887 27.0776 71.5233 27.1794L71.4475 27.1785ZM94.5633 16.6127H90.2891V28.5261H92.0847V24.0295H94.5387C96.5867 24.1314 98.332 22.5569 98.4326 20.4989C98.4564 20.0082 98.3832 19.5175 98.2196 19.0551C98.055 18.5927 97.8027 18.1677 97.4763 17.8043C97.1499 17.4411 96.7558 17.1466 96.316 16.9378C95.8772 16.729 95.4017 16.61 94.9172 16.5877C94.8166 16.5877 94.6895 16.5877 94.5633 16.6127ZM94.6648 22.3022H92.1103V18.2131H94.6648C95.7775 18.2131 96.7128 19.1023 96.764 20.2202C96.7403 20.7724 96.5108 21.2947 96.1204 21.6814C95.7309 22.0681 95.2107 22.29 94.6648 22.3022ZM106.855 20.6008C106.214 20.5496 105.573 20.694 105.014 21.0154C104.455 21.3369 104.004 21.8205 103.719 22.4041L105.337 23.0644C105.498 22.78 105.736 22.5479 106.023 22.3951C106.309 22.2423 106.633 22.175 106.956 22.2013C107.404 22.1601 107.852 22.2954 108.204 22.579C108.557 22.8625 108.79 23.2728 108.853 23.7248V23.8267C108.303 23.5164 107.686 23.3505 107.057 23.3442C105.337 23.3442 103.643 24.3092 103.643 26.0115C103.719 27.5601 105.008 28.7539 106.526 28.678H106.576C107.02 28.6931 107.459 28.5966 107.856 28.3971C108.254 28.1977 108.596 27.9015 108.853 27.5351H108.954V28.5002H110.674V23.9286C110.497 21.9725 108.802 20.4739 106.855 20.6008ZM106.652 27.1794C106.071 27.1794 105.236 26.8997 105.236 26.1384C105.236 25.1724 106.274 24.8936 107.133 24.8936C107.694 24.8927 108.247 25.023 108.751 25.2743C108.599 26.3162 107.714 27.1285 106.652 27.1794ZM117.25 20.8805L115.251 26.0115H115.15L113.051 20.8805H111.154L114.29 28.1195L112.494 32.1067H114.29L119.121 20.8805H117.25ZM100.052 28.5002H101.847V16.6127H100.052V28.5002ZM41.7057 11.9652H42.3128V13.5906H41.756V12.4977H37.7103V13.5906H37.1535V11.9652H37.6088C37.9883 11.5327 38.1647 10.8473 38.1647 9.93315V6.8073H41.7057V11.9642V11.9652ZM41.1499 11.9652V7.3417H38.7215V9.93222C38.7215 10.8473 38.5697 11.5067 38.2662 11.9392L41.1499 11.9642V11.9652ZM45.6262 12.5996C44.8161 12.5996 44.1085 12.3208 43.5517 11.7364C42.9958 11.152 42.6923 10.4657 42.6923 9.65252C42.6923 8.84025 42.9702 8.12895 43.5517 7.57047C44.1085 6.98698 44.8161 6.70728 45.6262 6.70728C46.4353 6.70728 47.1439 6.98605 47.6998 7.57047C48.2557 8.12895 48.5592 8.84025 48.5592 9.65344C48.5592 10.4657 48.2813 11.177 47.6998 11.7364C47.4308 12.0163 47.108 12.2373 46.7513 12.3858C46.3947 12.5342 46.0118 12.607 45.6262 12.5996ZM45.6262 12.0411C46.3083 12.0411 46.8651 11.8124 47.3204 11.3558C47.7757 10.8982 48.0033 10.3138 48.0033 9.65344C48.0033 8.99308 47.7748 8.43366 47.3204 7.95113C47.1006 7.72209 46.837 7.54089 46.5457 7.41859C46.2543 7.29628 45.9415 7.23545 45.6262 7.23983C44.9432 7.23983 44.3864 7.46859 43.9311 7.95113C43.4758 8.40866 43.2481 8.96714 43.2481 9.65344C43.2481 10.3138 43.4767 10.8982 43.9311 11.3548C44.3864 11.8124 44.9432 12.0411 45.6262 12.0411ZM50.0267 11.7364C49.4699 11.177 49.1919 10.4657 49.1919 9.65252C49.1919 8.84025 49.4699 8.12895 50.0267 7.57047C50.5825 7.01199 51.2911 6.70728 52.1505 6.70728C53.1883 6.70728 54.1236 7.23983 54.6045 8.10395L54.098 8.40866C53.7441 7.72329 52.9853 7.26576 52.1505 7.26576C51.4429 7.26576 50.8614 7.49452 50.4317 7.95113C50.002 8.40866 49.7487 8.96714 49.7487 9.65344C49.7487 10.3388 49.9755 10.8982 50.4308 11.3548C50.8861 11.8124 51.4685 12.0402 52.1505 12.0402C52.9853 12.0402 53.7441 11.5836 54.098 10.8982L54.6045 11.177C54.1492 12.0411 53.1873 12.5746 52.1505 12.5746C51.2911 12.5996 50.5825 12.3199 50.0267 11.7364ZM58.9547 6.80823V7.3417H57.2084V12.4977H56.6525V7.3417H54.9071V6.80823H58.9547ZM63.1777 6.80823H63.7592L61.863 11.2539C61.4836 12.168 60.9268 12.5487 60.0673 12.4977V11.9902C60.6735 12.0661 61.0529 11.8374 61.3062 11.2279L61.4068 10.9482L59.4593 6.80823H60.0417L61.6856 10.3138L63.1777 6.80823ZM68.4632 6.80823V12.4977H67.9073V7.3417H64.9981V12.4977H64.4404V6.80823H68.4632ZM73.2934 6.80823H73.8502V12.4977H73.2934V9.85628H70.2095V12.5237H69.6527V6.80915H70.2095V9.29779H73.2943L73.2934 6.80823ZM77.6436 12.5996C76.8344 12.5996 76.1259 12.3208 75.57 11.7364C75.0141 11.152 74.7105 10.4657 74.7105 9.65252C74.7105 8.84025 74.9885 8.12895 75.57 7.57047C76.1268 6.98698 76.8344 6.70728 77.6436 6.70728C78.4536 6.70728 79.1613 6.98605 79.7181 7.57047C80.274 8.12895 80.5775 8.84025 80.5775 9.65344C80.5775 10.4657 80.2996 11.177 79.7181 11.7364C79.1613 12.3199 78.4536 12.5996 77.6436 12.5996ZM77.6436 12.0411C78.3265 12.0411 78.8833 11.8124 79.3387 11.3558C79.794 10.8982 80.0216 10.3138 80.0216 9.65344C80.0216 8.99308 79.7931 8.43366 79.3387 7.95113C79.1188 7.72198 78.855 7.5407 78.5635 7.4184C78.2721 7.29609 77.959 7.23533 77.6436 7.23983C76.9606 7.23983 76.4047 7.46859 75.9494 7.95113C75.4941 8.40866 75.2664 8.96714 75.2664 9.65344C75.2664 10.3138 75.495 10.8982 75.9494 11.3548C76.4047 11.8124 76.9606 12.0411 77.6436 12.0411ZM87.6843 10.9232C87.6843 11.3548 87.5325 11.7364 87.2289 12.0411C87.0833 12.1891 86.9097 12.3058 86.7185 12.3843C86.5273 12.4627 86.3225 12.5012 86.1163 12.4977H83.6385V6.80823H85.9142C86.3439 6.80823 86.6978 6.96105 87.0022 7.26576C87.3048 7.57047 87.4566 7.92612 87.4566 8.33271C87.4641 8.57677 87.4071 8.81843 87.2916 9.03272C87.176 9.24704 87.006 9.42616 86.7992 9.55157C87.3295 9.78033 87.6843 10.2888 87.6843 10.9232ZM84.2191 7.3417V9.32373H85.9398C86.2177 9.32373 86.4198 9.22185 86.6219 9.04402C86.8006 8.85145 86.9002 8.59706 86.9002 8.33271C86.9002 8.06836 86.8006 7.81397 86.6219 7.62141C86.5378 7.52235 86.4329 7.44352 86.3148 7.39065C86.1969 7.33779 86.0687 7.31221 85.9398 7.31577L84.2191 7.3417ZM86.1163 11.9652C86.3942 11.9652 86.6219 11.8633 86.8248 11.6595C87.0269 11.4567 87.1284 11.2029 87.1284 10.9232C87.1284 10.6435 87.0269 10.3898 86.8248 10.1869C86.734 10.0892 86.6241 10.0116 86.5021 9.95899C86.3802 9.90638 86.2488 9.87989 86.1163 9.88128H84.2191V11.9902L86.1163 11.9652Z" fill="white"/>
<mask id="mask0_2031_44814" style="mask-type:luminance" maskUnits="userSpaceOnUse" x="8" y="6" width="110" height="27">
<path d="M8.22852 6.19385H117.029V32.1267H8.22852V6.19385Z" fill="white"/>
</mask>
<g mask="url(#mask0_2031_44814)">
<path fill-rule="evenodd" clip-rule="evenodd" d="M8.67926 6.5908C8.39309 6.90292 8.22852 7.38454 8.22852 8.01156V30.3009C8.22852 30.927 8.39309 31.4095 8.69023 31.7115L8.76703 31.7781L21.0258 19.2896V19.009L8.75606 6.52319L8.67926 6.5908Z" fill="url(#paint0_linear_2031_44814)"/>
<path fill-rule="evenodd" clip-rule="evenodd" d="M25.1043 23.4697L21.0156 19.3028V19.0111L25.1052 14.8442L25.1939 14.8998L30.0305 17.7006C31.4165 18.4971 31.4165 19.8067 30.0305 20.6134L25.1939 23.4141C25.1921 23.4141 25.1043 23.4697 25.1043 23.4697Z" fill="url(#paint1_linear_2031_44814)"/>
<path fill-rule="evenodd" clip-rule="evenodd" d="M25.1897 23.4132L21.0133 19.1565L8.67773 31.7247C9.12756 32.2174 9.88643 32.273 10.734 31.7914L25.1897 23.4132Z" fill="url(#paint2_linear_2031_44814)"/>
<path fill-rule="evenodd" clip-rule="evenodd" d="M25.1907 14.9022L10.7349 6.53515C9.88826 6.04243 9.12848 6.10911 8.67773 6.60184L21.0124 19.158L25.1907 14.9022Z" fill="url(#paint3_linear_2031_44814)"/>
<path opacity="0.2" fill-rule="evenodd" clip-rule="evenodd" d="M25.1056 23.3242L10.7476 31.6357C9.9458 32.1053 9.22991 32.0729 8.76912 31.6459L8.69141 31.7255L8.76912 31.7922C9.23083 32.2173 9.9458 32.2507 10.7485 31.7811L25.2034 23.4141L25.1056 23.3242Z" fill="#2C2C38"/>
<path opacity="0.12" fill-rule="evenodd" clip-rule="evenodd" d="M30.03 20.467L25.0938 23.3234L25.1824 23.4132L30.019 20.6124C30.712 20.2096 31.0522 19.6835 31.0522 19.1565C31.0092 19.6381 30.6572 20.0975 30.03 20.467Z" fill="#2C2C38"/>
<path opacity="0.25" fill-rule="evenodd" clip-rule="evenodd" d="M10.7355 6.68126L30.0287 17.8491C30.6559 18.2066 31.007 18.6771 31.0619 19.1596C31.0619 18.6336 30.7218 18.1066 30.0287 17.7028L10.7355 6.53585C9.35034 5.72915 8.22852 6.40063 8.22852 8.0131V8.15943C8.22852 6.54604 9.35034 5.88568 10.7355 6.68126Z" fill="white"/>
</g>
<defs>
<linearGradient id="paint0_linear_2031_44814" x1="19.9177" y1="7.78001" x2="0.25417" y2="12.9196" gradientUnits="userSpaceOnUse">
<stop stop-color="#00A0FF"/>
<stop offset="0.007" stop-color="#00A1FF"/>
<stop offset="0.26" stop-color="#00BEFF"/>
<stop offset="0.512" stop-color="#00D2FF"/>
<stop offset="0.76" stop-color="#00DFFF"/>
<stop offset="1" stop-color="#00E3FF"/>
</linearGradient>
<linearGradient id="paint1_linear_2031_44814" x1="31.8335" y1="19.1537" x2="7.89286" y2="19.1537" gradientUnits="userSpaceOnUse">
<stop stop-color="#FFE000"/>
<stop offset="0.409" stop-color="#FFBD00"/>
<stop offset="0.775" stop-color="#FFA500"/>
<stop offset="1" stop-color="#FF9C00"/>
</linearGradient>
<linearGradient id="paint2_linear_2031_44814" x1="22.9205" y1="21.4682" x2="6.70362" y2="48.2279" gradientUnits="userSpaceOnUse">
<stop stop-color="#FF3A44"/>
<stop offset="1" stop-color="#C31162"/>
</linearGradient>
<linearGradient id="paint3_linear_2031_44814" x1="5.57008" y1="-0.831637" x2="12.8073" y2="11.1105" gradientUnits="userSpaceOnUse">
<stop stop-color="#32A071"/>
<stop offset="0.069" stop-color="#2DA771"/>
<stop offset="0.476" stop-color="#15CF74"/>
<stop offset="0.801" stop-color="#06E775"/>
<stop offset="1" stop-color="#00F076"/>
</linearGradient>
</defs>
</svg>
