<svg width="88" height="34" viewBox="0 0 88 34" fill="none" xmlns="http://www.w3.org/2000/svg">
<path fill-rule="evenodd" clip-rule="evenodd" d="M2.08478 27.6264L1.91602 2.0625H7.32727L7.49591 27.4849L12.1837 21.6534L16.4511 24.8861L11.7635 30.7178C8.64022 34.6033 2.22136 32.5531 2.08478 27.6264Z" fill="#393BC7"/>
<path fill-rule="evenodd" clip-rule="evenodd" d="M50.5008 15.1898L50.583 27.6263C50.7195 32.5531 57.1384 34.6032 60.2617 30.7178L64.9494 24.8862L60.6818 21.6533L55.9942 27.485L55.9126 15.1898H60.9008V10.0032H55.8781L55.8254 2.0625H50.4143L50.4666 10.0032H46.1133V15.1898H50.5008Z" fill="#393BC7"/>
<path fill-rule="evenodd" clip-rule="evenodd" d="M18.0313 15.2075L18.0312 31.6523L23.499 31.6524L23.4992 15.2075H18.0313Z" fill="#393BC7"/>
<path fill-rule="evenodd" clip-rule="evenodd" d="M80.8201 15.2075H86.1808C86.1808 21.9599 85.0101 32.5891 75.9224 32.5891C66.8725 32.5891 65.4883 21.9116 65.4883 15.2075H70.8491C70.8491 18.44 70.7633 27.3851 75.9224 27.3851C81.1424 27.3851 80.8201 18.4856 80.8201 15.2075Z" fill="#393BC7"/>
<path fill-rule="evenodd" clip-rule="evenodd" d="M32.0368 15.2073H26.7833L26.7832 31.6523H26.8477H32.2085H32.2511C32.2511 27.9019 31.9289 19.4747 37.3206 19.4747C42.6948 19.4747 42.1795 28.2855 42.1795 31.6523H47.5403C47.5403 25.0022 46.328 14.1514 37.1798 14.2715C33.4619 14.5925 32.3864 16.7411 32.0368 18.0825V15.2073Z" fill="#393BC7"/>
<path fill-rule="evenodd" clip-rule="evenodd" d="M19.6981 5.6896C19.1565 4.76212 18.6516 3.81421 18.1893 2.84709L13.2734 5.04727C13.2734 5.04727 15.6265 10.114 17.7415 11.9799C18.5552 12.6977 20.4157 13.9329 23.6567 12.2984C26.9589 10.6332 31.5013 8.41273 33.3597 7.51068L31.1081 2.98311L25.2108 5.88589C25.4882 4.67879 25.9298 2.23993 25.9298 2.23993L20.5815 1.42969V1.42987C20.3545 2.83168 20.0685 4.22511 19.72 5.60323C19.7128 5.63213 19.7055 5.66092 19.6981 5.6896Z" fill="#FF8A65"/>
</svg>
