<svg width="183" height="192" viewBox="0 0 183 192" fill="none" xmlns="http://www.w3.org/2000/svg">
<path d="M79.8692 63.0032C79.8336 62.8826 79.8058 62.7581 79.7858 62.6319C79.7585 62.3608 79.7535 62.0897 79.7709 61.8167C79.7709 61.2058 79.808 60.5857 79.7561 59.9748C79.6746 58.9907 79.5578 57.9992 79.4336 57.0206C79.2613 55.6726 79.5634 54.2949 79.619 52.9468C79.6557 52.0407 79.6377 51.1328 79.5652 50.2267C79.4948 49.3447 79.3299 48.5147 79.3539 47.6272C79.3903 46.7805 79.4807 45.9357 79.6245 45.1001C79.6924 44.6062 79.7739 44.1104 79.8692 43.6147C80.0067 43.0539 80.2213 42.5154 80.5067 42.0122C80.8047 41.4719 81.0594 40.9074 81.2684 40.3244C81.392 39.8695 81.5577 39.4257 81.7633 39.0005C82.0005 38.6385 82.247 38.2857 82.5046 37.9403C82.7307 37.5541 82.9475 37.1604 83.1569 36.7649C83.4401 36.362 83.7543 35.9814 84.0966 35.6248C84.395 35.2702 84.697 34.9212 85.0028 34.574C85.7364 33.7607 86.53 33.0012 87.3769 32.3049C87.8184 31.9559 88.2801 31.6328 88.7595 31.3376C89.2451 30.9978 89.7392 30.671 90.2422 30.359C90.6036 30.1603 91.0595 29.9988 91.3338 29.6757C91.4524 29.529 91.5866 29.3953 91.7341 29.2765C92.1659 28.933 92.6051 28.5951 93.0462 28.2627C93.9308 27.598 94.8328 26.9574 95.7521 26.3409C95.9494 26.3001 96.1442 26.2462 96.3359 26.1831C97.0538 25.9714 97.7566 25.7096 98.4394 25.4014C99.6811 24.835 100.828 24.0608 102.107 23.578C102.911 23.2902 103.734 23.0582 104.57 22.8836C105.357 22.7258 106.112 22.4361 106.805 22.0295L107.37 21.6822C107.773 21.4966 108.181 21.3257 108.594 21.1679C108.89 20.9934 109.158 20.7742 109.391 20.5198C109.586 20.362 109.803 20.2321 110.036 20.1337C110.561 19.8998 111.109 19.7178 111.67 19.5896C112.133 19.4652 112.603 19.3706 113.079 19.3093C113.717 19.222 114.349 19.0864 114.967 18.9026C115.395 18.7838 115.82 18.6891 116.252 18.5851C116.579 18.4904 116.914 18.4236 117.252 18.3827C117.582 18.3512 117.914 18.3419 118.246 18.3567C118.987 18.3381 119.706 18.392 120.34 17.9297C120.425 17.8573 120.526 17.8034 120.635 17.7737C120.803 17.7422 120.946 17.8294 121.109 17.8368C121.51 17.7756 121.906 17.6864 122.295 17.5713L122.623 19.196C116.372 20.4679 104.615 23.3701 96.1079 28.5134C89.4267 32.5519 85.2141 36.6628 82.8511 41.4496C80.5883 46.0285 80.0879 51.2219 80.1397 56.263C80.1527 57.5182 80.1991 58.7716 80.2602 60.0249C80.3047 60.9014 80.2732 61.8409 80.4455 62.7006C80.4789 62.8733 80.5141 63.4712 80.2787 63.5473C80.2469 63.5529 80.2144 63.551 80.1842 63.5399C80.154 63.5287 80.1271 63.5101 80.1064 63.4841C79.9867 63.3486 79.9047 63.1815 79.8692 63.0032Z" fill="#393BC4"/>
<path d="M98.7214 36.0093C98.7427 35.9628 98.7668 35.9182 98.7936 35.8755C99.0624 35.4559 99.5572 35.2498 99.9056 34.9082C100.454 34.3585 101.155 33.9871 101.916 33.8423C102.077 33.82 102.232 33.77 102.376 33.6957C102.497 33.627 102.61 33.5378 102.732 33.4747C102.856 33.4245 102.983 33.3818 103.112 33.3466C103.609 33.185 104.081 32.953 104.513 32.6559C105.125 32.2121 105.883 32.1861 106.542 31.8221C106.903 31.7015 107.255 31.5566 107.597 31.3895C107.849 31.2187 108.105 31.0553 108.364 30.8938C108.607 30.7601 108.834 30.5985 109.039 30.411C109.099 30.3423 109.167 30.2791 109.241 30.2253C109.526 30.0656 109.821 29.9227 110.125 29.8002C110.713 29.5142 111.317 29.2598 111.934 29.0407C112.519 28.8401 113.083 28.5505 113.654 28.311C114.463 27.9712 115.275 27.689 116.096 27.3826C116.813 27.1004 117.511 26.7717 118.187 26.4004C118.449 26.2797 118.695 26.1237 118.919 25.9399C119.136 25.7319 119.373 25.5444 119.627 25.3829C119.934 25.2195 120.288 25.1563 120.602 25.0115C120.83 24.9038 121.017 24.7571 121.273 24.7385C121.391 24.7552 121.513 24.7348 121.619 24.6791C121.784 24.5956 121.897 24.3245 121.99 24.1759C122.123 24.0107 122.289 23.8733 122.477 23.7711C122.911 23.4666 123.336 23.1509 123.752 22.8204L124.777 24.1202C120.131 27.7929 114.248 29.9932 108.562 32.1193L107.337 32.5797C107.021 32.6967 106.75 32.8768 106.424 32.9734C106.225 33.031 106.064 33.1739 105.868 33.2222C105.671 33.2704 105.471 33.2965 105.275 33.3633C104.971 33.4655 104.687 33.6103 104.378 33.6957C104.111 33.7626 103.847 33.8405 103.588 33.9333C103.323 34.0373 103.069 34.1673 102.808 34.2843C102.504 34.418 102.204 34.5758 101.894 34.6965C101.667 34.7689 101.445 34.8543 101.229 34.9546C101.044 35.0511 100.886 35.1885 100.714 35.2981C100.511 35.4114 100.319 35.5432 100.139 35.6899C99.9093 35.8978 99.75 36.1652 99.4645 36.3063C99.2787 36.4084 99.0718 36.4641 98.8604 36.4716C98.5935 36.4511 98.6361 36.2005 98.7214 36.0093Z" fill="#393BC4"/>
<path d="M103.945 42.7698C104.004 42.6751 104.085 42.5953 104.183 42.5377C104.257 42.4932 104.338 42.4598 104.416 42.4227C104.463 42.3985 104.507 42.3669 104.548 42.3316C104.643 42.2759 104.743 42.2296 104.848 42.1943C104.997 42.0959 105.163 42.0234 105.337 41.9807C105.488 41.9695 105.638 41.9454 105.786 41.9101C106.154 41.7969 106.529 41.7096 106.909 41.6465C107.229 41.6094 107.554 41.5982 107.876 41.5852C108.631 41.5574 109.379 41.4274 110.1 41.199C110.557 41.0634 111.003 40.8945 111.436 40.6958C111.866 40.486 112.267 40.2149 112.68 39.9754C113.404 39.5576 114.156 39.19 114.93 38.8762C115.382 38.6701 115.808 38.4101 116.198 38.1C116.685 37.7472 117.182 37.4037 117.68 37.0639C118.179 36.7241 118.729 36.3639 119.241 35.9982C119.599 35.7308 119.973 35.4876 120.362 35.2666C120.607 35.1348 120.869 35.0382 121.14 34.975C121.528 34.8766 121.901 34.73 122.252 34.5368C122.882 34.2063 123.524 33.8907 124.139 33.5342C124.615 33.2575 125.142 33.0978 125.635 32.862C126.062 32.6299 126.508 32.4349 126.967 32.2752C127.406 32.149 131.178 30.8269 131.18 30.8362L131.663 32.4219C128.044 33.536 124.578 35.3037 121.227 37.0212C120.132 37.5782 119.003 38.1632 117.871 38.7146C114.296 40.4656 110.56 42.0179 106.607 42.6436C106.13 42.7197 105.654 42.781 105.174 42.8293C104.891 42.8386 104.609 42.8646 104.329 42.9073C104.259 42.924 104.185 42.9203 104.117 42.8961C104.048 42.872 103.989 42.8274 103.945 42.7698Z" fill="#393BC4"/>
<path d="M111.167 47.6736C111.129 47.6662 111.096 47.6421 111.075 47.6105C110.991 47.4805 111.115 47.3839 111.199 47.3226C111.428 47.1202 111.702 46.9717 111.997 46.89C112.088 46.8826 112.175 46.8585 112.257 46.8176C112.462 46.7341 112.674 46.6672 112.891 46.6171C113.446 46.4296 113.99 46.2123 114.522 45.9635C115.146 45.6794 115.841 45.4975 116.44 45.1614C117.157 44.7585 117.847 44.298 118.554 43.8783C119.503 43.3213 120.447 42.7531 121.409 42.2165C122.539 41.587 123.512 40.7143 124.661 40.1164C125.08 39.8992 125.483 39.6504 125.866 39.3737C126.37 39.0135 126.92 38.7294 127.452 38.4138C128.082 38.0424 128.711 37.556 129.445 37.4056C129.92 37.3146 130.405 37.2811 130.888 37.3071C131.211 37.3164 131.53 37.3833 131.83 37.5021C131.963 37.556 131.83 37.5318 132.104 37.5801L133.136 37.7658C133.262 37.7918 133.385 37.8234 133.507 37.8624C133.813 37.9533 134.178 37.8437 134.487 37.8289L134.571 39.4851C134.374 39.4851 134.18 39.5075 133.985 39.526C133.148 39.604 132.317 39.7451 131.502 39.9493C131.316 39.9939 131.131 40.07 130.946 40.1035C130.74 40.1239 130.533 40.1332 130.327 40.1295C129.91 40.161 129.497 40.2223 129.091 40.3152C128.606 40.4396 128.133 40.6029 127.675 40.8035C127.263 40.9724 126.867 41.1284 126.474 41.3364C125.632 41.782 124.817 42.2648 123.964 42.6937C123.368 42.9889 122.784 43.3045 122.189 43.6016C121.005 44.1902 119.87 44.8605 118.649 45.373C118.137 45.5865 117.598 45.7147 117.079 45.9059C116.512 46.1139 115.934 46.2773 115.376 46.5131C114.897 46.7489 114.393 46.929 113.873 47.0497C113.614 47.0962 113.356 47.1574 113.096 47.202C112.713 47.267 112.338 47.3877 111.96 47.4916C111.833 47.5251 111.378 47.7274 111.167 47.6736Z" fill="#393BC4"/>
<path d="M83.7471 61.308L82.8594 59.908C85.0352 58.5247 87.2851 57.0931 89.7648 56.1164C90.647 55.7692 91.8035 55.4275 92.8802 55.8601C93.1193 55.9641 93.3488 56.0885 93.566 56.2315C93.6753 56.2983 93.7847 56.367 93.8996 56.4172C93.9958 56.4766 94.106 56.5063 94.2183 56.5045C94.2852 56.4024 94.329 56.2872 94.3462 56.1647C94.3666 56.0625 94.3814 55.9585 94.3963 55.8564C94.4317 55.5296 94.5108 55.2103 94.6316 54.9039C95.2173 53.5373 96.8389 53.2198 97.6192 53.0675L105.688 51.4874L106.007 53.1121L97.9379 54.6922C97.1744 54.8426 96.3663 55.0636 96.1532 55.5575C96.0937 55.732 96.0546 55.9122 96.0364 56.0941C96.016 56.2278 95.9975 56.3615 95.9697 56.4933C95.8252 57.2119 95.473 57.7281 94.9523 57.9788C94.4315 58.2294 93.7976 58.2053 93.1638 57.8896C93.0044 57.8098 92.8524 57.7188 92.7023 57.626C92.5643 57.535 92.4193 57.4552 92.2687 57.3865C91.7293 57.1711 91.0065 57.3976 90.3709 57.6464C88.0301 58.5785 85.8562 59.9656 83.7471 61.308Z" fill="#393BC4"/>
<path d="M84.4863 62.8658C84.2878 62.8658 84.0895 62.851 83.8932 62.8213C82.8294 62.656 82.0399 62.0191 81.7137 61.074C81.3431 59.9859 81.6674 58.6973 82.5366 57.7894C83.719 56.5527 85.4296 55.448 87.6221 54.501C89.5347 53.6766 91.5474 53.1344 93.6139 52.607C96.2623 51.9312 99.3591 51.1736 102.484 50.7503C103.142 50.6593 104.684 50.4476 105.644 51.4689C105.908 51.7641 106.1 52.1169 106.204 52.4975C106.307 52.88 106.319 53.2811 106.239 53.6692C106.093 54.345 105.758 54.9652 105.273 55.4554C104.485 56.2873 103.399 56.8721 101.952 57.2416C101.283 57.4143 100.608 57.5239 99.9559 57.6297C99.4944 57.7058 99.0571 57.7764 98.6197 57.8673C96.4142 58.3297 94.3756 59.2692 92.2165 60.2663C90.2686 61.165 88.2559 62.0934 86.1135 62.6337C85.5825 62.7785 85.0362 62.8565 84.4863 62.8658ZM103.498 52.3193C103.233 52.323 102.97 52.3453 102.708 52.3843C99.6612 52.8039 96.6274 53.5485 94.0216 54.2132C92.0219 54.7239 90.0777 55.2475 88.2763 56.0236C86.2877 56.8814 84.755 57.8618 83.7301 58.9369C83.2983 59.3881 83.1148 60.0509 83.2816 60.5411C83.4021 60.8957 83.6931 61.113 84.1453 61.1817C84.642 61.2597 85.1906 61.1483 85.7113 61.0184C87.7036 60.5152 89.6459 59.6202 91.5252 58.753C93.6713 57.7615 95.8916 56.7366 98.2824 56.2371C98.755 56.1387 99.2313 56.0607 99.6909 55.9864C100.336 55.8806 100.946 55.7803 101.544 55.628C102.656 55.3421 103.512 54.8983 104.072 54.3079C104.336 54.0461 104.523 53.7175 104.611 53.3554C104.642 53.2254 104.642 53.088 104.612 52.958C104.582 52.8262 104.523 52.7036 104.439 52.5978C104.241 52.3861 103.885 52.3193 103.498 52.3193Z" fill="#393BC4"/>
<path d="M137.368 142.656C136.679 142.4 135.995 142.13 135.315 141.846C134.802 141.633 134.283 141.603 133.764 141.384C133.477 141.265 133.113 141.319 132.807 141.265C132.339 141.183 131.881 141.059 131.417 140.944C130.861 140.803 130.293 140.704 129.783 140.435C129.273 140.166 128.882 139.774 128.441 139.423C127.259 138.484 125.904 137.717 124.638 136.898C124.069 136.538 123.478 136.213 122.868 135.925C122.266 135.624 121.748 135.177 121.36 134.625C120.963 134.094 120.526 133.597 120.159 133.043C119.873 132.614 119.627 132.157 119.358 131.717C118.83 130.854 117.875 130.522 117.134 129.877C116.903 129.655 116.707 129.398 116.554 129.114C116.344 128.802 116.095 128.518 115.813 128.268C115.305 127.764 114.817 127.224 114.297 126.734C113.861 126.325 113.331 126.076 112.857 125.714C112.115 125.157 111.346 124.446 110.655 123.817C109.964 123.187 109.454 122.391 108.883 121.652C108.127 120.71 107.427 119.724 106.787 118.7C106.231 117.771 105.567 116.889 105.065 115.933C104.652 115.144 104.391 114.262 103.937 113.493C103.482 112.724 102.951 112.165 102.66 111.328C102.369 110.491 102.207 109.49 102.044 108.636C101.87 107.707 101.802 106.792 101.609 105.875C101.327 104.529 101.097 103.054 100.576 101.777C100.343 101.272 100.138 100.752 99.963 100.223C99.6995 99.1976 99.5747 98.1393 99.5924 97.0791C99.5924 95.8777 99.5201 94.6782 99.4385 93.4806C99.3978 92.8716 99.3496 92.2644 99.3125 91.6554C99.3121 91.245 99.362 90.8347 99.4608 90.4336C99.6832 89.2174 100.067 88.0031 99.8129 86.7572C99.7549 86.5381 99.7341 86.3097 99.7517 86.0813C99.7962 85.7099 99.9204 85.3534 99.9797 84.9839C100.045 84.581 100.048 84.1632 100.096 83.7547C100.153 83.3406 100.188 82.9248 100.202 82.507C100.202 82.1913 100.267 81.8794 100.276 81.5637C100.289 81.1459 100.258 80.7355 100.308 80.3196C100.353 79.822 100.424 79.3262 100.521 78.8342C100.593 78.5185 100.647 78.1918 100.69 77.8742C100.703 77.5827 100.766 77.2931 100.875 77.0201C100.917 76.9291 101.042 76.7509 101.162 76.749C101.321 76.749 101.39 77.1 101.394 77.2392C101.384 77.4082 101.358 77.5753 101.316 77.7387C101.238 78.2178 101.164 78.6969 101.097 79.1759C100.89 80.6743 100.743 82.1783 100.656 83.6879C100.569 85.1993 100.543 86.7163 100.575 88.2296C100.606 89.7429 100.697 91.2617 100.845 92.7713C100.993 94.2808 101.201 95.7886 101.466 97.2833C101.731 98.778 102.052 100.254 102.432 101.74C102.812 103.225 103.243 104.66 103.729 106.094C104.215 107.527 104.765 108.938 105.367 110.325C105.97 111.712 106.622 113.072 107.334 114.41C107.5 114.722 107.669 115.032 107.843 115.339C114.395 127.053 125.359 136.45 137.924 141.122L137.368 142.656Z" fill="#393BC4"/>
<path d="M141.901 138.153C141.901 138.153 141.706 138.057 141.695 138.049C141.473 137.934 141.25 137.819 141.03 137.7C140.917 137.631 140.807 137.557 140.702 137.475C140.539 137.375 140.366 137.292 140.185 137.228C140.056 137.171 139.934 137.098 139.823 137.009C139.713 136.907 139.594 136.814 139.467 136.733C139.412 136.699 139.36 136.668 139.308 136.632C139.082 136.473 138.843 136.35 138.604 136.213C138.454 136.125 138.333 136.003 138.189 135.91C138.044 135.817 137.913 135.747 137.781 135.656C137.649 135.565 137.524 135.452 137.39 135.355C137.256 135.258 137.095 135.169 136.958 135.045C136.821 134.92 136.623 134.787 136.467 134.644C136.306 134.456 136.134 134.28 135.952 134.113C135.638 133.886 135.361 133.613 135.131 133.301C135.055 133.168 134.962 133.041 134.855 132.93C134.754 132.815 134.653 132.703 134.549 132.594C134.391 132.408 134.234 132.223 134.085 132.037C133.937 131.851 133.798 131.599 133.646 131.383C133.461 131.129 133.276 130.893 133.09 130.641C132.936 130.412 132.796 130.175 132.638 129.948C132.486 129.736 132.323 129.53 132.149 129.335C132.012 129.172 131.871 129.012 131.721 128.86C131.57 128.708 131.463 128.559 131.331 128.409C131.146 128.206 130.95 128.047 130.775 127.835C130.631 127.659 130.479 127.484 130.344 127.298C130.251 127.15 130.145 127.011 130.029 126.881C129.834 126.68 129.663 126.459 129.517 126.22C129.454 126.123 129.384 126.034 129.315 125.939C129.291 125.908 129.275 125.872 129.267 125.833C129.237 125.638 129.247 125.438 129.298 125.245C129.312 125.185 129.336 125.128 129.369 125.074C129.386 125.04 129.405 125.007 129.428 124.975C129.484 124.931 129.549 124.901 129.619 124.885C129.688 124.868 129.761 124.868 129.83 124.883C129.882 124.903 129.923 124.981 129.954 125.02L130.308 125.462C130.546 125.755 130.785 126.047 131.031 126.333C131.516 126.892 132.013 127.436 132.525 127.967C133.038 128.498 133.568 129.014 134.11 129.515C134.651 130.017 135.209 130.501 135.777 130.971C136.346 131.441 136.93 131.899 137.525 132.334C138.12 132.768 138.726 133.19 139.345 133.595C139.964 134 140.592 134.382 141.232 134.75C141.871 135.117 142.509 135.457 143.161 135.784L141.901 138.153Z" fill="#393BC4"/>
<path d="M144.37 132.172C144.37 132.172 143.71 131.738 143.651 131.697C143.56 131.636 143.456 131.593 143.362 131.535C143.267 131.478 143.126 131.407 143.013 131.335C142.905 131.263 142.801 131.185 142.702 131.097C142.537 130.958 142.43 130.776 142.272 130.631C142.117 130.499 141.954 130.375 141.785 130.26C141.61 130.143 141.443 130.015 141.286 129.874C141.143 129.723 140.995 129.577 140.843 129.435C140.691 129.294 140.482 129.111 140.298 128.953C140.261 128.919 140.222 128.888 140.183 128.856L139.714 128.177C139.654 128.073 139.582 127.978 139.498 127.891C139.428 127.82 139.37 127.737 139.327 127.646C139.162 127.374 138.994 127.107 138.827 126.836C138.735 126.674 138.639 126.517 138.538 126.362C138.454 126.233 138.371 126.103 138.291 125.971C138.202 125.739 138.124 125.501 138.059 125.26L137.911 124.862C137.758 124.482 137.572 124.114 137.355 123.763C137.265 123.622 137.178 123.477 137.094 123.329C136.992 123.093 136.91 122.848 136.847 122.597C136.742 122.276 136.599 122.005 136.477 121.696C136.329 121.362 136.232 121.008 136.191 120.644C136.165 120.514 136.183 120.378 136.243 120.259C136.272 120.222 136.312 120.196 136.358 120.183C136.388 120.183 136.412 120.183 136.44 120.165C136.517 120.217 136.576 120.291 136.608 120.378C136.637 120.506 136.677 120.631 136.727 120.749C137.105 121.639 137.542 122.502 138.035 123.332C138.93 124.846 140 126.247 141.223 127.508C141.835 128.139 142.482 128.732 143.162 129.287C143.503 129.565 143.851 129.831 144.207 130.085C144.296 130.148 145.26 130.783 145.256 130.793L144.37 132.172Z" fill="#393BC4"/>
<path d="M146.718 128.078C146.722 128.056 146.722 128.034 146.718 128.011C146.689 127.946 146.652 127.883 146.609 127.826C146.559 127.72 146.502 127.618 146.438 127.519C146.344 127.397 146.207 127.322 146.118 127.194C146.034 127.055 145.964 126.908 145.908 126.754C145.797 126.557 145.674 126.368 145.538 126.186C145.387 125.937 145.278 125.666 145.139 125.412C144.935 125.027 144.707 124.654 144.455 124.298C144.127 123.874 143.821 123.432 143.54 122.974C143.273 122.515 143.034 122.045 142.745 121.594C142.708 121.524 142.664 121.455 142.613 121.392C142.58 121.368 142.551 121.338 142.526 121.305C142.499 121.256 142.476 121.206 142.457 121.152C142.38 120.967 142.317 120.781 142.226 120.595C142.11 120.4 141.95 120.237 141.759 120.114C141.384 119.81 141.089 119.42 140.897 118.976C140.461 118.128 140.198 117.207 139.774 116.354C139.378 115.612 138.936 114.895 138.451 114.206C138.037 113.545 137.588 112.908 137.105 112.295C136.999 112.167 136.892 112.043 136.779 111.924C136.373 111.298 136.026 110.624 135.604 110.01C135.471 109.848 135.318 109.703 135.148 109.579C134.846 109.312 134.601 108.977 134.32 108.69C133.719 108.071 133.083 107.488 132.514 106.833C131.688 105.893 130.731 104.976 130.02 103.949C127.87 100.843 126.161 97.4838 124.684 94.0135C123.971 92.3424 123.374 90.6342 122.627 88.9705C122.303 88.1907 121.937 87.4275 121.53 86.6866C121.159 86.0887 120.781 85.4964 120.396 84.906C120.06 84.2115 120.047 83.4391 119.916 82.689C119.787 81.833 119.544 80.9975 119.193 80.2046C118.442 78.6189 117.21 77.2579 116.7 75.5626C116.584 75.1653 116.438 74.7772 116.263 74.4002C115.875 73.5795 115.607 72.7068 115.151 71.914C114.737 71.1824 114.211 70.5307 113.874 69.7545C113.605 69.1381 113.338 68.5124 113.081 67.8978C112.864 67.3741 112.775 66.8134 112.556 66.2917C112.311 65.7105 111.907 65.2481 111.565 64.7263C111.194 64.1693 110.823 63.5844 110.497 62.9884C110.288 62.5948 110.152 62.1752 109.941 61.7834C109.692 61.3006 109.47 60.8049 109.274 60.298C109.02 59.6778 108.633 59.1839 108.271 58.6269C107.956 58.2035 107.788 57.6891 107.793 57.1599C107.793 56.9947 107.723 56.6939 107.926 56.6029C108.101 56.5268 108.297 56.9019 108.381 57.004C108.858 57.522 109.278 58.0921 109.631 58.7011C109.826 59.1133 109.976 59.5422 110.08 59.9841C110.288 60.6581 110.615 61.2857 111.047 61.8409C112.184 63.2743 112.877 65.0736 113.716 66.7075C124.117 86.9818 135.312 106.81 147.302 126.194C159.109 123.124 168.578 121.284 177.053 120.412C177.053 120.412 177.163 121.472 177.17 121.552C177.194 121.78 177.15 122.001 177.157 122.229C177.164 122.458 177.142 122.708 176.912 122.801C176.809 122.827 176.701 122.833 176.595 122.814C176.519 122.814 176.464 122.768 176.388 122.755C176.267 122.747 176.147 122.768 176.034 122.81C175.545 122.968 175.035 123.061 174.522 123.085C174.32 123.085 174.121 123.085 173.921 123.098C173.667 123.085 173.411 123.087 173.158 123.107C172.507 123.215 171.871 123.382 171.225 123.499C170.454 123.639 169.668 123.618 168.889 123.668C168.094 123.72 167.303 123.826 166.521 123.982C165.8 124.125 165.094 124.342 164.364 124.437C163.029 124.608 161.719 124.262 160.39 124.24C159.406 124.223 158.416 124.209 157.451 124.426C156.924 124.539 156.411 124.69 155.879 124.784C155.347 124.879 154.789 125 154.254 125.156C153.183 125.453 152.134 125.813 151.036 126.008C150.33 126.132 149.632 126.246 148.935 126.416C148.707 126.472 148.475 126.496 148.243 126.532C148.132 126.548 148.142 126.531 148.14 126.663C148.152 126.901 148.135 127.139 148.091 127.371C148.066 127.495 148.028 127.614 147.978 127.729C147.866 127.913 147.715 128.071 147.535 128.19C147.467 128.245 147.405 128.308 147.35 128.375C147.192 128.526 147.022 128.663 146.842 128.787C146.617 128.986 146.415 129.211 146.24 129.454C146.186 129.526 146.086 129.716 145.988 129.723C146.029 129.538 146.192 129.439 146.297 129.296C146.386 129.17 146.449 129.025 146.483 128.873C146.512 128.748 146.555 128.631 146.588 128.511C146.613 128.424 146.637 128.338 146.668 128.253C146.693 128.199 146.71 128.139 146.718 128.078Z" fill="#393BC4"/>
<path d="M153.783 134.699C153.318 134.722 152.857 134.746 152.391 134.783C152.181 134.79 151.972 134.826 151.771 134.889C151.681 134.937 151.582 134.967 151.481 134.972C151.38 134.98 151.278 134.963 151.183 134.926C150.953 134.85 150.738 134.751 150.851 134.467C150.898 134.391 150.961 134.326 151.036 134.278C151.11 134.228 151.195 134.196 151.283 134.183C151.515 134.124 151.759 134.087 151.995 134.042C152.508 133.942 153.046 133.953 153.565 133.899C154.121 133.842 154.677 133.758 155.233 133.66C156.745 133.394 158.292 133.454 159.812 133.221C160.789 133.071 161.727 132.757 162.694 132.562C163.695 132.358 164.733 132.339 165.726 132.05C166.632 131.786 167.494 131.393 168.406 131.144C169.195 130.928 170.009 130.828 170.791 130.587C171.508 130.364 172.194 130.063 172.923 129.879C173.334 129.803 173.742 129.708 174.148 129.599C174.5 129.493 174.856 129.395 175.211 129.302C175.701 129.181 176.194 129.072 176.694 128.997C176.991 128.953 177.293 128.929 177.589 128.875C177.921 128.815 178.243 128.709 178.579 128.665C178.914 128.62 179.202 128.676 179.505 128.494C179.809 128.312 180.21 128.284 180.553 128.212L182.28 127.84L182.66 127.761L183.003 129.382C183.003 129.382 181.742 129.656 181.52 129.671C181.351 129.675 181.186 129.729 181.046 129.822C180.569 130.158 180.067 130.453 179.543 130.707C179.385 130.707 179.226 130.726 179.068 130.739C178.519 130.809 177.975 130.913 177.439 131.051C176.399 131.268 175.361 131.498 174.316 131.686C173.46 131.84 172.633 131.892 171.764 131.97C170.333 132.1 168.905 132.243 167.472 132.341C166.265 132.432 165.05 132.57 163.856 132.774C162.11 133.075 160.405 133.595 158.706 134.096C157.116 134.579 155.442 134.625 153.783 134.699Z" fill="#393BC4"/>
<path d="M155.882 140.53C155.811 140.532 155.741 140.517 155.677 140.487C155.613 140.457 155.556 140.413 155.512 140.357C155.469 140.3 155.449 140.229 155.454 140.157C155.459 140.084 155.489 140.017 155.539 139.965C155.632 139.874 155.748 139.811 155.875 139.78C156.03 139.781 156.184 139.811 156.329 139.869C156.604 139.934 156.889 139.95 157.17 139.919C158.14 139.846 159.094 139.596 160.058 139.466C161.791 139.23 163.505 138.883 165.23 138.597C166.624 138.365 168.031 138.252 169.421 137.997C169.906 137.908 170.396 137.836 170.885 137.773C171.315 137.721 171.747 137.668 172.182 137.62C172.584 137.546 172.994 137.505 173.403 137.5C173.52 137.5 173.635 137.537 173.752 137.533C173.911 137.52 174.071 137.49 174.224 137.444C174.73 137.329 175.238 137.21 175.742 137.087C176.795 136.835 177.846 136.567 178.893 136.285C179.436 136.14 179.979 135.992 180.52 135.838L181.262 135.624C181.473 135.576 181.68 135.515 181.884 135.438L182.349 137.03C181.564 137.264 180.776 137.487 179.986 137.702C179.594 137.81 179.186 137.888 178.8 138.021C178.695 138.073 178.595 138.135 178.502 138.207C178.357 138.281 178.202 138.328 178.042 138.346C177.876 138.374 177.703 138.346 177.536 138.365C177.273 138.4 177.014 138.452 176.758 138.524C176.246 138.68 175.746 138.866 175.257 139.082C174.69 139.295 174.1 139.445 173.5 139.525C172.903 139.616 172.306 139.683 171.708 139.759C171.013 139.846 170.323 139.971 169.626 140.049C168.086 140.205 166.537 140.233 164.993 140.132C163.816 140.077 162.636 140.092 161.461 140.175C160.273 140.251 159.077 140.508 157.884 140.506C157.404 140.506 156.905 140.37 156.431 140.448C156.251 140.495 156.067 140.522 155.882 140.53Z" fill="#393BC4"/>
<path d="M98.0159 162.106C97.6033 162.139 97.1883 162.117 96.7815 162.041C95.9457 161.855 95.1136 162.041 94.261 161.957C93.0916 161.831 91.9073 161.848 90.7397 161.705C89.8131 161.595 88.8864 161.532 87.9598 161.395C87.3927 161.309 86.8348 161.179 86.277 161.051C85.6728 160.912 85.0223 160.901 84.4236 160.721C83.5155 160.446 82.4832 160.375 81.6437 159.891C81.4342 159.768 81.2619 159.608 81.0599 159.478C80.7115 159.257 80.2389 159.161 79.846 159.035C78.6969 158.663 77.6109 158.175 76.4748 157.779C75.6297 157.484 74.9198 157.037 74.1489 156.597C73.3 156.116 72.3437 155.854 71.482 155.382C70.4497 154.809 69.2265 154.454 68.3906 153.581C67.8958 153.067 67.5325 152.54 66.8894 152.194C66.127 151.81 65.4568 151.266 64.9249 150.595C64.3185 149.882 63.6191 149.253 62.8455 148.724C62.2358 148.28 61.8855 147.762 61.487 147.134C60.9798 146.384 60.4147 145.673 59.7968 145.01C59.3235 144.444 58.9539 143.796 58.7052 143.1C57.9509 141.141 57.5487 139.078 56.711 137.145C55.7269 134.878 55.4137 132.577 55.5434 130.117C55.6732 127.657 56.1606 125.222 56.3756 122.762C56.5053 121.277 56.4127 119.695 56.9538 118.276C57.2485 117.504 57.6173 116.763 57.9027 115.987C58.164 115.278 58.2938 114.529 58.5403 113.816C58.7404 113.244 58.9109 112.685 59.0629 112.099C59.289 111.256 59.6689 110.487 60.034 109.698C60.5997 108.524 61.0949 107.317 61.5167 106.083C61.8076 105.186 61.8595 104.226 62.1412 103.325C62.3887 102.46 62.7428 101.63 63.1958 100.852C63.4423 100.449 63.7907 100.098 63.9871 99.6693C64.1836 99.2403 64.2559 98.7279 64.4301 98.2749C64.8419 97.2332 65.1825 96.1618 65.4494 95.0719C65.7793 93.6682 66.7152 92.5931 67.5084 91.427C67.9866 90.7252 68.3684 89.9676 68.8169 89.249C69.2654 88.5305 69.9048 87.9492 70.4274 87.2622C71.4523 85.9328 72.201 84.4213 73.1462 83.038C73.7764 82.1096 74.4806 81.2091 74.7568 80.1062C74.8863 79.4711 75.0989 78.8528 75.3887 78.2717C76.0335 77.0759 76.591 75.8356 77.0567 74.5581C77.1142 74.404 77.1698 74.2517 77.2235 74.0976C77.2487 74.0419 77.2686 73.9825 77.2828 73.9212C77.2828 73.8822 77.2828 73.8432 77.2977 73.8042C77.3445 73.6761 77.4035 73.5517 77.4737 73.4329C77.7295 72.9074 77.9852 72.3837 78.2466 71.8601L78.5116 71.3291C78.5225 71.3087 78.5277 71.2864 78.5264 71.2623C78.5722 71.0729 78.6506 70.8947 78.7581 70.7313C78.8681 70.5177 78.9919 70.3098 79.1287 70.1092C79.2423 69.9737 79.3335 69.8214 79.3993 69.6562C79.4642 69.4909 79.5309 69.3201 79.5846 69.153C79.6514 68.9525 79.694 68.7407 79.7459 68.5365C79.7683 68.4269 79.7974 68.3193 79.833 68.2135C79.8867 68.1188 79.9333 68.0203 79.972 67.9164C80.0202 67.7492 80.086 67.5858 80.1684 67.4299C80.189 67.3816 80.2172 67.3389 80.2518 67.298C80.3111 67.2386 80.4798 67.1755 80.5224 67.2813C80.565 67.3872 80.4798 67.5302 80.4464 67.6249C80.3723 67.8495 80.2778 68.0649 80.1944 68.2858C80.1777 68.3322 80.1629 68.3768 80.148 68.4233C80.0016 68.8819 79.8515 69.3368 79.6977 69.7917C79.3863 70.7071 79.0557 71.6169 78.7062 72.5193C77.9908 74.3761 77.2018 76.1977 76.3395 77.9802C74.4398 81.8832 72.2872 85.6579 69.8955 89.2787C66.2352 94.8806 63.0382 102.523 60.6289 111.374C58.4809 119.292 56.8871 131.04 61.4796 142.041C67.0914 155.479 80.1981 159.209 90.1967 159.97C94.1674 160.279 98.1528 160.351 102.132 160.186C105.935 160.03 109.723 159.629 113.474 158.984C117.052 158.372 120.582 157.506 124.038 156.398C127.361 155.334 130.598 154.018 133.722 152.462C136.753 150.95 139.657 149.194 142.405 147.209C143.764 146.232 145.073 145.196 146.334 144.102C146.801 143.701 147.261 143.289 147.716 142.869C147.902 142.697 148.087 142.526 148.272 142.351C148.298 142.325 148.322 142.294 148.343 142.262C148.4 142.195 148.469 142.14 148.546 142.097C148.641 142.041 148.727 141.971 148.8 141.887L148.836 141.85C148.882 141.807 148.937 141.774 148.997 141.752C149.043 141.729 149.092 141.716 149.143 141.711C149.173 141.711 149.184 141.735 149.208 141.75C149.232 141.765 149.26 141.766 149.277 141.798C149.293 141.83 149.264 141.911 149.238 141.963C149.212 142.015 149.182 142.063 149.158 142.115C149.094 142.229 149.01 142.329 148.912 142.411C148.819 142.515 148.719 142.609 148.611 142.697C148.52 142.752 148.434 142.814 148.354 142.882C148.198 143.023 148.048 143.168 147.902 143.319C147.781 143.451 147.653 143.575 147.518 143.69C147.421 143.781 147.318 143.863 147.21 143.937C147.053 144.069 146.903 144.208 146.758 144.355C146.697 144.481 146.645 144.511 146.6 144.44C146.35 144.687 146.104 144.934 145.859 145.183C145.456 145.591 145.059 146.004 144.667 146.421L144.373 146.735C144.283 146.822 144.201 146.917 144.128 147.017C144.093 147.086 144.048 147.149 143.995 147.203C143.856 147.322 143.694 147.415 143.554 147.532C143.334 147.716 143.133 147.92 142.955 148.143C142.752 148.38 142.503 148.575 142.225 148.715C141.652 149.064 141.218 149.522 140.722 149.97C139.98 150.644 139.133 151.167 138.301 151.732C137.443 152.332 136.525 152.838 135.562 153.249C134.75 153.587 133.935 153.917 133.116 154.24C132.139 154.628 131.17 155.074 130.15 155.354C129.177 155.642 128.225 155.999 127.302 156.42C126.418 156.814 125.508 157.146 124.579 157.415C123.788 157.638 122.948 157.817 122.181 158.101C121.549 158.336 121.021 158.765 120.393 158.999C119.81 159.192 119.212 159.337 118.606 159.434C117.072 159.744 115.589 160.247 114.03 160.453C113.035 160.587 112.032 160.605 111.039 160.767C110.003 160.936 108.982 161.211 107.95 161.396C107.153 161.541 106.389 161.785 105.587 161.885C104.517 162.018 103.418 162.156 102.34 162.1C101.016 162.03 99.6931 162.078 98.3717 162.119L98.0159 162.106Z" fill="#393BC4"/>
<path d="M51.5161 72.0514C51.3208 72.0514 51.132 71.9828 50.9824 71.8565C45.9247 67.5859 44.5236 59.4457 47.8577 53.7212C50.9972 48.3365 58.0509 45.5513 64.0501 47.1667C64.0501 46.1752 64.039 45.1447 64.0223 44.0696C63.9667 40.3894 63.9093 36.583 64.5783 33.2649C65.6458 27.9749 67.6715 23.6543 70.6016 20.4197C72.2381 18.6131 74.9328 16.3496 78.4726 15.826C81.2934 15.4082 84.0956 16.3069 85.9063 18.1117C87.9709 12.3185 91.1067 7.63011 95.0301 4.48842C100.171 0.370057 106.802 -1.0467 112.338 0.79152C118.58 2.86555 122.767 9.21212 121.868 15.2411L120.231 14.996C120.361 14.1697 120.344 13.3249 120.181 12.5023C120.106 12.2628 120.013 12.027 119.903 11.7986C119.774 11.4273 119.607 11.0745 119.475 10.7068C119.17 9.84715 119.121 8.91876 118.812 8.05721C118.68 7.69885 118.459 7.37948 118.171 7.12881C117.917 6.93199 117.67 6.72215 117.429 6.50305C117.27 6.33965 117.131 6.1577 117.014 5.96088C116.694 5.53011 116.273 5.28872 115.852 4.98235C115.431 4.67598 115.027 4.30458 114.584 4.00563C114.319 3.84038 114.053 3.67514 113.784 3.5136C113.485 3.28522 113.183 3.05866 112.881 2.83399C112.511 2.56661 112.095 2.36986 111.653 2.25474C111.009 2.05606 110.346 2.01144 109.705 1.82391C109.427 1.72364 109.147 1.62716 108.865 1.53061L108.003 1.37086C107.842 1.34115 107.647 1.37091 107.501 1.28364C107.388 1.2168 107.373 1.15363 107.225 1.15735C107.011 1.1852 106.802 1.23716 106.6 1.31329C105.755 1.5361 104.932 1.83139 104.095 2.07278C103.566 2.19347 103.031 2.28068 102.492 2.33452C101.876 2.43108 101.285 2.63169 100.683 2.78394C100.226 2.88792 99.775 3.01415 99.3317 3.16455C98.9295 3.31495 98.5329 3.48018 98.14 3.64914C97.7604 3.79397 97.389 3.96112 97.028 4.1468C96.5902 4.42717 96.1946 4.76881 95.853 5.1606C95.423 5.60066 94.9263 5.97385 94.4834 6.38791C93.996 6.83354 93.516 7.28478 93.0285 7.72855C92.71 8.04978 92.374 8.3506 92.0222 8.63283C91.8369 8.79437 91.6423 8.9503 91.4458 9.10256C91.0751 9.47392 90.7397 9.89724 90.3802 10.2835C90.1602 10.5137 89.981 10.7792 89.8501 11.0689C89.6505 11.6073 89.4127 12.131 89.1384 12.6342C88.8345 13.2116 88.5732 13.8132 88.2748 14.3944C88.2023 14.5077 88.1375 14.6247 88.0802 14.7454C88.0587 14.8716 88.0513 14.9998 88.058 15.1279C88.0463 15.4027 87.966 15.6682 87.8244 15.9021C87.6521 16.1658 87.3481 16.2939 87.1535 16.5371C87.0247 16.7303 86.9241 16.942 86.8552 17.1629C86.7347 17.4507 86.6198 17.7385 86.5086 18.03C86.3942 18.3382 86.2617 18.6391 86.112 18.9306C85.9808 19.1515 85.8799 19.3874 85.8117 19.6343C85.7728 19.8553 85.8117 20.0372 85.5282 20.0892C85.4498 20.0984 85.3708 20.0817 85.3039 20.039C84.9184 19.7698 84.4199 19.5229 84.1215 19.1552C84.0307 19.042 83.9658 18.9101 83.8676 18.8024C83.5563 18.4663 83.0522 18.3828 82.6481 18.2212C82.2195 18.0764 81.781 17.9613 81.336 17.8796C80.8652 17.7663 80.3852 17.6048 79.9071 17.5249C79.3715 17.4358 78.8618 17.5992 78.3299 17.6456C77.9891 17.64 77.6497 17.6884 77.3236 17.7868C76.9132 17.9316 76.5105 18.0913 76.1152 18.2695C75.4688 18.5741 74.8525 18.938 74.2749 19.3576C73.7096 19.768 73.1314 20.1616 72.5679 20.572C72.1243 20.9303 71.6999 21.311 71.2966 21.712C70.8084 22.1391 70.3303 22.5717 69.8621 23.0118C69.4525 23.411 68.9799 23.799 68.7501 24.3375C68.5072 25.0078 68.2992 25.6892 68.1274 26.3799C67.8568 27.3083 67.5937 28.2368 67.3045 29.1485C67.2532 29.3676 67.1798 29.5793 67.0858 29.7816C66.9005 29.596 66.8078 30.0787 66.7893 30.1975C66.7671 30.3591 66.7374 30.5188 66.7022 30.6785C66.5947 30.9644 66.478 31.2448 66.3482 31.5196C66.1091 32.1249 66.0573 32.758 65.9257 33.3893C65.7552 34.1989 65.4623 34.9695 65.2381 35.7642C65.0789 36.2302 65.0257 36.7242 65.0824 37.2125C65.146 37.6024 65.1727 37.9979 65.1621 38.3934C65.1195 39.1677 64.9453 39.929 64.8934 40.7014C64.8563 41.2733 64.6784 41.8155 64.6802 42.3855C64.6802 42.7569 64.7006 43.1282 64.7062 43.4996C64.6856 43.806 64.6986 44.1142 64.7451 44.4168C64.8811 45.063 64.8628 45.7314 64.6914 46.3665C64.6178 46.5521 64.5642 46.7434 64.532 46.9384C64.5116 47.254 64.6061 47.553 64.6117 47.8668C64.6117 48.0283 64.6691 48.2975 64.5449 48.4238C64.4208 48.5501 63.9037 48.3997 63.989 48.6095C63.8648 48.7803 63.3366 48.8118 63.1494 48.8508C62.9984 48.8898 62.8403 48.8936 62.6879 48.8602C62.4585 48.8342 62.2268 48.8304 61.9966 48.849C61.5074 48.8527 61.0201 48.7896 60.5474 48.6633C60.385 48.6058 60.2265 48.539 60.0729 48.461C59.6976 48.331 59.2934 48.3105 58.9072 48.4015C57.8489 48.6095 56.761 48.6243 55.6935 48.7135C55.4622 48.706 55.2309 48.7246 55.0041 48.7691C54.9507 48.7933 54.9009 48.823 54.8558 48.8602C54.6056 49.0291 54.3295 49.1591 54.0904 49.3448C53.666 49.6753 53.2045 49.9854 52.8061 50.3456C52.3576 50.7541 51.9943 51.2591 51.5829 51.7066C51.2659 51.9944 50.9974 52.3305 50.7878 52.7018C50.6692 52.9507 50.558 53.2051 50.4523 53.4594C50.2199 54.0128 49.9232 54.5364 49.5683 55.0191C49.4506 55.1881 49.3641 55.3775 49.3126 55.5762C49.1272 56.1963 48.9419 56.8146 48.7566 57.4329C48.8715 57.9863 48.7855 58.2573 48.499 58.2425C48.208 58.8849 47.8299 59.4717 47.6205 60.1513C47.4111 60.8309 47.3202 61.5049 47.1405 62.1678C47.0571 62.4723 46.8755 62.9383 46.9422 63.2707C46.9829 63.4805 47.0645 63.6532 47.0923 63.8723C47.1349 64.1973 47.2276 64.5073 47.2776 64.8304C47.3147 65.0606 47.2776 65.2946 47.3017 65.5267C47.3388 65.8033 47.3901 66.0763 47.4555 66.3455C47.5397 66.8097 47.6928 67.2591 47.9096 67.6768C48.1227 68.076 48.5286 68.3397 48.7529 68.7352C48.9771 69.1307 48.9122 69.606 49.1235 69.9867C49.2951 70.2652 49.5385 70.4899 49.8278 70.6403C50.029 70.7368 50.2198 70.8557 50.3967 70.9912C50.5821 71.1769 50.6377 71.4202 50.8304 71.5743C51.0806 71.7767 51.3253 72.07 51.6626 71.9289C51.7856 71.8936 51.9007 71.8342 52.0017 71.7543L52.0629 71.628C52.1389 71.4257 52.163 71.2085 52.2204 71.0024C52.3483 70.54 52.5262 70.074 52.693 69.6302C52.8598 69.1864 53.0414 68.7742 53.1953 68.3304C53.3583 67.8662 53.4695 67.3872 53.6363 66.9249C53.8658 66.3103 54.1734 65.7254 54.5519 65.1888C55.1208 64.3513 55.4026 63.3431 55.6917 62.385C55.8924 61.7518 56.1667 61.1428 56.509 60.5709C56.7673 60.0918 56.9927 59.5961 57.1836 59.0855C57.3912 58.5786 57.7896 58.2555 58.2066 57.9083C58.5606 57.6131 58.9479 57.277 59.3964 57.147C59.8448 57.0263 60.3122 56.9911 60.7735 57.0449C61.1547 57.0653 61.5302 57.147 61.8854 57.2862C62.1043 57.4478 62.3314 57.6001 62.5656 57.7375C62.8883 57.9083 63.1948 58.107 63.4811 58.3335C63.7907 58.6046 64.0168 58.9165 64.3874 59.1301C64.6339 59.273 64.9304 59.3584 65.1528 59.5459C65.3182 59.7075 65.5215 59.8263 65.744 59.8876C66.5521 60.1104 67.3731 60.1847 68.1997 60.3202C68.828 60.4223 69.5508 60.6118 70.1308 60.2534C70.47 60.0417 70.7647 59.752 71.0964 59.5274C71.3418 59.3751 71.5458 59.1653 71.691 58.9147C71.8361 58.664 71.9176 58.3817 71.9286 58.0921C71.9506 57.7207 71.9506 57.3493 71.9286 56.978C71.9302 56.6326 71.9625 56.2891 72.0249 55.9493C72.0961 55.6262 72.1406 55.2957 72.1584 54.9634C72.1498 54.8148 72.0978 54.6718 72.0082 54.553C71.8952 54.2522 71.8326 53.9329 71.8229 53.6098C71.7488 52.9358 71.8229 52.2061 71.5931 51.5543C71.5394 51.4021 71.4467 50.9788 71.7191 50.9602C71.8876 51.2703 71.9921 51.6101 72.0268 51.9591C72.0268 52.1857 71.9916 52.4159 72.0268 52.6406C72.0837 52.8782 72.1743 53.1047 72.2955 53.3145C72.4809 53.723 72.8107 54.0053 73.1054 54.3358C73.3393 54.592 73.5428 54.8761 73.7114 55.1788C74.0154 55.7135 74.4268 55.8714 74.9921 56.0237C75.5574 56.1759 76.0188 56.0236 76.5674 56.0329C76.8306 56.0329 77.166 56.0979 77.0863 56.4266C77.0344 56.6438 76.8157 56.6995 76.6415 56.7496C76.5609 56.7793 76.4768 56.7998 76.3913 56.8091C76.2568 56.8425 76.1208 56.8684 75.9836 56.8852C75.827 56.9019 75.6693 56.9019 75.5129 56.8852C75.4554 56.874 75.2923 56.7571 75.296 56.8592C74.8568 56.7348 74.2582 56.6475 73.8968 56.3486C73.5854 56.0924 73.4038 55.4963 72.9701 55.4313C72.8515 55.5575 72.9145 55.8212 72.896 55.9883C72.668 57.9379 71.6672 59.5645 70.2198 60.3388C68.2553 61.3897 66.2055 60.7381 64.2243 60.1086C62.864 59.6778 61.5852 59.2693 60.3602 59.39C58.8275 59.5441 57.2966 60.6322 56.2643 62.3033C55.3525 63.7887 54.7502 65.445 54.1108 67.2015C53.577 68.6758 53.0229 70.1984 52.2667 71.6207C52.2087 71.7302 52.127 71.8249 52.0275 71.8992C51.928 71.9716 51.8134 72.0217 51.6922 72.044C51.634 72.0533 51.5749 72.057 51.5161 72.0514Z" fill="#393BC4"/>
<path d="M36.7788 79.1072C34.9663 79.1072 34.1712 78.3645 33.8228 77.6961C33.3187 76.7361 33.2575 75.2024 35.8355 73.3586C37.8056 71.9512 40.6096 70.813 41.9514 70.2671L42.3221 70.1167C45.6688 68.7668 49.1947 67.9145 52.7878 67.5859C53.4753 67.5172 56.2627 67.5376 57.321 68.8949C57.5226 69.1548 57.6531 69.4631 57.6996 69.788C57.7461 70.1148 57.707 70.4472 57.586 70.7517C57.3914 71.2363 57.0778 71.6653 56.6742 71.9958C54.667 73.7969 51.8704 74.8255 49.4018 75.7335C48.7716 75.9656 48.1526 76.1939 47.5633 76.4279C45.0872 77.4101 41.3398 78.7526 37.383 79.0757C37.1717 79.1073 36.9697 79.1072 36.7788 79.1072ZM53.3678 69.2142C53.2329 69.2142 53.0982 69.2198 52.9638 69.2328C49.5322 69.5466 46.1644 70.3599 42.967 71.6466L42.5964 71.8008C41.2991 72.3244 38.6247 73.4124 36.814 74.7066C36.0875 75.2265 34.9274 76.2032 35.3036 76.9236C35.6057 77.4992 36.777 77.4677 37.2681 77.4287C41.0062 77.1223 44.598 75.8337 46.9739 74.8905C47.5762 74.6509 48.2082 74.4188 48.8513 74.1811C51.294 73.2824 53.8201 72.3541 55.5918 70.7646C55.7842 70.6124 55.9401 70.4174 56.0477 70.1965C56.1145 70.0108 56.0737 69.9588 56.0477 69.9142C55.6789 69.4742 54.3186 69.2142 53.3678 69.2142Z" fill="#393BC4"/>
<path d="M63.6882 95.2613L58.4044 73.6371C58.3951 73.6037 58.6416 73.4608 58.6787 73.4236C58.7158 73.3865 58.7343 73.3363 58.7751 73.3029C58.8173 73.2731 58.8642 73.2509 58.9141 73.236C59.0338 73.1729 59.1416 73.0893 59.2328 72.9891C59.2625 72.9612 59.3663 72.8721 59.3755 72.8294C59.3848 72.7867 59.3477 72.7162 59.3033 72.6623C59.0679 72.3727 58.8826 72.0403 58.6583 71.7339C58.3401 71.2901 57.9993 70.8612 57.6371 70.4508C57.571 70.3877 57.5185 70.3116 57.4833 70.2262C57.4663 70.1668 57.4414 70.1073 57.4092 70.0535C57.3903 70.0368 57.368 70.0238 57.3437 70.0145C57.3195 70.0071 57.2939 70.0034 57.2683 70.0052C57.2183 70.0201 57.1905 70.0888 57.1497 70.1241C57.1089 70.1594 57.0682 70.2169 57.0218 70.2503C56.9755 70.2837 56.9218 70.2819 56.8791 70.3339C56.8643 70.3543 56.853 70.3766 56.8458 70.4007C56.6956 70.4954 56.5368 70.5734 56.3713 70.6365C56.2879 70.6662 56.1359 70.7015 56.1063 70.7999C56.1018 70.8278 56.1037 70.8575 56.1113 70.8835C56.1191 70.9113 56.1324 70.9373 56.1508 70.9577C56.2583 71.1434 56.3787 71.3291 56.4936 71.5036L57.1423 72.5286C51.1444 77.308 43.8175 80.1118 36.1665 80.5537V78.0155H35.5493C35.3443 78.0025 35.1388 78.0025 34.934 78.0155C34.8006 78.034 34.8024 78.1473 34.7783 78.2605C34.6942 78.5669 34.6549 78.8826 34.6616 79.2001C34.6727 79.3338 34.6949 79.4693 34.7079 79.603C34.7265 79.7887 34.7487 79.9743 34.7635 80.16C34.7694 80.3884 34.7613 80.6168 34.7394 80.8433C34.7246 81.1868 34.7005 81.5229 34.7005 81.8664C34.7001 81.9629 34.6914 82.0577 34.6746 82.1505C34.6653 82.1951 34.6078 82.312 34.6301 82.3621C34.7302 82.3956 34.8154 82.3362 34.9192 82.3288C35.0638 82.3176 35.1861 82.3807 35.3362 82.3603C35.4257 82.3418 35.5134 82.3139 35.5975 82.2767C35.6587 82.2656 35.7206 82.2563 35.7828 82.2526C35.849 82.2415 35.9157 82.234 35.983 82.2303L36.4649 82.2007L38.6388 88.0997C38.4303 88.096 38.2218 88.1034 38.0142 88.1201C37.7233 88.1201 37.4323 88.1201 37.1413 88.1034C36.9556 88.1034 36.7699 88.0941 36.5853 88.0737C36.3637 88.0365 36.139 88.0198 35.9144 88.0235C35.8774 88.0904 35.8106 88.1071 35.7736 88.1777C35.7415 88.2501 35.7298 88.3299 35.7397 88.4079C35.7495 88.484 35.7804 88.5583 35.8292 88.6196C35.9663 88.7514 36.2666 88.7904 36.4426 88.8424C36.6029 88.8833 36.7569 88.9464 36.9004 89.0281C37.155 89.1636 37.441 89.2268 37.7288 89.2138C38.129 89.2323 38.53 89.2063 38.9242 89.1339C39.3838 89.0392 39.8416 88.9204 40.3068 88.8628C40.809 88.7997 41.3094 88.7829 41.8117 88.7105C42.0952 88.6696 42.3677 88.6344 42.6586 88.5768C42.9559 88.5081 43.2484 88.419 43.5334 88.3095C44.1926 88.0867 44.8166 87.771 45.3867 87.3699C45.9168 86.9986 46.4709 86.6551 47.0084 86.2874C47.2864 86.1017 47.5644 85.8975 47.8498 85.7304C48.2714 85.5094 48.681 85.2643 49.0767 84.9988C49.5659 84.6497 50.1275 84.1633 50.715 84.0185C50.8358 83.9888 50.9502 83.9368 51.0523 83.8643C51.1079 83.8161 51.1338 83.7232 51.2061 83.7083C51.2506 83.8364 51.1765 83.9237 51.1728 84.0426C51.1728 84.2283 51.3359 84.4733 51.397 84.6293C51.688 85.346 52.1383 85.9885 52.4367 86.7089C52.6152 87.1768 52.7396 87.6614 52.8074 88.1572C52.853 88.4598 52.9204 88.7588 53.0094 89.0522C53.0713 89.2007 53.0863 89.3622 53.052 89.5182C52.7926 89.5405 52.6165 89.7243 52.3756 89.8246C51.9836 89.9824 51.6 90.1588 51.2265 90.3557C50.8003 90.5915 50.374 90.8217 49.9292 91.0371C49.1378 91.4233 48.4465 91.9896 47.6533 92.3814C46.7989 92.8029 45.8741 93.0591 45.0049 93.449C44.3933 93.722 43.8411 94.0061 43.1757 94.1231C42.7105 94.2085 42.2379 94.2456 41.7709 94.3292C41.4892 94.4072 41.1943 94.4257 40.9054 94.3811C40.7649 94.3366 40.6202 94.305 40.4736 94.2865C40.3579 94.2902 40.2423 94.2865 40.127 94.2753C40.0271 94.2493 39.9244 94.2345 39.8212 94.2326C39.66 94.2326 39.5525 94.2865 39.5321 94.4461C39.5006 94.669 39.6878 94.7878 39.8842 94.8175C39.9602 94.8101 40.0369 94.8138 40.1122 94.8268C40.1882 94.8454 40.2642 94.8621 40.342 94.8733C40.5014 94.8621 40.6237 94.8119 40.7942 94.8138C41.8009 94.8156 42.8052 94.7135 43.791 94.5074C44.4286 94.3812 45.0661 94.2586 45.7036 94.1361C46.5474 93.9615 47.3746 93.7127 48.176 93.3934C48.9021 93.1315 49.6104 92.8215 50.2961 92.465C50.6835 92.2514 51.0542 92.0045 51.4526 91.8114C51.9048 91.5923 52.3237 91.44 52.6332 91.0204C52.6832 90.9554 52.85 90.7641 52.9353 90.753C52.984 90.9553 53.0459 91.156 53.1206 91.3491C53.2818 91.8615 53.4913 92.3536 53.6525 92.8623C54.0232 94.0247 53.9546 95.2576 53.9546 96.4645C53.9546 96.5592 53.9917 96.7634 53.9305 96.8358C53.9175 96.8507 53.2893 96.8971 53.3893 96.8841C52.9204 96.9454 52.4627 97.0475 51.9938 97.1496C50.9948 97.3687 50.007 97.6212 49.0118 97.8552C48.5818 97.9573 48.1556 98.0687 47.7293 98.1838C47.303 98.299 46.8323 98.3565 46.3912 98.4809C45.8352 98.6388 45.307 98.8523 44.764 99.0194C44.4147 99.1531 44.0444 99.2237 43.6705 99.2256C43.4037 99.2144 43.1424 99.1661 42.8755 99.1624C42.4757 99.1568 42.0761 99.1884 41.6819 99.2534C41.5114 99.2812 40.7219 99.324 41.0926 99.6749C41.1834 99.7417 41.2866 99.7881 41.3958 99.8122C41.505 99.8364 41.6182 99.8383 41.7283 99.8179C42.0081 99.79 42.2843 99.7826 42.566 99.7473C42.9793 99.6935 43.3944 99.7603 43.8114 99.7473C44.3099 99.7473 44.8103 99.7268 45.307 99.673C46.9417 99.4873 48.5244 99.0862 50.1386 98.7947C51.1135 98.6183 52.0939 98.5274 53.0539 98.2711C53.2322 98.2266 53.4129 98.1932 53.5951 98.1691C53.6918 98.1393 53.7911 98.1189 53.8916 98.1059C53.947 98.2173 54.0089 98.325 54.0769 98.4271C54.1727 98.6258 54.2354 98.8375 54.2622 99.0547C54.3017 99.1977 54.321 99.3462 54.3197 99.4947C54.3012 99.6451 54.2437 99.8123 54.2215 99.9608C54.1696 100.302 54.1288 100.65 54.0899 100.993C54.0269 101.55 53.8916 102.118 53.8527 102.688C53.8402 102.869 53.8186 103.047 53.7878 103.223C53.7554 103.388 53.7127 103.55 53.6599 103.708C53.6414 103.765 53.6321 103.864 53.5913 103.893C53.4881 103.929 53.3797 103.947 53.2707 103.947C52.8593 104.018 52.4471 104.081 52.0346 104.133C51.208 104.243 50.3777 104.321 49.5437 104.369C49.231 104.367 48.9195 104.408 48.617 104.486C48.314 104.56 48.001 104.582 47.6904 104.554C47.1974 104.554 46.7081 104.67 46.2189 104.657C45.8376 104.625 45.459 104.569 45.0846 104.49C44.6732 104.428 44.2599 104.387 43.8466 104.343C43.1646 104.27 42.4918 104.322 41.808 104.295C41.4458 104.261 41.0876 104.192 40.7386 104.09C40.5088 104.036 40.2586 104.07 40.0455 103.975C39.9787 103.942 39.9067 103.921 39.8323 103.912C39.7208 103.864 39.6038 103.828 39.4839 103.808C39.4005 103.841 39.4468 103.951 39.4654 104.012C39.8546 104.248 40.292 104.406 40.6997 104.603C40.9388 104.722 41.1867 104.822 41.441 104.904C41.6856 104.976 41.9581 104.978 42.1935 105.071C42.364 105.139 42.5122 105.256 42.6883 105.316C42.9609 105.414 43.2395 105.496 43.5223 105.557C44.3285 105.743 45.1662 105.669 45.9872 105.667C46.962 105.667 47.9387 105.724 48.9136 105.767C49.4807 105.793 50.0404 105.849 50.6075 105.823C50.9152 105.808 51.2191 105.771 51.5342 105.771C51.7918 105.771 52.042 105.804 52.2977 105.823C53.091 105.877 53.886 105.774 54.6755 105.886C54.7849 105.903 54.9646 105.995 55.0462 105.886C55.1277 105.776 55.0221 105.648 55.0202 105.544C55.0202 105.386 55.074 105.221 55.0721 105.058C55.0721 104.978 55.0721 104.898 55.0721 104.818C55.0625 104.525 55.1072 104.231 55.2037 103.953C55.2975 103.706 55.3496 103.442 55.3575 103.177C60.6877 102.503 63.5121 96.082 63.6326 95.796C63.7093 95.6289 63.729 95.4414 63.6882 95.2613Z" fill="#393BC4"/>
<path d="M77.9729 188.286L77.5781 186.677L101.267 180.843V161.01C101.267 161.034 101.795 160.98 101.836 160.986C102.021 161.016 102.036 161.348 102.064 161.5C102.095 161.693 102.095 161.89 102.064 162.083C102.037 162.364 102.051 162.644 102.105 162.919C102.163 163.121 102.183 163.333 102.164 163.541C102.131 163.742 102.113 163.946 102.112 164.148C102.112 164.43 102.075 164.705 102.096 164.995C102.116 165.285 102.123 165.589 102.148 165.882C102.172 166.176 102.24 166.413 102.246 166.699C102.257 167.32 102.296 167.934 102.296 168.556C102.296 169.308 102.296 170.06 102.283 170.81C102.237 171.553 102.232 172.298 102.268 173.038C102.327 173.764 102.268 174.494 102.383 175.216C102.492 175.853 102.807 176.431 102.868 177.073C102.893 177.326 102.904 177.563 102.941 177.816C103.004 178.226 102.996 178.644 103.052 179.054C103.078 179.261 103.089 179.448 103.102 179.658C103.092 179.948 103.111 180.237 103.159 180.521C103.258 180.88 103.506 181.184 103.615 181.535C103.667 181.699 103.747 181.927 103.576 182.022C103.488 182.055 103.399 182.081 103.308 182.101C103.165 182.163 103.039 182.254 102.889 182.306C102.448 182.462 101.927 182.384 101.467 182.387C100.902 182.387 100.32 182.588 99.7771 182.725C99.5918 182.772 99.3935 182.805 99.2211 182.865L99.1692 182.909C98.717 183.002 98.2617 183.073 97.8033 183.125C97.5991 183.126 97.396 183.156 97.1992 183.21C96.6419 183.418 96.0575 183.542 95.4645 183.581C94.9244 183.644 94.3925 183.765 93.878 183.94C93.4184 184.084 92.9699 184.261 92.501 184.378C91.7912 184.554 91.1092 184.827 90.4049 185.026C89.4894 185.284 88.5516 185.429 87.6249 185.667C87.0278 185.837 86.441 186.043 85.868 186.283C84.7857 186.703 83.6978 187.237 82.5469 187.443C82.0298 187.534 81.509 187.458 80.9938 187.54C80.4795 187.627 79.9722 187.752 79.4759 187.911C79.2257 187.987 78.9811 188.075 78.7346 188.151C78.6215 188.181 77.9599 188.233 77.9729 188.286Z" fill="#393BC4"/>
<path d="M79.6856 192L79.1722 190.424C79.15 190.351 80.173 190.167 80.3398 190.132C80.6475 190.067 80.9527 189.989 81.2554 189.896C81.3584 189.815 81.4752 189.751 81.6001 189.711C82.0931 189.48 82.5749 189.218 83.0623 188.968C83.4423 188.782 83.8037 188.583 84.1743 188.361C84.7854 187.997 85.4414 187.715 86.1259 187.52C87.1007 187.221 88.0589 186.888 89.0207 186.554C89.9289 186.24 90.8481 185.967 91.7544 185.644C92.3289 185.438 92.9071 185.21 93.4965 185.048C94.3323 184.82 95.2201 184.796 96.0726 184.656C96.9251 184.517 97.7999 184.27 98.6672 184.142C99.1009 184.077 99.5383 184.077 99.9646 184.023C100.385 183.943 100.801 183.839 101.21 183.711C101.398 183.663 101.581 183.594 101.755 183.507C101.853 183.444 101.964 183.403 102.079 183.388C102.252 183.36 102.429 183.379 102.593 183.442C102.668 183.485 102.74 183.531 102.809 183.583C103.06 183.784 102.346 184.038 102.233 184.092C101.267 184.551 100.337 185.07 99.3215 185.418C98.7655 185.603 98.1576 185.618 97.5794 185.75C97.1475 185.861 96.7176 185.986 96.282 186.121C95.8465 186.257 95.448 186.333 95.0292 186.431C94.3509 186.617 93.7115 186.894 93.0536 187.144C92.3271 187.423 91.582 187.635 90.8296 187.861C89.9733 188.123 89.1468 188.455 88.2627 188.619C87.7753 188.71 87.3009 188.767 86.8227 188.903C86.0797 189.124 85.3538 189.399 84.6506 189.725C84.2058 189.926 83.7981 190.178 83.3737 190.416C83.0308 190.602 82.6787 190.741 82.3507 190.973C82.2009 191.064 82.0441 191.142 81.8818 191.207C81.7687 191.263 81.6705 191.337 81.5537 191.393C81.222 191.523 80.8717 191.617 80.5326 191.727C80.5103 191.731 79.6856 191.954 79.6856 192Z" fill="#393BC4"/>
<path d="M91.8285 191.981L91.2188 190.442C91.2188 190.455 92.0842 190.071 92.2418 190.032C92.4493 189.974 92.6551 189.917 92.8589 189.846C93.2663 189.714 93.6644 189.553 94.0506 189.367C94.3777 189.245 94.6807 189.063 94.9458 188.834C95.3294 188.602 95.8594 188.244 96.3135 188.22C96.6994 188.218 97.0845 188.19 97.4663 188.134C97.9759 188.036 98.5097 187.716 98.9767 187.512C100.073 187.052 101.092 186.426 101.998 185.655C102.224 185.466 102.462 185.29 102.711 185.13C102.95 184.996 103.174 184.838 103.38 184.656C103.486 184.517 103.611 184.393 103.751 184.285C103.952 184.133 104.17 184.003 104.401 183.901C104.705 183.808 105.028 183.823 105.328 183.7C105.566 183.598 105.815 183.518 106.069 183.466C106.651 183.37 107.225 183.23 107.787 183.05C107.999 182.974 108.414 182.785 108.566 183.061C108.502 183.162 108.425 183.251 108.336 183.327C108.179 183.466 108 183.574 107.806 183.65C107.482 183.73 107.163 183.83 106.851 183.947C106.52 184.083 106.219 184.279 105.89 184.419C105.641 184.523 105.387 184.604 105.132 184.69C104.457 184.898 103.847 185.275 103.358 185.784C103.069 186.09 102.802 186.43 102.531 186.747C102.256 187.104 101.945 187.432 101.605 187.728C101.115 188.099 100.493 188.272 99.9479 188.554C99.5587 188.754 99.188 188.99 98.8081 189.207C98.3633 189.462 97.8814 189.674 97.4236 189.898C97.2472 189.997 97.0533 190.06 96.8528 190.084C96.4099 190.106 96.0003 190.316 95.5833 190.455C95.3813 190.526 95.1811 190.598 94.9791 190.672C94.8753 190.71 94.7716 190.745 94.6696 190.784C94.5101 190.875 94.3344 190.932 94.1525 190.953C93.856 190.93 93.5602 191.007 93.3111 191.168C93.1536 191.278 93.0443 191.437 92.8775 191.54C92.8237 191.58 91.8322 191.989 91.8285 191.981Z" fill="#393BC4"/>
<path d="M66.0467 169.943C65.9818 170.004 65.9169 170.062 65.8484 170.118C65.7427 170.205 65.6352 170.289 65.5278 170.372C65.4527 170.441 65.3728 170.502 65.2887 170.558C65.1271 170.643 64.9523 170.699 64.7716 170.725C64.7015 170.58 64.6715 170.419 64.6845 170.257C64.6548 169.921 64.6345 169.587 64.6141 169.251C64.5622 168.428 64.5863 167.6 64.5344 166.779C64.5158 166.506 64.5158 166.231 64.5344 165.959C64.564 165.587 64.7772 165.195 64.6048 164.83C64.5394 164.655 64.5068 164.471 64.5084 164.284C64.4893 164.039 64.4463 163.797 64.3806 163.56C64.2972 163.294 64.2119 163.032 64.1211 162.77C64.026 162.52 63.9637 162.256 63.9358 161.989C63.8394 161.317 63.8134 160.633 63.7504 159.957C63.6946 159.295 63.5566 158.643 63.339 158.013C63.2352 157.751 63.1314 157.49 63.0295 157.228C62.8966 156.823 62.74 156.426 62.5606 156.04C62.3914 155.713 62.2307 155.38 62.0787 155.042C61.9768 154.788 61.8599 154.541 61.7285 154.3C61.6271 154.129 61.5396 153.949 61.4671 153.763C61.393 153.585 61.279 153.423 61.1335 153.295C61.0835 153.258 61.0279 153.23 60.9797 153.187C60.8246 153.022 60.6815 152.844 60.5516 152.656C60.4089 152.519 60.2747 152.372 60.1494 152.218C60.0605 152.083 59.9326 151.984 59.8455 151.847C59.7606 151.697 59.685 151.541 59.6194 151.379C59.5527 151.24 59.5175 151.169 59.3507 151.152C59.1839 151.136 59.056 151.1 58.9077 151.086C58.8017 151.082 58.6955 151.089 58.5908 151.106C58.4055 151.126 58.2368 151.138 58.0626 151.169C57.7112 151.256 57.3648 151.362 57.0247 151.487C56.8529 151.528 56.6791 151.559 56.504 151.58C56.3316 151.611 56.163 151.663 55.9925 151.698C55.6852 151.741 55.3759 151.765 55.0658 151.773C54.8656 151.791 54.6692 151.828 54.4672 151.828C54.2225 151.828 53.8982 151.734 53.774 152.001C53.6499 152.268 53.774 152.647 53.8241 152.929C53.8445 153.046 53.8593 153.165 53.8723 153.282C53.8852 153.399 53.926 153.468 53.9371 153.563C53.9482 153.657 53.9371 153.748 53.9371 153.843C53.9653 154.292 54.0315 154.738 54.1354 155.176C54.1669 155.301 54.2262 155.416 54.2559 155.548C54.3004 155.733 54.3171 155.919 54.356 156.105C54.4023 156.318 54.4505 156.532 54.4968 156.745L54.5673 157.059L52.953 157.419L52.8826 157.105C52.3952 154.922 51.9337 152.859 53.0957 151.407C53.9835 150.293 55.6422 149.777 58.311 149.777C64.1304 149.777 65.9559 162.338 66.4396 167.136L77.2073 157.62C77.2073 157.62 77.3612 157.779 77.3686 157.805C77.379 157.839 77.379 157.874 77.3686 157.906C77.3538 157.995 77.3334 158.091 77.3111 158.169C77.2618 158.347 77.1942 158.52 77.1091 158.684C76.9664 158.669 76.9053 158.76 76.8015 158.847C76.4975 159.101 76.1528 159.304 75.8544 159.566C75.3564 160.028 74.9309 160.565 74.5923 161.153C74.4541 161.417 74.3162 161.679 74.179 161.939C74.0091 162.208 73.8089 162.458 73.5823 162.681C72.9286 163.366 72.2401 164.018 71.5195 164.633C71.0543 165.034 70.5743 165.431 70.1407 165.871L69.8552 166.168C69.6577 166.391 69.4953 166.64 69.3734 166.911C69.2149 167.193 69.0205 167.451 68.7952 167.682C68.6643 167.839 68.5084 167.973 68.3337 168.079C68.1973 168.148 68.067 168.229 67.9445 168.32C67.6924 168.506 67.4719 168.723 67.2254 168.911C66.9789 169.098 66.7287 169.297 66.4952 169.505C66.3543 169.629 66.2042 169.791 66.0467 169.943Z" fill="#393BC4"/>
<path d="M62.1465 161.515C62.0868 161.328 62.0562 161.129 62.0557 160.93C62.0625 160.771 62.0525 160.611 62.026 160.453C61.9426 160.225 61.8442 160 61.7314 159.783C61.6202 159.523 61.5664 159.248 61.4719 158.983C61.4404 158.893 61.2625 158.563 61.3162 158.487C61.0271 158.034 60.7335 157.584 60.4359 157.135C60.2765 156.94 60.1408 156.728 60.0319 156.5C60.0078 156.431 60.0004 156.359 59.9744 156.29C59.9151 156.138 59.8224 155.999 59.7502 155.854C59.6304 155.624 59.5307 155.384 59.4518 155.135C59.4258 155.05 59.4017 154.966 59.3684 154.885C59.3591 154.86 59.272 154.601 59.2238 154.576C59.1756 154.552 59.0088 154.64 58.9588 154.664C58.8368 154.723 58.7079 154.764 58.5752 154.788C58.3012 154.849 58.0351 154.94 57.7819 155.061C57.5966 155.141 57.4113 155.228 57.2371 155.308C57.0629 155.388 56.8405 155.393 56.6347 155.466C56.5662 155.49 56.4494 155.523 56.4235 155.598C56.4031 155.694 56.4031 155.791 56.4235 155.885C56.4735 156.177 56.6551 156.405 56.7941 156.66C56.9908 157.011 57.2106 157.349 57.4521 157.668C57.5386 157.811 57.6441 157.939 57.7653 158.052C57.9506 158.208 58.1063 158.39 58.2879 158.563L57.1481 159.764C56.121 158.767 55.5098 157.415 55.4375 155.984C55.4379 155.856 55.4677 155.729 55.5246 155.612C55.7844 155.115 56.116 154.658 56.5087 154.257C57.4465 153.317 58.5196 153.078 59.5315 153.585C59.9418 153.821 60.285 154.159 60.5285 154.563C60.8938 155.126 61.1967 155.728 61.4311 156.355C61.6995 157.046 61.9334 157.748 62.1317 158.459C62.317 159.107 62.4764 159.759 62.6209 160.416C62.6784 160.674 62.734 160.934 62.7859 161.196C62.8545 161.536 62.9712 161.939 62.8248 162.271C62.7568 162.236 62.6943 162.189 62.6395 162.134C62.5453 162.044 62.4636 161.942 62.3967 161.829C62.3615 161.786 62.3133 161.779 62.2725 161.742C62.2317 161.697 62.1991 161.643 62.1761 161.586L62.1465 161.515Z" fill="#393BC4"/>
<path d="M52.9537 161.434C49.9624 160.451 49.6659 156.702 49.968 154.049C49.9689 153.867 49.9976 153.685 50.0532 153.511C50.0959 153.418 50.1589 153.275 50.2627 153.238C50.3275 153.225 50.3942 153.225 50.4591 153.238C50.6871 153.28 50.7705 153.544 50.8298 153.737C50.8648 153.826 50.9043 153.914 50.9484 153.999C50.9892 154.136 51.0062 154.278 50.9984 154.419C51.017 155.011 50.9836 155.601 51.1838 156.171C51.2709 156.426 51.4043 156.647 51.4784 156.914C51.5414 157.135 51.5655 157.364 51.6193 157.586C51.6627 157.798 51.7247 158.004 51.8046 158.205C51.8704 158.383 51.9479 158.556 52.0363 158.723C52.1393 158.854 52.2515 158.979 52.3717 159.094C52.4385 159.178 52.5293 159.237 52.6034 159.313C52.6818 159.393 52.7659 159.467 52.8555 159.532C53.0432 159.673 53.253 159.783 53.4763 159.855L52.9537 161.434Z" fill="#393BC4"/>
<path d="M83.1535 53.1864C84.524 53.1864 85.6351 52.0742 85.6351 50.7002C85.6351 49.328 84.524 48.214 83.1535 48.214C81.7829 48.214 80.6719 49.328 80.6719 50.7002C80.6719 52.0742 81.7829 53.1864 83.1535 53.1864Z" fill="#393BC4"/>
<path d="M100.114 49.0402C101.485 49.0402 102.596 47.928 102.596 46.554C102.596 45.1818 101.485 44.0677 100.114 44.0677C98.7437 44.0677 97.6328 45.1818 97.6328 46.554C97.6328 47.928 98.7437 49.0402 100.114 49.0402Z" fill="#393BC4"/>
<path d="M21.6782 130.245H21.6412C20.3735 130.312 19.0113 130.483 17.7492 130.34C16.5668 130.206 15.3955 130.002 14.2279 129.794C13.6348 129.688 13.0436 129.582 12.4506 129.48C12.243 129.443 12.0386 129.387 11.839 129.318C11.7504 129.292 11.6588 129.276 11.5665 129.268C10.9605 129.222 10.3378 129.268 9.7299 129.253C8.39551 129.207 7.08337 128.919 5.79346 128.592C5.13183 128.425 4.4739 128.245 3.81412 128.074C3.15434 127.904 0.00185331 127.62 0 127.653L0.150118 126.002C16.3611 127.488 36.5362 129.344 52.9696 121.024C65.5295 114.67 74.0974 103.698 83.1619 92.0824C89.024 84.5754 95.0843 76.8121 102.284 70.5139C112.649 61.4435 125.321 55.4294 138.893 53.1399C145.027 52.1038 155.436 51.428 164.243 56.2036C167.821 54.0331 171.728 52.4566 175.809 51.5356L176.169 53.1529C172.553 53.968 169.08 55.3217 165.866 57.1673C167.451 58.1793 168.92 59.362 170.247 60.6952C173.915 64.3698 175.413 69.3794 174.061 73.4551C173.218 75.9989 171.306 78.3031 168.216 80.4978C164.771 82.947 161.401 84.2356 158.208 84.3266C154.116 84.4435 150.396 82.4791 148.706 79.3132C147.135 76.3721 147.374 72.3503 149.333 68.8168C151.41 65.0698 154.337 63.0608 157.452 60.9143C158.405 60.2589 159.389 59.5811 160.354 58.8458C161.096 58.2795 161.85 57.7411 162.619 57.2305C162.499 57.3122 161.059 56.5174 160.851 56.432C160.233 56.1851 159.606 55.9549 158.97 55.7413C158.464 55.552 157.946 55.3959 157.419 55.2752C157.102 55.2195 156.798 55.0896 156.492 55.0394C156.186 54.9893 156.036 55.0394 155.751 54.9169C153.82 54.1221 151.757 54.2893 149.696 54.293C147.515 54.293 145.3 54.293 143.131 54.527C141.943 54.6533 140.765 54.475 139.584 54.6124C139.384 54.6087 139.184 54.6403 138.995 54.7052C138.016 54.9615 137.031 55.1898 136.039 55.3922C135.558 55.4906 135.076 55.5835 134.593 55.6689C133.811 55.81 133.122 56.0923 132.353 56.3262C130.883 56.7718 129.615 57.561 128.179 58.0864C126.858 58.5674 125.532 59.0037 124.243 59.5719C122.113 60.5003 120.134 61.8 118.104 62.9345C115.139 64.5852 112.272 66.3566 109.372 68.102C108.529 68.6274 107.753 69.2495 107.059 69.9587C106.179 70.694 105.301 71.4312 104.425 72.1683C102.89 73.5201 101.374 74.9313 99.9585 76.4056C99.7065 76.6674 99.4841 76.9626 99.1616 77.1334C98.8391 77.3042 98.4777 77.5252 98.1237 77.7016C97.7588 77.8687 97.4343 78.1119 97.173 78.4164C96.8527 78.8267 96.4993 79.2112 96.1166 79.5621C95.1288 80.4032 94.343 81.4374 93.4626 82.3844C92.3086 83.5913 91.255 84.8892 90.312 86.2669C89.756 87.0932 89.1463 87.8656 88.5643 88.6696C87.7266 89.8264 86.9149 90.9888 86.0068 92.0917C85.1709 93.1055 84.2498 94.0395 83.3343 94.979C82.5744 95.7663 81.8628 96.5981 81.203 97.469C79.3886 99.8345 77.5519 102.178 75.6115 104.443C73.3875 107.043 70.9097 109.417 68.3521 111.685C67.1919 112.71 66.0725 113.744 64.8438 114.687C63.2722 115.89 61.6394 117.002 59.9714 118.066C58.7037 118.876 57.4435 119.591 56.1147 120.285C55.2369 120.774 54.3179 121.184 53.368 121.509C52.4914 121.787 51.6333 121.973 50.7734 122.32C49.6837 122.758 48.6013 123.327 47.5468 123.843C46.6535 124.281 45.8121 124.749 44.8743 125.087C44.1663 125.341 43.4473 125.575 42.7356 125.815C41.3493 126.281 39.926 126.557 38.5193 126.951C37.3332 127.287 36.2193 127.675 35.0091 127.928C33.8971 128.156 32.7851 128.327 31.6954 128.587C30.3981 128.895 29.1174 129.274 27.8164 129.571C25.8037 130.031 23.7169 130.135 21.6782 130.245ZM164.263 58.1254C163.679 58.4968 163.107 58.883 162.541 59.2822C162.426 59.3509 162.328 59.4401 162.25 59.5478C162.206 59.6239 162.211 59.6944 162.135 59.7705C161.998 59.8875 161.837 59.9693 161.663 60.012C161.292 60.1178 160.996 60.1493 160.669 60.3628C160.373 60.5485 160.074 60.7546 159.789 60.9626C159.417 61.2262 159.079 61.5327 158.779 61.8762C158.625 62.1064 158.452 62.3236 158.262 62.5242C158.09 62.6448 157.896 62.7321 157.691 62.7767C157.329 62.8992 156.985 63.0738 156.672 63.2929C156.394 63.4897 156.152 63.733 155.958 64.0115C155.528 64.55 154.93 64.7876 154.42 65.2239C153.864 65.6956 153.503 66.3881 153.017 66.9266C152.485 67.5189 152.011 68.0277 151.638 68.7333C151.236 69.489 150.721 70.1779 150.341 70.9484C149.855 71.927 149.729 73.0169 149.629 74.105C149.57 74.7549 149.561 75.4047 149.561 76.0509C149.532 76.4241 149.547 76.7973 149.605 77.165C149.779 77.878 150.176 78.5928 150.856 78.9103C151.164 79.0533 151.555 79.096 151.812 79.3374C151.924 79.4432 151.998 79.6456 152.107 79.7645C152.467 80.1767 153.004 80.34 153.529 80.431C154.036 80.5239 154.55 80.5814 155.065 80.6056C155.823 80.6334 156.564 80.4979 157.317 80.4199C159.216 80.2138 161.099 80.0318 162.949 79.5267C163.542 79.3652 164.144 79.2259 164.724 79.0161C165.503 78.7023 166.255 78.331 166.976 77.9021C167.758 77.475 168.598 77.0684 169.304 76.5225C169.704 76.2124 170.075 75.8466 170.459 75.5142C171.365 74.7251 171.871 73.6816 172.271 72.5638C172.721 71.3105 172.985 70.0609 172.76 68.7333C172.538 67.5895 172.204 66.4698 171.761 65.391C171.487 64.6706 171.254 63.8407 170.813 63.2075C170.422 62.6505 169.886 62.1695 169.437 61.6571C169.272 61.4714 169.115 61.2727 168.948 61.1C168.653 60.8308 168.333 60.5931 167.99 60.3889C167.423 60.0045 166.889 59.4791 166.272 59.1801C166.09 59.104 165.905 59.0371 165.716 58.9796C165.601 58.9369 165.492 58.8867 165.384 58.8273C165.305 58.7846 165.23 58.7344 165.154 58.688C165.078 58.6416 164.339 58.0846 164.263 58.1254Z" fill="#393BC4"/>
<path d="M34.2012 142.736C33.9417 142.736 33.6823 142.728 33.4228 142.713C32.6203 142.676 31.8216 142.479 31.0135 142.494C30.8004 142.496 30.5876 142.517 30.3778 142.556C29.9701 142.517 29.5624 142.37 29.1565 142.37C29.0418 142.374 28.9272 142.385 28.8136 142.401C28.4072 142.413 28.0008 142.379 27.6016 142.301L27.7999 140.654C44.0349 142.621 60.7296 136.976 72.4647 125.56L73.6194 126.749C73.6027 126.736 72.6037 127.711 72.5074 127.8C72.361 127.933 72.2053 128.022 72.0533 128.139C71.8898 128.297 71.7601 128.487 71.6715 128.696C71.5123 128.975 71.2821 129.205 71.0043 129.365C70.5484 129.673 70.313 130.108 69.9313 130.488C69.6199 130.757 69.2998 131.017 68.9712 131.268C68.7007 131.532 68.4319 131.796 68.1651 132.059C67.9501 132.224 67.7332 132.386 67.5127 132.54L66.877 133.131C66.5063 133.413 66.1357 133.701 65.778 133.994C65.5185 134.243 65.2516 134.48 64.9773 134.711C64.3967 135.162 63.8135 135.611 63.2278 136.057C62.7743 136.406 62.2756 136.69 61.7452 136.904C60.1276 137.719 58.4698 138.448 56.7783 139.094C55.2215 139.672 53.6165 140.173 52.0301 140.66C50.3065 141.189 48.5255 141.627 46.7574 141.982C44.9575 142.314 43.1359 142.513 41.3068 142.578C39.7982 142.654 38.2896 142.578 36.781 142.661C35.9267 142.704 35.0649 142.743 34.2012 142.736Z" fill="#393BC4"/>
<path d="M53.3727 71.0636C53.5228 70.2689 52.8519 69.9198 52.1773 69.9959C51.1845 70.1129 50.2354 70.4731 49.414 71.0431C49.1175 71.251 48.8154 71.5259 48.7913 71.888C48.7413 72.6196 49.5456 72.6307 50.0423 72.549C50.943 72.4209 51.8183 72.1535 52.6369 71.7562C52.926 71.615 53.3115 71.3997 53.3727 71.0636Z" fill="#393BC4"/>
</svg>
