<svg width="15" height="12" viewBox="0 0 15 12" fill="none" xmlns="http://www.w3.org/2000/svg">
<path fill-rule="evenodd" clip-rule="evenodd" d="M5.01647 5.21312C4.7542 4.66618 4.52037 4.12546 4.34839 3.71124C4.25876 3.49538 4.18717 3.31692 4.1385 3.19375C4.11422 3.13224 4.0957 3.08469 4.08358 3.05338C4.07752 3.03772 4.07308 3.02615 4.07031 3.01892L4.06743 3.01138L4.06702 3.01035C4.06708 3.01046 4.06714 3.01061 2.2083 3.70318C0.349463 4.39575 0.349532 4.39595 0.34961 4.39615L0.351826 4.40195L0.356845 4.41509C0.361062 4.42609 0.367013 4.44158 0.374623 4.46124C0.389836 4.50055 0.411702 4.55666 0.439593 4.62729C0.495333 4.76838 0.575421 4.96801 0.674894 5.20758C0.872738 5.68409 1.1523 6.33075 1.47336 6.99392C1.78838 7.64464 2.17092 8.36904 2.57967 8.97321C2.78257 9.27309 3.02796 9.59758 3.31215 9.87975C3.55867 10.1245 4.02964 10.5377 4.70677 10.6991C5.90181 10.984 6.73968 10.2671 7.03411 9.96784C7.3852 9.61092 7.6438 9.17906 7.82689 8.83126C8.20855 8.10626 8.54623 7.18752 8.81623 6.36124C9.09355 5.51261 9.33015 4.66492 9.49616 4.03595C9.57961 3.71972 9.64622 3.45492 9.69228 3.26795C9.71533 3.17438 9.73327 3.10012 9.74562 3.04841C9.75182 3.02255 9.75661 3.00232 9.75996 2.98812L9.76391 2.97144L9.76552 2.96446C9.76558 2.96426 9.76561 2.96406 7.83055 2.52146C5.89547 2.07886 5.89549 2.07872 5.89552 2.07861L5.89498 2.08097L5.89232 2.09227C5.88984 2.1028 5.88595 2.11924 5.8807 2.14118C5.87017 2.18509 5.85427 2.25097 5.83342 2.33559C5.79171 2.50498 5.73041 2.74866 5.65327 3.04095C5.49808 3.62898 5.2828 4.39832 5.03724 5.14981C5.03031 5.17098 5.02339 5.19209 5.01647 5.21312ZM6.12416 7.10121C6.12326 7.10032 6.12234 7.09941 6.12136 7.09841C6.1453 7.11835 6.14631 7.12321 6.12416 7.10121Z" fill="#FF8A65"/>
<path fill-rule="evenodd" clip-rule="evenodd" d="M14.8248 7.01175L6.20763 10.547L4.8418 7.28083L13.4589 3.74561L14.8248 7.01175Z" fill="#FF8A65"/>
</svg>
