<svg width="24" height="24" viewBox="0 0 24 24" xmlns="http://www.w3.org/2000/svg">
<path fill-rule="evenodd" clip-rule="evenodd" d="M16.6212 15.1721L20.8652 19.4161L19.4512 20.8311L15.2112 16.5911C13.7976 17.6557 12.0332 18.1454 10.273 17.9617C8.51293 17.7779 6.88774 16.9343 5.72454 15.6005C4.56134 14.2668 3.94647 12.5421 4.00366 10.7733C4.06085 9.00452 4.78587 7.32306 6.0328 6.06729C7.27973 4.81152 8.95602 4.07464 10.7243 4.00495C12.4927 3.93526 14.2217 4.53792 15.5636 5.69167C16.9055 6.84542 17.7606 8.4646 17.9568 10.2234C18.1531 11.9822 17.6758 13.75 16.6212 15.1711V15.1721ZM15.9992 11.0001C15.9992 9.67402 15.4724 8.40225 14.5347 7.46456C13.5971 6.52688 12.3253 6.0001 10.9992 6.0001C9.67312 6.0001 8.40135 6.52688 7.46367 7.46456C6.52599 8.40225 5.99921 9.67402 5.99921 11.0001C5.99921 12.3262 6.52599 13.5979 7.46367 14.5356C8.40135 15.4733 9.67312 16.0001 10.9992 16.0001C12.3253 16.0001 13.5971 15.4733 14.5347 14.5356C15.4724 13.5979 15.9992 12.3262 15.9992 11.0001Z"/>
</svg>
