<?xml version="1.0" encoding="utf-8"?><svg viewBox="0 0 183 213" xmlns="http://www.w3.org/2000/svg" xmlns:xlink="http://www.w3.org/1999/xlink"><style>:root>svg{display:none}:root>svg:target{display:block}</style><svg fill="none" viewBox="0 0 157 213" id="404" xmlns="http://www.w3.org/2000/svg"><path d="M63.831 141.605a.112.112 0 00-.076-.027c-.015 0-.03.016-.038.019a.116.116 0 01-.067-.017.345.345 0 00-.186-.019c-.139.023-.28.035-.421.038-.192 0-.382-.049-.574-.059a7.063 7.063 0 01-.727-.017.068.068 0 000-.029 1.095 1.095 0 01-.034-.475.407.407 0 00.013-.159c-.07-.42-.156-.857-.228-1.285a117.362 117.362 0 01-.765-5.136 115.8 115.8 0 01-.774-9.004c0-.265-.034-.531-.048-.796a.428.428 0 01.02-.23c.125-.233.52-.254.739-.21.168.434.318.883.461 1.326.234.718.182 1.501.363 2.229.076.302.173.598.25.899.27 1.032.374 2.147.538 3.194.089.569.108 1.226.363 1.748.24.49.148.951.245 1.47.063.342.135.684.21 1.026.064.397.114.796.152 1.194.061.548.108 1.098.16 1.646.036.348.074.695.123 1.049.02.16.052.319.078.477.031.149.07.298.114.443.042.153.044.319.075.474-.006.027.066.202.034.231zM87.32 148.044c-.3.11-.765.242-1.092.149a1.679 1.679 0 01-.761-.596c-.23-.3-.346-.665-.574-.967-.09-.12-.196-.21-.293-.326l-.369-.594c-.196-.392-.474-.801-.548-1.238a1.894 1.894 0 00-.21-.581l-.681-1.344-5.638-11.099c-1.22-2.403-2.74-5.392-2.319-8.584.388-3.027 2.349-5.363 4.246-7.619.18-.212.356-.422.531-.63 1.548-1.857 3.542-4.645 3.03-7.38a5.344 5.344 0 00-1.836-3.02 8.014 8.014 0 00-3.6-1.738c-.372-.075-.77-.258-1.152-.254-1.076.002-2.15.088-3.213.258-.843.145-1.758.282-2.551.613-.272.111-.563.174-.843.269a13.66 13.66 0 00-1.586.533c-1.075.51-2.25.873-3.24 1.538-.21.147-.443.294-.658.448-.124.088-.21.209-.352.289-.249.145-.75.26-.767-.161.02-.246.105-.483.248-.685.07-.1.16-.193.239-.287a18.84 18.84 0 012.696-2.479c.344-.275.7-.646 1.109-.814.08-.032.156-.074.228-.122.396-.271.778-.561 1.176-.84a35.598 35.598 0 0119.8-6.055h.435a35.834 35.834 0 0113.22 2.758c.211.084.422.164.647.245 1.301.477 3.721 1.365 3.179 3.942-.227 1.087-1.022 2.063-2.175 2.678-.886.447-1.807.823-2.754 1.121-1.102.38-2.144.737-3.132 1.394-.753.502-1.647 1.19-1.864 2.065-.175.71.072 1.52.422 2.504.362 1.05.786 2.099 1.233 3.233 1.265 3.192 2.583 6.491 2.688 9.825.11 3.582-.904 7.369-3.015 11.254-.348.63-.717 1.259-1.1 1.889a58.088 58.088 0 01-2.998 4.284c-.523.688-1.054 1.366-1.594 2.044-.21.271-.436.521-.675.77-.238.25-.274.594-.527.813-.253.218-.672.325-.959.556-.421.329-.731.785-1.107 1.158-.293.292-.527.63-.93.781l-.014.002zm-12.042-47.796a2.72 2.72 0 01-.356.143c.278-.044.556-.082.843-.118.476-.023.955.021 1.419.135.297.05.59.115.88.193.163.029.324.077.473.145.082.054.17.102.26.144.28.116.562.227.843.338a6.867 6.867 0 012.051 1.031c.181.199.34.42.504.63.322.419.687.795 1.027 1.2.179.206.337.428.47.665.168.345.297.706.383 1.077.211.729.53 1.444.686 2.185.143.668-.072 1.469-.268 2.099-.236.865-.55 1.709-.936 2.519a8.824 8.824 0 01-1.128 1.752 10.68 10.68 0 01-.883.84c-.302.262-.612.523-.899.8-.434.419-.805.898-1.23 1.324a37.74 37.74 0 00-.722.743c-.282.296-.632.609-.887.936-.48.613-.709 1.377-.903 2.116a15.506 15.506 0 00-.409 2.968c-.04.461-.027.925.04 1.383.057.304.159.6.3.875.188.346.346.705.472 1.077.137.42.253.858.409 1.284.156.426.323.79.485 1.186.204.527.375 1.066.516 1.614.298.936.68 1.845 1.139 2.714.367.756.805 1.486 1.134 2.259.295.694.422 1.469.761 2.134.304.609.725 1.167 1.069 1.757.344.59.744 1.217 1.1 1.837.304.474.654.917 1.04 1.326.293.344.39.764.592 1.157.19.291.42.554.683.78.167.175.34.51.58.596.24.086.632-.063.86-.14.302-.101.572-.42.808-.63.28-.229.54-.485.77-.764.163-.21.315-.42.49-.63.175-.209.422-.419.633-.642a16.275 16.275 0 001.503-1.679c.285-.374.632-.697.902-1.075.388-.522.675-1.112 1.054-1.647.296-.443.542-.915.736-1.409.175-.419.38-.816.552-1.234a9.84 9.84 0 00.603-1.656c.068-.39.102-.785.1-1.179a10.18 10.18 0 01.68-3.506 7.396 7.396 0 00.479-1.8c.101-.773.095-1.56.18-2.337.05-.47.025-.944.033-1.418 0-.242-.032-.483-.097-.716a3.297 3.297 0 01-.181-.707c-.01-.548 0-1.094-.01-1.64a8.05 8.05 0 00-.264-1.889c-.17-.594-.422-1.16-.633-1.746a7.038 7.038 0 00-.742-1.631 7.637 7.637 0 01-.803-1.469 14.948 14.948 0 00-.884-2.049c-.28-.545-.59-1.078-.93-1.591a7.149 7.149 0 01-.748-1.049c-.25-.516 0-.879.323-1.308.443-.581.925-1.135 1.442-1.654.422-.419.814-.887 1.252-1.299a9.384 9.384 0 011.453-1.03c.303-.191.596-.401.9-.594.409-.261.843-.479 1.265-.71.74-.403 1.452-.81 2.272-1.037.188-.052.374-.109.565-.142.121-.013.239-.042.35-.086.443-.24.681-.993.376-1.407-.264-.352-.763-.419-1.113-.654-.102-.072-.152-.173-.268-.21a7.71 7.71 0 00-.787-.21c-1.03-.263-1.99-.764-3.016-1.05a12.822 12.822 0 00-1.586-.386 9.12 9.12 0 00-1.775-.065c-1.684.12-3.375.11-5.06-.034-.744-.075-1.475-.222-2.213-.15-1.094.102-2.195.337-3.276.526-1.293.21-2.57.514-3.818.911-.33.118-.666.22-1.006.304-.407.093-.822.124-1.227.225-.554.117-1.1.264-1.638.441l-.044.008z" fill="#393BC4"/><path d="M70.287 123.134c-.038-.02-.073-.048-.111-.073a1.965 1.965 0 01-.276-.178c-.197-.177-.211-.433-.302-.666-.09-.233-.272-.401-.354-.629-.101-.282-.122-.588-.211-.869a2.206 2.206 0 00-.236-.454c-.11-.174-.21-.359-.31-.535a1.018 1.018 0 00-.331-.317 5.586 5.586 0 01-.94-.839l-.344-.42a8.946 8.946 0 01-.476-.8c-.196-.317-.422-.611-.633-.917-.179-.256-.396-.479-.594-.722a4.961 4.961 0 01-.81-1.438 7.35 7.35 0 00-.173-.437 1.292 1.292 0 01-.116-.34c.009-.146.05-.289.12-.419.125-.256.195-.59.485-.716.211-.086.4.075.582.143.03.008.057.021.082.037.148.122.285.254.41.399a26.488 26.488 0 015.645 8.423c.04.09.074.183.103.277.038.078.064.16.079.244v.252c0 .132.05.264.059.398a.44.44 0 01-.116.357.757.757 0 01-.277.139c-.097.038-.187.094-.288.124a.547.547 0 01-.186.016 2.067 2.067 0 01-.369 0 .262.262 0 01-.112-.04zM139.352 160.468a3.31 3.31 0 01-.687-.367c-.435-.284-.843-.55-1.307-.798-.407-.22-.844-.353-1.246-.571a8.376 8.376 0 00-.666-.35 61.36 61.36 0 00-2.863-1.172 12.8 12.8 0 01-3.302-1.836c-1.242-.968-2.53-1.889-4.005-2.477-.886-.361-1.744-.785-2.653-1.087-2.639-.882-5.318-1.66-7.975-2.492a26.298 26.298 0 00-4.41-1.049c-.582-.078-.9.023-1.423.225-.62.239-1.345.186-1.997.178-.651-.008-1.29-.086-1.897.126-.375.159-.761.3-1.153.42-.546.128-1.054.21-1.55.482l-.447.284c-.307.113-.643.13-.961.05-.447-.054-1.575-.193-1.476-.877a.667.667 0 00.276-.21c.234-.218.496-.407.778-.56a5.756 5.756 0 001.537-1.631 32.154 32.154 0 013.401-4.253c.757-.804 1.49-1.593 2.184-2.451.843-1.029 1.804-1.971 2.511-3.096.35-.716.738-1.411 1.163-2.082.376-.535.698-1.104.97-1.698.673-1.358 1.137-2.807 1.655-4.227.519-1.421.886-2.75.947-4.242a21.35 21.35 0 00-.026-2.653c-.067-.84-.116-1.772-.771-2.383a10.02 10.02 0 00-1.309-.963c-1.054-.657-2.248-.227-3.397-.332-.366-.033-.75-.067-1.113-.123a.802.802 0 01-.278-.057c-.858.329-1.701.695-2.53 1.096a2.2 2.2 0 00-.82.528 11.599 11.599 0 01-1.71 1.799c-.373.302-.71.75-1.227.781-.335.021-.754-.286-.723-.661.023-.29.344-.493.561-.64.36-.244.744-.452 1.096-.71a8.127 8.127 0 001.082-1.049c.405-.42.824-.84 1.265-1.241a13.564 13.564 0 012.894-2.023c2.581-1.304 6.483-1.601 8.956.827 1.265 1.243 1.857 2.915 2.27 4.387 1.527 5.438 1.398 10.945-.362 15.506-1.605 4.163-4.668 7.601-8.34 9.515.124.025.246.059.364.1l.555.156 1.098.319a99.711 99.711 0 016.843 2.298 107.305 107.305 0 018.705 3.747 94.8 94.8 0 018.328 4.552c.651.397 1.298.802 1.939 1.211.268.206.557.38.862.521.228.065.449.151.658.262.141.084.264.197.354.334.059.096.274.39.243.487-.032.096-.422.21-.534.21a.843.843 0 01-.337-.04zM87.703 140.463a2.184 2.184 0 01-1.213-.361c-.66-.42-.955-1.123-1.149-1.58l-.385-.918c-2.14-5.087-4.354-10.351-9.698-12.452l.736-1.852c6.113 2.41 8.607 8.32 10.8 13.536l.384.911c.1.235.25.592.398.689.21.134.826-.145 1.488-.84a42.867 42.867 0 009.066-14.969l1.897.657a44.814 44.814 0 01-9.487 15.668c-.94.988-1.933 1.511-2.838 1.511z" fill="#393BC4"/><path d="M75.649 116.955c2.226-1.981 2.738-5.022 1.146-6.796-1.591-1.771-4.686-1.601-6.91.38-2.227 1.981-2.739 5.025-1.147 6.796 1.592 1.772 4.686 1.602 6.91-.38zM108.202 117.274c1.591-1.773 1.079-4.817-1.147-6.798-2.224-1.981-5.319-2.149-6.911-.378-1.592 1.772-1.08 4.815 1.147 6.796 2.224 1.982 5.319 2.152 6.911.38zM64.055 176.212c-.97.063-1.925.247-2.893.338-1.054.098-2.05-.04-3.09-.084a6.508 6.508 0 00-1.382.176c-.62.107-1.252.078-1.872.176-.447.072-.896.116-1.336.21a8.282 8.282 0 01-1.398.292c-.723.04-1.632-.092-1.573-1.033.02-.283.093-.266.371-.327.56-.124 1.143-.191 1.687-.349 2.015-.573 4.04-1.171 6.114-1.484.58-.092 1.161-.155 1.745-.188.877-.04 1.668.132 2.53-.114a18.76 18.76 0 003.626-1.557c.58-.307 1.158-.615 1.729-.932.196-.128.38-.273.548-.432.88-.706 2.193-.408 3.213-.695 1.132-.321 2.344-.433 3.504-.645.647-.119 1.307-.157 1.93-.375a41.465 41.465 0 004.742-2.034 20.607 20.607 0 002.471-1.503c.19-.13.504-.325.599-.548.036-.174.04-.352.015-.529 0-1.383.016-2.756.09-4.139a15.38 15.38 0 00-.122-2.97c-.036-.262 0-.673-.089-.919-.385.21-.754.462-1.161.649a7.41 7.41 0 01-1.543.419c-.675.154-1.455.028-2.109.246-.21.069-.194.157-.421.304l-2.142.63-3.274.802c-1.97.48-3.854 1.196-5.87 1.534-2.015.338-4.132.21-6.168.588-1.75.327-3.495 1.026-5.298.911-.632-.04-1.967-.347-2.108-1.142.316-.153.698-.139 1.037-.189.62-.113 1.23-.273 1.824-.481 1.096-.346 2.108-.667 3.278-.774 1.17-.107 2.298.014 3.449 0a9.967 9.967 0 001.22-.095c1.708-.237 3.327-.879 4.906-1.54.704-.296 1.52-.531 2.153-.959.538-.364 1.022-.84 1.665-1.027a6.449 6.449 0 011.476-.197c.422-.023.81-.277 1.265-.283.455-.007.945 0 1.423-.047 1.602-.174 2.85-1.425 4.273-2.082a1.7 1.7 0 01.844-.235c.257.009.512 0 .767-.027a.989.989 0 00.396-.256c.255-.313.264-.892.291-1.26.11-1.358.525-2.657.888-3.962.124-.42.139-.865.044-1.291a4.148 4.148 0 01-.088-.72c0-.21.105-.611 0-.766-.228-.334-.886.052-1.086.241-.078.082-.15.17-.211.265-1.824.283-3.67.296-5.504.419-.71.038-1.426.005-2.132-.098-1.197-.16-2.395-.315-3.584-.479a17.74 17.74 0 01-3.822-.951c-1.231-.461-2.319-1.158-3.5-1.74-1.37-.678-2.803-.728-4.292-.936-1.526-.21-3.03-.573-4.556-.801a17.903 17.903 0 00-3.984-.227 26.828 26.828 0 00-3.43.504c-1.046.27-2.094.524-3.148.761l-1.007.135a77.183 77.183 0 01-1.518-.086c-1.39 0-2.625.42-3.924.839-.244.078-1.575.38-1.054-.254.078.07.154.013.226-.168.249-.205.491-.415.727-.629.183-.208.396-.388.633-.533 1.98-.892 4.216-1.415 6.37-1.7 5.73-.762 11.53.264 17.12 1.492l1.106.243c2.789.615 5.58 1.23 8.41 1.638 1.78.266 3.577.413 5.377.44 1.577.013 3.178.032 4.7-.42.71-.209 1.265-.551 1.914-.9.434-.235.881-.432 1.322-.655a1.07 1.07 0 01.558-.21c.06.21-.01.485 0 .71.022.231.066.457.129.68.436 1.469 1.054 2.842 1.122 4.408.035.99-.085 1.973-.138 2.961-.048.957-.21 1.91-.21 2.867 0 .111.05.349-.015.451-.105.166-.434.175-.588.256-.616.33-1.16.93-1.655 1.424.438-.282.759-.699 1.246-.897a3.752 3.752 0 011.176-.222c.255-.023.508-.03.763-.021.211.096.102.535.095.709-.031.653-.152 1.289-.234 1.933-.286 2.213-.139 4.534-.027 6.755.027.982.105 1.964.234 2.938.05.317.107.63.133.953.017.204-.02.407-.106.592a1.79 1.79 0 01-.5.781c-.444.369-1.085.787-1.652.894.095.098.369-.021.554-.061.875-.189 1.784-.063 2.67-.222a9.295 9.295 0 011.133-.21 1.2 1.2 0 01.447 0c.257.132.24.86.266 1.099a47.05 47.05 0 01.268 4.324c.031 2.118-.173 4.232-.31 6.343-.072 1.094-.082 2.179-.09 3.272a37.097 37.097 0 01-.294 3.743 28.73 28.73 0 00-.232 2.856c.028.393.017.789-.033 1.18-.22.052-.447.052-.667 0-.105-.04-.164-.181-.293-.235l-1.005-.061c-.633.021-1.28.105-1.898.063-.185-.015-.356-.086-.542-.109-.546-.07-1.157.023-1.707.059-.702.044-1.396.109-2.083.191-6.023.724-11.78 2.802-17.47 4.804-1.03.361-2.06.724-3.093 1.081-3.414 1.175-6.856 2.283-10.381 3.079-.884.199-1.771.38-2.66.535-.694.122-1.39.275-2.096.193-1.231-.145-2.463-.044-3.696-.031-.491.008-.984-.009-1.476-.048-.68-.063-1.343.199-2.024.144-.261-.021-1.355-.224-1.206-.73.049-.162.448-.349.57-.42.257-.153.525-.287.8-.405 1.055-.479 2.023-1.089 3.096-1.499 1.52-.579 3.124-.929 4.655-1.469 2.108-.747 4.062-1.872 5.991-3.005a92.75 92.75 0 016.377-3.405c.69-.334 1.396-.594 2.109-.892a14.993 14.993 0 002.14-1.203 28.184 28.184 0 013.417-1.836c1.189-.544 2.355-1.02 3.66-1.167 1.401-.158 2.825-.21 4.216-.519a25.78 25.78 0 004.318-1.311c1.444-.601 2.74-1.583 4.216-2.068.472-.155 1.206-.42 1.714-.262.059-.493.114-.985.145-1.48.093-1.4.211-2.798.355-4.198a3.88 3.88 0 00-.051-1.446 4.112 4.112 0 01-.122-.575 3.977 3.977 0 01-.021-.42c0-.27 0-.541.02-.812 0-.092.053-.283 0-.367-.21-.305-1.475.317-1.671.392a15.52 15.52 0 01-2.975.976 22.807 22.807 0 01-3.301.281c-1.295.049-2.602.07-3.894.191-1.25.118-2.441.492-3.639.84a35.646 35.646 0 01-7.867 1.373z" fill="#393BC4"/><path d="M71.766 193.414c.532 5.458 1.75 12.046 6.513 14.437 3.508 1.758 7.72.51 10.494-1.243 3.3-2.086 5.857-5.279 8.623-8.929l3.461 2.601c-3.025 3.988-5.848 7.497-9.76 9.97-2.874 1.817-6.047 2.749-9.049 2.749a12.69 12.69 0 01-5.717-1.295c-6.732-3.375-8.292-11.819-8.878-17.874M65.953 142.174c.582-20.213 2.258-40.383 3.989-61.18.563-6.793 1.115-13.59 1.655-20.388.257-3.287.502-6.576.736-9.865.052-.745.126-1.375-.053-2.099a3.075 3.075 0 01.027-1.385c.127-.672.255-1.341.39-2.009.05-.325.12-.648.211-.965.129-.28.297-.538.498-.769.238-.298.421-.577.632-.89a1.03 1.03 0 01.542-.436c.662-.26 1.539-.399 1.876.336.356.785.534 1.64.52 2.502 0 .7-.06 1.41.075 2.099.107.552.367 1.196.276 1.769-.04.241-.257.432-.358.644a3.989 3.989 0 00-.3 1.008 12.925 12.925 0 00-.21 2.036c0 .63.138 1.286.065 1.904-.034.18-.078.358-.135.535a5.02 5.02 0 00-.108.87l-.158 2.1c-.156 2.063-.316 4.126-.48 6.185-.216 2.748-.437 5.497-.665 8.245-.223 2.714-.447 5.43-.674 8.143l-.064.769c-1.758 21.127-3.46 41.606-4.005 62.113" fill="#393BC4"/><path d="M43.511 103.294a1.542 1.542 0 01-.66-.668c-.249-.506-.274-.854-.82-1.028-1.17-.376-2.31-.84-3.411-1.39-1.223-.602-2.42-1.368-3.7-1.834-1.44-.525-2.717-.743-4.256-.54-3.013.395-6.021.494-9.013 1.085a21.502 21.502 0 00-4.638 1.489 16.59 16.59 0 00-2.015 1.28c-.342.235-.683.468-1.03.699a180.796 180.796 0 01-3.29 2.151c-.565.363-1.53 1.104-2.218.63-1.13-.793-.306-2.638 0-3.625.856-2.802 1.729-5.6 2.74-8.35 1.974-5.368 4.54-10.534 8.223-14.96 9.93-11.941 25.62-20.586 46.637-25.695 7.927-1.93 28.526-5.932 48.575-1.47 1.503.334 2.994.716 4.472 1.15a54.923 54.923 0 0111.274 4.656 42.62 42.62 0 018.975 6.618 38.126 38.126 0 016.573 8.498 38.81 38.81 0 012.355 4.927c.344.864.656 1.74.94 2.625.289.899.905 1.965.738 2.92-.055.313-.149.63-.23.938-.067.256-.151.8-.36.987-.455.409-1.128-.044-1.617-.177-.422-.115-.784-.356-1.204-.48-.864-.256-1.72-.21-2.559-.596-.749-.349-1.309-.443-2.138-.605-1.476-.292-2.698-1.165-4.147-1.47-1.589-.33-3.356-.27-4.986-.364-1.629-.095-3.181-.357-4.777-.578-1.026-.14-2.068-.15-3.092-.291-1.461-.21-2.828-.69-4.217-1.195-.79-.287-1.564-.63-2.397-.755-1.49-.24-3.162-.112-4.638 0-1.32.098-2.641.281-3.965.325-1.194.04-2.319.074-3.492.384-2.487.661-4.473 2.475-6.409 4.089-2.683 2.242-4.97 4.863-7.108 7.623-.755.976-1.523 1.95-2.21 2.976-.236.353-.38.72-.596 1.075-.106-.078-.245-.063-.342-.126-.196-.126-.322-.327-.554-.434-.736-.343-1.542-.55-2.29-.907-.843-.397-1.337-1.024-2.049-1.583-.632-.49-1.444-.804-2.108-1.223-.812-.506-1.522-1.144-2.427-1.482a25.897 25.897 0 00-2.74-.857c-.844-.21-1.702-.176-2.556-.172-.8 0-1.585-.144-2.382-.199-1.412-.1-2.903.1-4.317.136-3.78.095-7.7.79-11.092 2.506-3.33 1.68-5.597 5.017-7.855 7.867-.679.859-1.591 1.66-2.165 2.611-.489.81-.822 1.738-1.653 2.28-.48.314-1.163.858-1.686.589a1.113 1.113 0 01-.093-.06zM128.012.201c-.179.309-.246.762-.462 1.05-.801 1.05-1.964 1.723-2.717 2.823a14.276 14.276 0 01-1.212 1.792c-.43.42-.915.78-1.444 1.067a1.67 1.67 0 00-.896.793c-.607 1.148-1 2.554-1.406 3.778a6.784 6.784 0 00-.369 2.676c.154 1.826 1.425 2.65 3.175 2.1 1.033-.324 2.266-.929 2.909-1.835.856-1.207.957-3.012 1.376-4.391.285-.94.618-1.87.844-2.825.421-1.732.573-3.552.681-5.325.04-.649.017-1.348-.34-1.904a.75.75 0 00-.139.201zM52.244 17.629c-.116.336-.097.795-.257 1.114-.59 1.176-1.608 2.055-2.144 3.274a14.25 14.25 0 01-.856 1.986 6.589 6.589 0 01-1.223 1.314 1.679 1.679 0 00-.731.95c-.382 1.241-.504 2.696-.675 3.989a6.765 6.765 0 00.135 2.697c.493 1.765 1.898 2.34 3.512 1.47.956-.509 2.054-1.33 2.518-2.341.615-1.344.38-3.136.533-4.567.105-.979.26-1.953.31-2.939.093-1.778-.097-3.595-.323-5.358-.082-.645-.236-1.327-.689-1.808a.785.785 0 00-.11.219zM17.452 45.61c-.18.507-.15 1.2-.392 1.678-.892 1.78-2.429 3.107-3.236 4.95a21.823 21.823 0 01-1.295 2.999c-.52.74-1.142 1.41-1.844 1.985-.534.326-.93.838-1.107 1.436-.576 1.875-.763 4.07-1.02 6.014a10.288 10.288 0 00.21 4.074c.745 2.665 2.861 3.534 5.305 2.233 1.444-.766 3.103-2.007 3.794-3.533.93-2.03.574-4.737.808-6.899.158-1.469.39-2.949.466-4.433.141-2.686-.148-5.432-.487-8.093-.125-.974-.357-2.005-1.042-2.729-.07.097-.122.204-.16.317z" fill="#393BC4"/><path d="M121.94 36.349c-.118.338-.099.796-.259 1.115-.59 1.177-1.609 2.054-2.142 3.276a14.39 14.39 0 01-.858 1.983 6.483 6.483 0 01-1.221 1.316 1.661 1.661 0 00-.731.951c-.384 1.24-.506 2.695-.677 3.988a6.837 6.837 0 00.135 2.695c.493 1.765 1.897 2.34 3.512 1.48.955-.508 2.056-1.329 2.517-2.338.616-1.346.38-3.136.536-4.57.105-.976.257-1.952.308-2.938.092-1.778-.097-3.596-.323-5.357-.082-.646-.236-1.326-.689-1.809a.784.784 0 00-.108.208zM155.854 36.25c-.118.338-.099.796-.259 1.115-.59 1.177-1.609 2.055-2.142 3.276a14.523 14.523 0 01-.858 1.986 6.528 6.528 0 01-1.221 1.314 1.661 1.661 0 00-.731.95c-.384 1.24-.506 2.695-.677 3.988a6.838 6.838 0 00.135 2.695c.493 1.766 1.897 2.343 3.512 1.47.955-.508 2.054-1.329 2.518-2.339.615-1.345.379-3.135.535-4.569.105-.976.257-1.952.308-2.938.093-1.778-.097-3.596-.323-5.357-.082-.646-.236-1.326-.689-1.81a.848.848 0 00-.108.22zM5.964 113.07c-.118.338-.1.796-.26 1.115-.59 1.177-1.608 2.055-2.142 3.276a14.518 14.518 0 01-.858 1.986 6.524 6.524 0 01-1.22 1.314 1.661 1.661 0 00-.732.95c-.383 1.241-.506 2.695-.676 3.988a6.829 6.829 0 00.134 2.695c.494 1.766 1.898 2.343 3.513 1.47.955-.508 2.053-1.329 2.517-2.339.615-1.345.38-3.135.535-4.569.106-.976.258-1.952.308-2.938.093-1.778-.097-3.596-.322-5.357-.083-.646-.237-1.326-.69-1.809a.849.849 0 00-.107.218z" fill="#393BC4"/></svg><svg fill="none" viewBox="0 0 114 39" id="app-store" xmlns="http://www.w3.org/2000/svg"><path d="M106.683 37.584H6.524c-3.175 0-5.77-2.643-5.77-5.875V6.644C.754 3.412 3.349.77 6.524.77h100.132c.758 0 1.509.152 2.209.447.7.295 1.336.728 1.871 1.274a5.868 5.868 0 011.252 1.906c.29.713.438 1.477.438 2.248V31.71c.026 3.232-2.569 5.875-5.743 5.875z" fill="#2C2C38"/><path d="M106.685.77c.758 0 1.508.152 2.208.447.7.295 1.337.728 1.872 1.273a5.881 5.881 0 011.251 1.906c.29.713.439 1.477.439 2.249V31.71c0 .771-.149 1.535-.439 2.248a5.881 5.881 0 01-1.251 1.906 5.757 5.757 0 01-1.872 1.274 5.68 5.68 0 01-2.208.447H6.526c-3.174 0-5.77-2.643-5.77-5.875V6.645C.756 3.413 3.352.77 6.526.77h100.159zm0-.77H6.526c-1.73 0-3.39.7-4.614 1.947A6.708 6.708 0 000 6.645V31.71c0 1.762.688 3.452 1.912 4.698a6.469 6.469 0 004.614 1.947H106.66c1.731 0 3.39-.701 4.614-1.947a6.706 6.706 0 001.912-4.698V6.645C113.211 2.976 110.263 0 106.685 0z" fill="#4C4C4C"/><path d="M24.125 19.376a5.804 5.804 0 01.733-2.682 5.682 5.682 0 011.888-2.013 5.966 5.966 0 00-1.925-1.725 5.852 5.852 0 00-2.46-.737c-1.864-.23-3.628 1.103-4.61 1.103-.984 0-2.42-1.103-3.957-1.103a5.959 5.959 0 00-2.843.863 6.092 6.092 0 00-2.095 2.138c-2.041 3.72-.504 9.287 1.562 12.314.982 1.463 2.192 3.13 3.73 3.13 1.536-.102 2.09-1 3.955-1 1.865 0 2.293 1 3.956 1 1.638 0 2.62-1.462 3.629-3a10.16 10.16 0 001.638-3.464 4.881 4.881 0 01-2.37-1.883 5.022 5.022 0 01-.83-2.941zm-3.074-9.03a5.285 5.285 0 00.992-1.826c.208-.67.282-1.375.218-2.074a4.845 4.845 0 00-1.948.573 4.934 4.934 0 00-1.555 1.325 4.91 4.91 0 00-1.003 1.768 4.97 4.97 0 00-.207 2.03 4.823 4.823 0 003.503-1.796zm20.755 15.403H37.37l-1.033 3.283h-1.89l4.258-11.928h1.89l4.232 11.929h-1.89l-1.132-3.284zm-3.957-1.438h3.579l-1.79-5.284h-.1L37.85 24.31zm16.153.386c0 2.693-1.412 4.412-3.579 4.412a2.8 2.8 0 01-2.645-1.54v4.337h-1.79V20.361h1.714v1.437c.272-.49.674-.895 1.159-1.167a2.944 2.944 0 011.588-.373c2.04-.077 3.553 1.745 3.553 4.439zm-1.89 0c0-1.745-.857-2.9-2.268-2.9-1.335 0-2.268 1.155-2.268 2.9 0 1.744.957 2.899 2.268 2.899 1.41-.026 2.267-1.155 2.267-2.9zm11.237 0c0 2.693-1.411 4.412-3.578 4.412a2.802 2.802 0 01-2.646-1.54v4.337h-1.789V20.361h1.714v1.437c.272-.49.674-.894 1.158-1.166a2.947 2.947 0 011.588-.374c2.142-.077 3.553 1.745 3.553 4.439zm-1.79 0c0-1.745-.856-2.9-2.267-2.9-1.335 0-2.268 1.155-2.268 2.9 0 1.744.958 2.899 2.268 2.899 1.411-.026 2.267-1.155 2.267-2.9zm8.04.95c.1 1.153 1.234 1.923 2.847 1.923 1.511 0 2.544-.77 2.544-1.821 0-.975-.654-1.438-2.166-1.822l-1.513-.385c-2.166-.59-3.124-1.54-3.124-3.18 0-2.028 1.79-3.464 4.259-3.464 2.469 0 4.157 1.436 4.258 3.463h-1.79a2.25 2.25 0 00-.27-.823 2.21 2.21 0 00-.56-.656 2.166 2.166 0 00-1.613-.446c-1.411 0-2.369.77-2.369 1.822 0 .873.656 1.36 2.167 1.745l1.336.282c2.369.59 3.402 1.539 3.402 3.259 0 2.206-1.79 3.642-4.536 3.642-2.645 0-4.334-1.36-4.434-3.566l1.562.026zm10.96-7.39v2.027h1.613v1.437h-1.613v4.796c0 .771.277 1.053 1.033 1.053h.58v1.462a2.96 2.96 0 01-.958.102c-1.714 0-2.368-.666-2.368-2.308v-5.028H77.61V20.36h1.234v-2.027h1.714v-.077zm2.645 6.44c0-2.694 1.613-4.413 4.058-4.413 2.468 0 4.056 1.745 4.056 4.413 0 2.796-1.612 4.412-4.056 4.412-2.545 0-4.058-1.719-4.058-4.412zm6.325 0c0-1.924-.858-2.976-2.267-2.976-1.412 0-2.269 1.052-2.269 2.976s.858 2.976 2.269 2.976c1.41 0 2.267-1.155 2.267-2.976zm3.2-4.439h1.713v1.54a2.08 2.08 0 01.777-1.15c.381-.28.847-.418 1.315-.39.278 0 .48 0 .58.102v1.643c-.252-.102-.504-.128-.757-.102a1.742 1.742 0 00-1.245.47 1.81 1.81 0 00-.569 1.223c0 .102 0 .204.026.307v5.182h-1.84v-8.825zm12.473 6.157c-.177 1.54-1.789 2.694-3.679 2.694-2.47 0-4.057-1.745-4.057-4.412 0-2.668 1.512-4.516 3.956-4.516 2.368 0 3.88 1.642 3.88 4.336v.59h-6.047v.077a2.338 2.338 0 00.547 1.695 2.245 2.245 0 001.57.794h.151a2.002 2.002 0 001.99-1.258h1.689zm-5.947-2.59h4.258a2.032 2.032 0 00-1.839-2.207h-.252c-.57.013-1.115.25-1.518.66a2.277 2.277 0 00-.65 1.547zM34.848 6.978c.378-.257.857-.41 1.436-.41.933 0 1.588.512 1.588 1.359 0 .692-.479 1.206-1.109 1.334v.024c.757.077 1.31.59 1.31 1.386 0 1.155-.982 1.616-1.965 1.616-.503 0-1.008-.102-1.41-.36l.175-.564c.303.18.782.335 1.21.335.807 0 1.26-.437 1.26-1.053 0-.82-.781-1.077-1.487-1.077h-.327V9.03h.328c.705 0 1.285-.463 1.285-1.027 0-.565-.379-.873-.984-.873-.403 0-.83.18-1.133.36l-.176-.513h-.001zm6.275 5.208l-.05-.514h-.026a1.45 1.45 0 01-1.184.59c-.782 0-1.185-.564-1.185-1.128 0-.95.832-1.489 2.344-1.489v-.077c0-.333-.1-.923-.882-.923-.353 0-.731.102-1.008.308l-.15-.488c.388-.236.832-.36 1.284-.358 1.184 0 1.487.82 1.487 1.615v1.489c0 .333.025.693.075.949l-.706.026zm-.1-2.027c-.782-.026-1.664.128-1.664.898 0 .461.302.692.68.692a.955.955 0 00.932-.667.745.745 0 00.051-.23v-.693zm4.106-1.95v.59H43.44v3.386h-.706V8.209h2.394zm.656 1.308c0-.512-.026-.923-.026-1.308h.63l.025.693h.025c.302-.488.757-.77 1.387-.77.932 0 1.662.82 1.662 2.027 0 1.436-.857 2.13-1.764 2.13-.504 0-.957-.232-1.209-.617h-.025v2.155h-.705v-4.31zm.705 1.052c0 .102.025.205.025.309.056.242.19.458.383.612.192.153.43.236.675.233.756 0 1.185-.615 1.185-1.538 0-.796-.403-1.489-1.16-1.489-.478 0-.932.36-1.083.898a1.29 1.29 0 00-.05.309v.666h.025zm3.98-2.36l.858 2.36c.1.257.176.565.252.821h.025c.075-.231.15-.538.252-.82l.78-2.335h.757l-1.058 2.822c-.505 1.36-.858 2.052-1.336 2.488-.353.308-.706.437-.882.462l-.177-.616c.177-.05.404-.179.63-.36.202-.152.428-.436.605-.794.026-.077.05-.128.05-.18 0-.051-.024-.102-.05-.18L49.69 8.21l.78-.001zm3.906 1.668h.328c.605 0 1.008-.283 1.008-.641 0-.36-.303-.566-.757-.566-.301 0-.68.103-.931.283l-.177-.437a2.411 2.411 0 011.31-.358c.605 0 1.31.282 1.31 1.052 0 .487-.453.82-.881.898v.025c.579.052 1.058.41 1.058 1 0 .874-.858 1.18-1.688 1.18a2.87 2.87 0 01-1.26-.306l.176-.489c.317.178.672.275 1.034.283.579 0 .957-.283.957-.693 0-.539-.554-.693-1.134-.693h-.353v-.538zm3.73-1.668v1.668c0 .64 0 1.026-.051 1.59h.025c.226-.487.378-.77.63-1.231l1.21-2.052h.831v3.976h-.68v-1.642c0-.641.025-.975.05-1.615h-.025c-.252.512-.429.82-.655 1.23-.379.616-.806 1.385-1.21 2.078h-.781V8.209h.656zm6.425 0v.564h-1.21v3.387h-.705V8.799h-1.21v-.59h3.125zm1.31 0v1.334a4.56 4.56 0 01.655-.05c.882 0 1.814.28 1.814 1.333 0 .41-.151.692-.403.923-.429.36-1.109.462-1.688.462-.403 0-.757-.025-1.058-.051V8.208h.68zm0 3.49c.125.024.302.024.528.024.53 0 1.21-.179 1.21-.846 0-.692-.705-.846-1.234-.846-.177 0-.353.025-.505.05v1.617zm5.09-3.439a7.752 7.752 0 011.234-.102c.655 0 1.738.102 1.738 1 0 .487-.377.796-.806.898v.026c.58.077.983.41.983.975 0 1.052-1.286 1.18-2.066 1.18-.429 0-.882-.026-1.108-.051V8.26h.024zm.68 3.463c.201.026.353.026.58.026.478 0 1.183-.102 1.183-.692 0-.565-.554-.693-1.234-.693h-.504v1.36h-.025zm0-1.846h.529c.529 0 1.058-.155 1.058-.616 0-.385-.327-.59-1.058-.59-.227 0-.378.025-.554.025v1.18h.025z" fill="#fff"/></svg><svg fill="none" viewBox="0 0 32 33" id="arrow" xmlns="http://www.w3.org/2000/svg"><path d="M11.5 26l9-9-9-9"/></svg><svg fill="none" viewBox="0 0 16 16" id="arrow-down" xmlns="http://www.w3.org/2000/svg"><path d="M3 6l5 5 5-5"/></svg><svg viewBox="0 0 24 24" id="basket" xmlns="http://www.w3.org/2000/svg"><path d="M9 20c0 1.1-.9 2-2 2s-1.99-.9-1.99-2S5.9 18 7 18s2 .9 2 2zm8-2c-1.1 0-1.99.9-1.99 2s.89 2 1.99 2 2-.9 2-2-.9-2-2-2zm.396-5a2 2 0 001.952-1.566L21 5H7V4a2 2 0 00-2-2H3v2h2v11a2 2 0 002 2h12a2 2 0 00-2-2H7v-2h10.396z"/></svg><svg viewBox="0 0 24 24" id="card-favorites" xmlns="http://www.w3.org/2000/svg"><path d="M11.324 19.745h0l-.005-.004-.11-.096-.002-.002c-2.645-2.307-4.745-4.143-6.18-5.857-1.422-1.699-2.077-3.146-2.024-4.663A4.213 4.213 0 014.89 5.79h0c2.17-1.426 4.886-.776 6.36.887l.749.844.748-.844c1.477-1.665 4.19-2.32 6.357-.888l.003.001a4.213 4.213 0 011.889 3.334h0c.056 1.51-.592 2.951-2.005 4.645-1.425 1.709-3.512 3.54-6.141 5.842l-.057.05-.004.003-.096.083h0l-.003.003a1.051 1.051 0 01-1.367-.005z" stroke="#FF8A65" stroke-width="2"/></svg><svg fill="none" viewBox="0 0 20 20" id="check" xmlns="http://www.w3.org/2000/svg"><path d="M4.75 10l3.5 3.5 7-7" stroke="#fff" stroke-width="2"/></svg><svg fill="none" viewBox="0 0 24 24" id="close" xmlns="http://www.w3.org/2000/svg"><path d="M7.05 7.05l10.163 10.163M7 17.162L17.162 7"/></svg><svg fill="none" viewBox="0 0 38 16" id="developer" xmlns="http://www.w3.org/2000/svg"><path d="M17.778 4.589c.788 0 1.472.145 2.052.435.589.28 1.037.684 1.345 1.21.317.525.476 1.14.476 1.847v.136c0 .707-.159 1.327-.476 1.862a3.205 3.205 0 01-1.345 1.223c-.58.28-1.264.421-2.052.421-.96 0-1.753-.249-2.378-.747l-.054.584H13.51V2.102h1.97v3.18c.635-.462 1.4-.693 2.297-.693zm1.835 3.492c0-.534-.186-.951-.558-1.25-.37-.299-.892-.448-1.562-.448-.426 0-.82.068-1.182.203-.354.136-.63.322-.83.558v2.01c.209.236.49.427.843.572a3.23 3.23 0 001.169.203c.67 0 1.191-.15 1.563-.448.37-.299.557-.72.557-1.264v-.136zM12.334 4.752v1.74h-1.522c-.852 0-1.45.212-1.794.638v4.43H7.06V4.752h1.835l.054.625c.57-.417 1.277-.625 2.12-.625h1.264zM5.093 2.646v8.914H3.041V2.646h2.052zM30.718 11.723c-1.277 0-2.274-.2-2.99-.598-.706-.408-1.06-.983-1.06-1.726v-.068h1.89V9.4c0 .254.172.44.516.558.344.108.901.163 1.671.163 1.268 0 1.903-.182 1.903-.544v-.068c0-.136-.082-.24-.245-.312-.163-.073-.457-.127-.883-.163l-1.753-.177c-1.006-.1-1.74-.308-2.202-.625-.462-.317-.693-.766-.693-1.346V6.75c0-.68.335-1.21 1.006-1.59.68-.38 1.622-.571 2.826-.571 1.25 0 2.21.2 2.881.598.67.398 1.006.974 1.006 1.726v.081h-1.889v-.081c0-.254-.163-.435-.49-.544-.316-.118-.837-.177-1.562-.177-.589 0-1.042.041-1.359.123-.317.081-.476.199-.476.353v.082c0 .135.073.24.218.312.154.073.403.127.747.163l1.78.177c1.07.109 1.844.321 2.324.638.49.318.734.775.734 1.373v.136c0 .688-.344 1.223-1.033 1.603-.688.38-1.644.571-2.867.571z" fill="#1F5DEF"/><path d="M22.935 2.06h1.9v1.9h-1.9v-1.9z" fill="#0BF"/><path d="M24.835 4.72v6.84h-1.9V4.72h1.9z" fill="#1F5DEF"/></svg><svg fill="none" viewBox="0 0 25 24" id="favorites" xmlns="http://www.w3.org/2000/svg"><path d="M11.824 19.745h0l-.005-.004-.11-.096-.002-.002c-2.645-2.307-4.745-4.143-6.18-5.857-1.422-1.699-2.077-3.146-2.024-4.663A4.213 4.213 0 015.39 5.79h0c2.17-1.426 4.886-.776 6.36.887l.749.844.748-.844c1.477-1.665 4.19-2.32 6.357-.888l.003.001a4.213 4.213 0 011.889 3.334h0c.056 1.51-.592 2.951-2.005 4.645-1.425 1.709-3.512 3.54-6.141 5.842l-.057.05-.004.003-.096.083h0l-.003.003a1.051 1.051 0 01-1.367-.005z" fill="#FF8A65" stroke="#FF8A65" stroke-width="2"/></svg><svg viewBox="0 0 25 25" id="filter" xmlns="http://www.w3.org/2000/svg"><path d="M9.5 5.5a1 1 0 100 2 1 1 0 000-2zm-2.83 0a3.001 3.001 0 015.66 0h7.17a1 1 0 110 2h-7.17a3 3 0 01-5.66 0H5.5a1 1 0 010-2h1.17zm8.83 6a1 1 0 100 2 1 1 0 000-2zm-2.83 0a3 3 0 015.66 0h1.17a1 1 0 010 2h-1.17a3 3 0 01-5.66 0H5.5a1 1 0 110-2h7.17zm-3.17 6a1 1 0 100 2 1 1 0 000-2zm-2.83 0a3 3 0 015.66 0h7.17a1 1 0 010 2h-7.17a3 3 0 01-5.66 0H5.5a1 1 0 110-2h1.17z"/></svg><svg fill="none" viewBox="0 0 128 38" id="google-play" xmlns="http://www.w3.org/2000/svg"><path d="M120.181 37.213H6.878c-3.364 0-6.12-2.77-6.12-6.172V6.911C.758 3.53 3.514.762 6.904.762h113.301c3.39 0 6.146 2.77 6.146 6.172v24.131c-.025 3.378-2.782 6.147-6.17 6.147z" fill="#2C2C38"/><path d="M120.181.763c3.389 0 6.146 2.77 6.146 6.172v24.13c0 3.404-2.757 6.173-6.146 6.173H6.879C3.515 37.213.76 34.444.76 31.04V6.91C.759 3.53 3.515.762 6.905.762H120.18zm0-.762H6.879C3.085 0 0 3.1 0 6.935v24.13C0 34.877 3.086 38 6.905 38h113.302c3.793 0 6.904-3.099 6.904-6.934V6.934c-.025-3.834-3.136-6.933-6.93-6.933z" fill="#4C4C4C"/><path d="M62.62 20.703c-2.199-.051-4.02 1.701-4.07 3.91v.179c-.026 2.235 1.77 4.089 4.02 4.089h.05c2.202.05 4.023-1.702 4.073-3.911v-.178a3.941 3.941 0 00-3.794-4.09h-.278zm0 6.476a2.43 2.43 0 01-1.685-.854 2.495 2.495 0 01-.59-1.813 2.526 2.526 0 01.724-1.566 2.465 2.465 0 011.552-.72 2.277 2.277 0 012.276 2.312v.152c.05 1.296-.935 2.413-2.225 2.463-.025.026-.051.026-.051.026zm-8.825-6.476c-2.2-.051-4.022 1.701-4.072 3.91v.179c-.026 2.235 1.77 4.089 4.021 4.089h.051c2.2.05 4.021-1.702 4.072-3.911v-.178a3.941 3.941 0 00-3.795-4.09h-.277zm0 6.476a2.43 2.43 0 01-1.686-.854 2.495 2.495 0 01-.59-1.813 2.526 2.526 0 01.724-1.566 2.465 2.465 0 011.552-.72 2.278 2.278 0 012.277 2.312v.152c.05 1.296-.936 2.413-2.226 2.463-.026.026-.025.026-.05.026zm-10.521-5.257v1.727h4.072a3.524 3.524 0 01-.96 2.184c-.414.41-.905.732-1.444.945a4.26 4.26 0 01-1.693.3c-2.428.026-4.426-1.93-4.452-4.394v-.178a4.48 4.48 0 014.4-4.573h.077c1.164 0 2.276.458 3.136 1.245l1.24-1.245a6.1 6.1 0 00-4.275-1.727c-3.465.026-6.272 2.82-6.348 6.3.076 3.48 2.883 6.274 6.348 6.299a5.398 5.398 0 002.377-.403 5.46 5.46 0 001.973-1.4 5.7 5.7 0 001.518-3.988 2.87 2.87 0 00-.101-1.041l-5.868-.051zm43.044 1.346a3.704 3.704 0 00-1.3-1.837 3.628 3.628 0 00-2.114-.728c-2.099 0-3.819 1.726-3.794 3.86v.254a4.035 4.035 0 001.085 2.853c.358.38.785.684 1.259.897.474.212.984.328 1.502.34h.126a3.792 3.792 0 001.89-.462 3.851 3.851 0 001.423-1.341l-1.341-.966a2.28 2.28 0 01-1.998 1.143c-.86.051-1.644-.457-1.998-1.244l5.413-2.286-.153-.483zm-5.487 1.346c-.05-1.219.885-2.26 2.099-2.388.307-.014.612.06.88.212.27.153.49.379.638.652l-3.617 1.524zM76.379 28.5h1.796V16.613h-1.796V28.5zm-2.857-6.934a3.244 3.244 0 00-2.176-.965 4.096 4.096 0 00-3.895 4.089c-.006.52.09 1.035.28 1.518.192.482.476.921.836 1.292a3.846 3.846 0 002.754 1.178h.026a2.7 2.7 0 002.1-.965h.1v.583a2.148 2.148 0 01-1.948 2.363 2.1 2.1 0 01-1.357-.32 2.144 2.144 0 01-.868-1.102l-1.518.66c.302.71.803 1.316 1.442 1.74a3.86 3.86 0 002.15.648c2.099 0 3.794-1.244 3.794-4.191V20.88h-1.695l-.025.685zm-2.075 5.613a2.43 2.43 0 01-1.685-.854 2.493 2.493 0 01.134-3.379 2.465 2.465 0 011.552-.72 2.235 2.235 0 011.579.735 2.293 2.293 0 01.597 1.653v.102a2.28 2.28 0 01-2.1 2.463h-.076zm23.116-10.566H90.29v11.913h1.796V24.03h2.454a3.712 3.712 0 003.894-3.53 3.756 3.756 0 00-.956-2.695 3.685 3.685 0 00-2.56-1.216c-.1 0-.228 0-.354.025zm.102 5.69H92.11v-4.09h2.555c1.112 0 2.048.89 2.099 2.007a2.188 2.188 0 01-.644 1.461c-.39.387-.91.609-1.455.621zm12.19-1.702a3.183 3.183 0 00-1.841.414 3.241 3.241 0 00-1.295 1.39l1.618.66c.161-.285.399-.517.686-.67.286-.153.61-.22.933-.194.448-.04.896.094 1.248.378.353.284.586.694.649 1.146v.102a3.73 3.73 0 00-1.796-.483c-1.72 0-3.414.965-3.414 2.668.076 1.548 1.365 2.742 2.883 2.666h.05c.444.015.883-.081 1.28-.28.398-.2.74-.497.997-.863h.101v.965h1.72V23.93c-.177-1.956-1.872-3.455-3.819-3.328zm-.203 6.578c-.581 0-1.416-.28-1.416-1.04 0-.967 1.038-1.245 1.897-1.245.561-.001 1.114.129 1.618.38a2.243 2.243 0 01-2.099 1.905zm10.598-6.298l-1.999 5.13h-.101l-2.099-5.13h-1.897l3.136 7.238-1.796 3.988h1.796l4.831-11.226h-1.871zm-17.198 7.62h1.795V16.612h-1.795V28.5zM41.706 11.964h.607v1.626h-.557v-1.093H37.71v1.093h-.556v-1.626h.455c.38-.432.556-1.118.556-2.032V6.807h3.54v5.158zm-.556 0V7.342h-2.428v2.59c0 .915-.152 1.575-.456 2.007l2.884.025v.001zm4.476.635c-.81 0-1.517-.28-2.074-.864-.556-.584-.86-1.27-.86-2.083 0-.813.278-1.524.86-2.083.556-.583 1.264-.863 2.074-.863.81 0 1.518.279 2.074.863.556.559.86 1.27.86 2.083 0 .813-.279 1.524-.86 2.083a2.788 2.788 0 01-2.074.863zm0-.559c.682 0 1.24-.229 1.694-.685.456-.458.683-1.042.683-1.703 0-.66-.228-1.22-.683-1.702a2.317 2.317 0 00-1.694-.711c-.683 0-1.24.229-1.695.711-.455.458-.683 1.016-.683 1.702 0 .66.229 1.245.683 1.702.455.457 1.012.686 1.695.686zm4.4-.305c-.556-.559-.834-1.27-.834-2.083 0-.813.278-1.524.835-2.083.556-.558 1.264-.863 2.123-.863 1.038 0 1.974.533 2.455 1.397l-.507.305c-.354-.686-1.113-1.143-1.947-1.143-.708 0-1.29.229-1.72.685a2.407 2.407 0 00-.682 1.702c0 .686.226 1.245.682 1.702.455.457 1.038.685 1.72.685.834 0 1.593-.456 1.947-1.142l.507.279c-.456.864-1.418 1.398-2.454 1.398-.86.025-1.569-.255-2.124-.839zm8.929-4.928v.534h-1.747v5.156h-.555V7.342h-1.746v-.534h4.048zm4.223 0h.581l-1.896 4.446c-.38.914-.936 1.295-1.796 1.244v-.508c.606.076.986-.153 1.24-.762l.1-.28-1.948-4.14h.583l1.644 3.506 1.492-3.506zm5.285 0v5.69h-.556V7.342h-2.909v5.156h-.558v-5.69h4.023zm4.83 0h.557v5.69h-.557V9.856H70.21v2.668h-.556V6.809h.556v2.489h3.085v-2.49zm4.35 5.792c-.809 0-1.517-.28-2.073-.864s-.86-1.27-.86-2.083c0-.813.279-1.524.86-2.083.557-.583 1.264-.863 2.074-.863.81 0 1.517.279 2.074.863.556.559.86 1.27.86 2.083 0 .813-.278 1.524-.86 2.083-.557.584-1.264.864-2.074.864zm0-.559c.683 0 1.24-.229 1.696-.685.455-.458.683-1.042.683-1.703 0-.66-.229-1.22-.683-1.702a2.317 2.317 0 00-1.695-.711c-.683 0-1.24.229-1.695.711-.455.458-.683 1.016-.683 1.702 0 .66.229 1.245.683 1.702.456.457 1.012.686 1.695.686zm10.041-1.118c0 .432-.151.813-.455 1.118a1.533 1.533 0 01-1.113.457h-2.478v-5.69h2.276c.43 0 .784.153 1.088.458.303.304.455.66.455 1.067.007.244-.05.485-.165.7a1.363 1.363 0 01-.493.519c.53.228.885.737.885 1.371zM84.22 7.342v1.982h1.72c.279 0 .48-.102.683-.28a1.046 1.046 0 000-1.423.868.868 0 00-.682-.305l-1.72.026zm1.897 4.623a.956.956 0 00.709-.306c.202-.202.303-.456.303-.736 0-.28-.101-.533-.303-.736a.96.96 0 00-.709-.306H84.22v2.11l1.897-.026z" fill="#fff"/><mask id="ala" style="mask-type:luminance" maskUnits="userSpaceOnUse" x="8" y="6" width="110" height="27"><path d="M8.229 6.194h108.8v25.933H8.229V6.194z" fill="#fff"/></mask><g mask="url(#ala)" fill-rule="evenodd" clip-rule="evenodd"><path d="M8.68 6.59c-.287.313-.451.795-.451 1.422V30.3c0 .626.164 1.109.461 1.41l.077.067L21.026 19.29v-.281L8.756 6.523l-.077.068z" fill="url(#alpaint0_linear_2031_44814)"/><path d="M25.104 23.47l-4.088-4.167v-.292l4.09-4.167.088.056 4.837 2.8c1.386.797 1.386 2.107 0 2.913l-4.837 2.801c-.002 0-.09.056-.09.056z" fill="url(#alpaint1_linear_2031_44814)"/><path d="M25.19 23.413l-4.177-4.256L8.678 31.724c.45.492 1.208.548 2.056.066l14.456-8.378z" fill="url(#alpaint2_linear_2031_44814)"/><path d="M25.19 14.902L10.736 6.535c-.847-.493-1.607-.426-2.057.067l12.334 12.556 4.179-4.256z" fill="url(#alpaint3_linear_2031_44814)"/><path opacity=".2" d="M25.106 23.324l-14.358 8.312c-.802.47-1.518.437-1.979.01l-.078.08.078.066c.462.425 1.177.459 1.98-.01l14.454-8.368-.097-.09z" fill="#2C2C38"/><path opacity=".12" d="M30.03 20.467l-4.936 2.856.088.09 4.837-2.8c.693-.403 1.033-.93 1.033-1.456-.043.481-.395.94-1.022 1.31z" fill="#2C2C38"/><path opacity=".25" d="M10.736 6.681L30.029 17.85c.627.358.978.828 1.033 1.31 0-.525-.34-1.052-1.033-1.456L10.736 6.536C9.35 5.729 8.229 6.4 8.229 8.013v.146c0-1.613 1.121-2.273 2.507-1.478z" fill="#fff"/></g><defs><linearGradient id="alpaint0_linear_2031_44814" x1="19.918" y1="7.78" x2=".254" y2="12.92" gradientUnits="userSpaceOnUse"><stop stop-color="#00A0FF"/><stop offset=".007" stop-color="#00A1FF"/><stop offset=".26" stop-color="#00BEFF"/><stop offset=".512" stop-color="#00D2FF"/><stop offset=".76" stop-color="#00DFFF"/><stop offset="1" stop-color="#00E3FF"/></linearGradient><linearGradient id="alpaint1_linear_2031_44814" x1="31.834" y1="19.154" x2="7.893" y2="19.154" gradientUnits="userSpaceOnUse"><stop stop-color="#FFE000"/><stop offset=".409" stop-color="#FFBD00"/><stop offset=".775" stop-color="orange"/><stop offset="1" stop-color="#FF9C00"/></linearGradient><linearGradient id="alpaint2_linear_2031_44814" x1="22.921" y1="21.468" x2="6.704" y2="48.228" gradientUnits="userSpaceOnUse"><stop stop-color="#FF3A44"/><stop offset="1" stop-color="#C31162"/></linearGradient><linearGradient id="alpaint3_linear_2031_44814" x1="5.57" y1="-.832" x2="12.807" y2="11.111" gradientUnits="userSpaceOnUse"><stop stop-color="#32A071"/><stop offset=".069" stop-color="#2DA771"/><stop offset=".476" stop-color="#15CF74"/><stop offset=".801" stop-color="#06E775"/><stop offset="1" stop-color="#00F076"/></linearGradient></defs></svg><svg viewBox="0 0 32 32" id="instagram" xmlns="http://www.w3.org/2000/svg"><rect width="32" height="32" rx="16"/><path d="M16 9.446h3.277c.771 0 1.157.193 1.446.289.385.193.675.29.964.578.289.29.482.579.578.964.096.29.193.675.29 1.446v6.554c0 .771-.194 1.157-.29 1.446-.193.385-.29.675-.578.964-.29.289-.579.482-.964.578-.29.096-.675.193-1.446.29h-6.554c-.771 0-1.157-.194-1.446-.29-.385-.193-.675-.29-.964-.578-.289-.29-.482-.579-.578-.964-.096-.29-.193-.675-.29-1.446V16v-3.277c0-.771.194-1.157.29-1.446.193-.385.29-.675.578-.964.29-.289.579-.482.964-.578.29-.096.675-.193 1.446-.29H16zM16 8h-3.277c-.868 0-1.446.193-1.928.386a4.209 4.209 0 00-1.446.963c-.482.482-.674.868-.963 1.446-.193.482-.29 1.06-.386 1.928v6.554c0 .868.193 1.446.386 1.928.192.482.481.964.963 1.446s.868.674 1.446.963c.482.193 1.06.29 1.928.386h6.554c.868 0 1.446-.193 1.928-.386a4.21 4.21 0 001.446-.963c.482-.482.674-.868.963-1.446.193-.482.29-1.06.386-1.928V16v-3.277c0-.868-.193-1.446-.386-1.928a4.21 4.21 0 00-.963-1.446c-.482-.482-.868-.674-1.446-.963-.482-.193-1.06-.29-1.928-.386H16z" fill="#fff"/><path d="M16 11.855A4.114 4.114 0 0011.855 16 4.114 4.114 0 0016 20.145 4.114 4.114 0 0020.145 16 4.114 4.114 0 0016 11.855zm0 6.844A2.694 2.694 0 0113.301 16 2.694 2.694 0 0116 13.301 2.694 2.694 0 0118.699 16c0 1.446-1.253 2.699-2.699 2.699zM20.241 12.723a.964.964 0 100-1.928.964.964 0 000 1.928z" fill="#fff"/></svg><svg fill="none" viewBox="0 0 88 34" id="logo" xmlns="http://www.w3.org/2000/svg"><path fill-rule="evenodd" clip-rule="evenodd" d="M2.085 27.626L1.916 2.062h5.411l.169 25.423 4.688-5.832 4.267 3.233-4.688 5.832c-3.123 3.885-9.542 1.835-9.678-3.092zM50.5 15.19l.083 12.436c.136 4.927 6.555 6.977 9.679 3.092l4.687-5.832-4.267-3.233-4.688 5.832-.081-12.295H60.9v-5.187h-5.023l-.053-7.94h-5.41l.052 7.94h-4.354v5.187h4.388zM18.031 15.207v16.445H23.5V15.207h-5.468zM80.82 15.207h5.36c0 6.753-1.17 17.382-10.258 17.382-9.05 0-10.434-10.677-10.434-17.381h5.361c0 3.232-.086 12.177 5.073 12.177 5.22 0 4.898-8.9 4.898-12.178zM32.037 15.207h-5.254v16.445H32.251c0-3.75-.322-12.177 5.07-12.177 5.374 0 4.858 8.81 4.858 12.177h5.361c0-6.65-1.212-17.5-10.36-17.38-3.718.32-4.794 2.47-5.143 3.81v-2.875z" fill="#393BC7"/><path fill-rule="evenodd" clip-rule="evenodd" d="M19.698 5.69a38.967 38.967 0 01-1.509-2.843l-4.916 2.2s2.354 5.067 4.468 6.933c.814.718 2.675 1.953 5.916.318a846.637 846.637 0 019.703-4.787l-2.252-4.528-5.897 2.903c.277-1.207.719-3.646.719-3.646l-5.349-.81a48.925 48.925 0 01-.883 4.26z" fill="#FF8A65"/></svg><svg fill="none" viewBox="0 0 24 24" id="minus" xmlns="http://www.w3.org/2000/svg"><path d="M6 12h12.5"/></svg><svg fill="none" viewBox="0 0 183 192" id="modal-img" xmlns="http://www.w3.org/2000/svg"><path d="M79.87 63.003a2.938 2.938 0 01-.084-.371 4.963 4.963 0 01-.015-.815c0-.611.037-1.231-.015-1.842a68.397 68.397 0 00-.322-2.954c-.173-1.348.13-2.726.185-4.074.037-.906.019-1.814-.054-2.72-.07-.882-.235-1.712-.211-2.6.036-.846.127-1.691.27-2.527.068-.494.15-.99.245-1.485.138-.561.352-1.1.638-1.603a11.6 11.6 0 00.761-1.688c.124-.454.29-.898.495-1.323.237-.362.484-.715.742-1.06.226-.387.443-.78.652-1.176.283-.403.597-.784.94-1.14.298-.355.6-.704.906-1.051a22.104 22.104 0 012.374-2.27c.441-.348.903-.671 1.383-.966.485-.34.98-.667 1.482-.979.362-.199.817-.36 1.092-.683a2.66 2.66 0 01.4-.4 61.835 61.835 0 014.018-2.936c.197-.04.392-.094.584-.157.718-.212 1.42-.473 2.103-.782 1.242-.566 2.389-1.34 3.668-1.823.804-.288 1.627-.52 2.463-.694a7.225 7.225 0 002.235-.855l.565-.347a19.92 19.92 0 011.224-.514c.296-.175.564-.394.797-.648.195-.158.412-.288.645-.386a8.875 8.875 0 011.634-.544 10.69 10.69 0 011.409-.28c.638-.088 1.27-.224 1.888-.407.428-.12.853-.214 1.285-.318a6.33 6.33 0 011-.202c.33-.032.662-.041.994-.026.741-.019 1.46.035 2.094-.427a.767.767 0 01.295-.156c.168-.032.311.055.474.063.401-.061.797-.15 1.186-.266l.328 1.625c-6.251 1.272-18.008 4.174-26.515 9.317-6.681 4.039-10.894 8.15-13.257 12.937-2.263 4.578-2.763 9.772-2.711 14.813.013 1.255.06 2.509.12 3.762.045.876.013 1.816.185 2.676.034.172.07.77-.166.846a.177.177 0 01-.172-.063 1.032 1.032 0 01-.238-.48z" fill="#393BC4"/><path d="M98.721 36.01a1.16 1.16 0 01.073-.134c.268-.42.763-.626 1.112-.968a3.86 3.86 0 012.01-1.066 1.43 1.43 0 00.46-.146c.121-.069.234-.158.356-.221.124-.05.251-.093.38-.128a5.44 5.44 0 001.401-.691c.612-.444 1.37-.47 2.029-.834.361-.12.713-.265 1.055-.432.252-.171.508-.335.767-.496.243-.134.47-.295.675-.483.06-.069.128-.132.202-.186.285-.16.58-.302.884-.425.588-.286 1.192-.54 1.809-.76.585-.2 1.149-.49 1.72-.729.809-.34 1.621-.622 2.442-.928.717-.283 1.415-.611 2.091-.983.262-.12.508-.276.732-.46.217-.208.454-.396.708-.557.307-.163.661-.227.975-.371.228-.108.415-.255.671-.274a.574.574 0 00.346-.059c.165-.083.278-.354.371-.503.133-.165.299-.303.487-.405.434-.304.859-.62 1.275-.95l1.025 1.3c-4.646 3.672-10.529 5.872-16.215 7.998l-1.225.46c-.316.118-.587.298-.913.394-.199.058-.36.2-.556.25-.197.047-.397.074-.593.14-.304.102-.588.247-.897.333a8.374 8.374 0 00-.79.237c-.265.104-.519.234-.78.351-.304.134-.604.292-.914.413a5.661 5.661 0 00-.665.258c-.185.096-.343.233-.515.343a3.987 3.987 0 00-.575.392c-.23.208-.389.475-.674.616a1.353 1.353 0 01-.605.166c-.266-.02-.224-.272-.139-.463zM103.945 42.77a.695.695 0 01.238-.232c.074-.045.155-.078.233-.115a.686.686 0 00.132-.091c.095-.056.195-.102.3-.138.149-.098.315-.17.489-.213.151-.012.301-.036.449-.07a8.62 8.62 0 011.123-.264c.32-.038.645-.049.967-.062a8.386 8.386 0 002.224-.386c.457-.136.903-.304 1.336-.503.43-.21.831-.481 1.244-.72a18.136 18.136 0 012.25-1.1 6.108 6.108 0 001.268-.776 64.28 64.28 0 011.482-1.036c.499-.34 1.049-.7 1.561-1.066.358-.267.732-.51 1.121-.731a3.15 3.15 0 01.778-.292 4.698 4.698 0 001.112-.438c.63-.33 1.272-.646 1.887-1.003.476-.276 1.003-.436 1.496-.672a8.936 8.936 0 011.332-.587c.439-.126 4.211-1.448 4.213-1.439l.483 1.586c-3.619 1.114-7.085 2.882-10.436 4.6-1.095.556-2.224 1.141-3.356 1.693-3.575 1.75-7.311 3.303-11.264 3.929-.477.076-.953.137-1.433.185-.283.01-.565.036-.845.078a.375.375 0 01-.384-.137zM111.167 47.674a.146.146 0 01-.092-.063c-.084-.13.04-.227.124-.288.229-.203.503-.351.798-.433a.707.707 0 00.26-.072c.205-.084.417-.15.634-.2a15.734 15.734 0 001.631-.654c.624-.285 1.319-.466 1.918-.803.717-.403 1.407-.863 2.114-1.283.949-.557 1.893-1.125 2.855-1.661 1.13-.63 2.103-1.503 3.252-2.1a9.617 9.617 0 001.205-.743c.504-.36 1.054-.645 1.586-.96.63-.372 1.259-.858 1.993-1.008.475-.091.96-.125 1.443-.099.323.01.642.076.942.195.133.054 0 .03.274.078l1.032.186c.126.026.249.057.371.096.306.091.671-.018.98-.033l.084 1.656c-.197 0-.391.023-.586.041-.837.078-1.668.22-2.483.423-.186.045-.371.121-.556.154-.206.02-.413.03-.619.026-.417.032-.83.093-1.236.186a9.266 9.266 0 00-1.416.489c-.412.168-.808.324-1.201.532-.842.446-1.657.929-2.51 1.358-.596.295-1.18.61-1.775.908-1.184.588-2.319 1.259-3.54 1.771-.512.214-1.051.342-1.57.533-.567.208-1.145.371-1.703.607a6.971 6.971 0 01-1.503.537c-.259.046-.517.107-.777.152-.383.065-.758.186-1.136.29-.127.033-.582.235-.793.182zM83.747 61.308l-.888-1.4c2.176-1.383 4.426-2.815 6.906-3.792.882-.347 2.038-.688 3.115-.256.24.104.469.229.686.371.11.067.219.136.334.186.096.06.206.09.318.087a.828.828 0 00.128-.34c.02-.102.035-.206.05-.308.036-.326.115-.646.236-.952.585-1.367 2.207-1.684 2.987-1.837l8.069-1.58.319 1.625-8.07 1.58c-.763.15-1.57.372-1.784.865-.06.175-.098.355-.117.537-.02.134-.038.267-.066.4-.145.718-.497 1.234-1.018 1.485-.52.25-1.154.226-1.788-.09-.16-.08-.312-.17-.462-.263a3.198 3.198 0 00-.433-.24c-.54-.215-1.263.012-1.898.26-2.34.932-4.515 2.32-6.624 3.662z" fill="#393BC4"/><path d="M84.486 62.866c-.198 0-.397-.015-.593-.045-1.064-.165-1.853-.802-2.18-1.747-.37-1.088-.046-2.377.824-3.285 1.182-1.236 2.893-2.341 5.085-3.288 1.913-.824 3.925-1.367 5.992-1.894 2.648-.676 5.745-1.433 8.87-1.857.658-.09 2.2-.302 3.16.719.264.295.456.648.56 1.029.103.382.115.783.035 1.171a3.63 3.63 0 01-.966 1.786c-.788.832-1.874 1.417-3.321 1.787-.669.172-1.344.282-1.996.388-.462.076-.899.146-1.336.237-2.206.463-4.244 1.402-6.404 2.4-1.947.898-3.96 1.826-6.102 2.367a6.608 6.608 0 01-1.628.232zm19.012-10.547a5.919 5.919 0 00-.79.065c-3.047.42-6.08 1.164-8.686 1.83-2 .51-3.944 1.034-5.746 1.81-1.988.857-3.521 1.838-4.546 2.913-.432.451-.615 1.114-.448 1.604.12.355.411.572.863.64.497.079 1.046-.033 1.566-.163 1.993-.503 3.935-1.398 5.814-2.265 2.146-.992 4.367-2.016 6.757-2.516a31.81 31.81 0 011.409-.25c.645-.106 1.255-.207 1.853-.359 1.112-.286 1.968-.73 2.528-1.32.264-.262.451-.59.539-.953a.9.9 0 00-.172-.758c-.198-.21-.554-.278-.941-.278zM137.368 142.656a55.327 55.327 0 01-2.053-.81c-.513-.213-1.032-.243-1.551-.462-.287-.119-.651-.065-.957-.119-.468-.082-.926-.206-1.39-.321-.556-.141-1.124-.24-1.634-.509-.51-.269-.901-.661-1.342-1.012-1.182-.939-2.537-1.706-3.803-2.525a16.43 16.43 0 00-1.77-.973 4.068 4.068 0 01-1.508-1.3c-.397-.531-.834-1.028-1.201-1.582-.286-.429-.532-.886-.801-1.326-.528-.863-1.483-1.195-2.224-1.84a3.092 3.092 0 01-.58-.763 4.455 4.455 0 00-.741-.846c-.508-.504-.996-1.044-1.516-1.534-.436-.409-.966-.658-1.44-1.02-.742-.557-1.511-1.268-2.202-1.897-.691-.63-1.201-1.426-1.772-2.165a30.783 30.783 0 01-2.096-2.952c-.556-.929-1.22-1.811-1.722-2.767-.413-.789-.674-1.671-1.128-2.44-.455-.769-.986-1.328-1.277-2.165-.291-.837-.453-1.838-.616-2.692-.174-.929-.242-1.844-.435-2.761-.282-1.346-.512-2.821-1.033-4.098a14.834 14.834 0 01-.613-1.554 11.843 11.843 0 01-.37-3.144c0-1.201-.073-2.4-.154-3.598-.041-.61-.09-1.217-.126-1.826 0-.41.049-.82.148-1.221.222-1.217.606-2.43.352-3.677a2.03 2.03 0 01-.061-.676c.044-.371.168-.728.228-1.097.065-.403.068-.82.116-1.23.057-.413.092-.83.106-1.247 0-.316.065-.628.074-.943.013-.418-.018-.828.032-1.244.045-.498.116-.994.213-1.486.072-.316.126-.642.169-.96.013-.291.076-.58.185-.854.042-.09.167-.27.287-.271.159 0 .228.351.232.49-.01.17-.036.336-.078.5a56.867 56.867 0 00-.741 10.49 58.99 58.99 0 001.857 13.511c.38 1.485.811 2.92 1.297 4.354a57.378 57.378 0 003.605 8.316c.166.312.335.622.509.929 6.552 11.714 17.516 21.111 30.081 25.783l-.556 1.534zM141.901 138.153s-.195-.096-.206-.104c-.222-.115-.445-.23-.665-.349a3.462 3.462 0 01-.328-.225 2.727 2.727 0 00-.517-.247 1.633 1.633 0 01-.362-.219 2.509 2.509 0 00-.356-.276c-.055-.034-.107-.065-.159-.101-.226-.159-.465-.282-.704-.419-.15-.088-.271-.21-.415-.303-.145-.093-.276-.163-.408-.254-.132-.091-.257-.204-.391-.301s-.295-.186-.432-.31c-.137-.125-.335-.258-.491-.401a6.148 6.148 0 00-.515-.531 3.742 3.742 0 01-.821-.812 1.883 1.883 0 00-.276-.371 11.002 11.002 0 00-.306-.336 25.334 25.334 0 01-.464-.557c-.148-.186-.287-.438-.439-.654-.185-.254-.37-.49-.556-.742-.154-.229-.294-.466-.452-.693a7.378 7.378 0 00-.489-.613 8.01 8.01 0 00-.428-.475c-.151-.152-.258-.301-.39-.451-.185-.203-.381-.362-.556-.574-.144-.176-.296-.351-.431-.537a3.123 3.123 0 00-.315-.417 3.77 3.77 0 01-.512-.661c-.063-.097-.133-.186-.202-.281a.256.256 0 01-.048-.106c-.03-.195-.02-.395.031-.588a.58.58 0 01.071-.171.718.718 0 01.059-.099.48.48 0 01.191-.09.47.47 0 01.211-.002c.052.02.093.098.124.137l.354.442c.238.293.477.585.723.871a39.221 39.221 0 004.746 4.638c.569.47 1.153.928 1.748 1.363a38.38 38.38 0 005.636 3.45l-1.26 2.369zM144.37 132.172s-.66-.434-.719-.475c-.091-.061-.195-.104-.289-.162-.095-.057-.236-.128-.349-.2a2.816 2.816 0 01-.311-.238c-.165-.139-.272-.321-.43-.466a5.681 5.681 0 00-.487-.371 4.428 4.428 0 01-.499-.386 10.19 10.19 0 00-.443-.439 20.818 20.818 0 00-.545-.482c-.037-.034-.076-.065-.115-.097l-.469-.679a1.462 1.462 0 00-.216-.286.892.892 0 01-.171-.245c-.165-.272-.333-.539-.5-.81a9.07 9.07 0 00-.289-.474 14.306 14.306 0 01-.247-.391 7.286 7.286 0 01-.232-.711l-.148-.398a7.216 7.216 0 00-.556-1.099 9.773 9.773 0 01-.261-.434 4.773 4.773 0 01-.247-.732c-.105-.321-.248-.592-.37-.901a3.586 3.586 0 01-.286-1.052.597.597 0 01.052-.385.221.221 0 01.115-.076c.03 0 .054 0 .082-.018a.441.441 0 01.168.213 2.2 2.2 0 00.119.371 22.29 22.29 0 007.48 9.336c.089.063 1.053.698 1.049.708l-.886 1.379zM146.718 128.078a.189.189 0 000-.067.956.956 0 00-.109-.185 2.635 2.635 0 00-.171-.307c-.094-.122-.231-.197-.32-.325a2.503 2.503 0 01-.21-.44 5.263 5.263 0 00-.37-.568c-.151-.249-.26-.52-.399-.774a10.168 10.168 0 00-.684-1.114 14.898 14.898 0 01-.915-1.324c-.267-.459-.506-.929-.795-1.38a1.251 1.251 0 00-.132-.202.422.422 0 01-.087-.087 1.006 1.006 0 01-.069-.153c-.077-.185-.14-.371-.231-.557a1.46 1.46 0 00-.467-.481 2.992 2.992 0 01-.862-1.138c-.436-.848-.699-1.769-1.123-2.622a20.501 20.501 0 00-1.323-2.148 21.683 21.683 0 00-1.346-1.911 7.262 7.262 0 00-.326-.371c-.406-.626-.753-1.3-1.175-1.914a2.485 2.485 0 00-.456-.431c-.302-.267-.547-.602-.828-.889-.601-.619-1.237-1.202-1.806-1.857-.826-.94-1.783-1.857-2.494-2.884-2.15-3.106-3.859-6.465-5.336-9.936-.713-1.67-1.31-3.379-2.057-5.043-.324-.78-.69-1.543-1.097-2.283a93.8 93.8 0 00-1.134-1.781c-.336-.695-.349-1.467-.48-2.217a9.713 9.713 0 00-.723-2.484c-.751-1.586-1.983-2.947-2.493-4.642a8.254 8.254 0 00-.437-1.163c-.388-.82-.656-1.693-1.112-2.486-.414-.732-.94-1.383-1.277-2.16-.269-.616-.536-1.242-.793-1.856-.217-.524-.306-1.085-.525-1.606-.245-.582-.649-1.044-.991-1.566a23.615 23.615 0 01-1.068-1.738c-.209-.393-.345-.813-.556-1.205a15.19 15.19 0 01-.667-1.485c-.254-.62-.641-1.114-1.003-1.671a2.418 2.418 0 01-.478-1.467c0-.165-.07-.466.133-.557.175-.076.371.299.455.401a9.657 9.657 0 011.25 1.697c.195.412.345.841.449 1.283a5.81 5.81 0 00.967 1.857c1.137 1.433 1.83 3.233 2.669 4.866a854.382 854.382 0 0033.586 59.487c11.807-3.07 21.276-4.91 29.751-5.782 0 0 .11 1.06.117 1.14.024.228-.02.449-.013.677.007.229-.015.479-.245.572a.753.753 0 01-.317.013c-.076 0-.131-.046-.207-.059a.854.854 0 00-.354.055 5.809 5.809 0 01-1.512.275c-.202 0-.401 0-.601.013a5.886 5.886 0 00-.763.009c-.651.108-1.287.275-1.933.392-.771.14-1.557.119-2.336.169-.795.052-1.586.158-2.368.314-.721.143-1.427.36-2.157.455-1.335.171-2.645-.175-3.974-.197-.984-.017-1.974-.031-2.939.186-.527.113-1.04.264-1.572.358-.532.095-1.09.216-1.625.372-1.071.297-2.12.657-3.218.852-.706.124-1.404.238-2.101.408-.228.056-.46.08-.692.116-.111.016-.101-.001-.103.131.012.238-.005.476-.049.708a1.774 1.774 0 01-.113.358 1.466 1.466 0 01-.443.461c-.068.055-.13.118-.185.185a4.101 4.101 0 01-.508.412 4.053 4.053 0 00-.602.667c-.054.072-.154.262-.252.269.041-.185.204-.284.309-.427.089-.126.152-.271.186-.423.029-.125.072-.242.105-.362.025-.087.049-.173.08-.258a.608.608 0 00.05-.175zM153.783 134.699a46.59 46.59 0 00-1.392.084c-.21.007-.419.043-.62.106a.692.692 0 01-.588.037c-.23-.076-.445-.175-.332-.459a.596.596 0 01.185-.189.598.598 0 01.247-.095c.232-.059.476-.096.712-.141.513-.1 1.051-.089 1.57-.143a23.327 23.327 0 001.668-.239c1.512-.266 3.059-.206 4.579-.439.977-.15 1.915-.464 2.882-.659 1.001-.204 2.039-.223 3.032-.512.906-.264 1.768-.657 2.68-.906.789-.216 1.603-.316 2.385-.557.717-.223 1.403-.524 2.132-.708a15.82 15.82 0 001.225-.28 30.47 30.47 0 011.063-.297c.49-.121.983-.23 1.483-.305.297-.044.599-.068.895-.122.332-.06.654-.166.99-.21.335-.045.623.011.926-.171.304-.182.705-.21 1.048-.282l1.727-.372.38-.079.343 1.621s-1.261.274-1.483.289a.899.899 0 00-.474.151c-.477.336-.979.631-1.503.885-.158 0-.317.019-.475.032-.549.07-1.093.174-1.629.312-1.04.217-2.078.447-3.123.635-.856.154-1.683.206-2.552.284-1.431.13-2.859.273-4.292.371a38.89 38.89 0 00-3.616.433c-1.746.301-3.451.821-5.15 1.322-1.59.483-3.264.529-4.923.603zM155.882 140.53a.453.453 0 01-.37-.173.305.305 0 01.027-.392.724.724 0 01.336-.185c.155.001.309.031.454.089.275.065.56.081.841.05.97-.073 1.924-.323 2.888-.453 1.733-.236 3.447-.583 5.172-.869 1.394-.232 2.801-.345 4.191-.6a27.8 27.8 0 011.464-.224c.43-.052.862-.105 1.297-.153a7.248 7.248 0 011.221-.12c.117 0 .232.037.349.033a2.3 2.3 0 00.472-.089 98.31 98.31 0 001.518-.357c1.053-.252 2.104-.52 3.151-.802.543-.145 1.086-.293 1.627-.447l.742-.214c.211-.048.418-.109.622-.186l.465 1.592c-.785.234-1.573.457-2.363.672-.392.108-.8.186-1.186.319a1.768 1.768 0 00-.298.186 1.34 1.34 0 01-.46.139c-.166.028-.339 0-.506.019a5.59 5.59 0 00-.778.159c-.512.156-1.012.342-1.501.558a8.012 8.012 0 01-1.757.443c-.597.091-1.194.158-1.792.234-.695.087-1.385.212-2.082.29-1.54.156-3.089.184-4.633.083a30.16 30.16 0 00-3.532.043c-1.188.076-2.384.333-3.577.331-.48 0-.979-.136-1.453-.058a2.62 2.62 0 01-.549.082z" fill="#393BC4"/><path d="M98.016 162.106a4.687 4.687 0 01-1.235-.065c-.835-.186-1.667 0-2.52-.084-1.17-.126-2.354-.109-3.521-.252-.927-.11-1.854-.173-2.78-.31-.567-.086-1.125-.216-1.683-.344-.604-.139-1.255-.15-1.853-.33-.909-.275-1.94-.346-2.78-.83-.21-.123-.382-.283-.584-.413-.349-.221-.821-.317-1.214-.443-1.15-.372-2.235-.86-3.371-1.256-.845-.295-1.555-.742-2.326-1.182-.849-.481-1.805-.743-2.667-1.215-1.032-.573-2.255-.928-3.091-1.801-.495-.514-.859-1.041-1.502-1.387a5.88 5.88 0 01-1.964-1.599 10.537 10.537 0 00-2.08-1.871c-.61-.444-.96-.962-1.358-1.59a17.47 17.47 0 00-1.69-2.124 6.265 6.265 0 01-1.092-1.91c-.754-1.959-1.156-4.022-1.994-5.955-.984-2.267-1.297-4.568-1.168-7.028.13-2.46.618-4.895.833-7.355.13-1.485.037-3.067.578-4.486.294-.772.663-1.513.949-2.289.261-.709.39-1.458.637-2.171.2-.572.37-1.131.523-1.717.226-.843.606-1.612.971-2.401a32.67 32.67 0 001.483-3.615c.29-.897.342-1.857.624-2.758.248-.865.602-1.695 1.055-2.473.246-.403.595-.754.791-1.183.197-.429.269-.941.443-1.394a24.693 24.693 0 001.02-3.203c.33-1.404 1.265-2.479 2.058-3.645.479-.702.86-1.46 1.309-2.178.448-.718 1.088-1.3 1.61-1.987 1.025-1.33 1.774-2.84 2.72-4.224.63-.928 1.334-1.829 1.61-2.932a7.45 7.45 0 01.632-1.834 28.1 28.1 0 001.668-3.714c.057-.154.113-.306.166-.46a.948.948 0 00.06-.177c0-.039 0-.078.015-.117.046-.128.105-.252.176-.371.255-.526.511-1.05.773-1.573l.265-.53a.125.125 0 00.014-.068c.046-.19.125-.367.232-.53.11-.214.234-.422.37-.623a1.66 1.66 0 00.271-.453c.065-.165.132-.336.186-.503.066-.2.109-.412.16-.617.023-.11.052-.217.088-.323.054-.094.1-.193.139-.297a2.56 2.56 0 01.196-.486.517.517 0 01.084-.132c.06-.06.228-.123.27-.017.043.106-.042.25-.076.344-.074.225-.168.44-.252.66a69.764 69.764 0 01-1.488 4.234 71.883 71.883 0 01-2.367 5.461 99.534 99.534 0 01-6.444 11.299c-3.66 5.602-6.857 13.244-9.266 22.095-2.148 7.918-3.742 19.666.85 30.667 5.612 13.438 18.72 17.168 28.718 17.929 3.97.309 7.956.381 11.935.216a88.27 88.27 0 0011.342-1.202 77.288 77.288 0 0010.564-2.586 68.73 68.73 0 009.684-3.936 62.386 62.386 0 008.683-5.253 54.85 54.85 0 003.929-3.107c.467-.401.927-.813 1.382-1.233.186-.172.371-.343.556-.518a.566.566 0 00.071-.089.736.736 0 01.203-.165c.095-.056.181-.126.254-.21l.036-.037a.474.474 0 01.161-.098.414.414 0 01.146-.041c.03 0 .041.024.065.039s.052.016.069.048c.016.032-.013.113-.039.165-.026.052-.056.1-.08.152a1.068 1.068 0 01-.246.296 2.624 2.624 0 01-.301.286 1.972 1.972 0 00-.257.185 9.32 9.32 0 00-.452.437 4.333 4.333 0 01-.384.371c-.097.091-.2.173-.308.247a6.598 6.598 0 00-.452.418c-.061.126-.113.156-.158.085a74.112 74.112 0 00-1.933 1.981l-.294.314c-.09.087-.172.182-.245.282a.75.75 0 01-.133.186c-.139.119-.301.212-.441.329a4.27 4.27 0 00-.599.611 2.361 2.361 0 01-.73.572c-.573.349-1.007.807-1.503 1.255-.742.674-1.589 1.197-2.421 1.762-.858.6-1.776 1.106-2.739 1.517-.812.338-1.627.668-2.446.991-.977.388-1.946.834-2.966 1.114a21.72 21.72 0 00-2.848 1.066c-.884.394-1.794.726-2.723.995-.791.223-1.631.402-2.398.686-.632.235-1.16.664-1.788.898a11.44 11.44 0 01-1.787.435c-1.534.31-3.017.813-4.576 1.019-.995.134-1.998.152-2.991.314-1.036.169-2.057.444-3.089.629-.797.145-1.561.389-2.363.489-1.07.133-2.169.271-3.247.215-1.324-.07-2.647-.022-3.968.019l-.356-.013zM51.516 72.051a.826.826 0 01-.534-.195c-5.057-4.27-6.458-12.41-3.124-18.135 3.14-5.384 10.193-8.17 16.192-6.554 0-.992-.011-2.022-.028-3.097-.055-3.68-.113-7.487.556-10.805 1.068-5.29 3.093-9.61 6.024-12.845 1.636-1.807 4.33-4.07 7.87-4.594 2.821-.418 5.624.48 7.434 2.286 2.065-5.793 5.2-10.482 9.124-13.624C100.171.37 106.802-1.047 112.338.792c6.242 2.074 10.429 8.42 9.53 14.45l-1.637-.246a7.132 7.132 0 00-.05-2.494 5.216 5.216 0 00-.278-.703c-.129-.372-.296-.724-.428-1.092-.305-.86-.354-1.788-.663-2.65a2.274 2.274 0 00-.641-.928 12.362 12.362 0 01-.742-.626 2.906 2.906 0 01-.415-.542c-.32-.43-.741-.672-1.162-.979-.421-.306-.825-.677-1.268-.976-.265-.166-.531-.33-.8-.492a89.29 89.29 0 00-.903-.68 3.68 3.68 0 00-1.228-.58c-.644-.198-1.307-.243-1.948-.43-.278-.1-.558-.197-.84-.293l-.862-.16c-.161-.03-.356 0-.502-.087-.113-.067-.128-.13-.276-.127a2.79 2.79 0 00-.625.156c-.845.223-1.668.518-2.505.76-.529.12-1.064.208-1.603.262-.616.096-1.207.297-1.809.449-.457.104-.908.23-1.351.38-.402.15-.8.316-1.192.485-.38.145-.751.312-1.112.498-.438.28-.833.622-1.175 1.014-.43.44-.927.813-1.37 1.227-.487.446-.967.897-1.455 1.34a11.91 11.91 0 01-1.006.905c-.185.161-.38.317-.576.47-.37.37-.706.794-1.066 1.18-.22.23-.399.496-.53.786-.2.538-.437 1.062-.712 1.565-.303.578-.565 1.18-.863 1.76-.073.114-.138.23-.195.351a1.737 1.737 0 00-.022.383c-.012.275-.092.54-.234.774-.172.264-.476.392-.67.635a2.44 2.44 0 00-.299.626c-.12.288-.235.575-.346.867-.115.308-.247.61-.397.9-.131.221-.232.457-.3.704-.04.221 0 .403-.284.455a.341.341 0 01-.224-.05c-.386-.27-.884-.516-1.183-.884-.09-.113-.155-.245-.253-.353-.312-.336-.816-.42-1.22-.58a9.411 9.411 0 00-1.312-.342c-.47-.114-.95-.275-1.429-.355-.535-.09-1.045.074-1.577.12-.34-.005-.68.043-1.006.142-.41.145-.814.304-1.209.483-.646.304-1.262.668-1.84 1.088-.565.41-1.144.804-1.707 1.214a16.57 16.57 0 00-1.271 1.14c-.489.427-.967.86-1.435 1.3-.41.399-.882.787-1.112 1.325-.243.67-.45 1.352-.623 2.043-.27.928-.533 1.857-.822 2.768a3.27 3.27 0 01-.22.634c-.184-.186-.277.297-.296.416a6.068 6.068 0 01-.087.48 11.17 11.17 0 01-.354.842c-.239.605-.29 1.238-.422 1.87-.17.809-.464 1.58-.688 2.374a3.3 3.3 0 00-.156 1.448c.064.39.09.786.08 1.181-.043.775-.217 1.536-.269 2.308-.037.572-.215 1.114-.213 1.684 0 .372.02.743.026 1.115-.02.306-.007.614.04.917a4.18 4.18 0 01-.055 1.95 2.779 2.779 0 00-.159.571c-.02.316.074.615.08.929 0 .161.057.43-.067.557-.124.126-.641-.024-.556.185-.124.171-.652.203-.84.242a.994.994 0 01-.461.01 3.58 3.58 0 00-.691-.012c-.49.004-.977-.06-1.45-.186a3.98 3.98 0 01-.474-.202c-.375-.13-.78-.15-1.166-.06-1.058.208-2.146.223-3.213.313a3.065 3.065 0 00-.69.055.658.658 0 00-.148.091c-.25.17-.526.3-.766.485-.424.33-.886.64-1.284 1-.448.41-.812.914-1.223 1.362a4.002 4.002 0 00-.795.995c-.119.249-.23.503-.336.757a7.602 7.602 0 01-.884 1.56 1.74 1.74 0 00-.255.557l-.556 1.857c.114.553.029.824-.258.81-.291.642-.67 1.229-.879 1.908-.209.68-.3 1.354-.48 2.017-.083.304-.264.77-.198 1.103.04.21.123.382.15.601.043.325.136.635.186.958.037.23 0 .465.024.697.037.276.088.55.154.819.084.464.237.913.454 1.33.213.4.619.664.843 1.06.224.395.16.87.37 1.25.172.28.416.504.705.654.201.097.392.216.569.351.185.186.24.43.433.583.25.203.495.496.833.355a.985.985 0 00.339-.175l.06-.126c.077-.202.101-.42.158-.626.128-.462.306-.928.473-1.372.167-.444.348-.856.502-1.3.163-.464.274-.943.441-1.405.23-.615.537-1.2.916-1.736.569-.838.85-1.846 1.14-2.804.2-.633.475-1.242.817-1.814.258-.48.484-.975.675-1.485.207-.507.606-.83 1.023-1.178.354-.295.74-.631 1.19-.761.448-.12.915-.156 1.377-.102.38.02.756.102 1.111.241.22.162.446.314.68.451.323.171.63.37.916.596.31.272.536.584.906.797.247.143.543.228.766.416.165.162.368.28.591.342.808.222 1.63.297 2.456.432.628.102 1.35.292 1.93-.067.34-.211.635-.501.966-.726a1.757 1.757 0 00.833-1.435 9.411 9.411 0 000-1.114 5.84 5.84 0 01.096-1.029c.071-.323.116-.653.133-.986a.754.754 0 00-.15-.41c-.113-.3-.175-.62-.185-.943-.074-.674 0-1.404-.23-2.056-.054-.152-.146-.575.126-.594.169.31.273.65.308 1 0 .226-.035.456 0 .68.057.238.147.465.269.675.185.408.515.69.81 1.02.233.257.437.541.605.844.304.535.716.692 1.281.845.565.152 1.027 0 1.575.009.264 0 .599.065.52.394-.053.217-.271.273-.446.323-.08.03-.164.05-.25.06-.134.032-.27.058-.407.075a2.217 2.217 0 01-.471 0c-.058-.011-.22-.128-.217-.026-.44-.124-1.038-.212-1.4-.51-.31-.257-.492-.853-.926-.918-.118.127-.055.39-.074.557-.228 1.95-1.229 3.577-2.676 4.35-1.965 1.052-4.014.4-5.996-.23-1.36-.43-2.639-.839-3.864-.718-1.532.154-3.063 1.242-4.096 2.913-.912 1.486-1.514 3.142-2.153 4.898-.534 1.475-1.088 2.997-1.844 4.42a.825.825 0 01-.575.423.697.697 0 01-.176.007z" fill="#393BC4"/><path d="M36.779 79.107c-1.813 0-2.608-.742-2.956-1.41-.504-.96-.566-2.495 2.013-4.338 1.97-1.408 4.774-2.546 6.115-3.092l.371-.15a36.98 36.98 0 0110.466-2.531c.687-.069 3.475-.048 4.533 1.309a1.897 1.897 0 01.265 1.857 3.103 3.103 0 01-.912 1.244c-2.007 1.8-4.804 2.83-7.272 3.738-.63.232-1.25.46-1.839.694-2.476.982-6.223 2.325-10.18 2.648-.211.031-.413.031-.604.031zm16.589-9.893c-.135 0-.27.006-.404.019a35.417 35.417 0 00-9.997 2.414l-.37.154c-1.298.523-3.972 1.611-5.783 2.906-.727.52-1.887 1.496-1.51 2.217.302.575 1.473.544 1.964.505 3.738-.307 7.33-1.595 9.706-2.538.602-.24 1.234-.472 1.877-.71 2.443-.899 4.97-1.827 6.74-3.416.193-.153.35-.348.457-.569.066-.185.026-.237 0-.282-.37-.44-1.73-.7-2.68-.7z" fill="#393BC4"/><path d="M63.688 95.261l-5.284-21.624c-.009-.033.238-.176.275-.213.037-.038.055-.088.096-.121a.476.476 0 01.14-.067c.119-.063.227-.147.318-.247.03-.028.133-.117.143-.16.009-.042-.028-.113-.073-.167-.235-.29-.42-.622-.645-.928a16.242 16.242 0 00-1.02-1.283.656.656 0 01-.155-.225.73.73 0 00-.074-.172.214.214 0 00-.065-.04.209.209 0 00-.076-.009c-.05.015-.078.084-.118.12-.041.034-.082.092-.128.125-.047.034-.1.032-.143.084a.221.221 0 00-.033.067c-.15.094-.31.172-.475.236-.083.03-.235.064-.265.163a.194.194 0 00.045.158c.107.185.228.371.343.546l.648 1.025a37.09 37.09 0 01-20.976 8.025v-2.538h-.617a4.859 4.859 0 00-.615 0c-.133.018-.132.131-.156.244a3.284 3.284 0 00-.116.94c.01.134.033.27.046.403.019.186.04.371.056.557a5.6 5.6 0 01-.025.683c-.014.344-.038.68-.038 1.023 0 .097-.01.192-.026.284-.01.045-.067.162-.045.212.1.034.185-.026.29-.033.144-.011.266.052.416.031.09-.018.177-.046.261-.083a1.56 1.56 0 01.186-.024 1.81 1.81 0 01.2-.023l.482-.03 2.174 5.9a6.38 6.38 0 00-.625.02c-.29 0-.582 0-.873-.017-.185 0-.371-.009-.556-.03a3.687 3.687 0 00-.67-.05c-.038.067-.104.084-.141.155a.434.434 0 00.055.442c.137.131.438.17.614.222.16.041.314.104.457.186.255.136.541.199.829.186.4.018.801-.008 1.195-.08.46-.095.918-.214 1.383-.271.502-.063 1.002-.08 1.505-.153.283-.04.556-.076.847-.133.297-.069.59-.158.874-.267a7.258 7.258 0 001.854-.94c.53-.371 1.084-.715 1.621-1.083.278-.185.556-.39.842-.557A13.22 13.22 0 0049.077 85c.489-.35 1.05-.836 1.638-.98a.99.99 0 00.337-.155c.056-.048.082-.14.154-.156.045.128-.03.216-.033.335 0 .185.163.43.224.586.291.717.741 1.36 1.04 2.08.178.468.303.952.37 1.448.046.303.113.602.202.895.062.149.077.31.043.466-.26.022-.435.206-.676.307-.392.157-.776.334-1.15.53-.426.236-.852.467-1.297.682-.791.386-1.483.953-2.276 1.344-.854.422-1.779.678-2.648 1.068-.612.273-1.164.557-1.83.674-.464.085-.937.123-1.404.206a2.064 2.064 0 01-.866.052 2.444 2.444 0 00-.431-.094c-.116.003-.232 0-.347-.012-.1-.026-.203-.04-.306-.042-.161 0-.268.053-.289.213-.031.223.156.342.352.371a.854.854 0 01.228.01c.076.018.152.035.23.046.16-.01.282-.061.452-.06 1.007.003 2.011-.1 2.997-.306.638-.126 1.275-.248 1.913-.37a14.761 14.761 0 002.472-.744 17.378 17.378 0 002.12-.928c.388-.214.758-.46 1.157-.654.452-.219.87-.371 1.18-.79.05-.066.217-.257.302-.268.049.202.11.403.186.596.16.513.37 1.005.532 1.513.37 1.163.302 2.396.302 3.603 0 .094.037.298-.024.37a5.41 5.41 0 01-.542.05c-.469.06-.926.162-1.395.265-1 .219-1.987.471-2.982.705-.43.102-.856.214-1.283.329-.426.115-.897.172-1.338.297-.556.158-1.084.371-1.627.538-.35.134-.72.205-1.094.207-.266-.012-.528-.06-.794-.064-.4-.005-.8.026-1.194.091-.17.028-.96.071-.59.422a.835.835 0 00.636.143c.28-.028.556-.035.838-.07.413-.055.828.012 1.245 0 .499 0 1-.021 1.496-.075 1.635-.186 3.217-.587 4.832-.878.974-.177 1.955-.268 2.915-.524.178-.044.359-.078.541-.102.097-.03.196-.05.297-.063.055.111.117.219.185.321.096.199.158.41.185.628.04.143.059.291.058.44-.019.15-.076.317-.099.466-.051.341-.092.689-.131 1.032-.063.557-.198 1.125-.237 1.695a5.162 5.162 0 01-.065.535 3.903 3.903 0 01-.128.485c-.019.057-.028.156-.069.185a.973.973 0 01-.32.054 33.442 33.442 0 01-3.727.422 3.621 3.621 0 00-.927.117 2.832 2.832 0 01-.927.068c-.493 0-.982.116-1.471.103a9.233 9.233 0 01-1.134-.167c-.412-.062-.825-.103-1.238-.147-.682-.073-1.355-.021-2.039-.048a5.718 5.718 0 01-1.07-.205c-.23-.054-.48-.02-.693-.115a.66.66 0 00-.213-.063 1.513 1.513 0 00-.348-.104c-.084.033-.037.143-.019.204.39.236.827.394 1.235.591.239.119.487.219.741.301.245.072.517.074.752.167.171.068.32.185.495.245.273.098.551.18.834.241.806.186 1.644.112 2.465.11.975 0 1.952.057 2.927.1.567.026 1.126.082 1.694.056.307-.015.611-.052.926-.052.258 0 .508.033.764.052.793.054 1.588-.049 2.377.063.11.017.29.109.371 0 .082-.11-.024-.238-.026-.342 0-.158.054-.323.052-.486v-.24c-.01-.293.035-.587.132-.865.093-.247.146-.511.154-.776 5.33-.674 8.154-7.095 8.275-7.381a.837.837 0 00.055-.535zM77.973 188.286l-.395-1.609 23.689-5.834V161.01c0 .024.528-.03.569-.024.185.03.2.362.228.514.031.193.031.39 0 .583-.027.281-.013.561.041.836a1.7 1.7 0 01.059.622 3.876 3.876 0 00-.052.607c0 .282-.037.557-.016.847.02.29.027.594.052.887.024.294.092.531.098.817.011.621.05 1.235.05 1.857 0 .752 0 1.504-.013 2.254a20.2 20.2 0 00-.015 2.228c.059.726 0 1.456.115 2.178.109.637.424 1.215.485 1.857.025.253.036.49.073.743.063.41.055.828.111 1.238.026.207.037.394.05.604-.01.29.009.579.057.863.099.359.347.663.456 1.014.052.164.132.392-.039.487a1.956 1.956 0 01-.268.079c-.143.062-.269.153-.419.205-.441.156-.962.078-1.422.081-.565 0-1.147.201-1.69.338-.185.047-.383.08-.556.14l-.052.044a15.38 15.38 0 01-1.366.216 2.328 2.328 0 00-.604.085 6.105 6.105 0 01-1.734.371 7.698 7.698 0 00-1.587.359c-.46.144-.908.321-1.377.438-.71.176-1.392.449-2.096.648-.916.258-1.853.403-2.78.641a15.62 15.62 0 00-1.757.616c-1.082.42-2.17.954-3.321 1.16-.517.091-1.038.015-1.553.097a10.98 10.98 0 00-1.518.371c-.25.076-.495.164-.741.24-.114.03-.775.082-.762.135zM79.686 192l-.514-1.576c-.022-.073 1.001-.257 1.168-.292.307-.065.613-.143.915-.236.103-.081.22-.145.345-.185.493-.231.975-.493 1.462-.743.38-.186.742-.385 1.112-.607a8.205 8.205 0 011.952-.841c.975-.299 1.933-.632 2.895-.966.908-.314 1.827-.587 2.733-.91.575-.206 1.153-.434 1.742-.596.836-.228 1.724-.252 2.577-.392.852-.139 1.727-.386 2.594-.514.434-.065.871-.065 1.298-.119.42-.08.836-.184 1.245-.312.188-.048.371-.117.545-.204a.79.79 0 01.324-.119.99.99 0 01.514.054c.075.043.147.089.216.141.251.201-.463.455-.576.509-.966.459-1.896.978-2.912 1.326-.555.185-1.163.2-1.742.332a27.52 27.52 0 00-1.297.371c-.435.136-.834.212-1.253.31-.678.186-1.317.463-1.975.713-.727.279-1.472.491-2.224.717-.857.262-1.683.594-2.567.758-.488.091-.962.148-1.44.284-.743.221-1.47.496-2.172.822-.445.201-.853.453-1.277.691-.343.186-.695.325-1.023.557-.15.091-.307.169-.47.234-.112.056-.21.13-.327.186-.332.13-.682.224-1.021.334-.023.004-.847.227-.847.273zM91.829 191.981l-.61-1.539c0 .013.865-.371 1.023-.41.207-.058.413-.115.617-.186a9.49 9.49 0 001.192-.479 2.95 2.95 0 00.895-.533c.383-.232.913-.59 1.368-.614.385-.002.77-.03 1.152-.086.51-.098 1.044-.418 1.51-.622a11.566 11.566 0 003.022-1.857c.226-.189.464-.365.713-.525.239-.134.463-.292.669-.474.106-.139.231-.263.371-.371a3.27 3.27 0 01.65-.384c.304-.093.627-.078.927-.201.238-.102.487-.182.741-.234a12.078 12.078 0 001.718-.416c.212-.076.627-.265.779.011-.064.101-.141.19-.23.266a1.771 1.771 0 01-.53.323 8.58 8.58 0 00-.955.297c-.331.136-.632.332-.961.472-.249.104-.503.185-.758.271a4.159 4.159 0 00-1.774 1.094c-.289.306-.556.646-.827.963a6.822 6.822 0 01-.926.981c-.49.371-1.112.544-1.657.826-.39.2-.76.436-1.14.653-.445.255-.927.467-1.384.691a1.54 1.54 0 01-.571.186c-.443.022-.853.232-1.27.371-.202.071-.402.143-.604.217-.104.038-.207.073-.31.112-.159.091-.335.148-.516.169a1.359 1.359 0 00-.842.215c-.157.11-.267.269-.434.372-.053.04-1.045.449-1.048.441zM66.047 169.943c-.065.061-.13.119-.199.175-.105.087-.213.171-.32.254a1.94 1.94 0 01-.24.186 1.599 1.599 0 01-.516.167.907.907 0 01-.088-.468c-.03-.336-.05-.67-.07-1.006-.052-.823-.028-1.651-.08-2.472a6.032 6.032 0 010-.82c.03-.372.243-.764.07-1.129a1.518 1.518 0 01-.096-.546 3.82 3.82 0 00-.127-.724 27.842 27.842 0 00-.26-.79 3.112 3.112 0 01-.185-.781c-.097-.672-.123-1.356-.186-2.032a8.011 8.011 0 00-.411-1.944c-.104-.262-.208-.523-.31-.785-.132-.405-.289-.802-.468-1.188a20.2 20.2 0 01-.482-.998 6.97 6.97 0 00-.35-.742 3.659 3.659 0 01-.262-.537 1.28 1.28 0 00-.334-.468c-.05-.037-.105-.065-.153-.108a4.56 4.56 0 01-.428-.531 4.852 4.852 0 01-.403-.438c-.089-.135-.216-.234-.303-.371a3.989 3.989 0 01-.227-.468c-.066-.139-.102-.21-.268-.227-.167-.016-.295-.052-.443-.066a1.601 1.601 0 00-.317.02c-.185.02-.354.032-.528.063a9.915 9.915 0 00-1.038.318 4.605 4.605 0 01-.521.093c-.172.031-.341.083-.511.118a8.213 8.213 0 01-.927.075c-.2.018-.397.055-.599.055-.245 0-.569-.094-.693.173s0 .646.05.928c.02.117.035.236.048.353.013.117.054.186.065.281.011.094 0 .185 0 .28.028.449.095.895.198 1.333.032.125.091.24.12.372.045.185.062.371.101.557l.14.64.071.314-1.614.36-.07-.314c-.488-2.183-.95-4.246.213-5.698.888-1.114 2.546-1.63 5.215-1.63 5.82 0 7.645 12.561 8.129 17.359l10.767-9.516s.154.159.162.185c.01.034.01.069 0 .101a2.66 2.66 0 01-.26.778c-.143-.015-.204.076-.308.163-.303.254-.648.457-.947.719a6.783 6.783 0 00-1.262 1.587l-.413.786c-.17.269-.37.519-.597.742a27.784 27.784 0 01-2.063 1.952c-.465.401-.945.798-1.378 1.238l-.286.297c-.197.223-.36.472-.482.743a3.7 3.7 0 01-.578.771 1.85 1.85 0 01-.461.397 2.69 2.69 0 00-.39.241c-.252.186-.472.403-.719.591-.246.187-.496.386-.73.594-.14.124-.29.286-.448.438z" fill="#393BC4"/><path d="M62.147 161.515a1.947 1.947 0 01-.091-.585 2.293 2.293 0 00-.03-.477 5.703 5.703 0 00-.295-.67c-.11-.26-.165-.535-.26-.8-.03-.09-.208-.42-.155-.496-.289-.453-.583-.903-.88-1.352a3.141 3.141 0 01-.404-.635c-.024-.069-.032-.141-.058-.21-.059-.152-.152-.291-.224-.436-.12-.23-.22-.47-.298-.719-.026-.085-.05-.169-.084-.25-.009-.025-.096-.284-.144-.309-.048-.024-.215.064-.265.088-.122.059-.251.1-.384.124-.274.061-.54.152-.793.273-.185.08-.37.167-.545.247-.174.08-.397.085-.602.158-.069.024-.186.057-.212.132a.68.68 0 000 .287c.05.292.232.52.371.775.197.351.417.689.658 1.008.087.143.192.271.313.384.186.156.341.338.523.511l-1.14 1.201a5.668 5.668 0 01-1.71-3.78c0-.128.03-.255.087-.372.26-.497.591-.954.984-1.355.938-.94 2.01-1.179 3.023-.672.41.236.753.574.997.978.365.563.668 1.165.902 1.792.269.691.502 1.393.7 2.104.186.648.345 1.3.49 1.957.057.258.113.518.165.78.069.34.185.743.039 1.075a.744.744 0 01-.186-.137 1.426 1.426 0 01-.242-.305c-.035-.043-.084-.05-.124-.087a.527.527 0 01-.097-.156l-.03-.071zM52.954 161.434c-2.992-.983-3.288-4.732-2.986-7.385 0-.182.03-.364.085-.538.043-.093.106-.236.21-.273a.5.5 0 01.196 0c.228.042.311.306.37.499.036.089.075.177.12.262.04.137.057.279.05.42.018.592-.015 1.182.185 1.752.087.255.22.476.294.743.063.221.087.45.141.672.044.212.106.418.186.619.065.178.143.351.231.518.103.131.215.256.336.371.066.084.157.143.231.219.079.08.163.154.252.219.188.141.398.251.621.323l-.522 1.579zM83.153 53.186a2.483 2.483 0 002.482-2.486 2.485 2.485 0 00-2.482-2.486 2.484 2.484 0 00-2.481 2.486 2.483 2.483 0 002.481 2.486zM100.114 49.04a2.483 2.483 0 002.482-2.486 2.485 2.485 0 00-2.482-2.486 2.484 2.484 0 00-2.481 2.486 2.483 2.483 0 002.481 2.486zM21.678 130.245h-.037c-1.267.067-2.63.238-3.892.095-1.182-.134-2.353-.338-3.521-.546-.593-.106-1.184-.212-1.777-.314a4.052 4.052 0 01-.612-.162 1.396 1.396 0 00-.273-.05c-.606-.046-1.228 0-1.836-.015-1.334-.046-2.647-.334-3.937-.661-.661-.167-1.32-.347-1.979-.518-.66-.17-3.812-.454-3.814-.421l.15-1.651c16.211 1.486 36.386 3.342 52.82-4.978 12.56-6.354 21.127-17.326 30.192-28.942 5.862-7.507 11.922-15.27 19.122-21.568a74.378 74.378 0 0136.609-17.374c6.134-1.036 16.543-1.712 25.35 3.064a38.75 38.75 0 0111.566-4.668l.36 1.617a37.053 37.053 0 00-10.303 4.014 25.676 25.676 0 014.381 3.528c3.668 3.675 5.166 8.684 3.814 12.76-.843 2.544-2.755 4.848-5.845 7.043-3.445 2.449-6.815 3.738-10.008 3.829-4.092.117-7.812-1.848-9.502-5.014-1.571-2.94-1.332-6.963.627-10.496 2.077-3.747 5.004-5.756 8.119-7.903.953-.655 1.937-1.333 2.902-2.068a42.285 42.285 0 012.265-1.615c-.12.081-1.56-.714-1.768-.799a35.732 35.732 0 00-1.881-.69 12.2 12.2 0 00-1.551-.467c-.317-.056-.621-.185-.927-.236-.306-.05-.456 0-.741-.122-1.931-.795-3.994-.628-6.055-.624-2.181 0-4.396 0-6.565.234-1.188.126-2.366-.052-3.547.085-.2-.003-.4.028-.589.093a55.381 55.381 0 01-4.402.964c-.782.141-1.471.423-2.24.657-1.47.446-2.738 1.235-4.174 1.76-1.321.481-2.647.918-3.936 1.486-2.13.928-4.109 2.228-6.139 3.362-2.965 1.651-5.832 3.423-8.732 5.168a12.438 12.438 0 00-2.313 1.857c-.88.735-1.758 1.472-2.634 2.21-1.535 1.351-3.051 2.762-4.466 4.237-.252.261-.475.557-.797.727-.323.171-.684.392-1.038.569-.365.167-.69.41-.951.714-.32.41-.674.795-1.056 1.146-.988.841-1.774 1.875-2.654 2.822a30.749 30.749 0 00-3.151 3.883c-.556.826-1.166 1.599-1.748 2.403-.837 1.156-1.65 2.319-2.557 3.422-.836 1.014-1.757 1.948-2.673 2.887-.76.787-1.471 1.62-2.131 2.49-1.814 2.366-3.651 4.709-5.591 6.974-2.224 2.6-4.702 4.974-7.26 7.242-1.16 1.025-2.28 2.059-3.508 3.002a69.313 69.313 0 01-4.873 3.379 50.395 50.395 0 01-3.856 2.219c-.878.489-1.797.899-2.747 1.224-.877.278-1.735.464-2.595.811-1.09.438-2.172 1.007-3.226 1.523-.893.438-1.735.906-2.673 1.244-.708.254-1.427.488-2.138.728-1.387.466-2.81.742-4.217 1.136-1.186.336-2.3.724-3.51.977-1.112.228-2.224.399-3.314.659-1.297.308-2.578.687-3.879.984-2.012.46-4.1.564-6.138.674zm142.585-72.12c-.584.372-1.156.758-1.722 1.157a.973.973 0 00-.291.266c-.044.076-.039.146-.115.222a1.145 1.145 0 01-.472.242c-.371.106-.667.137-.994.35-.296.186-.595.393-.88.6-.372.264-.71.57-1.01.914-.154.23-.327.448-.517.648-.172.12-.366.208-.571.253a4.036 4.036 0 00-1.019.516c-.278.197-.52.44-.714.718-.43.539-1.028.777-1.538 1.213-.556.472-.917 1.164-1.403 1.703-.532.592-1.006 1.1-1.379 1.806-.402.756-.917 1.445-1.297 2.215-.486.979-.612 2.069-.712 3.157-.059.65-.068 1.3-.068 1.946-.029.373-.014.746.044 1.114.174.713.571 1.428 1.251 1.745.308.143.699.186.956.427.112.106.186.309.295.427.36.413.897.576 1.422.667.507.093 1.021.15 1.536.175.758.027 1.499-.108 2.252-.186 1.899-.206 3.782-.388 5.632-.893.593-.162 1.195-.301 1.775-.51a16.35 16.35 0 002.252-1.115c.782-.427 1.622-.834 2.328-1.38.4-.31.771-.675 1.155-1.008.906-.789 1.412-1.832 1.812-2.95.45-1.253.714-2.503.489-3.83a17.652 17.652 0 00-.999-3.343c-.274-.72-.507-1.55-.948-2.184-.391-.556-.927-1.038-1.376-1.55-.165-.186-.322-.384-.489-.557a5.887 5.887 0 00-.958-.711c-.567-.385-1.101-.91-1.718-1.209a5.864 5.864 0 00-.556-.2 2.46 2.46 0 01-.332-.153c-.079-.042-.154-.093-.23-.139-.076-.046-.815-.603-.891-.563zM34.201 142.736c-.26 0-.519-.008-.778-.023-.803-.037-1.601-.234-2.41-.219a3.668 3.668 0 00-.635.062c-.408-.039-.816-.186-1.221-.186-.115.004-.23.015-.343.031a5.477 5.477 0 01-1.212-.1l.198-1.647c16.235 1.967 32.93-3.678 44.665-15.094l1.154 1.189c-.016-.013-1.015.962-1.112 1.051-.146.133-.302.222-.454.339a1.695 1.695 0 00-.382.557c-.159.279-.389.509-.667.669-.456.308-.691.743-1.073 1.123-.311.269-.631.529-.96.78-.27.264-.54.528-.806.791-.215.165-.432.327-.652.481l-.636.591c-.37.282-.741.57-1.099.863-.26.249-.526.486-.8.717-.581.451-1.164.9-1.75 1.346a6.284 6.284 0 01-1.483.847 53.285 53.285 0 01-4.967 2.19c-1.556.578-3.161 1.079-4.748 1.566a54.877 54.877 0 01-5.273 1.322c-1.8.332-3.621.531-5.45.596-1.509.076-3.017 0-4.526.083-.854.043-1.716.082-2.58.075zM53.373 71.064c.15-.795-.521-1.144-1.196-1.068a6.1 6.1 0 00-2.763 1.047c-.297.208-.599.483-.623.845-.05.732.755.743 1.251.661a8.77 8.77 0 002.595-.793c.289-.141.675-.356.736-.692z" fill="#393BC4"/></svg><svg viewBox="0 0 24 24" id="orders" xmlns="http://www.w3.org/2000/svg"><path d="M17.578 4.432l-2-1.05C13.822 2.461 12.944 2 12 2s-1.822.46-3.578 1.382l-.321.169 8.923 5.099 4.016-2.01c-.646-.732-1.688-1.279-3.462-2.21m4.17 3.534l-3.998 2V13a.75.75 0 11-1.5 0v-2.286l-3.5 1.75v9.44c.718-.179 1.535-.607 2.828-1.286l2-1.05c2.151-1.129 3.227-1.693 3.825-2.708.597-1.014.597-2.277.597-4.8v-.117c0-1.893 0-3.077-.252-3.979zM11.25 21.904v-9.44l-8.998-4.5C2 8.866 2 10.05 2 11.941v.117c0 2.525 0 3.788.597 4.802.598 1.015 1.674 1.58 3.825 2.709l2 1.049c1.293.679 2.11 1.107 2.828 1.286zM2.96 6.641l9.04 4.52 3.411-1.705-8.886-5.078-.103.054c-1.773.93-2.816 1.477-3.462 2.21"/></svg><svg fill="none" viewBox="0 0 15 12" id="paw" xmlns="http://www.w3.org/2000/svg"><path fill-rule="evenodd" clip-rule="evenodd" d="M5.016 5.213A31.383 31.383 0 014.07 3.02l-.003-.008-1.859.692-1.858.693.002.006.005.013a15.03 15.03 0 00.083.212 36.494 36.494 0 001.033 2.367c.315.65.698 1.375 1.107 1.98.203.3.448.624.732.906.247.244.718.658 1.395.82 1.195.284 2.033-.433 2.327-.732.351-.357.61-.789.793-1.137.382-.725.72-1.643.99-2.47a43.06 43.06 0 00.875-3.093 32.382 32.382 0 00.068-.28l.004-.017.002-.007-1.935-.443-1.935-.442-.001.002-.003.011a14.172 14.172 0 01-.059.244 39.183 39.183 0 01-.817 2.878zm1.108 1.888z" fill="#FF8A65"/><path fill-rule="evenodd" clip-rule="evenodd" d="M14.825 7.012l-8.617 3.535-1.366-3.266 8.617-3.535 1.366 3.266z" fill="#FF8A65"/></svg><svg fill="none" viewBox="0 0 24 24" id="plus" xmlns="http://www.w3.org/2000/svg"><path d="M6 12h12.5M12.25 5.75v12.5"/></svg><svg viewBox="0 0 24 24" id="search" xmlns="http://www.w3.org/2000/svg"><path fill-rule="evenodd" clip-rule="evenodd" d="M16.621 15.172l4.244 4.244-1.414 1.415-4.24-4.24a7 7 0 111.41-1.42v.001zM16 11a5 5 0 10-10 0 5 5 0 0010 0z"/></svg><svg fill="none" viewBox="0 0 18 18" id="star" xmlns="http://www.w3.org/2000/svg"><path d="M8.524 1.464a.5.5 0 01.952 0l1.432 4.41a.5.5 0 00.476.345h4.637a.5.5 0 01.294.904L12.563 9.85a.5.5 0 00-.181.559l1.433 4.41a.5.5 0 01-.77.559L9.294 12.65a.5.5 0 00-.588 0l-3.751 2.726a.5.5 0 01-.77-.56l1.433-4.41a.5.5 0 00-.181-.558L1.685 7.123a.5.5 0 01.294-.904h4.637a.5.5 0 00.476-.346l1.432-4.41z" fill="#FFCA38"/></svg><svg viewBox="0 0 18 18" id="star-2" xmlns="http://www.w3.org/2000/svg"><path d="M8.524 1.464a.5.5 0 01.952 0l1.432 4.41a.5.5 0 00.476.345h4.637a.5.5 0 01.294.904L12.563 9.85a.5.5 0 00-.181.559l1.433 4.41a.5.5 0 01-.77.559L9.294 12.65a.5.5 0 00-.588 0l-3.751 2.726a.5.5 0 01-.77-.56l1.433-4.41a.5.5 0 00-.181-.558L1.685 7.123a.5.5 0 01.294-.904h4.637a.5.5 0 00.476-.346l1.432-4.41z"/></svg><svg fill="none" viewBox="0 0 18 18" id="star-empty" xmlns="http://www.w3.org/2000/svg"><path d="M8.524 1.464a.5.5 0 01.952 0l1.432 4.41a.5.5 0 00.476.345h4.637a.5.5 0 01.294.904L12.563 9.85a.5.5 0 00-.181.559l1.433 4.41a.5.5 0 01-.77.559L9.294 12.65a.5.5 0 00-.588 0l-3.751 2.726a.5.5 0 01-.77-.56l1.433-4.41a.5.5 0 00-.181-.558L1.685 7.123a.5.5 0 01.294-.904h4.637a.5.5 0 00.476-.346l1.432-4.41z" fill="#F5F5F7"/></svg><svg viewBox="0 0 35 75" id="step-arrow" xmlns="http://www.w3.org/2000/svg"><path d="M17.82 72.562l-3.901.875s-.27.135-.202.404c.067.236.37.27.37.27l5.18-1.179-1.345-4.98s-.135-.236-.438-.169c-.303.034-.269.337-.269.337l1.043 3.803C7.528 64.553 1.137 52.47 1.137 39.58c0-18.814 13.589-35.104 32.291-38.705l.303-.067-.034-.135.27.068.168-.74-.841.168C14.222 3.837.397 20.429.397 39.579.363 52.74 6.889 65.023 17.82 72.563z"/></svg><svg viewBox="0 0 50 64" id="step-arrow-up" xmlns="http://www.w3.org/2000/svg"><path d="M12.78 13.356C-1.18 26.146-3.805 47.012 6.555 62.998l.471.707.438-.606-.236-.168.101-.067-.168-.236C-3.03 46.911-.44 26.414 13.25 13.895c9.385-8.583 22.537-12.083 35.286-9.39l-3.498 1.817s-.202.168-.068.404c.169.235.438.202.438.202l4.54-2.356-2.69-4.443s-.236-.202-.438-.1c-.269.134-.168.403-.168.403l2.052 3.366c-12.95-2.76-26.372.807-35.925 9.558z"/></svg><svg viewBox="0 0 32 32" id="telegram" xmlns="http://www.w3.org/2000/svg"><path d="M16 32c8.837 0 16-7.163 16-16S24.837 0 16 0 0 7.163 0 16s7.163 16 16 16z"/><path d="M13.067 23.333c-.518 0-.43-.195-.61-.689l-1.523-5.016 11.733-6.961" fill="#DDD"/><path d="M13.066 23.333c.4 0 .577-.183.8-.4L16 20.86l-2.661-1.605"/><path d="M13.339 19.255l6.448 4.764c.735.405 1.267.195 1.45-.684l2.624-12.368c.27-1.077-.41-1.566-1.114-1.246L7.335 15.663c-1.052.422-1.046 1.01-.192 1.27l3.955 1.235 9.156-5.776c.433-.263.83-.122.504.167" fill="#fff"/></svg><svg viewBox="0 0 22 22" id="trash-can" xmlns="http://www.w3.org/2000/svg"><path fill-rule="evenodd" clip-rule="evenodd" d="M7.595 2.18a2.23 2.23 0 011.507-.575h3.796a2.23 2.23 0 011.507.575c.404.37.635.878.635 1.412v1.5h4.745v2.23H17.95l-1.286 13.073H5.336L4.05 7.322H2.215v-2.23H6.96v-1.5c0-.534.231-1.041.635-1.412zm0 0zm1.75 1.656v1.255h3.309V3.836H9.346zM6.447 7.322l1.067 10.842h6.974l1.066-10.842H6.447z"/></svg><svg viewBox="0 0 24 24" id="user" xmlns="http://www.w3.org/2000/svg"><path fill-rule="evenodd" clip-rule="evenodd" d="M12 2a10 10 0 0110 10c0 5.523-4.477 10-10 10S2 17.523 2 12 6.477 2 12 2zm1 11h-2a6.001 6.001 0 00-5.518 3.64A7.99 7.99 0 0012 20a7.99 7.99 0 006.518-3.36A6.002 6.002 0 0013 13zm-1-8a3 3 0 100 6 3 3 0 000-6z"/></svg></svg>