<?xml version="1.0" encoding="utf-8"?><svg viewBox="0 0 157 213" xmlns="http://www.w3.org/2000/svg" xmlns:xlink="http://www.w3.org/1999/xlink"><style>:root>svg{display:none}:root>svg:target{display:block}</style><svg fill="none" viewBox="0 0 157 213" id="404" xmlns="http://www.w3.org/2000/svg"><path d="M63.831 141.605a.112.112 0 00-.076-.027c-.015 0-.03.016-.038.019a.116.116 0 01-.067-.017.345.345 0 00-.186-.019c-.139.023-.28.035-.421.038-.192 0-.382-.049-.574-.059a7.063 7.063 0 01-.727-.017.068.068 0 000-.029 1.095 1.095 0 01-.034-.475.407.407 0 00.013-.159c-.07-.42-.156-.857-.228-1.285a117.362 117.362 0 01-.765-5.136 115.8 115.8 0 01-.774-9.004c0-.265-.034-.531-.048-.796a.428.428 0 01.02-.23c.125-.233.52-.254.739-.21.168.434.318.883.461 1.326.234.718.182 1.501.363 2.229.076.302.173.598.25.899.27 1.032.374 2.147.538 3.194.089.569.108 1.226.363 1.748.24.49.148.951.245 1.47.063.342.135.684.21 1.026.064.397.114.796.152 1.194.061.548.108 1.098.16 1.646.036.348.074.695.123 1.049.02.16.052.319.078.477.031.149.07.298.114.443.042.153.044.319.075.474-.006.027.066.202.034.231zM87.32 148.044c-.3.11-.765.242-1.092.149a1.679 1.679 0 01-.761-.596c-.23-.3-.346-.665-.574-.967-.09-.12-.196-.21-.293-.326l-.369-.594c-.196-.392-.474-.801-.548-1.238a1.894 1.894 0 00-.21-.581l-.681-1.344-5.638-11.099c-1.22-2.403-2.74-5.392-2.319-8.584.388-3.027 2.349-5.363 4.246-7.619.18-.212.356-.422.531-.63 1.548-1.857 3.542-4.645 3.03-7.38a5.344 5.344 0 00-1.836-3.02 8.014 8.014 0 00-3.6-1.738c-.372-.075-.77-.258-1.152-.254-1.076.002-2.15.088-3.213.258-.843.145-1.758.282-2.551.613-.272.111-.563.174-.843.269a13.66 13.66 0 00-1.586.533c-1.075.51-2.25.873-3.24 1.538-.21.147-.443.294-.658.448-.124.088-.21.209-.352.289-.249.145-.75.26-.767-.161.02-.246.105-.483.248-.685.07-.1.16-.193.239-.287a18.84 18.84 0 012.696-2.479c.344-.275.7-.646 1.109-.814.08-.032.156-.074.228-.122.396-.271.778-.561 1.176-.84a35.598 35.598 0 0119.8-6.055h.435a35.834 35.834 0 0113.22 2.758c.211.084.422.164.647.245 1.301.477 3.721 1.365 3.179 3.942-.227 1.087-1.022 2.063-2.175 2.678-.886.447-1.807.823-2.754 1.121-1.102.38-2.144.737-3.132 1.394-.753.502-1.647 1.19-1.864 2.065-.175.71.072 1.52.422 2.504.362 1.05.786 2.099 1.233 3.233 1.265 3.192 2.583 6.491 2.688 9.825.11 3.582-.904 7.369-3.015 11.254-.348.63-.717 1.259-1.1 1.889a58.088 58.088 0 01-2.998 4.284c-.523.688-1.054 1.366-1.594 2.044-.21.271-.436.521-.675.77-.238.25-.274.594-.527.813-.253.218-.672.325-.959.556-.421.329-.731.785-1.107 1.158-.293.292-.527.63-.93.781l-.014.002zm-12.042-47.796a2.72 2.72 0 01-.356.143c.278-.044.556-.082.843-.118.476-.023.955.021 1.419.135.297.05.59.115.88.193.163.029.324.077.473.145.082.054.17.102.26.144.28.116.562.227.843.338a6.867 6.867 0 012.051 1.031c.181.199.34.42.504.63.322.419.687.795 1.027 1.2.179.206.337.428.47.665.168.345.297.706.383 1.077.211.729.53 1.444.686 2.185.143.668-.072 1.469-.268 2.099-.236.865-.55 1.709-.936 2.519a8.824 8.824 0 01-1.128 1.752 10.68 10.68 0 01-.883.84c-.302.262-.612.523-.899.8-.434.419-.805.898-1.23 1.324a37.74 37.74 0 00-.722.743c-.282.296-.632.609-.887.936-.48.613-.709 1.377-.903 2.116a15.506 15.506 0 00-.409 2.968c-.04.461-.027.925.04 1.383.057.304.159.6.3.875.188.346.346.705.472 1.077.137.42.253.858.409 1.284.156.426.323.79.485 1.186.204.527.375 1.066.516 1.614.298.936.68 1.845 1.139 2.714.367.756.805 1.486 1.134 2.259.295.694.422 1.469.761 2.134.304.609.725 1.167 1.069 1.757.344.59.744 1.217 1.1 1.837.304.474.654.917 1.04 1.326.293.344.39.764.592 1.157.19.291.42.554.683.78.167.175.34.51.58.596.24.086.632-.063.86-.14.302-.101.572-.42.808-.63.28-.229.54-.485.77-.764.163-.21.315-.42.49-.63.175-.209.422-.419.633-.642a16.275 16.275 0 001.503-1.679c.285-.374.632-.697.902-1.075.388-.522.675-1.112 1.054-1.647.296-.443.542-.915.736-1.409.175-.419.38-.816.552-1.234a9.84 9.84 0 00.603-1.656c.068-.39.102-.785.1-1.179a10.18 10.18 0 01.68-3.506 7.396 7.396 0 00.479-1.8c.101-.773.095-1.56.18-2.337.05-.47.025-.944.033-1.418 0-.242-.032-.483-.097-.716a3.297 3.297 0 01-.181-.707c-.01-.548 0-1.094-.01-1.64a8.05 8.05 0 00-.264-1.889c-.17-.594-.422-1.16-.633-1.746a7.038 7.038 0 00-.742-1.631 7.637 7.637 0 01-.803-1.469 14.948 14.948 0 00-.884-2.049c-.28-.545-.59-1.078-.93-1.591a7.149 7.149 0 01-.748-1.049c-.25-.516 0-.879.323-1.308.443-.581.925-1.135 1.442-1.654.422-.419.814-.887 1.252-1.299a9.384 9.384 0 011.453-1.03c.303-.191.596-.401.9-.594.409-.261.843-.479 1.265-.71.74-.403 1.452-.81 2.272-1.037.188-.052.374-.109.565-.142.121-.013.239-.042.35-.086.443-.24.681-.993.376-1.407-.264-.352-.763-.419-1.113-.654-.102-.072-.152-.173-.268-.21a7.71 7.71 0 00-.787-.21c-1.03-.263-1.99-.764-3.016-1.05a12.822 12.822 0 00-1.586-.386 9.12 9.12 0 00-1.775-.065c-1.684.12-3.375.11-5.06-.034-.744-.075-1.475-.222-2.213-.15-1.094.102-2.195.337-3.276.526-1.293.21-2.57.514-3.818.911-.33.118-.666.22-1.006.304-.407.093-.822.124-1.227.225-.554.117-1.1.264-1.638.441l-.044.008z" fill="#393BC4"/><path d="M70.287 123.134c-.038-.02-.073-.048-.111-.073a1.965 1.965 0 01-.276-.178c-.197-.177-.211-.433-.302-.666-.09-.233-.272-.401-.354-.629-.101-.282-.122-.588-.211-.869a2.206 2.206 0 00-.236-.454c-.11-.174-.21-.359-.31-.535a1.018 1.018 0 00-.331-.317 5.586 5.586 0 01-.94-.839l-.344-.42a8.946 8.946 0 01-.476-.8c-.196-.317-.422-.611-.633-.917-.179-.256-.396-.479-.594-.722a4.961 4.961 0 01-.81-1.438 7.35 7.35 0 00-.173-.437 1.292 1.292 0 01-.116-.34c.009-.146.05-.289.12-.419.125-.256.195-.59.485-.716.211-.086.4.075.582.143.03.008.057.021.082.037.148.122.285.254.41.399a26.488 26.488 0 015.645 8.423c.04.09.074.183.103.277.038.078.064.16.079.244v.252c0 .132.05.264.059.398a.44.44 0 01-.116.357.757.757 0 01-.277.139c-.097.038-.187.094-.288.124a.547.547 0 01-.186.016 2.067 2.067 0 01-.369 0 .262.262 0 01-.112-.04zM139.352 160.468a3.31 3.31 0 01-.687-.367c-.435-.284-.843-.55-1.307-.798-.407-.22-.844-.353-1.246-.571a8.376 8.376 0 00-.666-.35 61.36 61.36 0 00-2.863-1.172 12.8 12.8 0 01-3.302-1.836c-1.242-.968-2.53-1.889-4.005-2.477-.886-.361-1.744-.785-2.653-1.087-2.639-.882-5.318-1.66-7.975-2.492a26.298 26.298 0 00-4.41-1.049c-.582-.078-.9.023-1.423.225-.62.239-1.345.186-1.997.178-.651-.008-1.29-.086-1.897.126-.375.159-.761.3-1.153.42-.546.128-1.054.21-1.55.482l-.447.284c-.307.113-.643.13-.961.05-.447-.054-1.575-.193-1.476-.877a.667.667 0 00.276-.21c.234-.218.496-.407.778-.56a5.756 5.756 0 001.537-1.631 32.154 32.154 0 013.401-4.253c.757-.804 1.49-1.593 2.184-2.451.843-1.029 1.804-1.971 2.511-3.096.35-.716.738-1.411 1.163-2.082.376-.535.698-1.104.97-1.698.673-1.358 1.137-2.807 1.655-4.227.519-1.421.886-2.75.947-4.242a21.35 21.35 0 00-.026-2.653c-.067-.84-.116-1.772-.771-2.383a10.02 10.02 0 00-1.309-.963c-1.054-.657-2.248-.227-3.397-.332-.366-.033-.75-.067-1.113-.123a.802.802 0 01-.278-.057c-.858.329-1.701.695-2.53 1.096a2.2 2.2 0 00-.82.528 11.599 11.599 0 01-1.71 1.799c-.373.302-.71.75-1.227.781-.335.021-.754-.286-.723-.661.023-.29.344-.493.561-.64.36-.244.744-.452 1.096-.71a8.127 8.127 0 001.082-1.049c.405-.42.824-.84 1.265-1.241a13.564 13.564 0 012.894-2.023c2.581-1.304 6.483-1.601 8.956.827 1.265 1.243 1.857 2.915 2.27 4.387 1.527 5.438 1.398 10.945-.362 15.506-1.605 4.163-4.668 7.601-8.34 9.515.124.025.246.059.364.1l.555.156 1.098.319a99.711 99.711 0 016.843 2.298 107.305 107.305 0 018.705 3.747 94.8 94.8 0 018.328 4.552c.651.397 1.298.802 1.939 1.211.268.206.557.38.862.521.228.065.449.151.658.262.141.084.264.197.354.334.059.096.274.39.243.487-.032.096-.422.21-.534.21a.843.843 0 01-.337-.04zM87.703 140.463a2.184 2.184 0 01-1.213-.361c-.66-.42-.955-1.123-1.149-1.58l-.385-.918c-2.14-5.087-4.354-10.351-9.698-12.452l.736-1.852c6.113 2.41 8.607 8.32 10.8 13.536l.384.911c.1.235.25.592.398.689.21.134.826-.145 1.488-.84a42.867 42.867 0 009.066-14.969l1.897.657a44.814 44.814 0 01-9.487 15.668c-.94.988-1.933 1.511-2.838 1.511z" fill="#393BC4"/><path d="M75.649 116.955c2.226-1.981 2.738-5.022 1.146-6.796-1.591-1.771-4.686-1.601-6.91.38-2.227 1.981-2.739 5.025-1.147 6.796 1.592 1.772 4.686 1.602 6.91-.38zM108.202 117.274c1.591-1.773 1.079-4.817-1.147-6.798-2.224-1.981-5.319-2.149-6.911-.378-1.592 1.772-1.08 4.815 1.147 6.796 2.224 1.982 5.319 2.152 6.911.38zM64.055 176.212c-.97.063-1.925.247-2.893.338-1.054.098-2.05-.04-3.09-.084a6.508 6.508 0 00-1.382.176c-.62.107-1.252.078-1.872.176-.447.072-.896.116-1.336.21a8.282 8.282 0 01-1.398.292c-.723.04-1.632-.092-1.573-1.033.02-.283.093-.266.371-.327.56-.124 1.143-.191 1.687-.349 2.015-.573 4.04-1.171 6.114-1.484.58-.092 1.161-.155 1.745-.188.877-.04 1.668.132 2.53-.114a18.76 18.76 0 003.626-1.557c.58-.307 1.158-.615 1.729-.932.196-.128.38-.273.548-.432.88-.706 2.193-.408 3.213-.695 1.132-.321 2.344-.433 3.504-.645.647-.119 1.307-.157 1.93-.375a41.465 41.465 0 004.742-2.034 20.607 20.607 0 002.471-1.503c.19-.13.504-.325.599-.548.036-.174.04-.352.015-.529 0-1.383.016-2.756.09-4.139a15.38 15.38 0 00-.122-2.97c-.036-.262 0-.673-.089-.919-.385.21-.754.462-1.161.649a7.41 7.41 0 01-1.543.419c-.675.154-1.455.028-2.109.246-.21.069-.194.157-.421.304l-2.142.63-3.274.802c-1.97.48-3.854 1.196-5.87 1.534-2.015.338-4.132.21-6.168.588-1.75.327-3.495 1.026-5.298.911-.632-.04-1.967-.347-2.108-1.142.316-.153.698-.139 1.037-.189.62-.113 1.23-.273 1.824-.481 1.096-.346 2.108-.667 3.278-.774 1.17-.107 2.298.014 3.449 0a9.967 9.967 0 001.22-.095c1.708-.237 3.327-.879 4.906-1.54.704-.296 1.52-.531 2.153-.959.538-.364 1.022-.84 1.665-1.027a6.449 6.449 0 011.476-.197c.422-.023.81-.277 1.265-.283.455-.007.945 0 1.423-.047 1.602-.174 2.85-1.425 4.273-2.082a1.7 1.7 0 01.844-.235c.257.009.512 0 .767-.027a.989.989 0 00.396-.256c.255-.313.264-.892.291-1.26.11-1.358.525-2.657.888-3.962.124-.42.139-.865.044-1.291a4.148 4.148 0 01-.088-.72c0-.21.105-.611 0-.766-.228-.334-.886.052-1.086.241-.078.082-.15.17-.211.265-1.824.283-3.67.296-5.504.419-.71.038-1.426.005-2.132-.098-1.197-.16-2.395-.315-3.584-.479a17.74 17.74 0 01-3.822-.951c-1.231-.461-2.319-1.158-3.5-1.74-1.37-.678-2.803-.728-4.292-.936-1.526-.21-3.03-.573-4.556-.801a17.903 17.903 0 00-3.984-.227 26.828 26.828 0 00-3.43.504c-1.046.27-2.094.524-3.148.761l-1.007.135a77.183 77.183 0 01-1.518-.086c-1.39 0-2.625.42-3.924.839-.244.078-1.575.38-1.054-.254.078.07.154.013.226-.168.249-.205.491-.415.727-.629.183-.208.396-.388.633-.533 1.98-.892 4.216-1.415 6.37-1.7 5.73-.762 11.53.264 17.12 1.492l1.106.243c2.789.615 5.58 1.23 8.41 1.638 1.78.266 3.577.413 5.377.44 1.577.013 3.178.032 4.7-.42.71-.209 1.265-.551 1.914-.9.434-.235.881-.432 1.322-.655a1.07 1.07 0 01.558-.21c.06.21-.01.485 0 .71.022.231.066.457.129.68.436 1.469 1.054 2.842 1.122 4.408.035.99-.085 1.973-.138 2.961-.048.957-.21 1.91-.21 2.867 0 .111.05.349-.015.451-.105.166-.434.175-.588.256-.616.33-1.16.93-1.655 1.424.438-.282.759-.699 1.246-.897a3.752 3.752 0 011.176-.222c.255-.023.508-.03.763-.021.211.096.102.535.095.709-.031.653-.152 1.289-.234 1.933-.286 2.213-.139 4.534-.027 6.755.027.982.105 1.964.234 2.938.05.317.107.63.133.953.017.204-.02.407-.106.592a1.79 1.79 0 01-.5.781c-.444.369-1.085.787-1.652.894.095.098.369-.021.554-.061.875-.189 1.784-.063 2.67-.222a9.295 9.295 0 011.133-.21 1.2 1.2 0 01.447 0c.257.132.24.86.266 1.099a47.05 47.05 0 01.268 4.324c.031 2.118-.173 4.232-.31 6.343-.072 1.094-.082 2.179-.09 3.272a37.097 37.097 0 01-.294 3.743 28.73 28.73 0 00-.232 2.856c.028.393.017.789-.033 1.18-.22.052-.447.052-.667 0-.105-.04-.164-.181-.293-.235l-1.005-.061c-.633.021-1.28.105-1.898.063-.185-.015-.356-.086-.542-.109-.546-.07-1.157.023-1.707.059-.702.044-1.396.109-2.083.191-6.023.724-11.78 2.802-17.47 4.804-1.03.361-2.06.724-3.093 1.081-3.414 1.175-6.856 2.283-10.381 3.079-.884.199-1.771.38-2.66.535-.694.122-1.39.275-2.096.193-1.231-.145-2.463-.044-3.696-.031-.491.008-.984-.009-1.476-.048-.68-.063-1.343.199-2.024.144-.261-.021-1.355-.224-1.206-.73.049-.162.448-.349.57-.42.257-.153.525-.287.8-.405 1.055-.479 2.023-1.089 3.096-1.499 1.52-.579 3.124-.929 4.655-1.469 2.108-.747 4.062-1.872 5.991-3.005a92.75 92.75 0 016.377-3.405c.69-.334 1.396-.594 2.109-.892a14.993 14.993 0 002.14-1.203 28.184 28.184 0 013.417-1.836c1.189-.544 2.355-1.02 3.66-1.167 1.401-.158 2.825-.21 4.216-.519a25.78 25.78 0 004.318-1.311c1.444-.601 2.74-1.583 4.216-2.068.472-.155 1.206-.42 1.714-.262.059-.493.114-.985.145-1.48.093-1.4.211-2.798.355-4.198a3.88 3.88 0 00-.051-1.446 4.112 4.112 0 01-.122-.575 3.977 3.977 0 01-.021-.42c0-.27 0-.541.02-.812 0-.092.053-.283 0-.367-.21-.305-1.475.317-1.671.392a15.52 15.52 0 01-2.975.976 22.807 22.807 0 01-3.301.281c-1.295.049-2.602.07-3.894.191-1.25.118-2.441.492-3.639.84a35.646 35.646 0 01-7.867 1.373z" fill="#393BC4"/><path d="M71.766 193.414c.532 5.458 1.75 12.046 6.513 14.437 3.508 1.758 7.72.51 10.494-1.243 3.3-2.086 5.857-5.279 8.623-8.929l3.461 2.601c-3.025 3.988-5.848 7.497-9.76 9.97-2.874 1.817-6.047 2.749-9.049 2.749a12.69 12.69 0 01-5.717-1.295c-6.732-3.375-8.292-11.819-8.878-17.874M65.953 142.174c.582-20.213 2.258-40.383 3.989-61.18.563-6.793 1.115-13.59 1.655-20.388.257-3.287.502-6.576.736-9.865.052-.745.126-1.375-.053-2.099a3.075 3.075 0 01.027-1.385c.127-.672.255-1.341.39-2.009.05-.325.12-.648.211-.965.129-.28.297-.538.498-.769.238-.298.421-.577.632-.89a1.03 1.03 0 01.542-.436c.662-.26 1.539-.399 1.876.336.356.785.534 1.64.52 2.502 0 .7-.06 1.41.075 2.099.107.552.367 1.196.276 1.769-.04.241-.257.432-.358.644a3.989 3.989 0 00-.3 1.008 12.925 12.925 0 00-.21 2.036c0 .63.138 1.286.065 1.904-.034.18-.078.358-.135.535a5.02 5.02 0 00-.108.87l-.158 2.1c-.156 2.063-.316 4.126-.48 6.185-.216 2.748-.437 5.497-.665 8.245-.223 2.714-.447 5.43-.674 8.143l-.064.769c-1.758 21.127-3.46 41.606-4.005 62.113" fill="#393BC4"/><path d="M43.511 103.294a1.542 1.542 0 01-.66-.668c-.249-.506-.274-.854-.82-1.028-1.17-.376-2.31-.84-3.411-1.39-1.223-.602-2.42-1.368-3.7-1.834-1.44-.525-2.717-.743-4.256-.54-3.013.395-6.021.494-9.013 1.085a21.502 21.502 0 00-4.638 1.489 16.59 16.59 0 00-2.015 1.28c-.342.235-.683.468-1.03.699a180.796 180.796 0 01-3.29 2.151c-.565.363-1.53 1.104-2.218.63-1.13-.793-.306-2.638 0-3.625.856-2.802 1.729-5.6 2.74-8.35 1.974-5.368 4.54-10.534 8.223-14.96 9.93-11.941 25.62-20.586 46.637-25.695 7.927-1.93 28.526-5.932 48.575-1.47 1.503.334 2.994.716 4.472 1.15a54.923 54.923 0 0111.274 4.656 42.62 42.62 0 018.975 6.618 38.126 38.126 0 016.573 8.498 38.81 38.81 0 012.355 4.927c.344.864.656 1.74.94 2.625.289.899.905 1.965.738 2.92-.055.313-.149.63-.23.938-.067.256-.151.8-.36.987-.455.409-1.128-.044-1.617-.177-.422-.115-.784-.356-1.204-.48-.864-.256-1.72-.21-2.559-.596-.749-.349-1.309-.443-2.138-.605-1.476-.292-2.698-1.165-4.147-1.47-1.589-.33-3.356-.27-4.986-.364-1.629-.095-3.181-.357-4.777-.578-1.026-.14-2.068-.15-3.092-.291-1.461-.21-2.828-.69-4.217-1.195-.79-.287-1.564-.63-2.397-.755-1.49-.24-3.162-.112-4.638 0-1.32.098-2.641.281-3.965.325-1.194.04-2.319.074-3.492.384-2.487.661-4.473 2.475-6.409 4.089-2.683 2.242-4.97 4.863-7.108 7.623-.755.976-1.523 1.95-2.21 2.976-.236.353-.38.72-.596 1.075-.106-.078-.245-.063-.342-.126-.196-.126-.322-.327-.554-.434-.736-.343-1.542-.55-2.29-.907-.843-.397-1.337-1.024-2.049-1.583-.632-.49-1.444-.804-2.108-1.223-.812-.506-1.522-1.144-2.427-1.482a25.897 25.897 0 00-2.74-.857c-.844-.21-1.702-.176-2.556-.172-.8 0-1.585-.144-2.382-.199-1.412-.1-2.903.1-4.317.136-3.78.095-7.7.79-11.092 2.506-3.33 1.68-5.597 5.017-7.855 7.867-.679.859-1.591 1.66-2.165 2.611-.489.81-.822 1.738-1.653 2.28-.48.314-1.163.858-1.686.589a1.113 1.113 0 01-.093-.06zM128.012.201c-.179.309-.246.762-.462 1.05-.801 1.05-1.964 1.723-2.717 2.823a14.276 14.276 0 01-1.212 1.792c-.43.42-.915.78-1.444 1.067a1.67 1.67 0 00-.896.793c-.607 1.148-1 2.554-1.406 3.778a6.784 6.784 0 00-.369 2.676c.154 1.826 1.425 2.65 3.175 2.1 1.033-.324 2.266-.929 2.909-1.835.856-1.207.957-3.012 1.376-4.391.285-.94.618-1.87.844-2.825.421-1.732.573-3.552.681-5.325.04-.649.017-1.348-.34-1.904a.75.75 0 00-.139.201zM52.244 17.629c-.116.336-.097.795-.257 1.114-.59 1.176-1.608 2.055-2.144 3.274a14.25 14.25 0 01-.856 1.986 6.589 6.589 0 01-1.223 1.314 1.679 1.679 0 00-.731.95c-.382 1.241-.504 2.696-.675 3.989a6.765 6.765 0 00.135 2.697c.493 1.765 1.898 2.34 3.512 1.47.956-.509 2.054-1.33 2.518-2.341.615-1.344.38-3.136.533-4.567.105-.979.26-1.953.31-2.939.093-1.778-.097-3.595-.323-5.358-.082-.645-.236-1.327-.689-1.808a.785.785 0 00-.11.219zM17.452 45.61c-.18.507-.15 1.2-.392 1.678-.892 1.78-2.429 3.107-3.236 4.95a21.823 21.823 0 01-1.295 2.999c-.52.74-1.142 1.41-1.844 1.985-.534.326-.93.838-1.107 1.436-.576 1.875-.763 4.07-1.02 6.014a10.288 10.288 0 00.21 4.074c.745 2.665 2.861 3.534 5.305 2.233 1.444-.766 3.103-2.007 3.794-3.533.93-2.03.574-4.737.808-6.899.158-1.469.39-2.949.466-4.433.141-2.686-.148-5.432-.487-8.093-.125-.974-.357-2.005-1.042-2.729-.07.097-.122.204-.16.317z" fill="#393BC4"/><path d="M121.94 36.349c-.118.338-.099.796-.259 1.115-.59 1.177-1.609 2.054-2.142 3.276a14.39 14.39 0 01-.858 1.983 6.483 6.483 0 01-1.221 1.316 1.661 1.661 0 00-.731.951c-.384 1.24-.506 2.695-.677 3.988a6.837 6.837 0 00.135 2.695c.493 1.765 1.897 2.34 3.512 1.48.955-.508 2.056-1.329 2.517-2.338.616-1.346.38-3.136.536-4.57.105-.976.257-1.952.308-2.938.092-1.778-.097-3.596-.323-5.357-.082-.646-.236-1.326-.689-1.809a.784.784 0 00-.108.208zM155.854 36.25c-.118.338-.099.796-.259 1.115-.59 1.177-1.609 2.055-2.142 3.276a14.523 14.523 0 01-.858 1.986 6.528 6.528 0 01-1.221 1.314 1.661 1.661 0 00-.731.95c-.384 1.24-.506 2.695-.677 3.988a6.838 6.838 0 00.135 2.695c.493 1.766 1.897 2.343 3.512 1.47.955-.508 2.054-1.329 2.518-2.339.615-1.345.379-3.135.535-4.569.105-.976.257-1.952.308-2.938.093-1.778-.097-3.596-.323-5.357-.082-.646-.236-1.326-.689-1.81a.848.848 0 00-.108.22zM5.964 113.07c-.118.338-.1.796-.26 1.115-.59 1.177-1.608 2.055-2.142 3.276a14.518 14.518 0 01-.858 1.986 6.524 6.524 0 01-1.22 1.314 1.661 1.661 0 00-.732.95c-.383 1.241-.506 2.695-.676 3.988a6.829 6.829 0 00.134 2.695c.494 1.766 1.898 2.343 3.513 1.47.955-.508 2.053-1.329 2.517-2.339.615-1.345.38-3.135.535-4.569.106-.976.258-1.952.308-2.938.093-1.778-.097-3.596-.322-5.357-.083-.646-.237-1.326-.69-1.809a.849.849 0 00-.107.218z" fill="#393BC4"/></svg><svg fill="none" viewBox="0 0 114 39" id="app-store" xmlns="http://www.w3.org/2000/svg"><path d="M106.683 37.584H6.524c-3.175 0-5.77-2.643-5.77-5.875V6.644C.754 3.412 3.349.77 6.524.77h100.132c.758 0 1.509.152 2.209.447.7.295 1.336.728 1.871 1.274a5.868 5.868 0 011.252 1.906c.29.713.438 1.477.438 2.248V31.71c.026 3.232-2.569 5.875-5.743 5.875z" fill="#2C2C38"/><path d="M106.685.77c.758 0 1.508.152 2.208.447.7.295 1.337.728 1.872 1.273a5.881 5.881 0 011.251 1.906c.29.713.439 1.477.439 2.249V31.71c0 .771-.149 1.535-.439 2.248a5.881 5.881 0 01-1.251 1.906 5.757 5.757 0 01-1.872 1.274 5.68 5.68 0 01-2.208.447H6.526c-3.174 0-5.77-2.643-5.77-5.875V6.645C.756 3.413 3.352.77 6.526.77h100.159zm0-.77H6.526c-1.73 0-3.39.7-4.614 1.947A6.708 6.708 0 000 6.645V31.71c0 1.762.688 3.452 1.912 4.698a6.469 6.469 0 004.614 1.947H106.66c1.731 0 3.39-.701 4.614-1.947a6.706 6.706 0 001.912-4.698V6.645C113.211 2.976 110.263 0 106.685 0z" fill="#4C4C4C"/><path d="M24.125 19.376a5.804 5.804 0 01.733-2.682 5.682 5.682 0 011.888-2.013 5.966 5.966 0 00-1.925-1.725 5.852 5.852 0 00-2.46-.737c-1.864-.23-3.628 1.103-4.61 1.103-.984 0-2.42-1.103-3.957-1.103a5.959 5.959 0 00-2.843.863 6.092 6.092 0 00-2.095 2.138c-2.041 3.72-.504 9.287 1.562 12.314.982 1.463 2.192 3.13 3.73 3.13 1.536-.102 2.09-1 3.955-1 1.865 0 2.293 1 3.956 1 1.638 0 2.62-1.462 3.629-3a10.16 10.16 0 001.638-3.464 4.881 4.881 0 01-2.37-1.883 5.022 5.022 0 01-.83-2.941zm-3.074-9.03a5.285 5.285 0 00.992-1.826c.208-.67.282-1.375.218-2.074a4.845 4.845 0 00-1.948.573 4.934 4.934 0 00-1.555 1.325 4.91 4.91 0 00-1.003 1.768 4.97 4.97 0 00-.207 2.03 4.823 4.823 0 003.503-1.796zm20.755 15.403H37.37l-1.033 3.283h-1.89l4.258-11.928h1.89l4.232 11.929h-1.89l-1.132-3.284zm-3.957-1.438h3.579l-1.79-5.284h-.1L37.85 24.31zm16.153.386c0 2.693-1.412 4.412-3.579 4.412a2.8 2.8 0 01-2.645-1.54v4.337h-1.79V20.361h1.714v1.437c.272-.49.674-.895 1.159-1.167a2.944 2.944 0 011.588-.373c2.04-.077 3.553 1.745 3.553 4.439zm-1.89 0c0-1.745-.857-2.9-2.268-2.9-1.335 0-2.268 1.155-2.268 2.9 0 1.744.957 2.899 2.268 2.899 1.41-.026 2.267-1.155 2.267-2.9zm11.237 0c0 2.693-1.411 4.412-3.578 4.412a2.802 2.802 0 01-2.646-1.54v4.337h-1.789V20.361h1.714v1.437c.272-.49.674-.894 1.158-1.166a2.947 2.947 0 011.588-.374c2.142-.077 3.553 1.745 3.553 4.439zm-1.79 0c0-1.745-.856-2.9-2.267-2.9-1.335 0-2.268 1.155-2.268 2.9 0 1.744.958 2.899 2.268 2.899 1.411-.026 2.267-1.155 2.267-2.9zm8.04.95c.1 1.153 1.234 1.923 2.847 1.923 1.511 0 2.544-.77 2.544-1.821 0-.975-.654-1.438-2.166-1.822l-1.513-.385c-2.166-.59-3.124-1.54-3.124-3.18 0-2.028 1.79-3.464 4.259-3.464 2.469 0 4.157 1.436 4.258 3.463h-1.79a2.25 2.25 0 00-.27-.823 2.21 2.21 0 00-.56-.656 2.166 2.166 0 00-1.613-.446c-1.411 0-2.369.77-2.369 1.822 0 .873.656 1.36 2.167 1.745l1.336.282c2.369.59 3.402 1.539 3.402 3.259 0 2.206-1.79 3.642-4.536 3.642-2.645 0-4.334-1.36-4.434-3.566l1.562.026zm10.96-7.39v2.027h1.613v1.437h-1.613v4.796c0 .771.277 1.053 1.033 1.053h.58v1.462a2.96 2.96 0 01-.958.102c-1.714 0-2.368-.666-2.368-2.308v-5.028H77.61V20.36h1.234v-2.027h1.714v-.077zm2.645 6.44c0-2.694 1.613-4.413 4.058-4.413 2.468 0 4.056 1.745 4.056 4.413 0 2.796-1.612 4.412-4.056 4.412-2.545 0-4.058-1.719-4.058-4.412zm6.325 0c0-1.924-.858-2.976-2.267-2.976-1.412 0-2.269 1.052-2.269 2.976s.858 2.976 2.269 2.976c1.41 0 2.267-1.155 2.267-2.976zm3.2-4.439h1.713v1.54a2.08 2.08 0 01.777-1.15c.381-.28.847-.418 1.315-.39.278 0 .48 0 .58.102v1.643c-.252-.102-.504-.128-.757-.102a1.742 1.742 0 00-1.245.47 1.81 1.81 0 00-.569 1.223c0 .102 0 .204.026.307v5.182h-1.84v-8.825zm12.473 6.157c-.177 1.54-1.789 2.694-3.679 2.694-2.47 0-4.057-1.745-4.057-4.412 0-2.668 1.512-4.516 3.956-4.516 2.368 0 3.88 1.642 3.88 4.336v.59h-6.047v.077a2.338 2.338 0 00.547 1.695 2.245 2.245 0 001.57.794h.151a2.002 2.002 0 001.99-1.258h1.689zm-5.947-2.59h4.258a2.032 2.032 0 00-1.839-2.207h-.252c-.57.013-1.115.25-1.518.66a2.277 2.277 0 00-.65 1.547zM34.848 6.978c.378-.257.857-.41 1.436-.41.933 0 1.588.512 1.588 1.359 0 .692-.479 1.206-1.109 1.334v.024c.757.077 1.31.59 1.31 1.386 0 1.155-.982 1.616-1.965 1.616-.503 0-1.008-.102-1.41-.36l.175-.564c.303.18.782.335 1.21.335.807 0 1.26-.437 1.26-1.053 0-.82-.781-1.077-1.487-1.077h-.327V9.03h.328c.705 0 1.285-.463 1.285-1.027 0-.565-.379-.873-.984-.873-.403 0-.83.18-1.133.36l-.176-.513h-.001zm6.275 5.208l-.05-.514h-.026a1.45 1.45 0 01-1.184.59c-.782 0-1.185-.564-1.185-1.128 0-.95.832-1.489 2.344-1.489v-.077c0-.333-.1-.923-.882-.923-.353 0-.731.102-1.008.308l-.15-.488c.388-.236.832-.36 1.284-.358 1.184 0 1.487.82 1.487 1.615v1.489c0 .333.025.693.075.949l-.706.026zm-.1-2.027c-.782-.026-1.664.128-1.664.898 0 .461.302.692.68.692a.955.955 0 00.932-.667.745.745 0 00.051-.23v-.693zm4.106-1.95v.59H43.44v3.386h-.706V8.209h2.394zm.656 1.308c0-.512-.026-.923-.026-1.308h.63l.025.693h.025c.302-.488.757-.77 1.387-.77.932 0 1.662.82 1.662 2.027 0 1.436-.857 2.13-1.764 2.13-.504 0-.957-.232-1.209-.617h-.025v2.155h-.705v-4.31zm.705 1.052c0 .102.025.205.025.309.056.242.19.458.383.612.192.153.43.236.675.233.756 0 1.185-.615 1.185-1.538 0-.796-.403-1.489-1.16-1.489-.478 0-.932.36-1.083.898a1.29 1.29 0 00-.05.309v.666h.025zm3.98-2.36l.858 2.36c.1.257.176.565.252.821h.025c.075-.231.15-.538.252-.82l.78-2.335h.757l-1.058 2.822c-.505 1.36-.858 2.052-1.336 2.488-.353.308-.706.437-.882.462l-.177-.616c.177-.05.404-.179.63-.36.202-.152.428-.436.605-.794.026-.077.05-.128.05-.18 0-.051-.024-.102-.05-.18L49.69 8.21l.78-.001zm3.906 1.668h.328c.605 0 1.008-.283 1.008-.641 0-.36-.303-.566-.757-.566-.301 0-.68.103-.931.283l-.177-.437a2.411 2.411 0 011.31-.358c.605 0 1.31.282 1.31 1.052 0 .487-.453.82-.881.898v.025c.579.052 1.058.41 1.058 1 0 .874-.858 1.18-1.688 1.18a2.87 2.87 0 01-1.26-.306l.176-.489c.317.178.672.275 1.034.283.579 0 .957-.283.957-.693 0-.539-.554-.693-1.134-.693h-.353v-.538zm3.73-1.668v1.668c0 .64 0 1.026-.051 1.59h.025c.226-.487.378-.77.63-1.231l1.21-2.052h.831v3.976h-.68v-1.642c0-.641.025-.975.05-1.615h-.025c-.252.512-.429.82-.655 1.23-.379.616-.806 1.385-1.21 2.078h-.781V8.209h.656zm6.425 0v.564h-1.21v3.387h-.705V8.799h-1.21v-.59h3.125zm1.31 0v1.334a4.56 4.56 0 01.655-.05c.882 0 1.814.28 1.814 1.333 0 .41-.151.692-.403.923-.429.36-1.109.462-1.688.462-.403 0-.757-.025-1.058-.051V8.208h.68zm0 3.49c.125.024.302.024.528.024.53 0 1.21-.179 1.21-.846 0-.692-.705-.846-1.234-.846-.177 0-.353.025-.505.05v1.617zm5.09-3.439a7.752 7.752 0 011.234-.102c.655 0 1.738.102 1.738 1 0 .487-.377.796-.806.898v.026c.58.077.983.41.983.975 0 1.052-1.286 1.18-2.066 1.18-.429 0-.882-.026-1.108-.051V8.26h.024zm.68 3.463c.201.026.353.026.58.026.478 0 1.183-.102 1.183-.692 0-.565-.554-.693-1.234-.693h-.504v1.36h-.025zm0-1.846h.529c.529 0 1.058-.155 1.058-.616 0-.385-.327-.59-1.058-.59-.227 0-.378.025-.554.025v1.18h.025z" fill="#fff"/></svg><svg fill="none" viewBox="0 0 32 33" id="arrow" xmlns="http://www.w3.org/2000/svg"><path d="M11.5 26l9-9-9-9"/></svg><svg fill="none" viewBox="0 0 16 16" id="arrow-down" xmlns="http://www.w3.org/2000/svg"><path d="M3 6l5 5 5-5"/></svg><svg viewBox="0 0 24 24" id="basket" xmlns="http://www.w3.org/2000/svg"><path d="M9 20c0 1.1-.9 2-2 2s-1.99-.9-1.99-2S5.9 18 7 18s2 .9 2 2zm8-2c-1.1 0-1.99.9-1.99 2s.89 2 1.99 2 2-.9 2-2-.9-2-2-2zm.396-5a2 2 0 001.952-1.566L21 5H7V4a2 2 0 00-2-2H3v2h2v11a2 2 0 002 2h12a2 2 0 00-2-2H7v-2h10.396z"/></svg><svg viewBox="0 0 24 24" id="card-favorites" xmlns="http://www.w3.org/2000/svg"><path d="M11.324 19.745h0l-.005-.004-.11-.096-.002-.002c-2.645-2.307-4.745-4.143-6.18-5.857-1.422-1.699-2.077-3.146-2.024-4.663A4.213 4.213 0 014.89 5.79h0c2.17-1.426 4.886-.776 6.36.887l.749.844.748-.844c1.477-1.665 4.19-2.32 6.357-.888l.003.001a4.213 4.213 0 011.889 3.334h0c.056 1.51-.592 2.951-2.005 4.645-1.425 1.709-3.512 3.54-6.141 5.842l-.057.05-.004.003-.096.083h0l-.003.003a1.051 1.051 0 01-1.367-.005z" stroke="#FF8A65" stroke-width="2"/></svg><svg fill="none" viewBox="0 0 38 16" id="developer" xmlns="http://www.w3.org/2000/svg"><path d="M17.778 4.589c.788 0 1.472.145 2.052.435.589.28 1.037.684 1.345 1.21.317.525.476 1.14.476 1.847v.136c0 .707-.159 1.327-.476 1.862a3.205 3.205 0 01-1.345 1.223c-.58.28-1.264.421-2.052.421-.96 0-1.753-.249-2.378-.747l-.054.584H13.51V2.102h1.97v3.18c.635-.462 1.4-.693 2.297-.693zm1.835 3.492c0-.534-.186-.951-.558-1.25-.37-.299-.892-.448-1.562-.448-.426 0-.82.068-1.182.203-.354.136-.63.322-.83.558v2.01c.209.236.49.427.843.572a3.23 3.23 0 001.169.203c.67 0 1.191-.15 1.563-.448.37-.299.557-.72.557-1.264v-.136zM12.334 4.752v1.74h-1.522c-.852 0-1.45.212-1.794.638v4.43H7.06V4.752h1.835l.054.625c.57-.417 1.277-.625 2.12-.625h1.264zM5.093 2.646v8.914H3.041V2.646h2.052zM30.718 11.723c-1.277 0-2.274-.2-2.99-.598-.706-.408-1.06-.983-1.06-1.726v-.068h1.89V9.4c0 .254.172.44.516.558.344.108.901.163 1.671.163 1.268 0 1.903-.182 1.903-.544v-.068c0-.136-.082-.24-.245-.312-.163-.073-.457-.127-.883-.163l-1.753-.177c-1.006-.1-1.74-.308-2.202-.625-.462-.317-.693-.766-.693-1.346V6.75c0-.68.335-1.21 1.006-1.59.68-.38 1.622-.571 2.826-.571 1.25 0 2.21.2 2.881.598.67.398 1.006.974 1.006 1.726v.081h-1.889v-.081c0-.254-.163-.435-.49-.544-.316-.118-.837-.177-1.562-.177-.589 0-1.042.041-1.359.123-.317.081-.476.199-.476.353v.082c0 .135.073.24.218.312.154.073.403.127.747.163l1.78.177c1.07.109 1.844.321 2.324.638.49.318.734.775.734 1.373v.136c0 .688-.344 1.223-1.033 1.603-.688.38-1.644.571-2.867.571z" fill="#1F5DEF"/><path d="M22.935 2.06h1.9v1.9h-1.9v-1.9z" fill="#0BF"/><path d="M24.835 4.72v6.84h-1.9V4.72h1.9z" fill="#1F5DEF"/></svg><svg fill="none" viewBox="0 0 25 24" id="favorites" xmlns="http://www.w3.org/2000/svg"><path d="M11.824 19.745h0l-.005-.004-.11-.096-.002-.002c-2.645-2.307-4.745-4.143-6.18-5.857-1.422-1.699-2.077-3.146-2.024-4.663A4.213 4.213 0 015.39 5.79h0c2.17-1.426 4.886-.776 6.36.887l.749.844.748-.844c1.477-1.665 4.19-2.32 6.357-.888l.003.001a4.213 4.213 0 011.889 3.334h0c.056 1.51-.592 2.951-2.005 4.645-1.425 1.709-3.512 3.54-6.141 5.842l-.057.05-.004.003-.096.083h0l-.003.003a1.051 1.051 0 01-1.367-.005z" fill="#FF8A65" stroke="#FF8A65" stroke-width="2"/></svg><svg fill="none" viewBox="0 0 128 38" id="google-play" xmlns="http://www.w3.org/2000/svg"><path d="M120.181 37.213H6.878c-3.364 0-6.12-2.77-6.12-6.172V6.911C.758 3.53 3.514.762 6.904.762h113.301c3.39 0 6.146 2.77 6.146 6.172v24.131c-.025 3.378-2.782 6.147-6.17 6.147z" fill="#2C2C38"/><path d="M120.181.763c3.389 0 6.146 2.77 6.146 6.172v24.13c0 3.404-2.757 6.173-6.146 6.173H6.879C3.515 37.213.76 34.444.76 31.04V6.91C.759 3.53 3.515.762 6.905.762H120.18zm0-.762H6.879C3.085 0 0 3.1 0 6.935v24.13C0 34.877 3.086 38 6.905 38h113.302c3.793 0 6.904-3.099 6.904-6.934V6.934c-.025-3.834-3.136-6.933-6.93-6.933z" fill="#4C4C4C"/><path d="M62.62 20.703c-2.199-.051-4.02 1.701-4.07 3.91v.179c-.026 2.235 1.77 4.089 4.02 4.089h.05c2.202.05 4.023-1.702 4.073-3.911v-.178a3.941 3.941 0 00-3.794-4.09h-.278zm0 6.476a2.43 2.43 0 01-1.685-.854 2.495 2.495 0 01-.59-1.813 2.526 2.526 0 01.724-1.566 2.465 2.465 0 011.552-.72 2.277 2.277 0 012.276 2.312v.152c.05 1.296-.935 2.413-2.225 2.463-.025.026-.051.026-.051.026zm-8.825-6.476c-2.2-.051-4.022 1.701-4.072 3.91v.179c-.026 2.235 1.77 4.089 4.021 4.089h.051c2.2.05 4.021-1.702 4.072-3.911v-.178a3.941 3.941 0 00-3.795-4.09h-.277zm0 6.476a2.43 2.43 0 01-1.686-.854 2.495 2.495 0 01-.59-1.813 2.526 2.526 0 01.724-1.566 2.465 2.465 0 011.552-.72 2.278 2.278 0 012.277 2.312v.152c.05 1.296-.936 2.413-2.226 2.463-.026.026-.025.026-.05.026zm-10.521-5.257v1.727h4.072a3.524 3.524 0 01-.96 2.184c-.414.41-.905.732-1.444.945a4.26 4.26 0 01-1.693.3c-2.428.026-4.426-1.93-4.452-4.394v-.178a4.48 4.48 0 014.4-4.573h.077c1.164 0 2.276.458 3.136 1.245l1.24-1.245a6.1 6.1 0 00-4.275-1.727c-3.465.026-6.272 2.82-6.348 6.3.076 3.48 2.883 6.274 6.348 6.299a5.398 5.398 0 002.377-.403 5.46 5.46 0 001.973-1.4 5.7 5.7 0 001.518-3.988 2.87 2.87 0 00-.101-1.041l-5.868-.051zm43.044 1.346a3.704 3.704 0 00-1.3-1.837 3.628 3.628 0 00-2.114-.728c-2.099 0-3.819 1.726-3.794 3.86v.254a4.035 4.035 0 001.085 2.853c.358.38.785.684 1.259.897.474.212.984.328 1.502.34h.126a3.792 3.792 0 001.89-.462 3.851 3.851 0 001.423-1.341l-1.341-.966a2.28 2.28 0 01-1.998 1.143c-.86.051-1.644-.457-1.998-1.244l5.413-2.286-.153-.483zm-5.487 1.346c-.05-1.219.885-2.26 2.099-2.388.307-.014.612.06.88.212.27.153.49.379.638.652l-3.617 1.524zM76.379 28.5h1.796V16.613h-1.796V28.5zm-2.857-6.934a3.244 3.244 0 00-2.176-.965 4.096 4.096 0 00-3.895 4.089c-.006.52.09 1.035.28 1.518.192.482.476.921.836 1.292a3.846 3.846 0 002.754 1.178h.026a2.7 2.7 0 002.1-.965h.1v.583a2.148 2.148 0 01-1.948 2.363 2.1 2.1 0 01-1.357-.32 2.144 2.144 0 01-.868-1.102l-1.518.66c.302.71.803 1.316 1.442 1.74a3.86 3.86 0 002.15.648c2.099 0 3.794-1.244 3.794-4.191V20.88h-1.695l-.025.685zm-2.075 5.613a2.43 2.43 0 01-1.685-.854 2.493 2.493 0 01.134-3.379 2.465 2.465 0 011.552-.72 2.235 2.235 0 011.579.735 2.293 2.293 0 01.597 1.653v.102a2.28 2.28 0 01-2.1 2.463h-.076zm23.116-10.566H90.29v11.913h1.796V24.03h2.454a3.712 3.712 0 003.894-3.53 3.756 3.756 0 00-.956-2.695 3.685 3.685 0 00-2.56-1.216c-.1 0-.228 0-.354.025zm.102 5.69H92.11v-4.09h2.555c1.112 0 2.048.89 2.099 2.007a2.188 2.188 0 01-.644 1.461c-.39.387-.91.609-1.455.621zm12.19-1.702a3.183 3.183 0 00-1.841.414 3.241 3.241 0 00-1.295 1.39l1.618.66c.161-.285.399-.517.686-.67.286-.153.61-.22.933-.194.448-.04.896.094 1.248.378.353.284.586.694.649 1.146v.102a3.73 3.73 0 00-1.796-.483c-1.72 0-3.414.965-3.414 2.668.076 1.548 1.365 2.742 2.883 2.666h.05c.444.015.883-.081 1.28-.28.398-.2.74-.497.997-.863h.101v.965h1.72V23.93c-.177-1.956-1.872-3.455-3.819-3.328zm-.203 6.578c-.581 0-1.416-.28-1.416-1.04 0-.967 1.038-1.245 1.897-1.245.561-.001 1.114.129 1.618.38a2.243 2.243 0 01-2.099 1.905zm10.598-6.298l-1.999 5.13h-.101l-2.099-5.13h-1.897l3.136 7.238-1.796 3.988h1.796l4.831-11.226h-1.871zm-17.198 7.62h1.795V16.612h-1.795V28.5zM41.706 11.964h.607v1.626h-.557v-1.093H37.71v1.093h-.556v-1.626h.455c.38-.432.556-1.118.556-2.032V6.807h3.54v5.158zm-.556 0V7.342h-2.428v2.59c0 .915-.152 1.575-.456 2.007l2.884.025v.001zm4.476.635c-.81 0-1.517-.28-2.074-.864-.556-.584-.86-1.27-.86-2.083 0-.813.278-1.524.86-2.083.556-.583 1.264-.863 2.074-.863.81 0 1.518.279 2.074.863.556.559.86 1.27.86 2.083 0 .813-.279 1.524-.86 2.083a2.788 2.788 0 01-2.074.863zm0-.559c.682 0 1.24-.229 1.694-.685.456-.458.683-1.042.683-1.703 0-.66-.228-1.22-.683-1.702a2.317 2.317 0 00-1.694-.711c-.683 0-1.24.229-1.695.711-.455.458-.683 1.016-.683 1.702 0 .66.229 1.245.683 1.702.455.457 1.012.686 1.695.686zm4.4-.305c-.556-.559-.834-1.27-.834-2.083 0-.813.278-1.524.835-2.083.556-.558 1.264-.863 2.123-.863 1.038 0 1.974.533 2.455 1.397l-.507.305c-.354-.686-1.113-1.143-1.947-1.143-.708 0-1.29.229-1.72.685a2.407 2.407 0 00-.682 1.702c0 .686.226 1.245.682 1.702.455.457 1.038.685 1.72.685.834 0 1.593-.456 1.947-1.142l.507.279c-.456.864-1.418 1.398-2.454 1.398-.86.025-1.569-.255-2.124-.839zm8.929-4.928v.534h-1.747v5.156h-.555V7.342h-1.746v-.534h4.048zm4.223 0h.581l-1.896 4.446c-.38.914-.936 1.295-1.796 1.244v-.508c.606.076.986-.153 1.24-.762l.1-.28-1.948-4.14h.583l1.644 3.506 1.492-3.506zm5.285 0v5.69h-.556V7.342h-2.909v5.156h-.558v-5.69h4.023zm4.83 0h.557v5.69h-.557V9.856H70.21v2.668h-.556V6.809h.556v2.489h3.085v-2.49zm4.35 5.792c-.809 0-1.517-.28-2.073-.864s-.86-1.27-.86-2.083c0-.813.279-1.524.86-2.083.557-.583 1.264-.863 2.074-.863.81 0 1.517.279 2.074.863.556.559.86 1.27.86 2.083 0 .813-.278 1.524-.86 2.083-.557.584-1.264.864-2.074.864zm0-.559c.683 0 1.24-.229 1.696-.685.455-.458.683-1.042.683-1.703 0-.66-.229-1.22-.683-1.702a2.317 2.317 0 00-1.695-.711c-.683 0-1.24.229-1.695.711-.455.458-.683 1.016-.683 1.702 0 .66.229 1.245.683 1.702.456.457 1.012.686 1.695.686zm10.041-1.118c0 .432-.151.813-.455 1.118a1.533 1.533 0 01-1.113.457h-2.478v-5.69h2.276c.43 0 .784.153 1.088.458.303.304.455.66.455 1.067.007.244-.05.485-.165.7a1.363 1.363 0 01-.493.519c.53.228.885.737.885 1.371zM84.22 7.342v1.982h1.72c.279 0 .48-.102.683-.28a1.046 1.046 0 000-1.423.868.868 0 00-.682-.305l-1.72.026zm1.897 4.623a.956.956 0 00.709-.306c.202-.202.303-.456.303-.736 0-.28-.101-.533-.303-.736a.96.96 0 00-.709-.306H84.22v2.11l1.897-.026z" fill="#fff"/><mask id="ia" style="mask-type:luminance" maskUnits="userSpaceOnUse" x="8" y="6" width="110" height="27"><path d="M8.229 6.194h108.8v25.933H8.229V6.194z" fill="#fff"/></mask><g mask="url(#ia)" fill-rule="evenodd" clip-rule="evenodd"><path d="M8.68 6.59c-.287.313-.451.795-.451 1.422V30.3c0 .626.164 1.109.461 1.41l.077.067L21.026 19.29v-.281L8.756 6.523l-.077.068z" fill="url(#ipaint0_linear_2031_44814)"/><path d="M25.104 23.47l-4.088-4.167v-.292l4.09-4.167.088.056 4.837 2.8c1.386.797 1.386 2.107 0 2.913l-4.837 2.801c-.002 0-.09.056-.09.056z" fill="url(#ipaint1_linear_2031_44814)"/><path d="M25.19 23.413l-4.177-4.256L8.678 31.724c.45.492 1.208.548 2.056.066l14.456-8.378z" fill="url(#ipaint2_linear_2031_44814)"/><path d="M25.19 14.902L10.736 6.535c-.847-.493-1.607-.426-2.057.067l12.334 12.556 4.179-4.256z" fill="url(#ipaint3_linear_2031_44814)"/><path opacity=".2" d="M25.106 23.324l-14.358 8.312c-.802.47-1.518.437-1.979.01l-.078.08.078.066c.462.425 1.177.459 1.98-.01l14.454-8.368-.097-.09z" fill="#2C2C38"/><path opacity=".12" d="M30.03 20.467l-4.936 2.856.088.09 4.837-2.8c.693-.403 1.033-.93 1.033-1.456-.043.481-.395.94-1.022 1.31z" fill="#2C2C38"/><path opacity=".25" d="M10.736 6.681L30.029 17.85c.627.358.978.828 1.033 1.31 0-.525-.34-1.052-1.033-1.456L10.736 6.536C9.35 5.729 8.229 6.4 8.229 8.013v.146c0-1.613 1.121-2.273 2.507-1.478z" fill="#fff"/></g><defs><linearGradient id="ipaint0_linear_2031_44814" x1="19.918" y1="7.78" x2=".254" y2="12.92" gradientUnits="userSpaceOnUse"><stop stop-color="#00A0FF"/><stop offset=".007" stop-color="#00A1FF"/><stop offset=".26" stop-color="#00BEFF"/><stop offset=".512" stop-color="#00D2FF"/><stop offset=".76" stop-color="#00DFFF"/><stop offset="1" stop-color="#00E3FF"/></linearGradient><linearGradient id="ipaint1_linear_2031_44814" x1="31.834" y1="19.154" x2="7.893" y2="19.154" gradientUnits="userSpaceOnUse"><stop stop-color="#FFE000"/><stop offset=".409" stop-color="#FFBD00"/><stop offset=".775" stop-color="orange"/><stop offset="1" stop-color="#FF9C00"/></linearGradient><linearGradient id="ipaint2_linear_2031_44814" x1="22.921" y1="21.468" x2="6.704" y2="48.228" gradientUnits="userSpaceOnUse"><stop stop-color="#FF3A44"/><stop offset="1" stop-color="#C31162"/></linearGradient><linearGradient id="ipaint3_linear_2031_44814" x1="5.57" y1="-.832" x2="12.807" y2="11.111" gradientUnits="userSpaceOnUse"><stop stop-color="#32A071"/><stop offset=".069" stop-color="#2DA771"/><stop offset=".476" stop-color="#15CF74"/><stop offset=".801" stop-color="#06E775"/><stop offset="1" stop-color="#00F076"/></linearGradient></defs></svg><svg viewBox="0 0 32 32" id="instagram" xmlns="http://www.w3.org/2000/svg"><rect width="32" height="32" rx="16"/><path d="M16 9.446h3.277c.771 0 1.157.193 1.446.289.385.193.675.29.964.578.289.29.482.579.578.964.096.29.193.675.29 1.446v6.554c0 .771-.194 1.157-.29 1.446-.193.385-.29.675-.578.964-.29.289-.579.482-.964.578-.29.096-.675.193-1.446.29h-6.554c-.771 0-1.157-.194-1.446-.29-.385-.193-.675-.29-.964-.578-.289-.29-.482-.579-.578-.964-.096-.29-.193-.675-.29-1.446V16v-3.277c0-.771.194-1.157.29-1.446.193-.385.29-.675.578-.964.29-.289.579-.482.964-.578.29-.096.675-.193 1.446-.29H16zM16 8h-3.277c-.868 0-1.446.193-1.928.386a4.209 4.209 0 00-1.446.963c-.482.482-.674.868-.963 1.446-.193.482-.29 1.06-.386 1.928v6.554c0 .868.193 1.446.386 1.928.192.482.481.964.963 1.446s.868.674 1.446.963c.482.193 1.06.29 1.928.386h6.554c.868 0 1.446-.193 1.928-.386a4.21 4.21 0 001.446-.963c.482-.482.674-.868.963-1.446.193-.482.29-1.06.386-1.928V16v-3.277c0-.868-.193-1.446-.386-1.928a4.21 4.21 0 00-.963-1.446c-.482-.482-.868-.674-1.446-.963-.482-.193-1.06-.29-1.928-.386H16z" fill="#fff"/><path d="M16 11.855A4.114 4.114 0 0011.855 16 4.114 4.114 0 0016 20.145 4.114 4.114 0 0020.145 16 4.114 4.114 0 0016 11.855zm0 6.844A2.694 2.694 0 0113.301 16 2.694 2.694 0 0116 13.301 2.694 2.694 0 0118.699 16c0 1.446-1.253 2.699-2.699 2.699zM20.241 12.723a.964.964 0 100-1.928.964.964 0 000 1.928z" fill="#fff"/></svg><svg fill="none" viewBox="0 0 88 34" id="logo" xmlns="http://www.w3.org/2000/svg"><path fill-rule="evenodd" clip-rule="evenodd" d="M2.085 27.626L1.916 2.062h5.411l.169 25.423 4.688-5.832 4.267 3.233-4.688 5.832c-3.123 3.885-9.542 1.835-9.678-3.092zM50.5 15.19l.083 12.436c.136 4.927 6.555 6.977 9.679 3.092l4.687-5.832-4.267-3.233-4.688 5.832-.081-12.295H60.9v-5.187h-5.023l-.053-7.94h-5.41l.052 7.94h-4.354v5.187h4.388zM18.031 15.207v16.445H23.5V15.207h-5.468zM80.82 15.207h5.36c0 6.753-1.17 17.382-10.258 17.382-9.05 0-10.434-10.677-10.434-17.381h5.361c0 3.232-.086 12.177 5.073 12.177 5.22 0 4.898-8.9 4.898-12.178zM32.037 15.207h-5.254v16.445H32.251c0-3.75-.322-12.177 5.07-12.177 5.374 0 4.858 8.81 4.858 12.177h5.361c0-6.65-1.212-17.5-10.36-17.38-3.718.32-4.794 2.47-5.143 3.81v-2.875z" fill="#393BC7"/><path fill-rule="evenodd" clip-rule="evenodd" d="M19.698 5.69a38.967 38.967 0 01-1.509-2.843l-4.916 2.2s2.354 5.067 4.468 6.933c.814.718 2.675 1.953 5.916.318a846.637 846.637 0 019.703-4.787l-2.252-4.528-5.897 2.903c.277-1.207.719-3.646.719-3.646l-5.349-.81a48.925 48.925 0 01-.883 4.26z" fill="#FF8A65"/></svg><svg fill="none" viewBox="0 0 24 24" id="minus" xmlns="http://www.w3.org/2000/svg"><path d="M6 12h12.5"/></svg><svg viewBox="0 0 24 24" id="orders" xmlns="http://www.w3.org/2000/svg"><path d="M17.578 4.432l-2-1.05C13.822 2.461 12.944 2 12 2s-1.822.46-3.578 1.382l-.321.169 8.923 5.099 4.016-2.01c-.646-.732-1.688-1.279-3.462-2.21m4.17 3.534l-3.998 2V13a.75.75 0 11-1.5 0v-2.286l-3.5 1.75v9.44c.718-.179 1.535-.607 2.828-1.286l2-1.05c2.151-1.129 3.227-1.693 3.825-2.708.597-1.014.597-2.277.597-4.8v-.117c0-1.893 0-3.077-.252-3.979zM11.25 21.904v-9.44l-8.998-4.5C2 8.866 2 10.05 2 11.941v.117c0 2.525 0 3.788.597 4.802.598 1.015 1.674 1.58 3.825 2.709l2 1.049c1.293.679 2.11 1.107 2.828 1.286zM2.96 6.641l9.04 4.52 3.411-1.705-8.886-5.078-.103.054c-1.773.93-2.816 1.477-3.462 2.21"/></svg><svg fill="none" viewBox="0 0 24 24" id="plus" xmlns="http://www.w3.org/2000/svg"><path d="M6 12h12.5M12.25 5.75v12.5"/></svg><svg viewBox="0 0 24 24" id="search" xmlns="http://www.w3.org/2000/svg"><path fill-rule="evenodd" clip-rule="evenodd" d="M16.621 15.172l4.244 4.244-1.414 1.415-4.24-4.24a7 7 0 111.41-1.42v.001zM16 11a5 5 0 10-10 0 5 5 0 0010 0z"/></svg><svg fill="none" viewBox="0 0 18 18" id="star" xmlns="http://www.w3.org/2000/svg"><path d="M8.524 1.464a.5.5 0 01.952 0l1.432 4.41a.5.5 0 00.476.345h4.637a.5.5 0 01.294.904L12.563 9.85a.5.5 0 00-.181.559l1.433 4.41a.5.5 0 01-.77.559L9.294 12.65a.5.5 0 00-.588 0l-3.751 2.726a.5.5 0 01-.77-.56l1.433-4.41a.5.5 0 00-.181-.558L1.685 7.123a.5.5 0 01.294-.904h4.637a.5.5 0 00.476-.346l1.432-4.41z" fill="#FFCA38"/></svg><svg fill="none" viewBox="0 0 18 18" id="star-empty" xmlns="http://www.w3.org/2000/svg"><path d="M8.524 1.464a.5.5 0 01.952 0l1.432 4.41a.5.5 0 00.476.345h4.637a.5.5 0 01.294.904L12.563 9.85a.5.5 0 00-.181.559l1.433 4.41a.5.5 0 01-.77.559L9.294 12.65a.5.5 0 00-.588 0l-3.751 2.726a.5.5 0 01-.77-.56l1.433-4.41a.5.5 0 00-.181-.558L1.685 7.123a.5.5 0 01.294-.904h4.637a.5.5 0 00.476-.346l1.432-4.41z" fill="#F5F5F7"/></svg><svg viewBox="0 0 32 32" id="telegram" xmlns="http://www.w3.org/2000/svg"><path d="M16 32c8.837 0 16-7.163 16-16S24.837 0 16 0 0 7.163 0 16s7.163 16 16 16z"/><path d="M13.067 23.333c-.518 0-.43-.195-.61-.689l-1.523-5.016 11.733-6.961" fill="#DDD"/><path d="M13.066 23.333c.4 0 .577-.183.8-.4L16 20.86l-2.661-1.605"/><path d="M13.339 19.255l6.448 4.764c.735.405 1.267.195 1.45-.684l2.624-12.368c.27-1.077-.41-1.566-1.114-1.246L7.335 15.663c-1.052.422-1.046 1.01-.192 1.27l3.955 1.235 9.156-5.776c.433-.263.83-.122.504.167" fill="#fff"/></svg><svg viewBox="0 0 24 24" id="user" xmlns="http://www.w3.org/2000/svg"><path fill-rule="evenodd" clip-rule="evenodd" d="M12 2a10 10 0 0110 10c0 5.523-4.477 10-10 10S2 17.523 2 12 6.477 2 12 2zm1 11h-2a6.001 6.001 0 00-5.518 3.64A7.99 7.99 0 0012 20a7.99 7.99 0 006.518-3.36A6.002 6.002 0 0013 13zm-1-8a3 3 0 100 6 3 3 0 000-6z"/></svg></svg>