<svg width="35" height="75" viewBox="0 0 35 75" xmlns="http://www.w3.org/2000/svg">
<path d="M17.8207 72.5622L13.9187 73.4372C13.9187 73.4372 13.6496 73.5719 13.7169 73.8411C13.7842 74.0767 14.0869 74.1103 14.0869 74.1103L19.2671 72.9324L17.9216 67.9514C17.9216 67.9514 17.787 67.7158 17.4843 67.7831C17.1815 67.8167 17.2152 68.1196 17.2152 68.1196L18.2579 71.9227C7.52764 64.5521 1.13654 52.4697 1.13654 39.5795C1.13654 20.7659 14.726 4.47644 33.4284 0.875267L33.7311 0.807968L33.6975 0.67334L33.9666 0.740631L34.1348 0.000221252L33.2938 0.168503C14.2215 3.83698 0.396527 20.4293 0.396526 39.5795C0.362886 52.7389 6.88852 65.0233 17.8207 72.5622Z"/>
</svg>
