<svg width="50" height="64" viewBox="0 0 50 64" xmlns="http://www.w3.org/2000/svg">
<path d="M12.7794 13.356C-1.18009 26.1452 -3.80381 47.0118 6.55649 62.9983L7.02741 63.7051L7.46471 63.0993L7.22924 62.931L7.33016 62.8637L7.16197 62.6281C-3.03014 46.9108 -0.440075 26.4144 13.2503 13.8945C22.6351 5.31222 35.7873 1.81204 48.5359 4.50451L45.0376 6.32189C45.0376 6.32189 44.8358 6.4902 44.9703 6.72579C45.1385 6.96138 45.4076 6.92771 45.4076 6.92771L49.9487 4.57181L47.2577 0.129253C47.2577 0.129253 47.0222 -0.0726983 46.8204 0.0282692C46.5513 0.162893 46.6522 0.432123 46.6522 0.432123L48.7041 3.79771C35.7537 1.03793 22.3324 4.60545 12.7794 13.356Z"/>
</svg>
