<svg width="32" height="32" viewBox="0 0 32 32" xmlns="http://www.w3.org/2000/svg">
<path d="M16 32C24.8366 32 32 24.8366 32 16C32 7.16344 24.8366 0 16 0C7.16344 0 0 7.16344 0 16C0 24.8366 7.16344 32 16 32Z"/>
<path d="M13.0669 23.3334C12.5486 23.3334 12.6367 23.1377 12.4579 22.6441L10.9336 17.6275L22.6669 10.6667" fill="#DDDDDD"/>
<path d="M13.0664 23.3332C13.4664 23.3332 13.6431 23.1503 13.8664 22.9332L15.9997 20.8588L13.3387 19.2542"/>
<path d="M13.3386 19.2547L19.7866 24.0185C20.5224 24.4245 21.0535 24.2143 21.2368 23.3354L23.8614 10.967C24.1301 9.88963 23.4507 9.40099 22.7468 9.72056L7.33484 15.6634C6.28283 16.0853 6.28896 16.6722 7.14308 16.9338L11.0981 18.1682L20.2545 12.3915C20.6868 12.1294 21.0835 12.2703 20.7579 12.5593" fill="white"/>
</svg>
