<svg width="22" height="22" viewBox="0 0 22 22" xmlns="http://www.w3.org/2000/svg">
<path fill-rule="evenodd" clip-rule="evenodd" d="M7.59474 2.1799C7.99773 1.8098 8.54018 1.60507 9.10188 1.60507H12.8979C13.4596 1.60507 14.002 1.8098 14.405 2.1799C14.8087 2.55063 15.0399 3.05813 15.0399 3.59217V5.0912H19.7849V7.32232H17.9495L16.6636 20.3953H5.33616L4.05026 7.32232H2.21484V5.0912H6.95985V3.59217C6.95985 3.05813 7.19104 2.55063 7.59474 2.1799ZM7.59474 2.1799C7.59473 2.1799 7.59474 2.1799 7.59474 2.1799V2.1799ZM9.34591 3.83619V5.0912H12.6539V3.83619H9.34591ZM6.44627 7.32232L7.51268 18.1642H14.4871L15.5535 7.32232H6.44627Z"/>
</svg>
